G04 #@! TF.GenerationSoftware,KiCad,Pcbnew,5.1.5+dfsg1-2build2*
G04 #@! TF.CreationDate,2021-10-27T22:54:39+10:30*
G04 #@! TF.ProjectId,xover,786f7665-722e-46b6-9963-61645f706362,rev?*
G04 #@! TF.SameCoordinates,Original*
G04 #@! TF.FileFunction,Soldermask,Bot*
G04 #@! TF.FilePolarity,Negative*
%FSLAX46Y46*%
G04 Gerber Fmt 4.6, Leading zero omitted, Abs format (unit mm)*
G04 Created by KiCad (PCBNEW 5.1.5+dfsg1-2build2) date 2021-10-27 22:54:39*
%MOMM*%
%LPD*%
G04 APERTURE LIST*
%ADD10C,0.100000*%
G04 APERTURE END LIST*
D10*
G36*
X120315878Y-118379487D02*
G01*
X120481579Y-118412447D01*
X120782042Y-118536903D01*
X121052451Y-118717585D01*
X121282415Y-118947549D01*
X121463097Y-119217958D01*
X121587553Y-119518421D01*
X121651000Y-119837391D01*
X121651000Y-120162609D01*
X121587553Y-120481579D01*
X121463097Y-120782042D01*
X121282415Y-121052451D01*
X121052451Y-121282415D01*
X120782042Y-121463097D01*
X120481579Y-121587553D01*
X120375256Y-121608702D01*
X120162611Y-121651000D01*
X119837389Y-121651000D01*
X119624744Y-121608702D01*
X119518421Y-121587553D01*
X119217958Y-121463097D01*
X118947549Y-121282415D01*
X118717585Y-121052451D01*
X118536903Y-120782042D01*
X118412447Y-120481579D01*
X118349000Y-120162609D01*
X118349000Y-119837391D01*
X118412447Y-119518421D01*
X118536903Y-119217958D01*
X118717585Y-118947549D01*
X118947549Y-118717585D01*
X119217958Y-118536903D01*
X119518421Y-118412447D01*
X119684122Y-118379487D01*
X119837389Y-118349000D01*
X120162611Y-118349000D01*
X120315878Y-118379487D01*
G37*
G36*
X30315878Y-118379487D02*
G01*
X30481579Y-118412447D01*
X30782042Y-118536903D01*
X31052451Y-118717585D01*
X31282415Y-118947549D01*
X31463097Y-119217958D01*
X31587553Y-119518421D01*
X31651000Y-119837391D01*
X31651000Y-120162609D01*
X31587553Y-120481579D01*
X31463097Y-120782042D01*
X31282415Y-121052451D01*
X31052451Y-121282415D01*
X30782042Y-121463097D01*
X30481579Y-121587553D01*
X30375256Y-121608702D01*
X30162611Y-121651000D01*
X29837389Y-121651000D01*
X29624744Y-121608702D01*
X29518421Y-121587553D01*
X29217958Y-121463097D01*
X28947549Y-121282415D01*
X28717585Y-121052451D01*
X28536903Y-120782042D01*
X28412447Y-120481579D01*
X28349000Y-120162609D01*
X28349000Y-119837391D01*
X28412447Y-119518421D01*
X28536903Y-119217958D01*
X28717585Y-118947549D01*
X28947549Y-118717585D01*
X29217958Y-118536903D01*
X29518421Y-118412447D01*
X29684122Y-118379487D01*
X29837389Y-118349000D01*
X30162611Y-118349000D01*
X30315878Y-118379487D01*
G37*
G36*
X90301000Y-119301000D02*
G01*
X87699000Y-119301000D01*
X87699000Y-116699000D01*
X90301000Y-116699000D01*
X90301000Y-119301000D01*
G37*
G36*
X99379487Y-116748996D02*
G01*
X99616253Y-116847068D01*
X99616255Y-116847069D01*
X99769569Y-116949510D01*
X99829339Y-116989447D01*
X100010553Y-117170661D01*
X100152932Y-117383747D01*
X100251004Y-117620513D01*
X100301000Y-117871861D01*
X100301000Y-118128139D01*
X100251004Y-118379487D01*
X100237351Y-118412447D01*
X100152931Y-118616255D01*
X100010553Y-118829339D01*
X99829339Y-119010553D01*
X99616255Y-119152931D01*
X99616254Y-119152932D01*
X99616253Y-119152932D01*
X99379487Y-119251004D01*
X99128139Y-119301000D01*
X98871861Y-119301000D01*
X98620513Y-119251004D01*
X98383747Y-119152932D01*
X98383746Y-119152932D01*
X98383745Y-119152931D01*
X98170661Y-119010553D01*
X97989447Y-118829339D01*
X97847069Y-118616255D01*
X97762649Y-118412447D01*
X97748996Y-118379487D01*
X97699000Y-118128139D01*
X97699000Y-117871861D01*
X97748996Y-117620513D01*
X97847068Y-117383747D01*
X97989447Y-117170661D01*
X98170661Y-116989447D01*
X98230431Y-116949510D01*
X98383745Y-116847069D01*
X98383747Y-116847068D01*
X98620513Y-116748996D01*
X98871861Y-116699000D01*
X99128139Y-116699000D01*
X99379487Y-116748996D01*
G37*
G36*
X94379487Y-116748996D02*
G01*
X94616253Y-116847068D01*
X94616255Y-116847069D01*
X94769569Y-116949510D01*
X94829339Y-116989447D01*
X95010553Y-117170661D01*
X95152932Y-117383747D01*
X95251004Y-117620513D01*
X95301000Y-117871861D01*
X95301000Y-118128139D01*
X95251004Y-118379487D01*
X95237351Y-118412447D01*
X95152931Y-118616255D01*
X95010553Y-118829339D01*
X94829339Y-119010553D01*
X94616255Y-119152931D01*
X94616254Y-119152932D01*
X94616253Y-119152932D01*
X94379487Y-119251004D01*
X94128139Y-119301000D01*
X93871861Y-119301000D01*
X93620513Y-119251004D01*
X93383747Y-119152932D01*
X93383746Y-119152932D01*
X93383745Y-119152931D01*
X93170661Y-119010553D01*
X92989447Y-118829339D01*
X92847069Y-118616255D01*
X92762649Y-118412447D01*
X92748996Y-118379487D01*
X92699000Y-118128139D01*
X92699000Y-117871861D01*
X92748996Y-117620513D01*
X92847068Y-117383747D01*
X92989447Y-117170661D01*
X93170661Y-116989447D01*
X93230431Y-116949510D01*
X93383745Y-116847069D01*
X93383747Y-116847068D01*
X93620513Y-116748996D01*
X93871861Y-116699000D01*
X94128139Y-116699000D01*
X94379487Y-116748996D01*
G37*
G36*
X84626416Y-116989879D02*
G01*
X84817592Y-117069067D01*
X84817594Y-117069068D01*
X84820485Y-117071000D01*
X84989648Y-117184031D01*
X85135969Y-117330352D01*
X85250933Y-117502408D01*
X85330121Y-117693584D01*
X85370490Y-117896534D01*
X85370490Y-118103466D01*
X85330121Y-118306416D01*
X85299853Y-118379488D01*
X85250932Y-118497594D01*
X85135969Y-118669648D01*
X84989648Y-118815969D01*
X84817594Y-118930932D01*
X84817593Y-118930933D01*
X84817592Y-118930933D01*
X84626416Y-119010121D01*
X84423466Y-119050490D01*
X84216534Y-119050490D01*
X84013584Y-119010121D01*
X83822408Y-118930933D01*
X83822407Y-118930933D01*
X83822406Y-118930932D01*
X83650352Y-118815969D01*
X83504031Y-118669648D01*
X83389068Y-118497594D01*
X83340147Y-118379488D01*
X83309879Y-118306416D01*
X83269510Y-118103466D01*
X83269510Y-117896534D01*
X83309879Y-117693584D01*
X83389067Y-117502408D01*
X83504031Y-117330352D01*
X83650352Y-117184031D01*
X83819515Y-117071000D01*
X83822406Y-117069068D01*
X83822408Y-117069067D01*
X84013584Y-116989879D01*
X84216534Y-116949510D01*
X84423466Y-116949510D01*
X84626416Y-116989879D01*
G37*
G36*
X71926416Y-116989879D02*
G01*
X72117592Y-117069067D01*
X72117594Y-117069068D01*
X72120485Y-117071000D01*
X72289648Y-117184031D01*
X72435969Y-117330352D01*
X72550933Y-117502408D01*
X72630121Y-117693584D01*
X72670490Y-117896534D01*
X72670490Y-118103466D01*
X72630121Y-118306416D01*
X72599853Y-118379488D01*
X72550932Y-118497594D01*
X72435969Y-118669648D01*
X72289648Y-118815969D01*
X72117594Y-118930932D01*
X72117593Y-118930933D01*
X72117592Y-118930933D01*
X71926416Y-119010121D01*
X71723466Y-119050490D01*
X71516534Y-119050490D01*
X71313584Y-119010121D01*
X71122408Y-118930933D01*
X71122407Y-118930933D01*
X71122406Y-118930932D01*
X70950352Y-118815969D01*
X70804031Y-118669648D01*
X70689068Y-118497594D01*
X70640147Y-118379488D01*
X70609879Y-118306416D01*
X70569510Y-118103466D01*
X70569510Y-117896534D01*
X70609879Y-117693584D01*
X70689067Y-117502408D01*
X70804031Y-117330352D01*
X70950352Y-117184031D01*
X71119515Y-117071000D01*
X71122406Y-117069068D01*
X71122408Y-117069067D01*
X71313584Y-116989879D01*
X71516534Y-116949510D01*
X71723466Y-116949510D01*
X71926416Y-116989879D01*
G37*
G36*
X65050490Y-119050490D02*
G01*
X62949510Y-119050490D01*
X62949510Y-116949510D01*
X65050490Y-116949510D01*
X65050490Y-119050490D01*
G37*
G36*
X66846416Y-116989879D02*
G01*
X67037592Y-117069067D01*
X67037594Y-117069068D01*
X67040485Y-117071000D01*
X67209648Y-117184031D01*
X67355969Y-117330352D01*
X67470933Y-117502408D01*
X67550121Y-117693584D01*
X67590490Y-117896534D01*
X67590490Y-118103466D01*
X67550121Y-118306416D01*
X67519853Y-118379488D01*
X67470932Y-118497594D01*
X67355969Y-118669648D01*
X67209648Y-118815969D01*
X67037594Y-118930932D01*
X67037593Y-118930933D01*
X67037592Y-118930933D01*
X66846416Y-119010121D01*
X66643466Y-119050490D01*
X66436534Y-119050490D01*
X66233584Y-119010121D01*
X66042408Y-118930933D01*
X66042407Y-118930933D01*
X66042406Y-118930932D01*
X65870352Y-118815969D01*
X65724031Y-118669648D01*
X65609068Y-118497594D01*
X65560147Y-118379488D01*
X65529879Y-118306416D01*
X65489510Y-118103466D01*
X65489510Y-117896534D01*
X65529879Y-117693584D01*
X65609067Y-117502408D01*
X65724031Y-117330352D01*
X65870352Y-117184031D01*
X66039515Y-117071000D01*
X66042406Y-117069068D01*
X66042408Y-117069067D01*
X66233584Y-116989879D01*
X66436534Y-116949510D01*
X66643466Y-116949510D01*
X66846416Y-116989879D01*
G37*
G36*
X69386416Y-116989879D02*
G01*
X69577592Y-117069067D01*
X69577594Y-117069068D01*
X69580485Y-117071000D01*
X69749648Y-117184031D01*
X69895969Y-117330352D01*
X70010933Y-117502408D01*
X70090121Y-117693584D01*
X70130490Y-117896534D01*
X70130490Y-118103466D01*
X70090121Y-118306416D01*
X70059853Y-118379488D01*
X70010932Y-118497594D01*
X69895969Y-118669648D01*
X69749648Y-118815969D01*
X69577594Y-118930932D01*
X69577593Y-118930933D01*
X69577592Y-118930933D01*
X69386416Y-119010121D01*
X69183466Y-119050490D01*
X68976534Y-119050490D01*
X68773584Y-119010121D01*
X68582408Y-118930933D01*
X68582407Y-118930933D01*
X68582406Y-118930932D01*
X68410352Y-118815969D01*
X68264031Y-118669648D01*
X68149068Y-118497594D01*
X68100147Y-118379488D01*
X68069879Y-118306416D01*
X68029510Y-118103466D01*
X68029510Y-117896534D01*
X68069879Y-117693584D01*
X68149067Y-117502408D01*
X68264031Y-117330352D01*
X68410352Y-117184031D01*
X68579515Y-117071000D01*
X68582406Y-117069068D01*
X68582408Y-117069067D01*
X68773584Y-116989879D01*
X68976534Y-116949510D01*
X69183466Y-116949510D01*
X69386416Y-116989879D01*
G37*
G36*
X77750490Y-119050490D02*
G01*
X75649510Y-119050490D01*
X75649510Y-116949510D01*
X77750490Y-116949510D01*
X77750490Y-119050490D01*
G37*
G36*
X79546416Y-116989879D02*
G01*
X79737592Y-117069067D01*
X79737594Y-117069068D01*
X79740485Y-117071000D01*
X79909648Y-117184031D01*
X80055969Y-117330352D01*
X80170933Y-117502408D01*
X80250121Y-117693584D01*
X80290490Y-117896534D01*
X80290490Y-118103466D01*
X80250121Y-118306416D01*
X80219853Y-118379488D01*
X80170932Y-118497594D01*
X80055969Y-118669648D01*
X79909648Y-118815969D01*
X79737594Y-118930932D01*
X79737593Y-118930933D01*
X79737592Y-118930933D01*
X79546416Y-119010121D01*
X79343466Y-119050490D01*
X79136534Y-119050490D01*
X78933584Y-119010121D01*
X78742408Y-118930933D01*
X78742407Y-118930933D01*
X78742406Y-118930932D01*
X78570352Y-118815969D01*
X78424031Y-118669648D01*
X78309068Y-118497594D01*
X78260147Y-118379488D01*
X78229879Y-118306416D01*
X78189510Y-118103466D01*
X78189510Y-117896534D01*
X78229879Y-117693584D01*
X78309067Y-117502408D01*
X78424031Y-117330352D01*
X78570352Y-117184031D01*
X78739515Y-117071000D01*
X78742406Y-117069068D01*
X78742408Y-117069067D01*
X78933584Y-116989879D01*
X79136534Y-116949510D01*
X79343466Y-116949510D01*
X79546416Y-116989879D01*
G37*
G36*
X82086416Y-116989879D02*
G01*
X82277592Y-117069067D01*
X82277594Y-117069068D01*
X82280485Y-117071000D01*
X82449648Y-117184031D01*
X82595969Y-117330352D01*
X82710933Y-117502408D01*
X82790121Y-117693584D01*
X82830490Y-117896534D01*
X82830490Y-118103466D01*
X82790121Y-118306416D01*
X82759853Y-118379488D01*
X82710932Y-118497594D01*
X82595969Y-118669648D01*
X82449648Y-118815969D01*
X82277594Y-118930932D01*
X82277593Y-118930933D01*
X82277592Y-118930933D01*
X82086416Y-119010121D01*
X81883466Y-119050490D01*
X81676534Y-119050490D01*
X81473584Y-119010121D01*
X81282408Y-118930933D01*
X81282407Y-118930933D01*
X81282406Y-118930932D01*
X81110352Y-118815969D01*
X80964031Y-118669648D01*
X80849068Y-118497594D01*
X80800147Y-118379488D01*
X80769879Y-118306416D01*
X80729510Y-118103466D01*
X80729510Y-117896534D01*
X80769879Y-117693584D01*
X80849067Y-117502408D01*
X80964031Y-117330352D01*
X81110352Y-117184031D01*
X81279515Y-117071000D01*
X81282406Y-117069068D01*
X81282408Y-117069067D01*
X81473584Y-116989879D01*
X81676534Y-116949510D01*
X81883466Y-116949510D01*
X82086416Y-116989879D01*
G37*
G36*
X114648228Y-115401703D02*
G01*
X114803100Y-115465853D01*
X114942481Y-115558985D01*
X115061015Y-115677519D01*
X115154147Y-115816900D01*
X115218297Y-115971772D01*
X115251000Y-116136184D01*
X115251000Y-116303816D01*
X115218297Y-116468228D01*
X115154147Y-116623100D01*
X115061015Y-116762481D01*
X114942481Y-116881015D01*
X114803100Y-116974147D01*
X114648228Y-117038297D01*
X114483816Y-117071000D01*
X114316184Y-117071000D01*
X114151772Y-117038297D01*
X113996900Y-116974147D01*
X113857519Y-116881015D01*
X113738985Y-116762481D01*
X113645853Y-116623100D01*
X113581703Y-116468228D01*
X113549000Y-116303816D01*
X113549000Y-116136184D01*
X113581703Y-115971772D01*
X113645853Y-115816900D01*
X113738985Y-115677519D01*
X113857519Y-115558985D01*
X113996900Y-115465853D01*
X114151772Y-115401703D01*
X114316184Y-115369000D01*
X114483816Y-115369000D01*
X114648228Y-115401703D01*
G37*
G36*
X107028228Y-115401703D02*
G01*
X107183100Y-115465853D01*
X107322481Y-115558985D01*
X107441015Y-115677519D01*
X107534147Y-115816900D01*
X107598297Y-115971772D01*
X107631000Y-116136184D01*
X107631000Y-116303816D01*
X107598297Y-116468228D01*
X107534147Y-116623100D01*
X107441015Y-116762481D01*
X107322481Y-116881015D01*
X107183100Y-116974147D01*
X107028228Y-117038297D01*
X106863816Y-117071000D01*
X106696184Y-117071000D01*
X106531772Y-117038297D01*
X106376900Y-116974147D01*
X106237519Y-116881015D01*
X106118985Y-116762481D01*
X106025853Y-116623100D01*
X105961703Y-116468228D01*
X105929000Y-116303816D01*
X105929000Y-116136184D01*
X105961703Y-115971772D01*
X106025853Y-115816900D01*
X106118985Y-115677519D01*
X106237519Y-115558985D01*
X106376900Y-115465853D01*
X106531772Y-115401703D01*
X106696184Y-115369000D01*
X106863816Y-115369000D01*
X107028228Y-115401703D01*
G37*
G36*
X109568228Y-115401703D02*
G01*
X109723100Y-115465853D01*
X109862481Y-115558985D01*
X109981015Y-115677519D01*
X110074147Y-115816900D01*
X110138297Y-115971772D01*
X110171000Y-116136184D01*
X110171000Y-116303816D01*
X110138297Y-116468228D01*
X110074147Y-116623100D01*
X109981015Y-116762481D01*
X109862481Y-116881015D01*
X109723100Y-116974147D01*
X109568228Y-117038297D01*
X109403816Y-117071000D01*
X109236184Y-117071000D01*
X109071772Y-117038297D01*
X108916900Y-116974147D01*
X108777519Y-116881015D01*
X108658985Y-116762481D01*
X108565853Y-116623100D01*
X108501703Y-116468228D01*
X108469000Y-116303816D01*
X108469000Y-116136184D01*
X108501703Y-115971772D01*
X108565853Y-115816900D01*
X108658985Y-115677519D01*
X108777519Y-115558985D01*
X108916900Y-115465853D01*
X109071772Y-115401703D01*
X109236184Y-115369000D01*
X109403816Y-115369000D01*
X109568228Y-115401703D01*
G37*
G36*
X112108228Y-115401703D02*
G01*
X112263100Y-115465853D01*
X112402481Y-115558985D01*
X112521015Y-115677519D01*
X112614147Y-115816900D01*
X112678297Y-115971772D01*
X112711000Y-116136184D01*
X112711000Y-116303816D01*
X112678297Y-116468228D01*
X112614147Y-116623100D01*
X112521015Y-116762481D01*
X112402481Y-116881015D01*
X112263100Y-116974147D01*
X112108228Y-117038297D01*
X111943816Y-117071000D01*
X111776184Y-117071000D01*
X111611772Y-117038297D01*
X111456900Y-116974147D01*
X111317519Y-116881015D01*
X111198985Y-116762481D01*
X111105853Y-116623100D01*
X111041703Y-116468228D01*
X111009000Y-116303816D01*
X111009000Y-116136184D01*
X111041703Y-115971772D01*
X111105853Y-115816900D01*
X111198985Y-115677519D01*
X111317519Y-115558985D01*
X111456900Y-115465853D01*
X111611772Y-115401703D01*
X111776184Y-115369000D01*
X111943816Y-115369000D01*
X112108228Y-115401703D01*
G37*
G36*
X50573228Y-112746703D02*
G01*
X50728100Y-112810853D01*
X50867481Y-112903985D01*
X50986015Y-113022519D01*
X51079147Y-113161900D01*
X51143297Y-113316772D01*
X51176000Y-113481184D01*
X51176000Y-113648816D01*
X51143297Y-113813228D01*
X51079147Y-113968100D01*
X50986015Y-114107481D01*
X50867481Y-114226015D01*
X50728100Y-114319147D01*
X50573228Y-114383297D01*
X50408816Y-114416000D01*
X50241184Y-114416000D01*
X50076772Y-114383297D01*
X49921900Y-114319147D01*
X49782519Y-114226015D01*
X49663985Y-114107481D01*
X49570853Y-113968100D01*
X49506703Y-113813228D01*
X49474000Y-113648816D01*
X49474000Y-113481184D01*
X49506703Y-113316772D01*
X49570853Y-113161900D01*
X49663985Y-113022519D01*
X49782519Y-112903985D01*
X49921900Y-112810853D01*
X50076772Y-112746703D01*
X50241184Y-112714000D01*
X50408816Y-112714000D01*
X50573228Y-112746703D01*
G37*
G36*
X53113228Y-112746703D02*
G01*
X53268100Y-112810853D01*
X53407481Y-112903985D01*
X53526015Y-113022519D01*
X53619147Y-113161900D01*
X53683297Y-113316772D01*
X53716000Y-113481184D01*
X53716000Y-113648816D01*
X53683297Y-113813228D01*
X53619147Y-113968100D01*
X53526015Y-114107481D01*
X53407481Y-114226015D01*
X53268100Y-114319147D01*
X53113228Y-114383297D01*
X52948816Y-114416000D01*
X52781184Y-114416000D01*
X52616772Y-114383297D01*
X52461900Y-114319147D01*
X52322519Y-114226015D01*
X52203985Y-114107481D01*
X52110853Y-113968100D01*
X52046703Y-113813228D01*
X52014000Y-113648816D01*
X52014000Y-113481184D01*
X52046703Y-113316772D01*
X52110853Y-113161900D01*
X52203985Y-113022519D01*
X52322519Y-112903985D01*
X52461900Y-112810853D01*
X52616772Y-112746703D01*
X52781184Y-112714000D01*
X52948816Y-112714000D01*
X53113228Y-112746703D01*
G37*
G36*
X55653228Y-112746703D02*
G01*
X55808100Y-112810853D01*
X55947481Y-112903985D01*
X56066015Y-113022519D01*
X56159147Y-113161900D01*
X56223297Y-113316772D01*
X56256000Y-113481184D01*
X56256000Y-113648816D01*
X56223297Y-113813228D01*
X56159147Y-113968100D01*
X56066015Y-114107481D01*
X55947481Y-114226015D01*
X55808100Y-114319147D01*
X55653228Y-114383297D01*
X55488816Y-114416000D01*
X55321184Y-114416000D01*
X55156772Y-114383297D01*
X55001900Y-114319147D01*
X54862519Y-114226015D01*
X54743985Y-114107481D01*
X54650853Y-113968100D01*
X54586703Y-113813228D01*
X54554000Y-113648816D01*
X54554000Y-113481184D01*
X54586703Y-113316772D01*
X54650853Y-113161900D01*
X54743985Y-113022519D01*
X54862519Y-112903985D01*
X55001900Y-112810853D01*
X55156772Y-112746703D01*
X55321184Y-112714000D01*
X55488816Y-112714000D01*
X55653228Y-112746703D01*
G37*
G36*
X58193228Y-112746703D02*
G01*
X58348100Y-112810853D01*
X58487481Y-112903985D01*
X58606015Y-113022519D01*
X58699147Y-113161900D01*
X58763297Y-113316772D01*
X58796000Y-113481184D01*
X58796000Y-113648816D01*
X58763297Y-113813228D01*
X58699147Y-113968100D01*
X58606015Y-114107481D01*
X58487481Y-114226015D01*
X58348100Y-114319147D01*
X58193228Y-114383297D01*
X58028816Y-114416000D01*
X57861184Y-114416000D01*
X57696772Y-114383297D01*
X57541900Y-114319147D01*
X57402519Y-114226015D01*
X57283985Y-114107481D01*
X57190853Y-113968100D01*
X57126703Y-113813228D01*
X57094000Y-113648816D01*
X57094000Y-113481184D01*
X57126703Y-113316772D01*
X57190853Y-113161900D01*
X57283985Y-113022519D01*
X57402519Y-112903985D01*
X57541900Y-112810853D01*
X57696772Y-112746703D01*
X57861184Y-112714000D01*
X58028816Y-112714000D01*
X58193228Y-112746703D01*
G37*
G36*
X38968228Y-112676703D02*
G01*
X39123100Y-112740853D01*
X39262481Y-112833985D01*
X39381015Y-112952519D01*
X39474147Y-113091900D01*
X39538297Y-113246772D01*
X39571000Y-113411184D01*
X39571000Y-113578816D01*
X39538297Y-113743228D01*
X39474147Y-113898100D01*
X39381015Y-114037481D01*
X39262481Y-114156015D01*
X39123100Y-114249147D01*
X38968228Y-114313297D01*
X38803816Y-114346000D01*
X38636184Y-114346000D01*
X38471772Y-114313297D01*
X38316900Y-114249147D01*
X38177519Y-114156015D01*
X38058985Y-114037481D01*
X37965853Y-113898100D01*
X37901703Y-113743228D01*
X37869000Y-113578816D01*
X37869000Y-113411184D01*
X37901703Y-113246772D01*
X37965853Y-113091900D01*
X38058985Y-112952519D01*
X38177519Y-112833985D01*
X38316900Y-112740853D01*
X38471772Y-112676703D01*
X38636184Y-112644000D01*
X38803816Y-112644000D01*
X38968228Y-112676703D01*
G37*
G36*
X36428228Y-112676703D02*
G01*
X36583100Y-112740853D01*
X36722481Y-112833985D01*
X36841015Y-112952519D01*
X36934147Y-113091900D01*
X36998297Y-113246772D01*
X37031000Y-113411184D01*
X37031000Y-113578816D01*
X36998297Y-113743228D01*
X36934147Y-113898100D01*
X36841015Y-114037481D01*
X36722481Y-114156015D01*
X36583100Y-114249147D01*
X36428228Y-114313297D01*
X36263816Y-114346000D01*
X36096184Y-114346000D01*
X35931772Y-114313297D01*
X35776900Y-114249147D01*
X35637519Y-114156015D01*
X35518985Y-114037481D01*
X35425853Y-113898100D01*
X35361703Y-113743228D01*
X35329000Y-113578816D01*
X35329000Y-113411184D01*
X35361703Y-113246772D01*
X35425853Y-113091900D01*
X35518985Y-112952519D01*
X35637519Y-112833985D01*
X35776900Y-112740853D01*
X35931772Y-112676703D01*
X36096184Y-112644000D01*
X36263816Y-112644000D01*
X36428228Y-112676703D01*
G37*
G36*
X41508228Y-112676703D02*
G01*
X41663100Y-112740853D01*
X41802481Y-112833985D01*
X41921015Y-112952519D01*
X42014147Y-113091900D01*
X42078297Y-113246772D01*
X42111000Y-113411184D01*
X42111000Y-113578816D01*
X42078297Y-113743228D01*
X42014147Y-113898100D01*
X41921015Y-114037481D01*
X41802481Y-114156015D01*
X41663100Y-114249147D01*
X41508228Y-114313297D01*
X41343816Y-114346000D01*
X41176184Y-114346000D01*
X41011772Y-114313297D01*
X40856900Y-114249147D01*
X40717519Y-114156015D01*
X40598985Y-114037481D01*
X40505853Y-113898100D01*
X40441703Y-113743228D01*
X40409000Y-113578816D01*
X40409000Y-113411184D01*
X40441703Y-113246772D01*
X40505853Y-113091900D01*
X40598985Y-112952519D01*
X40717519Y-112833985D01*
X40856900Y-112740853D01*
X41011772Y-112676703D01*
X41176184Y-112644000D01*
X41343816Y-112644000D01*
X41508228Y-112676703D01*
G37*
G36*
X44048228Y-112676703D02*
G01*
X44203100Y-112740853D01*
X44342481Y-112833985D01*
X44461015Y-112952519D01*
X44554147Y-113091900D01*
X44618297Y-113246772D01*
X44651000Y-113411184D01*
X44651000Y-113578816D01*
X44618297Y-113743228D01*
X44554147Y-113898100D01*
X44461015Y-114037481D01*
X44342481Y-114156015D01*
X44203100Y-114249147D01*
X44048228Y-114313297D01*
X43883816Y-114346000D01*
X43716184Y-114346000D01*
X43551772Y-114313297D01*
X43396900Y-114249147D01*
X43257519Y-114156015D01*
X43138985Y-114037481D01*
X43045853Y-113898100D01*
X42981703Y-113743228D01*
X42949000Y-113578816D01*
X42949000Y-113411184D01*
X42981703Y-113246772D01*
X43045853Y-113091900D01*
X43138985Y-112952519D01*
X43257519Y-112833985D01*
X43396900Y-112740853D01*
X43551772Y-112676703D01*
X43716184Y-112644000D01*
X43883816Y-112644000D01*
X44048228Y-112676703D01*
G37*
G36*
X96351000Y-109751000D02*
G01*
X94649000Y-109751000D01*
X94649000Y-108049000D01*
X96351000Y-108049000D01*
X96351000Y-109751000D01*
G37*
G36*
X100748228Y-108081703D02*
G01*
X100903100Y-108145853D01*
X101042481Y-108238985D01*
X101161015Y-108357519D01*
X101254147Y-108496900D01*
X101318297Y-108651772D01*
X101351000Y-108816184D01*
X101351000Y-108983816D01*
X101318297Y-109148228D01*
X101254147Y-109303100D01*
X101161015Y-109442481D01*
X101042481Y-109561015D01*
X100903100Y-109654147D01*
X100748228Y-109718297D01*
X100583816Y-109751000D01*
X100416184Y-109751000D01*
X100251772Y-109718297D01*
X100096900Y-109654147D01*
X99957519Y-109561015D01*
X99838985Y-109442481D01*
X99745853Y-109303100D01*
X99681703Y-109148228D01*
X99649000Y-108983816D01*
X99649000Y-108816184D01*
X99681703Y-108651772D01*
X99745853Y-108496900D01*
X99838985Y-108357519D01*
X99957519Y-108238985D01*
X100096900Y-108145853D01*
X100251772Y-108081703D01*
X100416184Y-108049000D01*
X100583816Y-108049000D01*
X100748228Y-108081703D01*
G37*
G36*
X88351000Y-109751000D02*
G01*
X86649000Y-109751000D01*
X86649000Y-108049000D01*
X88351000Y-108049000D01*
X88351000Y-109751000D01*
G37*
G36*
X92748228Y-108081703D02*
G01*
X92903100Y-108145853D01*
X93042481Y-108238985D01*
X93161015Y-108357519D01*
X93254147Y-108496900D01*
X93318297Y-108651772D01*
X93351000Y-108816184D01*
X93351000Y-108983816D01*
X93318297Y-109148228D01*
X93254147Y-109303100D01*
X93161015Y-109442481D01*
X93042481Y-109561015D01*
X92903100Y-109654147D01*
X92748228Y-109718297D01*
X92583816Y-109751000D01*
X92416184Y-109751000D01*
X92251772Y-109718297D01*
X92096900Y-109654147D01*
X91957519Y-109561015D01*
X91838985Y-109442481D01*
X91745853Y-109303100D01*
X91681703Y-109148228D01*
X91649000Y-108983816D01*
X91649000Y-108816184D01*
X91681703Y-108651772D01*
X91745853Y-108496900D01*
X91838985Y-108357519D01*
X91957519Y-108238985D01*
X92096900Y-108145853D01*
X92251772Y-108081703D01*
X92416184Y-108049000D01*
X92583816Y-108049000D01*
X92748228Y-108081703D01*
G37*
G36*
X115251000Y-109451000D02*
G01*
X113549000Y-109451000D01*
X113549000Y-107749000D01*
X115251000Y-107749000D01*
X115251000Y-109451000D01*
G37*
G36*
X112108228Y-107781703D02*
G01*
X112263100Y-107845853D01*
X112402481Y-107938985D01*
X112521015Y-108057519D01*
X112614147Y-108196900D01*
X112678297Y-108351772D01*
X112711000Y-108516184D01*
X112711000Y-108683816D01*
X112678297Y-108848228D01*
X112614147Y-109003100D01*
X112521015Y-109142481D01*
X112402481Y-109261015D01*
X112263100Y-109354147D01*
X112108228Y-109418297D01*
X111943816Y-109451000D01*
X111776184Y-109451000D01*
X111611772Y-109418297D01*
X111456900Y-109354147D01*
X111317519Y-109261015D01*
X111198985Y-109142481D01*
X111105853Y-109003100D01*
X111041703Y-108848228D01*
X111009000Y-108683816D01*
X111009000Y-108516184D01*
X111041703Y-108351772D01*
X111105853Y-108196900D01*
X111198985Y-108057519D01*
X111317519Y-107938985D01*
X111456900Y-107845853D01*
X111611772Y-107781703D01*
X111776184Y-107749000D01*
X111943816Y-107749000D01*
X112108228Y-107781703D01*
G37*
G36*
X109568228Y-107781703D02*
G01*
X109723100Y-107845853D01*
X109862481Y-107938985D01*
X109981015Y-108057519D01*
X110074147Y-108196900D01*
X110138297Y-108351772D01*
X110171000Y-108516184D01*
X110171000Y-108683816D01*
X110138297Y-108848228D01*
X110074147Y-109003100D01*
X109981015Y-109142481D01*
X109862481Y-109261015D01*
X109723100Y-109354147D01*
X109568228Y-109418297D01*
X109403816Y-109451000D01*
X109236184Y-109451000D01*
X109071772Y-109418297D01*
X108916900Y-109354147D01*
X108777519Y-109261015D01*
X108658985Y-109142481D01*
X108565853Y-109003100D01*
X108501703Y-108848228D01*
X108469000Y-108683816D01*
X108469000Y-108516184D01*
X108501703Y-108351772D01*
X108565853Y-108196900D01*
X108658985Y-108057519D01*
X108777519Y-107938985D01*
X108916900Y-107845853D01*
X109071772Y-107781703D01*
X109236184Y-107749000D01*
X109403816Y-107749000D01*
X109568228Y-107781703D01*
G37*
G36*
X107028228Y-107781703D02*
G01*
X107183100Y-107845853D01*
X107322481Y-107938985D01*
X107441015Y-108057519D01*
X107534147Y-108196900D01*
X107598297Y-108351772D01*
X107631000Y-108516184D01*
X107631000Y-108683816D01*
X107598297Y-108848228D01*
X107534147Y-109003100D01*
X107441015Y-109142481D01*
X107322481Y-109261015D01*
X107183100Y-109354147D01*
X107028228Y-109418297D01*
X106863816Y-109451000D01*
X106696184Y-109451000D01*
X106531772Y-109418297D01*
X106376900Y-109354147D01*
X106237519Y-109261015D01*
X106118985Y-109142481D01*
X106025853Y-109003100D01*
X105961703Y-108848228D01*
X105929000Y-108683816D01*
X105929000Y-108516184D01*
X105961703Y-108351772D01*
X106025853Y-108196900D01*
X106118985Y-108057519D01*
X106237519Y-107938985D01*
X106376900Y-107845853D01*
X106531772Y-107781703D01*
X106696184Y-107749000D01*
X106863816Y-107749000D01*
X107028228Y-107781703D01*
G37*
G36*
X58796000Y-106796000D02*
G01*
X57094000Y-106796000D01*
X57094000Y-105094000D01*
X58796000Y-105094000D01*
X58796000Y-106796000D01*
G37*
G36*
X55653228Y-105126703D02*
G01*
X55808100Y-105190853D01*
X55947481Y-105283985D01*
X56066015Y-105402519D01*
X56159147Y-105541900D01*
X56223297Y-105696772D01*
X56256000Y-105861184D01*
X56256000Y-106028816D01*
X56223297Y-106193228D01*
X56159147Y-106348100D01*
X56066015Y-106487481D01*
X55947481Y-106606015D01*
X55808100Y-106699147D01*
X55653228Y-106763297D01*
X55488816Y-106796000D01*
X55321184Y-106796000D01*
X55156772Y-106763297D01*
X55001900Y-106699147D01*
X54862519Y-106606015D01*
X54743985Y-106487481D01*
X54650853Y-106348100D01*
X54586703Y-106193228D01*
X54554000Y-106028816D01*
X54554000Y-105861184D01*
X54586703Y-105696772D01*
X54650853Y-105541900D01*
X54743985Y-105402519D01*
X54862519Y-105283985D01*
X55001900Y-105190853D01*
X55156772Y-105126703D01*
X55321184Y-105094000D01*
X55488816Y-105094000D01*
X55653228Y-105126703D01*
G37*
G36*
X53113228Y-105126703D02*
G01*
X53268100Y-105190853D01*
X53407481Y-105283985D01*
X53526015Y-105402519D01*
X53619147Y-105541900D01*
X53683297Y-105696772D01*
X53716000Y-105861184D01*
X53716000Y-106028816D01*
X53683297Y-106193228D01*
X53619147Y-106348100D01*
X53526015Y-106487481D01*
X53407481Y-106606015D01*
X53268100Y-106699147D01*
X53113228Y-106763297D01*
X52948816Y-106796000D01*
X52781184Y-106796000D01*
X52616772Y-106763297D01*
X52461900Y-106699147D01*
X52322519Y-106606015D01*
X52203985Y-106487481D01*
X52110853Y-106348100D01*
X52046703Y-106193228D01*
X52014000Y-106028816D01*
X52014000Y-105861184D01*
X52046703Y-105696772D01*
X52110853Y-105541900D01*
X52203985Y-105402519D01*
X52322519Y-105283985D01*
X52461900Y-105190853D01*
X52616772Y-105126703D01*
X52781184Y-105094000D01*
X52948816Y-105094000D01*
X53113228Y-105126703D01*
G37*
G36*
X50573228Y-105126703D02*
G01*
X50728100Y-105190853D01*
X50867481Y-105283985D01*
X50986015Y-105402519D01*
X51079147Y-105541900D01*
X51143297Y-105696772D01*
X51176000Y-105861184D01*
X51176000Y-106028816D01*
X51143297Y-106193228D01*
X51079147Y-106348100D01*
X50986015Y-106487481D01*
X50867481Y-106606015D01*
X50728100Y-106699147D01*
X50573228Y-106763297D01*
X50408816Y-106796000D01*
X50241184Y-106796000D01*
X50076772Y-106763297D01*
X49921900Y-106699147D01*
X49782519Y-106606015D01*
X49663985Y-106487481D01*
X49570853Y-106348100D01*
X49506703Y-106193228D01*
X49474000Y-106028816D01*
X49474000Y-105861184D01*
X49506703Y-105696772D01*
X49570853Y-105541900D01*
X49663985Y-105402519D01*
X49782519Y-105283985D01*
X49921900Y-105190853D01*
X50076772Y-105126703D01*
X50241184Y-105094000D01*
X50408816Y-105094000D01*
X50573228Y-105126703D01*
G37*
G36*
X41508228Y-105056703D02*
G01*
X41663100Y-105120853D01*
X41802481Y-105213985D01*
X41921015Y-105332519D01*
X42014147Y-105471900D01*
X42078297Y-105626772D01*
X42111000Y-105791184D01*
X42111000Y-105958816D01*
X42078297Y-106123228D01*
X42014147Y-106278100D01*
X41921015Y-106417481D01*
X41802481Y-106536015D01*
X41663100Y-106629147D01*
X41508228Y-106693297D01*
X41343816Y-106726000D01*
X41176184Y-106726000D01*
X41011772Y-106693297D01*
X40856900Y-106629147D01*
X40717519Y-106536015D01*
X40598985Y-106417481D01*
X40505853Y-106278100D01*
X40441703Y-106123228D01*
X40409000Y-105958816D01*
X40409000Y-105791184D01*
X40441703Y-105626772D01*
X40505853Y-105471900D01*
X40598985Y-105332519D01*
X40717519Y-105213985D01*
X40856900Y-105120853D01*
X41011772Y-105056703D01*
X41176184Y-105024000D01*
X41343816Y-105024000D01*
X41508228Y-105056703D01*
G37*
G36*
X36428228Y-105056703D02*
G01*
X36583100Y-105120853D01*
X36722481Y-105213985D01*
X36841015Y-105332519D01*
X36934147Y-105471900D01*
X36998297Y-105626772D01*
X37031000Y-105791184D01*
X37031000Y-105958816D01*
X36998297Y-106123228D01*
X36934147Y-106278100D01*
X36841015Y-106417481D01*
X36722481Y-106536015D01*
X36583100Y-106629147D01*
X36428228Y-106693297D01*
X36263816Y-106726000D01*
X36096184Y-106726000D01*
X35931772Y-106693297D01*
X35776900Y-106629147D01*
X35637519Y-106536015D01*
X35518985Y-106417481D01*
X35425853Y-106278100D01*
X35361703Y-106123228D01*
X35329000Y-105958816D01*
X35329000Y-105791184D01*
X35361703Y-105626772D01*
X35425853Y-105471900D01*
X35518985Y-105332519D01*
X35637519Y-105213985D01*
X35776900Y-105120853D01*
X35931772Y-105056703D01*
X36096184Y-105024000D01*
X36263816Y-105024000D01*
X36428228Y-105056703D01*
G37*
G36*
X44651000Y-106726000D02*
G01*
X42949000Y-106726000D01*
X42949000Y-105024000D01*
X44651000Y-105024000D01*
X44651000Y-106726000D01*
G37*
G36*
X38968228Y-105056703D02*
G01*
X39123100Y-105120853D01*
X39262481Y-105213985D01*
X39381015Y-105332519D01*
X39474147Y-105471900D01*
X39538297Y-105626772D01*
X39571000Y-105791184D01*
X39571000Y-105958816D01*
X39538297Y-106123228D01*
X39474147Y-106278100D01*
X39381015Y-106417481D01*
X39262481Y-106536015D01*
X39123100Y-106629147D01*
X38968228Y-106693297D01*
X38803816Y-106726000D01*
X38636184Y-106726000D01*
X38471772Y-106693297D01*
X38316900Y-106629147D01*
X38177519Y-106536015D01*
X38058985Y-106417481D01*
X37965853Y-106278100D01*
X37901703Y-106123228D01*
X37869000Y-105958816D01*
X37869000Y-105791184D01*
X37901703Y-105626772D01*
X37965853Y-105471900D01*
X38058985Y-105332519D01*
X38177519Y-105213985D01*
X38316900Y-105120853D01*
X38471772Y-105056703D01*
X38636184Y-105024000D01*
X38803816Y-105024000D01*
X38968228Y-105056703D01*
G37*
G36*
X90605589Y-101638876D02*
G01*
X90704893Y-101658629D01*
X90845206Y-101716748D01*
X90971484Y-101801125D01*
X91078875Y-101908516D01*
X91163252Y-102034794D01*
X91221371Y-102175107D01*
X91251000Y-102324063D01*
X91251000Y-102475937D01*
X91221371Y-102624893D01*
X91163252Y-102765206D01*
X91078875Y-102891484D01*
X90971484Y-102998875D01*
X90845206Y-103083252D01*
X90704893Y-103141371D01*
X90605589Y-103161124D01*
X90555938Y-103171000D01*
X90404062Y-103171000D01*
X90354411Y-103161124D01*
X90255107Y-103141371D01*
X90114794Y-103083252D01*
X89988516Y-102998875D01*
X89881125Y-102891484D01*
X89796748Y-102765206D01*
X89738629Y-102624893D01*
X89709000Y-102475937D01*
X89709000Y-102324063D01*
X89738629Y-102175107D01*
X89796748Y-102034794D01*
X89881125Y-101908516D01*
X89988516Y-101801125D01*
X90114794Y-101716748D01*
X90255107Y-101658629D01*
X90354411Y-101638876D01*
X90404062Y-101629000D01*
X90555938Y-101629000D01*
X90605589Y-101638876D01*
G37*
G36*
X88065589Y-101638876D02*
G01*
X88164893Y-101658629D01*
X88305206Y-101716748D01*
X88431484Y-101801125D01*
X88538875Y-101908516D01*
X88623252Y-102034794D01*
X88681371Y-102175107D01*
X88711000Y-102324063D01*
X88711000Y-102475937D01*
X88681371Y-102624893D01*
X88623252Y-102765206D01*
X88538875Y-102891484D01*
X88431484Y-102998875D01*
X88305206Y-103083252D01*
X88164893Y-103141371D01*
X88065589Y-103161124D01*
X88015938Y-103171000D01*
X87864062Y-103171000D01*
X87814411Y-103161124D01*
X87715107Y-103141371D01*
X87574794Y-103083252D01*
X87448516Y-102998875D01*
X87341125Y-102891484D01*
X87256748Y-102765206D01*
X87198629Y-102624893D01*
X87169000Y-102475937D01*
X87169000Y-102324063D01*
X87198629Y-102175107D01*
X87256748Y-102034794D01*
X87341125Y-101908516D01*
X87448516Y-101801125D01*
X87574794Y-101716748D01*
X87715107Y-101658629D01*
X87814411Y-101638876D01*
X87864062Y-101629000D01*
X88015938Y-101629000D01*
X88065589Y-101638876D01*
G37*
G36*
X70845589Y-101638876D02*
G01*
X70944893Y-101658629D01*
X71085206Y-101716748D01*
X71211484Y-101801125D01*
X71318875Y-101908516D01*
X71403252Y-102034794D01*
X71461371Y-102175107D01*
X71491000Y-102324063D01*
X71491000Y-102475937D01*
X71461371Y-102624893D01*
X71403252Y-102765206D01*
X71318875Y-102891484D01*
X71211484Y-102998875D01*
X71085206Y-103083252D01*
X70944893Y-103141371D01*
X70845589Y-103161124D01*
X70795938Y-103171000D01*
X70644062Y-103171000D01*
X70594411Y-103161124D01*
X70495107Y-103141371D01*
X70354794Y-103083252D01*
X70228516Y-102998875D01*
X70121125Y-102891484D01*
X70036748Y-102765206D01*
X69978629Y-102624893D01*
X69949000Y-102475937D01*
X69949000Y-102324063D01*
X69978629Y-102175107D01*
X70036748Y-102034794D01*
X70121125Y-101908516D01*
X70228516Y-101801125D01*
X70354794Y-101716748D01*
X70495107Y-101658629D01*
X70594411Y-101638876D01*
X70644062Y-101629000D01*
X70795938Y-101629000D01*
X70845589Y-101638876D01*
G37*
G36*
X73385589Y-101638876D02*
G01*
X73484893Y-101658629D01*
X73625206Y-101716748D01*
X73751484Y-101801125D01*
X73858875Y-101908516D01*
X73943252Y-102034794D01*
X74001371Y-102175107D01*
X74031000Y-102324063D01*
X74031000Y-102475937D01*
X74001371Y-102624893D01*
X73943252Y-102765206D01*
X73858875Y-102891484D01*
X73751484Y-102998875D01*
X73625206Y-103083252D01*
X73484893Y-103141371D01*
X73385589Y-103161124D01*
X73335938Y-103171000D01*
X73184062Y-103171000D01*
X73134411Y-103161124D01*
X73035107Y-103141371D01*
X72894794Y-103083252D01*
X72768516Y-102998875D01*
X72661125Y-102891484D01*
X72576748Y-102765206D01*
X72518629Y-102624893D01*
X72489000Y-102475937D01*
X72489000Y-102324063D01*
X72518629Y-102175107D01*
X72576748Y-102034794D01*
X72661125Y-101908516D01*
X72768516Y-101801125D01*
X72894794Y-101716748D01*
X73035107Y-101658629D01*
X73134411Y-101638876D01*
X73184062Y-101629000D01*
X73335938Y-101629000D01*
X73385589Y-101638876D01*
G37*
G36*
X75925589Y-101638876D02*
G01*
X76024893Y-101658629D01*
X76165206Y-101716748D01*
X76291484Y-101801125D01*
X76398875Y-101908516D01*
X76483252Y-102034794D01*
X76541371Y-102175107D01*
X76571000Y-102324063D01*
X76571000Y-102475937D01*
X76541371Y-102624893D01*
X76483252Y-102765206D01*
X76398875Y-102891484D01*
X76291484Y-102998875D01*
X76165206Y-103083252D01*
X76024893Y-103141371D01*
X75925589Y-103161124D01*
X75875938Y-103171000D01*
X75724062Y-103171000D01*
X75674411Y-103161124D01*
X75575107Y-103141371D01*
X75434794Y-103083252D01*
X75308516Y-102998875D01*
X75201125Y-102891484D01*
X75116748Y-102765206D01*
X75058629Y-102624893D01*
X75029000Y-102475937D01*
X75029000Y-102324063D01*
X75058629Y-102175107D01*
X75116748Y-102034794D01*
X75201125Y-101908516D01*
X75308516Y-101801125D01*
X75434794Y-101716748D01*
X75575107Y-101658629D01*
X75674411Y-101638876D01*
X75724062Y-101629000D01*
X75875938Y-101629000D01*
X75925589Y-101638876D01*
G37*
G36*
X85525589Y-101638876D02*
G01*
X85624893Y-101658629D01*
X85765206Y-101716748D01*
X85891484Y-101801125D01*
X85998875Y-101908516D01*
X86083252Y-102034794D01*
X86141371Y-102175107D01*
X86171000Y-102324063D01*
X86171000Y-102475937D01*
X86141371Y-102624893D01*
X86083252Y-102765206D01*
X85998875Y-102891484D01*
X85891484Y-102998875D01*
X85765206Y-103083252D01*
X85624893Y-103141371D01*
X85525589Y-103161124D01*
X85475938Y-103171000D01*
X85324062Y-103171000D01*
X85274411Y-103161124D01*
X85175107Y-103141371D01*
X85034794Y-103083252D01*
X84908516Y-102998875D01*
X84801125Y-102891484D01*
X84716748Y-102765206D01*
X84658629Y-102624893D01*
X84629000Y-102475937D01*
X84629000Y-102324063D01*
X84658629Y-102175107D01*
X84716748Y-102034794D01*
X84801125Y-101908516D01*
X84908516Y-101801125D01*
X85034794Y-101716748D01*
X85175107Y-101658629D01*
X85274411Y-101638876D01*
X85324062Y-101629000D01*
X85475938Y-101629000D01*
X85525589Y-101638876D01*
G37*
G36*
X118564903Y-98397075D02*
G01*
X118722808Y-98462481D01*
X118792571Y-98491378D01*
X118997466Y-98628285D01*
X119171715Y-98802534D01*
X119308622Y-99007429D01*
X119402925Y-99235097D01*
X119451000Y-99476787D01*
X119451000Y-99723213D01*
X119402925Y-99964903D01*
X119308622Y-100192571D01*
X119171715Y-100397466D01*
X118997466Y-100571715D01*
X118792571Y-100708622D01*
X118792570Y-100708623D01*
X118792569Y-100708623D01*
X118564903Y-100802925D01*
X118323214Y-100851000D01*
X118076786Y-100851000D01*
X117835097Y-100802925D01*
X117607431Y-100708623D01*
X117607430Y-100708623D01*
X117607429Y-100708622D01*
X117402534Y-100571715D01*
X117228285Y-100397466D01*
X117091378Y-100192571D01*
X116997075Y-99964903D01*
X116949000Y-99723213D01*
X116949000Y-99476787D01*
X116997075Y-99235097D01*
X117091378Y-99007429D01*
X117228285Y-98802534D01*
X117402534Y-98628285D01*
X117607429Y-98491378D01*
X117677193Y-98462481D01*
X117835097Y-98397075D01*
X118076786Y-98349000D01*
X118323214Y-98349000D01*
X118564903Y-98397075D01*
G37*
G36*
X106364903Y-98397075D02*
G01*
X106522808Y-98462481D01*
X106592571Y-98491378D01*
X106797466Y-98628285D01*
X106971715Y-98802534D01*
X107108622Y-99007429D01*
X107202925Y-99235097D01*
X107251000Y-99476787D01*
X107251000Y-99723213D01*
X107202925Y-99964903D01*
X107108622Y-100192571D01*
X106971715Y-100397466D01*
X106797466Y-100571715D01*
X106592571Y-100708622D01*
X106592570Y-100708623D01*
X106592569Y-100708623D01*
X106364903Y-100802925D01*
X106123214Y-100851000D01*
X105876786Y-100851000D01*
X105635097Y-100802925D01*
X105407431Y-100708623D01*
X105407430Y-100708623D01*
X105407429Y-100708622D01*
X105202534Y-100571715D01*
X105028285Y-100397466D01*
X104891378Y-100192571D01*
X104797075Y-99964903D01*
X104749000Y-99723213D01*
X104749000Y-99476787D01*
X104797075Y-99235097D01*
X104891378Y-99007429D01*
X105028285Y-98802534D01*
X105202534Y-98628285D01*
X105407429Y-98491378D01*
X105477193Y-98462481D01*
X105635097Y-98397075D01*
X105876786Y-98349000D01*
X106123214Y-98349000D01*
X106364903Y-98397075D01*
G37*
G36*
X91848228Y-97101703D02*
G01*
X92003100Y-97165853D01*
X92142481Y-97258985D01*
X92261015Y-97377519D01*
X92354147Y-97516900D01*
X92418297Y-97671772D01*
X92451000Y-97836184D01*
X92451000Y-98003816D01*
X92418297Y-98168228D01*
X92354147Y-98323100D01*
X92261015Y-98462481D01*
X92142481Y-98581015D01*
X92003100Y-98674147D01*
X91848228Y-98738297D01*
X91683816Y-98771000D01*
X91516184Y-98771000D01*
X91351772Y-98738297D01*
X91196900Y-98674147D01*
X91057519Y-98581015D01*
X90938985Y-98462481D01*
X90845853Y-98323100D01*
X90781703Y-98168228D01*
X90749000Y-98003816D01*
X90749000Y-97836184D01*
X90781703Y-97671772D01*
X90845853Y-97516900D01*
X90938985Y-97377519D01*
X91057519Y-97258985D01*
X91196900Y-97165853D01*
X91351772Y-97101703D01*
X91516184Y-97069000D01*
X91683816Y-97069000D01*
X91848228Y-97101703D01*
G37*
G36*
X72268228Y-97101703D02*
G01*
X72423100Y-97165853D01*
X72562481Y-97258985D01*
X72681015Y-97377519D01*
X72774147Y-97516900D01*
X72838297Y-97671772D01*
X72871000Y-97836184D01*
X72871000Y-98003816D01*
X72838297Y-98168228D01*
X72774147Y-98323100D01*
X72681015Y-98462481D01*
X72562481Y-98581015D01*
X72423100Y-98674147D01*
X72268228Y-98738297D01*
X72103816Y-98771000D01*
X71936184Y-98771000D01*
X71771772Y-98738297D01*
X71616900Y-98674147D01*
X71477519Y-98581015D01*
X71358985Y-98462481D01*
X71265853Y-98323100D01*
X71201703Y-98168228D01*
X71169000Y-98003816D01*
X71169000Y-97836184D01*
X71201703Y-97671772D01*
X71265853Y-97516900D01*
X71358985Y-97377519D01*
X71477519Y-97258985D01*
X71616900Y-97165853D01*
X71771772Y-97101703D01*
X71936184Y-97069000D01*
X72103816Y-97069000D01*
X72268228Y-97101703D01*
G37*
G36*
X74808228Y-97101703D02*
G01*
X74963100Y-97165853D01*
X75102481Y-97258985D01*
X75221015Y-97377519D01*
X75314147Y-97516900D01*
X75378297Y-97671772D01*
X75411000Y-97836184D01*
X75411000Y-98003816D01*
X75378297Y-98168228D01*
X75314147Y-98323100D01*
X75221015Y-98462481D01*
X75102481Y-98581015D01*
X74963100Y-98674147D01*
X74808228Y-98738297D01*
X74643816Y-98771000D01*
X74476184Y-98771000D01*
X74311772Y-98738297D01*
X74156900Y-98674147D01*
X74017519Y-98581015D01*
X73898985Y-98462481D01*
X73805853Y-98323100D01*
X73741703Y-98168228D01*
X73709000Y-98003816D01*
X73709000Y-97836184D01*
X73741703Y-97671772D01*
X73805853Y-97516900D01*
X73898985Y-97377519D01*
X74017519Y-97258985D01*
X74156900Y-97165853D01*
X74311772Y-97101703D01*
X74476184Y-97069000D01*
X74643816Y-97069000D01*
X74808228Y-97101703D01*
G37*
G36*
X69728228Y-97101703D02*
G01*
X69883100Y-97165853D01*
X70022481Y-97258985D01*
X70141015Y-97377519D01*
X70234147Y-97516900D01*
X70298297Y-97671772D01*
X70331000Y-97836184D01*
X70331000Y-98003816D01*
X70298297Y-98168228D01*
X70234147Y-98323100D01*
X70141015Y-98462481D01*
X70022481Y-98581015D01*
X69883100Y-98674147D01*
X69728228Y-98738297D01*
X69563816Y-98771000D01*
X69396184Y-98771000D01*
X69231772Y-98738297D01*
X69076900Y-98674147D01*
X68937519Y-98581015D01*
X68818985Y-98462481D01*
X68725853Y-98323100D01*
X68661703Y-98168228D01*
X68629000Y-98003816D01*
X68629000Y-97836184D01*
X68661703Y-97671772D01*
X68725853Y-97516900D01*
X68818985Y-97377519D01*
X68937519Y-97258985D01*
X69076900Y-97165853D01*
X69231772Y-97101703D01*
X69396184Y-97069000D01*
X69563816Y-97069000D01*
X69728228Y-97101703D01*
G37*
G36*
X89308228Y-97101703D02*
G01*
X89463100Y-97165853D01*
X89602481Y-97258985D01*
X89721015Y-97377519D01*
X89814147Y-97516900D01*
X89878297Y-97671772D01*
X89911000Y-97836184D01*
X89911000Y-98003816D01*
X89878297Y-98168228D01*
X89814147Y-98323100D01*
X89721015Y-98462481D01*
X89602481Y-98581015D01*
X89463100Y-98674147D01*
X89308228Y-98738297D01*
X89143816Y-98771000D01*
X88976184Y-98771000D01*
X88811772Y-98738297D01*
X88656900Y-98674147D01*
X88517519Y-98581015D01*
X88398985Y-98462481D01*
X88305853Y-98323100D01*
X88241703Y-98168228D01*
X88209000Y-98003816D01*
X88209000Y-97836184D01*
X88241703Y-97671772D01*
X88305853Y-97516900D01*
X88398985Y-97377519D01*
X88517519Y-97258985D01*
X88656900Y-97165853D01*
X88811772Y-97101703D01*
X88976184Y-97069000D01*
X89143816Y-97069000D01*
X89308228Y-97101703D01*
G37*
G36*
X77348228Y-97101703D02*
G01*
X77503100Y-97165853D01*
X77642481Y-97258985D01*
X77761015Y-97377519D01*
X77854147Y-97516900D01*
X77918297Y-97671772D01*
X77951000Y-97836184D01*
X77951000Y-98003816D01*
X77918297Y-98168228D01*
X77854147Y-98323100D01*
X77761015Y-98462481D01*
X77642481Y-98581015D01*
X77503100Y-98674147D01*
X77348228Y-98738297D01*
X77183816Y-98771000D01*
X77016184Y-98771000D01*
X76851772Y-98738297D01*
X76696900Y-98674147D01*
X76557519Y-98581015D01*
X76438985Y-98462481D01*
X76345853Y-98323100D01*
X76281703Y-98168228D01*
X76249000Y-98003816D01*
X76249000Y-97836184D01*
X76281703Y-97671772D01*
X76345853Y-97516900D01*
X76438985Y-97377519D01*
X76557519Y-97258985D01*
X76696900Y-97165853D01*
X76851772Y-97101703D01*
X77016184Y-97069000D01*
X77183816Y-97069000D01*
X77348228Y-97101703D01*
G37*
G36*
X84228228Y-97101703D02*
G01*
X84383100Y-97165853D01*
X84522481Y-97258985D01*
X84641015Y-97377519D01*
X84734147Y-97516900D01*
X84798297Y-97671772D01*
X84831000Y-97836184D01*
X84831000Y-98003816D01*
X84798297Y-98168228D01*
X84734147Y-98323100D01*
X84641015Y-98462481D01*
X84522481Y-98581015D01*
X84383100Y-98674147D01*
X84228228Y-98738297D01*
X84063816Y-98771000D01*
X83896184Y-98771000D01*
X83731772Y-98738297D01*
X83576900Y-98674147D01*
X83437519Y-98581015D01*
X83318985Y-98462481D01*
X83225853Y-98323100D01*
X83161703Y-98168228D01*
X83129000Y-98003816D01*
X83129000Y-97836184D01*
X83161703Y-97671772D01*
X83225853Y-97516900D01*
X83318985Y-97377519D01*
X83437519Y-97258985D01*
X83576900Y-97165853D01*
X83731772Y-97101703D01*
X83896184Y-97069000D01*
X84063816Y-97069000D01*
X84228228Y-97101703D01*
G37*
G36*
X86768228Y-97101703D02*
G01*
X86923100Y-97165853D01*
X87062481Y-97258985D01*
X87181015Y-97377519D01*
X87274147Y-97516900D01*
X87338297Y-97671772D01*
X87371000Y-97836184D01*
X87371000Y-98003816D01*
X87338297Y-98168228D01*
X87274147Y-98323100D01*
X87181015Y-98462481D01*
X87062481Y-98581015D01*
X86923100Y-98674147D01*
X86768228Y-98738297D01*
X86603816Y-98771000D01*
X86436184Y-98771000D01*
X86271772Y-98738297D01*
X86116900Y-98674147D01*
X85977519Y-98581015D01*
X85858985Y-98462481D01*
X85765853Y-98323100D01*
X85701703Y-98168228D01*
X85669000Y-98003816D01*
X85669000Y-97836184D01*
X85701703Y-97671772D01*
X85765853Y-97516900D01*
X85858985Y-97377519D01*
X85977519Y-97258985D01*
X86116900Y-97165853D01*
X86271772Y-97101703D01*
X86436184Y-97069000D01*
X86603816Y-97069000D01*
X86768228Y-97101703D01*
G37*
G36*
X118564903Y-88397075D02*
G01*
X118792571Y-88491378D01*
X118997466Y-88628285D01*
X119171715Y-88802534D01*
X119171716Y-88802536D01*
X119308623Y-89007431D01*
X119402925Y-89235097D01*
X119451000Y-89476786D01*
X119451000Y-89723214D01*
X119402925Y-89964903D01*
X119342303Y-90111259D01*
X119308622Y-90192571D01*
X119171715Y-90397466D01*
X118997466Y-90571715D01*
X118800840Y-90703097D01*
X118792568Y-90708624D01*
X118730058Y-90734516D01*
X118708447Y-90746067D01*
X118689505Y-90761612D01*
X118673959Y-90780554D01*
X118662408Y-90802164D01*
X118655295Y-90825613D01*
X118652893Y-90849999D01*
X118655295Y-90874386D01*
X118662408Y-90897834D01*
X118673959Y-90919445D01*
X118689504Y-90938387D01*
X118708446Y-90953933D01*
X118730058Y-90965484D01*
X118792568Y-90991376D01*
X118792571Y-90991378D01*
X118997466Y-91128285D01*
X119171715Y-91302534D01*
X119171716Y-91302536D01*
X119308623Y-91507431D01*
X119402925Y-91735097D01*
X119451000Y-91976786D01*
X119451000Y-92223214D01*
X119402925Y-92464903D01*
X119325735Y-92651258D01*
X119308622Y-92692571D01*
X119171715Y-92897466D01*
X118997466Y-93071715D01*
X118855189Y-93166782D01*
X118792568Y-93208624D01*
X118730058Y-93234516D01*
X118708447Y-93246067D01*
X118689505Y-93261612D01*
X118673959Y-93280554D01*
X118662408Y-93302164D01*
X118655295Y-93325613D01*
X118652893Y-93349999D01*
X118655295Y-93374386D01*
X118662408Y-93397834D01*
X118673959Y-93419445D01*
X118689504Y-93438387D01*
X118708446Y-93453933D01*
X118730058Y-93465484D01*
X118792568Y-93491376D01*
X118792571Y-93491378D01*
X118997466Y-93628285D01*
X119171715Y-93802534D01*
X119308622Y-94007429D01*
X119402925Y-94235097D01*
X119451000Y-94476787D01*
X119451000Y-94723213D01*
X119402925Y-94964903D01*
X119308622Y-95192571D01*
X119171715Y-95397466D01*
X118997466Y-95571715D01*
X118792571Y-95708622D01*
X118792570Y-95708623D01*
X118792569Y-95708623D01*
X118564903Y-95802925D01*
X118323214Y-95851000D01*
X118076786Y-95851000D01*
X117835097Y-95802925D01*
X117607431Y-95708623D01*
X117607430Y-95708623D01*
X117607429Y-95708622D01*
X117402534Y-95571715D01*
X117228285Y-95397466D01*
X117091378Y-95192571D01*
X116997075Y-94964903D01*
X116949000Y-94723213D01*
X116949000Y-94476787D01*
X116997075Y-94235097D01*
X117091378Y-94007429D01*
X117228285Y-93802534D01*
X117402534Y-93628285D01*
X117607429Y-93491378D01*
X117607432Y-93491376D01*
X117669942Y-93465484D01*
X117691553Y-93453933D01*
X117710495Y-93438388D01*
X117726041Y-93419446D01*
X117737592Y-93397836D01*
X117744705Y-93374387D01*
X117747107Y-93350001D01*
X117744705Y-93325614D01*
X117737592Y-93302166D01*
X117726041Y-93280555D01*
X117710496Y-93261613D01*
X117691554Y-93246067D01*
X117669942Y-93234516D01*
X117607432Y-93208624D01*
X117544811Y-93166782D01*
X117402534Y-93071715D01*
X117228285Y-92897466D01*
X117091378Y-92692571D01*
X117074266Y-92651258D01*
X116997075Y-92464903D01*
X116949000Y-92223214D01*
X116949000Y-91976786D01*
X116997075Y-91735097D01*
X117091377Y-91507431D01*
X117228284Y-91302536D01*
X117228285Y-91302534D01*
X117402534Y-91128285D01*
X117607429Y-90991378D01*
X117607432Y-90991376D01*
X117669942Y-90965484D01*
X117691553Y-90953933D01*
X117710495Y-90938388D01*
X117726041Y-90919446D01*
X117737592Y-90897836D01*
X117744705Y-90874387D01*
X117747107Y-90850001D01*
X117744705Y-90825614D01*
X117737592Y-90802166D01*
X117726041Y-90780555D01*
X117710496Y-90761613D01*
X117691554Y-90746067D01*
X117669942Y-90734516D01*
X117607432Y-90708624D01*
X117599160Y-90703097D01*
X117402534Y-90571715D01*
X117228285Y-90397466D01*
X117091378Y-90192571D01*
X117057698Y-90111259D01*
X116997075Y-89964903D01*
X116949000Y-89723214D01*
X116949000Y-89476786D01*
X116997075Y-89235097D01*
X117091377Y-89007431D01*
X117228284Y-88802536D01*
X117228285Y-88802534D01*
X117402534Y-88628285D01*
X117607429Y-88491378D01*
X117835097Y-88397075D01*
X118076786Y-88349000D01*
X118323214Y-88349000D01*
X118564903Y-88397075D01*
G37*
G36*
X106364903Y-88397075D02*
G01*
X106592571Y-88491378D01*
X106797466Y-88628285D01*
X106971715Y-88802534D01*
X106971716Y-88802536D01*
X107108623Y-89007431D01*
X107202925Y-89235097D01*
X107251000Y-89476786D01*
X107251000Y-89723214D01*
X107202925Y-89964903D01*
X107142303Y-90111259D01*
X107108622Y-90192571D01*
X106971715Y-90397466D01*
X106797466Y-90571715D01*
X106600840Y-90703097D01*
X106592568Y-90708624D01*
X106530058Y-90734516D01*
X106508447Y-90746067D01*
X106489505Y-90761612D01*
X106473959Y-90780554D01*
X106462408Y-90802164D01*
X106455295Y-90825613D01*
X106452893Y-90849999D01*
X106455295Y-90874386D01*
X106462408Y-90897834D01*
X106473959Y-90919445D01*
X106489504Y-90938387D01*
X106508446Y-90953933D01*
X106530058Y-90965484D01*
X106592568Y-90991376D01*
X106592571Y-90991378D01*
X106797466Y-91128285D01*
X106971715Y-91302534D01*
X106971716Y-91302536D01*
X107108623Y-91507431D01*
X107202925Y-91735097D01*
X107251000Y-91976786D01*
X107251000Y-92223214D01*
X107202925Y-92464903D01*
X107125735Y-92651258D01*
X107108622Y-92692571D01*
X106971715Y-92897466D01*
X106797466Y-93071715D01*
X106655189Y-93166782D01*
X106592568Y-93208624D01*
X106530058Y-93234516D01*
X106508447Y-93246067D01*
X106489505Y-93261612D01*
X106473959Y-93280554D01*
X106462408Y-93302164D01*
X106455295Y-93325613D01*
X106452893Y-93349999D01*
X106455295Y-93374386D01*
X106462408Y-93397834D01*
X106473959Y-93419445D01*
X106489504Y-93438387D01*
X106508446Y-93453933D01*
X106530058Y-93465484D01*
X106592568Y-93491376D01*
X106592571Y-93491378D01*
X106797466Y-93628285D01*
X106971715Y-93802534D01*
X107108622Y-94007429D01*
X107202925Y-94235097D01*
X107251000Y-94476787D01*
X107251000Y-94723213D01*
X107202925Y-94964903D01*
X107108622Y-95192571D01*
X106971715Y-95397466D01*
X106797466Y-95571715D01*
X106592571Y-95708622D01*
X106592570Y-95708623D01*
X106592569Y-95708623D01*
X106364903Y-95802925D01*
X106123214Y-95851000D01*
X105876786Y-95851000D01*
X105635097Y-95802925D01*
X105407431Y-95708623D01*
X105407430Y-95708623D01*
X105407429Y-95708622D01*
X105202534Y-95571715D01*
X105028285Y-95397466D01*
X104891378Y-95192571D01*
X104797075Y-94964903D01*
X104749000Y-94723213D01*
X104749000Y-94476787D01*
X104797075Y-94235097D01*
X104891378Y-94007429D01*
X105028285Y-93802534D01*
X105202534Y-93628285D01*
X105407429Y-93491378D01*
X105407432Y-93491376D01*
X105469942Y-93465484D01*
X105491553Y-93453933D01*
X105510495Y-93438388D01*
X105526041Y-93419446D01*
X105537592Y-93397836D01*
X105544705Y-93374387D01*
X105547107Y-93350001D01*
X105544705Y-93325614D01*
X105537592Y-93302166D01*
X105526041Y-93280555D01*
X105510496Y-93261613D01*
X105491554Y-93246067D01*
X105469942Y-93234516D01*
X105407432Y-93208624D01*
X105344811Y-93166782D01*
X105202534Y-93071715D01*
X105028285Y-92897466D01*
X104891378Y-92692571D01*
X104874266Y-92651258D01*
X104797075Y-92464903D01*
X104749000Y-92223214D01*
X104749000Y-91976786D01*
X104797075Y-91735097D01*
X104891377Y-91507431D01*
X105028284Y-91302536D01*
X105028285Y-91302534D01*
X105202534Y-91128285D01*
X105407429Y-90991378D01*
X105407432Y-90991376D01*
X105469942Y-90965484D01*
X105491553Y-90953933D01*
X105510495Y-90938388D01*
X105526041Y-90919446D01*
X105537592Y-90897836D01*
X105544705Y-90874387D01*
X105547107Y-90850001D01*
X105544705Y-90825614D01*
X105537592Y-90802166D01*
X105526041Y-90780555D01*
X105510496Y-90761613D01*
X105491554Y-90746067D01*
X105469942Y-90734516D01*
X105407432Y-90708624D01*
X105399160Y-90703097D01*
X105202534Y-90571715D01*
X105028285Y-90397466D01*
X104891378Y-90192571D01*
X104857698Y-90111259D01*
X104797075Y-89964903D01*
X104749000Y-89723214D01*
X104749000Y-89476786D01*
X104797075Y-89235097D01*
X104891377Y-89007431D01*
X105028284Y-88802536D01*
X105028285Y-88802534D01*
X105202534Y-88628285D01*
X105407429Y-88491378D01*
X105635097Y-88397075D01*
X105876786Y-88349000D01*
X106123214Y-88349000D01*
X106364903Y-88397075D01*
G37*
G36*
X48493512Y-91843927D02*
G01*
X48642812Y-91873624D01*
X48806784Y-91941544D01*
X48954354Y-92040147D01*
X49079853Y-92165646D01*
X49178456Y-92313216D01*
X49246376Y-92477188D01*
X49281000Y-92651259D01*
X49281000Y-92828741D01*
X49246376Y-93002812D01*
X49178456Y-93166784D01*
X49079853Y-93314354D01*
X48954354Y-93439853D01*
X48806784Y-93538456D01*
X48642812Y-93606376D01*
X48493512Y-93636073D01*
X48468742Y-93641000D01*
X48291258Y-93641000D01*
X48266488Y-93636073D01*
X48117188Y-93606376D01*
X47953216Y-93538456D01*
X47805646Y-93439853D01*
X47680147Y-93314354D01*
X47581544Y-93166784D01*
X47513624Y-93002812D01*
X47479000Y-92828741D01*
X47479000Y-92651259D01*
X47513624Y-92477188D01*
X47581544Y-92313216D01*
X47680147Y-92165646D01*
X47805646Y-92040147D01*
X47953216Y-91941544D01*
X48117188Y-91873624D01*
X48266488Y-91843927D01*
X48291258Y-91839000D01*
X48468742Y-91839000D01*
X48493512Y-91843927D01*
G37*
G36*
X45953512Y-91843927D02*
G01*
X46102812Y-91873624D01*
X46266784Y-91941544D01*
X46414354Y-92040147D01*
X46539853Y-92165646D01*
X46638456Y-92313216D01*
X46706376Y-92477188D01*
X46741000Y-92651259D01*
X46741000Y-92828741D01*
X46706376Y-93002812D01*
X46638456Y-93166784D01*
X46539853Y-93314354D01*
X46414354Y-93439853D01*
X46266784Y-93538456D01*
X46102812Y-93606376D01*
X45953512Y-93636073D01*
X45928742Y-93641000D01*
X45751258Y-93641000D01*
X45726488Y-93636073D01*
X45577188Y-93606376D01*
X45413216Y-93538456D01*
X45265646Y-93439853D01*
X45140147Y-93314354D01*
X45041544Y-93166784D01*
X44973624Y-93002812D01*
X44939000Y-92828741D01*
X44939000Y-92651259D01*
X44973624Y-92477188D01*
X45041544Y-92313216D01*
X45140147Y-92165646D01*
X45265646Y-92040147D01*
X45413216Y-91941544D01*
X45577188Y-91873624D01*
X45726488Y-91843927D01*
X45751258Y-91839000D01*
X45928742Y-91839000D01*
X45953512Y-91843927D01*
G37*
G36*
X43413512Y-91843927D02*
G01*
X43562812Y-91873624D01*
X43726784Y-91941544D01*
X43874354Y-92040147D01*
X43999853Y-92165646D01*
X44098456Y-92313216D01*
X44166376Y-92477188D01*
X44201000Y-92651259D01*
X44201000Y-92828741D01*
X44166376Y-93002812D01*
X44098456Y-93166784D01*
X43999853Y-93314354D01*
X43874354Y-93439853D01*
X43726784Y-93538456D01*
X43562812Y-93606376D01*
X43413512Y-93636073D01*
X43388742Y-93641000D01*
X43211258Y-93641000D01*
X43186488Y-93636073D01*
X43037188Y-93606376D01*
X42873216Y-93538456D01*
X42725646Y-93439853D01*
X42600147Y-93314354D01*
X42501544Y-93166784D01*
X42433624Y-93002812D01*
X42399000Y-92828741D01*
X42399000Y-92651259D01*
X42433624Y-92477188D01*
X42501544Y-92313216D01*
X42600147Y-92165646D01*
X42725646Y-92040147D01*
X42873216Y-91941544D01*
X43037188Y-91873624D01*
X43186488Y-91843927D01*
X43211258Y-91839000D01*
X43388742Y-91839000D01*
X43413512Y-91843927D01*
G37*
G36*
X86768228Y-89481703D02*
G01*
X86923100Y-89545853D01*
X87062481Y-89638985D01*
X87181015Y-89757519D01*
X87274147Y-89896900D01*
X87338297Y-90051772D01*
X87371000Y-90216184D01*
X87371000Y-90383816D01*
X87338297Y-90548228D01*
X87274147Y-90703100D01*
X87181015Y-90842481D01*
X87062481Y-90961015D01*
X86923100Y-91054147D01*
X86768228Y-91118297D01*
X86603816Y-91151000D01*
X86436184Y-91151000D01*
X86271772Y-91118297D01*
X86116900Y-91054147D01*
X85977519Y-90961015D01*
X85858985Y-90842481D01*
X85765853Y-90703100D01*
X85701703Y-90548228D01*
X85669000Y-90383816D01*
X85669000Y-90216184D01*
X85701703Y-90051772D01*
X85765853Y-89896900D01*
X85858985Y-89757519D01*
X85977519Y-89638985D01*
X86116900Y-89545853D01*
X86271772Y-89481703D01*
X86436184Y-89449000D01*
X86603816Y-89449000D01*
X86768228Y-89481703D01*
G37*
G36*
X69728228Y-89481703D02*
G01*
X69883100Y-89545853D01*
X70022481Y-89638985D01*
X70141015Y-89757519D01*
X70234147Y-89896900D01*
X70298297Y-90051772D01*
X70331000Y-90216184D01*
X70331000Y-90383816D01*
X70298297Y-90548228D01*
X70234147Y-90703100D01*
X70141015Y-90842481D01*
X70022481Y-90961015D01*
X69883100Y-91054147D01*
X69728228Y-91118297D01*
X69563816Y-91151000D01*
X69396184Y-91151000D01*
X69231772Y-91118297D01*
X69076900Y-91054147D01*
X68937519Y-90961015D01*
X68818985Y-90842481D01*
X68725853Y-90703100D01*
X68661703Y-90548228D01*
X68629000Y-90383816D01*
X68629000Y-90216184D01*
X68661703Y-90051772D01*
X68725853Y-89896900D01*
X68818985Y-89757519D01*
X68937519Y-89638985D01*
X69076900Y-89545853D01*
X69231772Y-89481703D01*
X69396184Y-89449000D01*
X69563816Y-89449000D01*
X69728228Y-89481703D01*
G37*
G36*
X72268228Y-89481703D02*
G01*
X72423100Y-89545853D01*
X72562481Y-89638985D01*
X72681015Y-89757519D01*
X72774147Y-89896900D01*
X72838297Y-90051772D01*
X72871000Y-90216184D01*
X72871000Y-90383816D01*
X72838297Y-90548228D01*
X72774147Y-90703100D01*
X72681015Y-90842481D01*
X72562481Y-90961015D01*
X72423100Y-91054147D01*
X72268228Y-91118297D01*
X72103816Y-91151000D01*
X71936184Y-91151000D01*
X71771772Y-91118297D01*
X71616900Y-91054147D01*
X71477519Y-90961015D01*
X71358985Y-90842481D01*
X71265853Y-90703100D01*
X71201703Y-90548228D01*
X71169000Y-90383816D01*
X71169000Y-90216184D01*
X71201703Y-90051772D01*
X71265853Y-89896900D01*
X71358985Y-89757519D01*
X71477519Y-89638985D01*
X71616900Y-89545853D01*
X71771772Y-89481703D01*
X71936184Y-89449000D01*
X72103816Y-89449000D01*
X72268228Y-89481703D01*
G37*
G36*
X77951000Y-91151000D02*
G01*
X76249000Y-91151000D01*
X76249000Y-89449000D01*
X77951000Y-89449000D01*
X77951000Y-91151000D01*
G37*
G36*
X74808228Y-89481703D02*
G01*
X74963100Y-89545853D01*
X75102481Y-89638985D01*
X75221015Y-89757519D01*
X75314147Y-89896900D01*
X75378297Y-90051772D01*
X75411000Y-90216184D01*
X75411000Y-90383816D01*
X75378297Y-90548228D01*
X75314147Y-90703100D01*
X75221015Y-90842481D01*
X75102481Y-90961015D01*
X74963100Y-91054147D01*
X74808228Y-91118297D01*
X74643816Y-91151000D01*
X74476184Y-91151000D01*
X74311772Y-91118297D01*
X74156900Y-91054147D01*
X74017519Y-90961015D01*
X73898985Y-90842481D01*
X73805853Y-90703100D01*
X73741703Y-90548228D01*
X73709000Y-90383816D01*
X73709000Y-90216184D01*
X73741703Y-90051772D01*
X73805853Y-89896900D01*
X73898985Y-89757519D01*
X74017519Y-89638985D01*
X74156900Y-89545853D01*
X74311772Y-89481703D01*
X74476184Y-89449000D01*
X74643816Y-89449000D01*
X74808228Y-89481703D01*
G37*
G36*
X84228228Y-89481703D02*
G01*
X84383100Y-89545853D01*
X84522481Y-89638985D01*
X84641015Y-89757519D01*
X84734147Y-89896900D01*
X84798297Y-90051772D01*
X84831000Y-90216184D01*
X84831000Y-90383816D01*
X84798297Y-90548228D01*
X84734147Y-90703100D01*
X84641015Y-90842481D01*
X84522481Y-90961015D01*
X84383100Y-91054147D01*
X84228228Y-91118297D01*
X84063816Y-91151000D01*
X83896184Y-91151000D01*
X83731772Y-91118297D01*
X83576900Y-91054147D01*
X83437519Y-90961015D01*
X83318985Y-90842481D01*
X83225853Y-90703100D01*
X83161703Y-90548228D01*
X83129000Y-90383816D01*
X83129000Y-90216184D01*
X83161703Y-90051772D01*
X83225853Y-89896900D01*
X83318985Y-89757519D01*
X83437519Y-89638985D01*
X83576900Y-89545853D01*
X83731772Y-89481703D01*
X83896184Y-89449000D01*
X84063816Y-89449000D01*
X84228228Y-89481703D01*
G37*
G36*
X89308228Y-89481703D02*
G01*
X89463100Y-89545853D01*
X89602481Y-89638985D01*
X89721015Y-89757519D01*
X89814147Y-89896900D01*
X89878297Y-90051772D01*
X89911000Y-90216184D01*
X89911000Y-90383816D01*
X89878297Y-90548228D01*
X89814147Y-90703100D01*
X89721015Y-90842481D01*
X89602481Y-90961015D01*
X89463100Y-91054147D01*
X89308228Y-91118297D01*
X89143816Y-91151000D01*
X88976184Y-91151000D01*
X88811772Y-91118297D01*
X88656900Y-91054147D01*
X88517519Y-90961015D01*
X88398985Y-90842481D01*
X88305853Y-90703100D01*
X88241703Y-90548228D01*
X88209000Y-90383816D01*
X88209000Y-90216184D01*
X88241703Y-90051772D01*
X88305853Y-89896900D01*
X88398985Y-89757519D01*
X88517519Y-89638985D01*
X88656900Y-89545853D01*
X88811772Y-89481703D01*
X88976184Y-89449000D01*
X89143816Y-89449000D01*
X89308228Y-89481703D01*
G37*
G36*
X92451000Y-91151000D02*
G01*
X90749000Y-91151000D01*
X90749000Y-89449000D01*
X92451000Y-89449000D01*
X92451000Y-91151000D01*
G37*
G36*
X49281000Y-91101000D02*
G01*
X47479000Y-91101000D01*
X47479000Y-89299000D01*
X49281000Y-89299000D01*
X49281000Y-91101000D01*
G37*
G36*
X45953512Y-89303927D02*
G01*
X46102812Y-89333624D01*
X46266784Y-89401544D01*
X46414354Y-89500147D01*
X46539853Y-89625646D01*
X46638456Y-89773216D01*
X46706376Y-89937188D01*
X46741000Y-90111259D01*
X46741000Y-90288741D01*
X46706376Y-90462812D01*
X46638456Y-90626784D01*
X46539853Y-90774354D01*
X46414354Y-90899853D01*
X46266784Y-90998456D01*
X46102812Y-91066376D01*
X45953512Y-91096073D01*
X45928742Y-91101000D01*
X45751258Y-91101000D01*
X45726488Y-91096073D01*
X45577188Y-91066376D01*
X45413216Y-90998456D01*
X45265646Y-90899853D01*
X45140147Y-90774354D01*
X45041544Y-90626784D01*
X44973624Y-90462812D01*
X44939000Y-90288741D01*
X44939000Y-90111259D01*
X44973624Y-89937188D01*
X45041544Y-89773216D01*
X45140147Y-89625646D01*
X45265646Y-89500147D01*
X45413216Y-89401544D01*
X45577188Y-89333624D01*
X45726488Y-89303927D01*
X45751258Y-89299000D01*
X45928742Y-89299000D01*
X45953512Y-89303927D01*
G37*
G36*
X43413512Y-89303927D02*
G01*
X43562812Y-89333624D01*
X43726784Y-89401544D01*
X43874354Y-89500147D01*
X43999853Y-89625646D01*
X44098456Y-89773216D01*
X44166376Y-89937188D01*
X44201000Y-90111259D01*
X44201000Y-90288741D01*
X44166376Y-90462812D01*
X44098456Y-90626784D01*
X43999853Y-90774354D01*
X43874354Y-90899853D01*
X43726784Y-90998456D01*
X43562812Y-91066376D01*
X43413512Y-91096073D01*
X43388742Y-91101000D01*
X43211258Y-91101000D01*
X43186488Y-91096073D01*
X43037188Y-91066376D01*
X42873216Y-90998456D01*
X42725646Y-90899853D01*
X42600147Y-90774354D01*
X42501544Y-90626784D01*
X42433624Y-90462812D01*
X42399000Y-90288741D01*
X42399000Y-90111259D01*
X42433624Y-89937188D01*
X42501544Y-89773216D01*
X42600147Y-89625646D01*
X42725646Y-89500147D01*
X42873216Y-89401544D01*
X43037188Y-89333624D01*
X43186488Y-89303927D01*
X43211258Y-89299000D01*
X43388742Y-89299000D01*
X43413512Y-89303927D01*
G37*
G36*
X87785589Y-84938876D02*
G01*
X87884893Y-84958629D01*
X88025206Y-85016748D01*
X88151484Y-85101125D01*
X88258875Y-85208516D01*
X88343252Y-85334794D01*
X88401371Y-85475107D01*
X88431000Y-85624063D01*
X88431000Y-85775937D01*
X88401371Y-85924893D01*
X88343252Y-86065206D01*
X88258875Y-86191484D01*
X88151484Y-86298875D01*
X88025206Y-86383252D01*
X87884893Y-86441371D01*
X87785589Y-86461124D01*
X87735938Y-86471000D01*
X87584062Y-86471000D01*
X87534411Y-86461124D01*
X87435107Y-86441371D01*
X87294794Y-86383252D01*
X87168516Y-86298875D01*
X87061125Y-86191484D01*
X86976748Y-86065206D01*
X86918629Y-85924893D01*
X86889000Y-85775937D01*
X86889000Y-85624063D01*
X86918629Y-85475107D01*
X86976748Y-85334794D01*
X87061125Y-85208516D01*
X87168516Y-85101125D01*
X87294794Y-85016748D01*
X87435107Y-84958629D01*
X87534411Y-84938876D01*
X87584062Y-84929000D01*
X87735938Y-84929000D01*
X87785589Y-84938876D01*
G37*
G36*
X85245589Y-84938876D02*
G01*
X85344893Y-84958629D01*
X85485206Y-85016748D01*
X85611484Y-85101125D01*
X85718875Y-85208516D01*
X85803252Y-85334794D01*
X85861371Y-85475107D01*
X85891000Y-85624063D01*
X85891000Y-85775937D01*
X85861371Y-85924893D01*
X85803252Y-86065206D01*
X85718875Y-86191484D01*
X85611484Y-86298875D01*
X85485206Y-86383252D01*
X85344893Y-86441371D01*
X85245589Y-86461124D01*
X85195938Y-86471000D01*
X85044062Y-86471000D01*
X84994411Y-86461124D01*
X84895107Y-86441371D01*
X84754794Y-86383252D01*
X84628516Y-86298875D01*
X84521125Y-86191484D01*
X84436748Y-86065206D01*
X84378629Y-85924893D01*
X84349000Y-85775937D01*
X84349000Y-85624063D01*
X84378629Y-85475107D01*
X84436748Y-85334794D01*
X84521125Y-85208516D01*
X84628516Y-85101125D01*
X84754794Y-85016748D01*
X84895107Y-84958629D01*
X84994411Y-84938876D01*
X85044062Y-84929000D01*
X85195938Y-84929000D01*
X85245589Y-84938876D01*
G37*
G36*
X75825589Y-84938876D02*
G01*
X75924893Y-84958629D01*
X76065206Y-85016748D01*
X76191484Y-85101125D01*
X76298875Y-85208516D01*
X76383252Y-85334794D01*
X76441371Y-85475107D01*
X76471000Y-85624063D01*
X76471000Y-85775937D01*
X76441371Y-85924893D01*
X76383252Y-86065206D01*
X76298875Y-86191484D01*
X76191484Y-86298875D01*
X76065206Y-86383252D01*
X75924893Y-86441371D01*
X75825589Y-86461124D01*
X75775938Y-86471000D01*
X75624062Y-86471000D01*
X75574411Y-86461124D01*
X75475107Y-86441371D01*
X75334794Y-86383252D01*
X75208516Y-86298875D01*
X75101125Y-86191484D01*
X75016748Y-86065206D01*
X74958629Y-85924893D01*
X74929000Y-85775937D01*
X74929000Y-85624063D01*
X74958629Y-85475107D01*
X75016748Y-85334794D01*
X75101125Y-85208516D01*
X75208516Y-85101125D01*
X75334794Y-85016748D01*
X75475107Y-84958629D01*
X75574411Y-84938876D01*
X75624062Y-84929000D01*
X75775938Y-84929000D01*
X75825589Y-84938876D01*
G37*
G36*
X70745589Y-84938876D02*
G01*
X70844893Y-84958629D01*
X70985206Y-85016748D01*
X71111484Y-85101125D01*
X71218875Y-85208516D01*
X71303252Y-85334794D01*
X71361371Y-85475107D01*
X71391000Y-85624063D01*
X71391000Y-85775937D01*
X71361371Y-85924893D01*
X71303252Y-86065206D01*
X71218875Y-86191484D01*
X71111484Y-86298875D01*
X70985206Y-86383252D01*
X70844893Y-86441371D01*
X70745589Y-86461124D01*
X70695938Y-86471000D01*
X70544062Y-86471000D01*
X70494411Y-86461124D01*
X70395107Y-86441371D01*
X70254794Y-86383252D01*
X70128516Y-86298875D01*
X70021125Y-86191484D01*
X69936748Y-86065206D01*
X69878629Y-85924893D01*
X69849000Y-85775937D01*
X69849000Y-85624063D01*
X69878629Y-85475107D01*
X69936748Y-85334794D01*
X70021125Y-85208516D01*
X70128516Y-85101125D01*
X70254794Y-85016748D01*
X70395107Y-84958629D01*
X70494411Y-84938876D01*
X70544062Y-84929000D01*
X70695938Y-84929000D01*
X70745589Y-84938876D01*
G37*
G36*
X73285589Y-84938876D02*
G01*
X73384893Y-84958629D01*
X73525206Y-85016748D01*
X73651484Y-85101125D01*
X73758875Y-85208516D01*
X73843252Y-85334794D01*
X73901371Y-85475107D01*
X73931000Y-85624063D01*
X73931000Y-85775937D01*
X73901371Y-85924893D01*
X73843252Y-86065206D01*
X73758875Y-86191484D01*
X73651484Y-86298875D01*
X73525206Y-86383252D01*
X73384893Y-86441371D01*
X73285589Y-86461124D01*
X73235938Y-86471000D01*
X73084062Y-86471000D01*
X73034411Y-86461124D01*
X72935107Y-86441371D01*
X72794794Y-86383252D01*
X72668516Y-86298875D01*
X72561125Y-86191484D01*
X72476748Y-86065206D01*
X72418629Y-85924893D01*
X72389000Y-85775937D01*
X72389000Y-85624063D01*
X72418629Y-85475107D01*
X72476748Y-85334794D01*
X72561125Y-85208516D01*
X72668516Y-85101125D01*
X72794794Y-85016748D01*
X72935107Y-84958629D01*
X73034411Y-84938876D01*
X73084062Y-84929000D01*
X73235938Y-84929000D01*
X73285589Y-84938876D01*
G37*
G36*
X90325589Y-84938876D02*
G01*
X90424893Y-84958629D01*
X90565206Y-85016748D01*
X90691484Y-85101125D01*
X90798875Y-85208516D01*
X90883252Y-85334794D01*
X90941371Y-85475107D01*
X90971000Y-85624063D01*
X90971000Y-85775937D01*
X90941371Y-85924893D01*
X90883252Y-86065206D01*
X90798875Y-86191484D01*
X90691484Y-86298875D01*
X90565206Y-86383252D01*
X90424893Y-86441371D01*
X90325589Y-86461124D01*
X90275938Y-86471000D01*
X90124062Y-86471000D01*
X90074411Y-86461124D01*
X89975107Y-86441371D01*
X89834794Y-86383252D01*
X89708516Y-86298875D01*
X89601125Y-86191484D01*
X89516748Y-86065206D01*
X89458629Y-85924893D01*
X89429000Y-85775937D01*
X89429000Y-85624063D01*
X89458629Y-85475107D01*
X89516748Y-85334794D01*
X89601125Y-85208516D01*
X89708516Y-85101125D01*
X89834794Y-85016748D01*
X89975107Y-84958629D01*
X90074411Y-84938876D01*
X90124062Y-84929000D01*
X90275938Y-84929000D01*
X90325589Y-84938876D01*
G37*
G36*
X106364903Y-83397075D02*
G01*
X106592571Y-83491378D01*
X106797466Y-83628285D01*
X106971715Y-83802534D01*
X107108622Y-84007429D01*
X107202925Y-84235097D01*
X107251000Y-84476787D01*
X107251000Y-84723213D01*
X107202925Y-84964903D01*
X107108622Y-85192571D01*
X106971715Y-85397466D01*
X106797466Y-85571715D01*
X106592571Y-85708622D01*
X106592570Y-85708623D01*
X106592569Y-85708623D01*
X106364903Y-85802925D01*
X106123214Y-85851000D01*
X105876786Y-85851000D01*
X105635097Y-85802925D01*
X105407431Y-85708623D01*
X105407430Y-85708623D01*
X105407429Y-85708622D01*
X105202534Y-85571715D01*
X105028285Y-85397466D01*
X104891378Y-85192571D01*
X104797075Y-84964903D01*
X104749000Y-84723213D01*
X104749000Y-84476787D01*
X104797075Y-84235097D01*
X104891378Y-84007429D01*
X105028285Y-83802534D01*
X105202534Y-83628285D01*
X105407429Y-83491378D01*
X105635097Y-83397075D01*
X105876786Y-83349000D01*
X106123214Y-83349000D01*
X106364903Y-83397075D01*
G37*
G36*
X118564903Y-83397075D02*
G01*
X118792571Y-83491378D01*
X118997466Y-83628285D01*
X119171715Y-83802534D01*
X119308622Y-84007429D01*
X119402925Y-84235097D01*
X119451000Y-84476787D01*
X119451000Y-84723213D01*
X119402925Y-84964903D01*
X119308622Y-85192571D01*
X119171715Y-85397466D01*
X118997466Y-85571715D01*
X118792571Y-85708622D01*
X118792570Y-85708623D01*
X118792569Y-85708623D01*
X118564903Y-85802925D01*
X118323214Y-85851000D01*
X118076786Y-85851000D01*
X117835097Y-85802925D01*
X117607431Y-85708623D01*
X117607430Y-85708623D01*
X117607429Y-85708622D01*
X117402534Y-85571715D01*
X117228285Y-85397466D01*
X117091378Y-85192571D01*
X116997075Y-84964903D01*
X116949000Y-84723213D01*
X116949000Y-84476787D01*
X116997075Y-84235097D01*
X117091378Y-84007429D01*
X117228285Y-83802534D01*
X117402534Y-83628285D01*
X117607429Y-83491378D01*
X117835097Y-83397075D01*
X118076786Y-83349000D01*
X118323214Y-83349000D01*
X118564903Y-83397075D01*
G37*
G36*
X109648228Y-79601703D02*
G01*
X109803100Y-79665853D01*
X109942481Y-79758985D01*
X110061015Y-79877519D01*
X110154147Y-80016900D01*
X110218297Y-80171772D01*
X110251000Y-80336184D01*
X110251000Y-80503816D01*
X110218297Y-80668228D01*
X110154147Y-80823100D01*
X110061015Y-80962481D01*
X109942481Y-81081015D01*
X109803100Y-81174147D01*
X109648228Y-81238297D01*
X109483816Y-81271000D01*
X109316184Y-81271000D01*
X109151772Y-81238297D01*
X108996900Y-81174147D01*
X108857519Y-81081015D01*
X108738985Y-80962481D01*
X108645853Y-80823100D01*
X108581703Y-80668228D01*
X108549000Y-80503816D01*
X108549000Y-80336184D01*
X108581703Y-80171772D01*
X108645853Y-80016900D01*
X108738985Y-79877519D01*
X108857519Y-79758985D01*
X108996900Y-79665853D01*
X109151772Y-79601703D01*
X109316184Y-79569000D01*
X109483816Y-79569000D01*
X109648228Y-79601703D01*
G37*
G36*
X104568228Y-79601703D02*
G01*
X104723100Y-79665853D01*
X104862481Y-79758985D01*
X104981015Y-79877519D01*
X105074147Y-80016900D01*
X105138297Y-80171772D01*
X105171000Y-80336184D01*
X105171000Y-80503816D01*
X105138297Y-80668228D01*
X105074147Y-80823100D01*
X104981015Y-80962481D01*
X104862481Y-81081015D01*
X104723100Y-81174147D01*
X104568228Y-81238297D01*
X104403816Y-81271000D01*
X104236184Y-81271000D01*
X104071772Y-81238297D01*
X103916900Y-81174147D01*
X103777519Y-81081015D01*
X103658985Y-80962481D01*
X103565853Y-80823100D01*
X103501703Y-80668228D01*
X103469000Y-80503816D01*
X103469000Y-80336184D01*
X103501703Y-80171772D01*
X103565853Y-80016900D01*
X103658985Y-79877519D01*
X103777519Y-79758985D01*
X103916900Y-79665853D01*
X104071772Y-79601703D01*
X104236184Y-79569000D01*
X104403816Y-79569000D01*
X104568228Y-79601703D01*
G37*
G36*
X102028228Y-79601703D02*
G01*
X102183100Y-79665853D01*
X102322481Y-79758985D01*
X102441015Y-79877519D01*
X102534147Y-80016900D01*
X102598297Y-80171772D01*
X102631000Y-80336184D01*
X102631000Y-80503816D01*
X102598297Y-80668228D01*
X102534147Y-80823100D01*
X102441015Y-80962481D01*
X102322481Y-81081015D01*
X102183100Y-81174147D01*
X102028228Y-81238297D01*
X101863816Y-81271000D01*
X101696184Y-81271000D01*
X101531772Y-81238297D01*
X101376900Y-81174147D01*
X101237519Y-81081015D01*
X101118985Y-80962481D01*
X101025853Y-80823100D01*
X100961703Y-80668228D01*
X100929000Y-80503816D01*
X100929000Y-80336184D01*
X100961703Y-80171772D01*
X101025853Y-80016900D01*
X101118985Y-79877519D01*
X101237519Y-79758985D01*
X101376900Y-79665853D01*
X101531772Y-79601703D01*
X101696184Y-79569000D01*
X101863816Y-79569000D01*
X102028228Y-79601703D01*
G37*
G36*
X107108228Y-79601703D02*
G01*
X107263100Y-79665853D01*
X107402481Y-79758985D01*
X107521015Y-79877519D01*
X107614147Y-80016900D01*
X107678297Y-80171772D01*
X107711000Y-80336184D01*
X107711000Y-80503816D01*
X107678297Y-80668228D01*
X107614147Y-80823100D01*
X107521015Y-80962481D01*
X107402481Y-81081015D01*
X107263100Y-81174147D01*
X107108228Y-81238297D01*
X106943816Y-81271000D01*
X106776184Y-81271000D01*
X106611772Y-81238297D01*
X106456900Y-81174147D01*
X106317519Y-81081015D01*
X106198985Y-80962481D01*
X106105853Y-80823100D01*
X106041703Y-80668228D01*
X106009000Y-80503816D01*
X106009000Y-80336184D01*
X106041703Y-80171772D01*
X106105853Y-80016900D01*
X106198985Y-79877519D01*
X106317519Y-79758985D01*
X106456900Y-79665853D01*
X106611772Y-79601703D01*
X106776184Y-79569000D01*
X106943816Y-79569000D01*
X107108228Y-79601703D01*
G37*
G36*
X41028228Y-78826703D02*
G01*
X41183100Y-78890853D01*
X41322481Y-78983985D01*
X41441015Y-79102519D01*
X41534147Y-79241900D01*
X41598297Y-79396772D01*
X41631000Y-79561184D01*
X41631000Y-79728816D01*
X41598297Y-79893228D01*
X41534147Y-80048100D01*
X41441015Y-80187481D01*
X41322481Y-80306015D01*
X41183100Y-80399147D01*
X41028228Y-80463297D01*
X40863816Y-80496000D01*
X40696184Y-80496000D01*
X40531772Y-80463297D01*
X40376900Y-80399147D01*
X40237519Y-80306015D01*
X40118985Y-80187481D01*
X40025853Y-80048100D01*
X39961703Y-79893228D01*
X39929000Y-79728816D01*
X39929000Y-79561184D01*
X39961703Y-79396772D01*
X40025853Y-79241900D01*
X40118985Y-79102519D01*
X40237519Y-78983985D01*
X40376900Y-78890853D01*
X40531772Y-78826703D01*
X40696184Y-78794000D01*
X40863816Y-78794000D01*
X41028228Y-78826703D01*
G37*
G36*
X35948228Y-78826703D02*
G01*
X36103100Y-78890853D01*
X36242481Y-78983985D01*
X36361015Y-79102519D01*
X36454147Y-79241900D01*
X36518297Y-79396772D01*
X36551000Y-79561184D01*
X36551000Y-79728816D01*
X36518297Y-79893228D01*
X36454147Y-80048100D01*
X36361015Y-80187481D01*
X36242481Y-80306015D01*
X36103100Y-80399147D01*
X35948228Y-80463297D01*
X35783816Y-80496000D01*
X35616184Y-80496000D01*
X35451772Y-80463297D01*
X35296900Y-80399147D01*
X35157519Y-80306015D01*
X35038985Y-80187481D01*
X34945853Y-80048100D01*
X34881703Y-79893228D01*
X34849000Y-79728816D01*
X34849000Y-79561184D01*
X34881703Y-79396772D01*
X34945853Y-79241900D01*
X35038985Y-79102519D01*
X35157519Y-78983985D01*
X35296900Y-78890853D01*
X35451772Y-78826703D01*
X35616184Y-78794000D01*
X35783816Y-78794000D01*
X35948228Y-78826703D01*
G37*
G36*
X38488228Y-78826703D02*
G01*
X38643100Y-78890853D01*
X38782481Y-78983985D01*
X38901015Y-79102519D01*
X38994147Y-79241900D01*
X39058297Y-79396772D01*
X39091000Y-79561184D01*
X39091000Y-79728816D01*
X39058297Y-79893228D01*
X38994147Y-80048100D01*
X38901015Y-80187481D01*
X38782481Y-80306015D01*
X38643100Y-80399147D01*
X38488228Y-80463297D01*
X38323816Y-80496000D01*
X38156184Y-80496000D01*
X37991772Y-80463297D01*
X37836900Y-80399147D01*
X37697519Y-80306015D01*
X37578985Y-80187481D01*
X37485853Y-80048100D01*
X37421703Y-79893228D01*
X37389000Y-79728816D01*
X37389000Y-79561184D01*
X37421703Y-79396772D01*
X37485853Y-79241900D01*
X37578985Y-79102519D01*
X37697519Y-78983985D01*
X37836900Y-78890853D01*
X37991772Y-78826703D01*
X38156184Y-78794000D01*
X38323816Y-78794000D01*
X38488228Y-78826703D01*
G37*
G36*
X43568228Y-78826703D02*
G01*
X43723100Y-78890853D01*
X43862481Y-78983985D01*
X43981015Y-79102519D01*
X44074147Y-79241900D01*
X44138297Y-79396772D01*
X44171000Y-79561184D01*
X44171000Y-79728816D01*
X44138297Y-79893228D01*
X44074147Y-80048100D01*
X43981015Y-80187481D01*
X43862481Y-80306015D01*
X43723100Y-80399147D01*
X43568228Y-80463297D01*
X43403816Y-80496000D01*
X43236184Y-80496000D01*
X43071772Y-80463297D01*
X42916900Y-80399147D01*
X42777519Y-80306015D01*
X42658985Y-80187481D01*
X42565853Y-80048100D01*
X42501703Y-79893228D01*
X42469000Y-79728816D01*
X42469000Y-79561184D01*
X42501703Y-79396772D01*
X42565853Y-79241900D01*
X42658985Y-79102519D01*
X42777519Y-78983985D01*
X42916900Y-78890853D01*
X43071772Y-78826703D01*
X43236184Y-78794000D01*
X43403816Y-78794000D01*
X43568228Y-78826703D01*
G37*
G36*
X54928228Y-78801703D02*
G01*
X55083100Y-78865853D01*
X55222481Y-78958985D01*
X55341015Y-79077519D01*
X55434147Y-79216900D01*
X55498297Y-79371772D01*
X55531000Y-79536184D01*
X55531000Y-79703816D01*
X55498297Y-79868228D01*
X55434147Y-80023100D01*
X55341015Y-80162481D01*
X55222481Y-80281015D01*
X55083100Y-80374147D01*
X54928228Y-80438297D01*
X54763816Y-80471000D01*
X54596184Y-80471000D01*
X54431772Y-80438297D01*
X54276900Y-80374147D01*
X54137519Y-80281015D01*
X54018985Y-80162481D01*
X53925853Y-80023100D01*
X53861703Y-79868228D01*
X53829000Y-79703816D01*
X53829000Y-79536184D01*
X53861703Y-79371772D01*
X53925853Y-79216900D01*
X54018985Y-79077519D01*
X54137519Y-78958985D01*
X54276900Y-78865853D01*
X54431772Y-78801703D01*
X54596184Y-78769000D01*
X54763816Y-78769000D01*
X54928228Y-78801703D01*
G37*
G36*
X57468228Y-78801703D02*
G01*
X57623100Y-78865853D01*
X57762481Y-78958985D01*
X57881015Y-79077519D01*
X57974147Y-79216900D01*
X58038297Y-79371772D01*
X58071000Y-79536184D01*
X58071000Y-79703816D01*
X58038297Y-79868228D01*
X57974147Y-80023100D01*
X57881015Y-80162481D01*
X57762481Y-80281015D01*
X57623100Y-80374147D01*
X57468228Y-80438297D01*
X57303816Y-80471000D01*
X57136184Y-80471000D01*
X56971772Y-80438297D01*
X56816900Y-80374147D01*
X56677519Y-80281015D01*
X56558985Y-80162481D01*
X56465853Y-80023100D01*
X56401703Y-79868228D01*
X56369000Y-79703816D01*
X56369000Y-79536184D01*
X56401703Y-79371772D01*
X56465853Y-79216900D01*
X56558985Y-79077519D01*
X56677519Y-78958985D01*
X56816900Y-78865853D01*
X56971772Y-78801703D01*
X57136184Y-78769000D01*
X57303816Y-78769000D01*
X57468228Y-78801703D01*
G37*
G36*
X60008228Y-78801703D02*
G01*
X60163100Y-78865853D01*
X60302481Y-78958985D01*
X60421015Y-79077519D01*
X60514147Y-79216900D01*
X60578297Y-79371772D01*
X60611000Y-79536184D01*
X60611000Y-79703816D01*
X60578297Y-79868228D01*
X60514147Y-80023100D01*
X60421015Y-80162481D01*
X60302481Y-80281015D01*
X60163100Y-80374147D01*
X60008228Y-80438297D01*
X59843816Y-80471000D01*
X59676184Y-80471000D01*
X59511772Y-80438297D01*
X59356900Y-80374147D01*
X59217519Y-80281015D01*
X59098985Y-80162481D01*
X59005853Y-80023100D01*
X58941703Y-79868228D01*
X58909000Y-79703816D01*
X58909000Y-79536184D01*
X58941703Y-79371772D01*
X59005853Y-79216900D01*
X59098985Y-79077519D01*
X59217519Y-78958985D01*
X59356900Y-78865853D01*
X59511772Y-78801703D01*
X59676184Y-78769000D01*
X59843816Y-78769000D01*
X60008228Y-78801703D01*
G37*
G36*
X62548228Y-78801703D02*
G01*
X62703100Y-78865853D01*
X62842481Y-78958985D01*
X62961015Y-79077519D01*
X63054147Y-79216900D01*
X63118297Y-79371772D01*
X63151000Y-79536184D01*
X63151000Y-79703816D01*
X63118297Y-79868228D01*
X63054147Y-80023100D01*
X62961015Y-80162481D01*
X62842481Y-80281015D01*
X62703100Y-80374147D01*
X62548228Y-80438297D01*
X62383816Y-80471000D01*
X62216184Y-80471000D01*
X62051772Y-80438297D01*
X61896900Y-80374147D01*
X61757519Y-80281015D01*
X61638985Y-80162481D01*
X61545853Y-80023100D01*
X61481703Y-79868228D01*
X61449000Y-79703816D01*
X61449000Y-79536184D01*
X61481703Y-79371772D01*
X61545853Y-79216900D01*
X61638985Y-79077519D01*
X61757519Y-78958985D01*
X61896900Y-78865853D01*
X62051772Y-78801703D01*
X62216184Y-78769000D01*
X62383816Y-78769000D01*
X62548228Y-78801703D01*
G37*
G36*
X86653512Y-76183927D02*
G01*
X86802812Y-76213624D01*
X86966784Y-76281544D01*
X87114354Y-76380147D01*
X87239853Y-76505646D01*
X87338456Y-76653216D01*
X87406376Y-76817188D01*
X87441000Y-76991259D01*
X87441000Y-77168741D01*
X87406376Y-77342812D01*
X87338456Y-77506784D01*
X87239853Y-77654354D01*
X87114354Y-77779853D01*
X86966784Y-77878456D01*
X86802812Y-77946376D01*
X86653512Y-77976073D01*
X86628742Y-77981000D01*
X86451258Y-77981000D01*
X86426488Y-77976073D01*
X86277188Y-77946376D01*
X86113216Y-77878456D01*
X85965646Y-77779853D01*
X85840147Y-77654354D01*
X85741544Y-77506784D01*
X85673624Y-77342812D01*
X85639000Y-77168741D01*
X85639000Y-76991259D01*
X85673624Y-76817188D01*
X85741544Y-76653216D01*
X85840147Y-76505646D01*
X85965646Y-76380147D01*
X86113216Y-76281544D01*
X86277188Y-76213624D01*
X86426488Y-76183927D01*
X86451258Y-76179000D01*
X86628742Y-76179000D01*
X86653512Y-76183927D01*
G37*
G36*
X84113512Y-76183927D02*
G01*
X84262812Y-76213624D01*
X84426784Y-76281544D01*
X84574354Y-76380147D01*
X84699853Y-76505646D01*
X84798456Y-76653216D01*
X84866376Y-76817188D01*
X84901000Y-76991259D01*
X84901000Y-77168741D01*
X84866376Y-77342812D01*
X84798456Y-77506784D01*
X84699853Y-77654354D01*
X84574354Y-77779853D01*
X84426784Y-77878456D01*
X84262812Y-77946376D01*
X84113512Y-77976073D01*
X84088742Y-77981000D01*
X83911258Y-77981000D01*
X83886488Y-77976073D01*
X83737188Y-77946376D01*
X83573216Y-77878456D01*
X83425646Y-77779853D01*
X83300147Y-77654354D01*
X83201544Y-77506784D01*
X83133624Y-77342812D01*
X83099000Y-77168741D01*
X83099000Y-76991259D01*
X83133624Y-76817188D01*
X83201544Y-76653216D01*
X83300147Y-76505646D01*
X83425646Y-76380147D01*
X83573216Y-76281544D01*
X83737188Y-76213624D01*
X83886488Y-76183927D01*
X83911258Y-76179000D01*
X84088742Y-76179000D01*
X84113512Y-76183927D01*
G37*
G36*
X76653512Y-76183927D02*
G01*
X76802812Y-76213624D01*
X76966784Y-76281544D01*
X77114354Y-76380147D01*
X77239853Y-76505646D01*
X77338456Y-76653216D01*
X77406376Y-76817188D01*
X77441000Y-76991259D01*
X77441000Y-77168741D01*
X77406376Y-77342812D01*
X77338456Y-77506784D01*
X77239853Y-77654354D01*
X77114354Y-77779853D01*
X76966784Y-77878456D01*
X76802812Y-77946376D01*
X76653512Y-77976073D01*
X76628742Y-77981000D01*
X76451258Y-77981000D01*
X76426488Y-77976073D01*
X76277188Y-77946376D01*
X76113216Y-77878456D01*
X75965646Y-77779853D01*
X75840147Y-77654354D01*
X75741544Y-77506784D01*
X75673624Y-77342812D01*
X75639000Y-77168741D01*
X75639000Y-76991259D01*
X75673624Y-76817188D01*
X75741544Y-76653216D01*
X75840147Y-76505646D01*
X75965646Y-76380147D01*
X76113216Y-76281544D01*
X76277188Y-76213624D01*
X76426488Y-76183927D01*
X76451258Y-76179000D01*
X76628742Y-76179000D01*
X76653512Y-76183927D01*
G37*
G36*
X74113512Y-76183927D02*
G01*
X74262812Y-76213624D01*
X74426784Y-76281544D01*
X74574354Y-76380147D01*
X74699853Y-76505646D01*
X74798456Y-76653216D01*
X74866376Y-76817188D01*
X74901000Y-76991259D01*
X74901000Y-77168741D01*
X74866376Y-77342812D01*
X74798456Y-77506784D01*
X74699853Y-77654354D01*
X74574354Y-77779853D01*
X74426784Y-77878456D01*
X74262812Y-77946376D01*
X74113512Y-77976073D01*
X74088742Y-77981000D01*
X73911258Y-77981000D01*
X73886488Y-77976073D01*
X73737188Y-77946376D01*
X73573216Y-77878456D01*
X73425646Y-77779853D01*
X73300147Y-77654354D01*
X73201544Y-77506784D01*
X73133624Y-77342812D01*
X73099000Y-77168741D01*
X73099000Y-76991259D01*
X73133624Y-76817188D01*
X73201544Y-76653216D01*
X73300147Y-76505646D01*
X73425646Y-76380147D01*
X73573216Y-76281544D01*
X73737188Y-76213624D01*
X73886488Y-76183927D01*
X73911258Y-76179000D01*
X74088742Y-76179000D01*
X74113512Y-76183927D01*
G37*
G36*
X74113512Y-73643927D02*
G01*
X74262812Y-73673624D01*
X74426784Y-73741544D01*
X74574354Y-73840147D01*
X74699853Y-73965646D01*
X74798456Y-74113216D01*
X74866376Y-74277188D01*
X74894443Y-74418295D01*
X74900949Y-74451000D01*
X74901000Y-74451259D01*
X74901000Y-74628741D01*
X74866376Y-74802812D01*
X74798456Y-74966784D01*
X74699853Y-75114354D01*
X74574354Y-75239853D01*
X74426784Y-75338456D01*
X74262812Y-75406376D01*
X74113512Y-75436073D01*
X74088742Y-75441000D01*
X73911258Y-75441000D01*
X73886488Y-75436073D01*
X73737188Y-75406376D01*
X73573216Y-75338456D01*
X73425646Y-75239853D01*
X73300147Y-75114354D01*
X73201544Y-74966784D01*
X73133624Y-74802812D01*
X73099000Y-74628741D01*
X73099000Y-74451259D01*
X73099052Y-74451000D01*
X73105557Y-74418295D01*
X73133624Y-74277188D01*
X73201544Y-74113216D01*
X73300147Y-73965646D01*
X73425646Y-73840147D01*
X73573216Y-73741544D01*
X73737188Y-73673624D01*
X73886488Y-73643927D01*
X73911258Y-73639000D01*
X74088742Y-73639000D01*
X74113512Y-73643927D01*
G37*
G36*
X86653512Y-73643927D02*
G01*
X86802812Y-73673624D01*
X86966784Y-73741544D01*
X87114354Y-73840147D01*
X87239853Y-73965646D01*
X87338456Y-74113216D01*
X87406376Y-74277188D01*
X87434443Y-74418295D01*
X87440949Y-74451000D01*
X87441000Y-74451259D01*
X87441000Y-74628741D01*
X87406376Y-74802812D01*
X87338456Y-74966784D01*
X87239853Y-75114354D01*
X87114354Y-75239853D01*
X86966784Y-75338456D01*
X86802812Y-75406376D01*
X86653512Y-75436073D01*
X86628742Y-75441000D01*
X86451258Y-75441000D01*
X86426488Y-75436073D01*
X86277188Y-75406376D01*
X86113216Y-75338456D01*
X85965646Y-75239853D01*
X85840147Y-75114354D01*
X85741544Y-74966784D01*
X85673624Y-74802812D01*
X85639000Y-74628741D01*
X85639000Y-74451259D01*
X85639052Y-74451000D01*
X85645557Y-74418295D01*
X85673624Y-74277188D01*
X85741544Y-74113216D01*
X85840147Y-73965646D01*
X85965646Y-73840147D01*
X86113216Y-73741544D01*
X86277188Y-73673624D01*
X86426488Y-73643927D01*
X86451258Y-73639000D01*
X86628742Y-73639000D01*
X86653512Y-73643927D01*
G37*
G36*
X84113512Y-73643927D02*
G01*
X84262812Y-73673624D01*
X84426784Y-73741544D01*
X84574354Y-73840147D01*
X84699853Y-73965646D01*
X84798456Y-74113216D01*
X84866376Y-74277188D01*
X84894443Y-74418295D01*
X84900949Y-74451000D01*
X84901000Y-74451259D01*
X84901000Y-74628741D01*
X84866376Y-74802812D01*
X84798456Y-74966784D01*
X84699853Y-75114354D01*
X84574354Y-75239853D01*
X84426784Y-75338456D01*
X84262812Y-75406376D01*
X84113512Y-75436073D01*
X84088742Y-75441000D01*
X83911258Y-75441000D01*
X83886488Y-75436073D01*
X83737188Y-75406376D01*
X83573216Y-75338456D01*
X83425646Y-75239853D01*
X83300147Y-75114354D01*
X83201544Y-74966784D01*
X83133624Y-74802812D01*
X83099000Y-74628741D01*
X83099000Y-74451259D01*
X83099052Y-74451000D01*
X83105557Y-74418295D01*
X83133624Y-74277188D01*
X83201544Y-74113216D01*
X83300147Y-73965646D01*
X83425646Y-73840147D01*
X83573216Y-73741544D01*
X83737188Y-73673624D01*
X83886488Y-73643927D01*
X83911258Y-73639000D01*
X84088742Y-73639000D01*
X84113512Y-73643927D01*
G37*
G36*
X76653512Y-73643927D02*
G01*
X76802812Y-73673624D01*
X76966784Y-73741544D01*
X77114354Y-73840147D01*
X77239853Y-73965646D01*
X77338456Y-74113216D01*
X77406376Y-74277188D01*
X77434443Y-74418295D01*
X77440949Y-74451000D01*
X77441000Y-74451259D01*
X77441000Y-74628741D01*
X77406376Y-74802812D01*
X77338456Y-74966784D01*
X77239853Y-75114354D01*
X77114354Y-75239853D01*
X76966784Y-75338456D01*
X76802812Y-75406376D01*
X76653512Y-75436073D01*
X76628742Y-75441000D01*
X76451258Y-75441000D01*
X76426488Y-75436073D01*
X76277188Y-75406376D01*
X76113216Y-75338456D01*
X75965646Y-75239853D01*
X75840147Y-75114354D01*
X75741544Y-74966784D01*
X75673624Y-74802812D01*
X75639000Y-74628741D01*
X75639000Y-74451259D01*
X75639052Y-74451000D01*
X75645557Y-74418295D01*
X75673624Y-74277188D01*
X75741544Y-74113216D01*
X75840147Y-73965646D01*
X75965646Y-73840147D01*
X76113216Y-73741544D01*
X76277188Y-73673624D01*
X76426488Y-73643927D01*
X76451258Y-73639000D01*
X76628742Y-73639000D01*
X76653512Y-73643927D01*
G37*
G36*
X122248228Y-72781703D02*
G01*
X122403100Y-72845853D01*
X122542481Y-72938985D01*
X122661015Y-73057519D01*
X122754147Y-73196900D01*
X122818297Y-73351772D01*
X122851000Y-73516184D01*
X122851000Y-73683816D01*
X122818297Y-73848228D01*
X122754147Y-74003100D01*
X122661015Y-74142481D01*
X122542481Y-74261015D01*
X122403100Y-74354147D01*
X122248228Y-74418297D01*
X122083816Y-74451000D01*
X121916184Y-74451000D01*
X121751772Y-74418297D01*
X121596900Y-74354147D01*
X121457519Y-74261015D01*
X121338985Y-74142481D01*
X121245853Y-74003100D01*
X121181703Y-73848228D01*
X121149000Y-73683816D01*
X121149000Y-73516184D01*
X121181703Y-73351772D01*
X121245853Y-73196900D01*
X121338985Y-73057519D01*
X121457519Y-72938985D01*
X121596900Y-72845853D01*
X121751772Y-72781703D01*
X121916184Y-72749000D01*
X122083816Y-72749000D01*
X122248228Y-72781703D01*
G37*
G36*
X114448228Y-72781703D02*
G01*
X114603100Y-72845853D01*
X114742481Y-72938985D01*
X114861015Y-73057519D01*
X114954147Y-73196900D01*
X115018297Y-73351772D01*
X115051000Y-73516184D01*
X115051000Y-73683816D01*
X115018297Y-73848228D01*
X114954147Y-74003100D01*
X114861015Y-74142481D01*
X114742481Y-74261015D01*
X114603100Y-74354147D01*
X114448228Y-74418297D01*
X114283816Y-74451000D01*
X114116184Y-74451000D01*
X113951772Y-74418297D01*
X113796900Y-74354147D01*
X113657519Y-74261015D01*
X113538985Y-74142481D01*
X113445853Y-74003100D01*
X113381703Y-73848228D01*
X113349000Y-73683816D01*
X113349000Y-73516184D01*
X113381703Y-73351772D01*
X113445853Y-73196900D01*
X113538985Y-73057519D01*
X113657519Y-72938985D01*
X113796900Y-72845853D01*
X113951772Y-72781703D01*
X114116184Y-72749000D01*
X114283816Y-72749000D01*
X114448228Y-72781703D01*
G37*
G36*
X102028228Y-71981703D02*
G01*
X102183100Y-72045853D01*
X102322481Y-72138985D01*
X102441015Y-72257519D01*
X102534147Y-72396900D01*
X102598297Y-72551772D01*
X102631000Y-72716184D01*
X102631000Y-72883816D01*
X102598297Y-73048228D01*
X102534147Y-73203100D01*
X102441015Y-73342481D01*
X102322481Y-73461015D01*
X102183100Y-73554147D01*
X102028228Y-73618297D01*
X101863816Y-73651000D01*
X101696184Y-73651000D01*
X101531772Y-73618297D01*
X101376900Y-73554147D01*
X101237519Y-73461015D01*
X101118985Y-73342481D01*
X101025853Y-73203100D01*
X100961703Y-73048228D01*
X100929000Y-72883816D01*
X100929000Y-72716184D01*
X100961703Y-72551772D01*
X101025853Y-72396900D01*
X101118985Y-72257519D01*
X101237519Y-72138985D01*
X101376900Y-72045853D01*
X101531772Y-71981703D01*
X101696184Y-71949000D01*
X101863816Y-71949000D01*
X102028228Y-71981703D01*
G37*
G36*
X104568228Y-71981703D02*
G01*
X104723100Y-72045853D01*
X104862481Y-72138985D01*
X104981015Y-72257519D01*
X105074147Y-72396900D01*
X105138297Y-72551772D01*
X105171000Y-72716184D01*
X105171000Y-72883816D01*
X105138297Y-73048228D01*
X105074147Y-73203100D01*
X104981015Y-73342481D01*
X104862481Y-73461015D01*
X104723100Y-73554147D01*
X104568228Y-73618297D01*
X104403816Y-73651000D01*
X104236184Y-73651000D01*
X104071772Y-73618297D01*
X103916900Y-73554147D01*
X103777519Y-73461015D01*
X103658985Y-73342481D01*
X103565853Y-73203100D01*
X103501703Y-73048228D01*
X103469000Y-72883816D01*
X103469000Y-72716184D01*
X103501703Y-72551772D01*
X103565853Y-72396900D01*
X103658985Y-72257519D01*
X103777519Y-72138985D01*
X103916900Y-72045853D01*
X104071772Y-71981703D01*
X104236184Y-71949000D01*
X104403816Y-71949000D01*
X104568228Y-71981703D01*
G37*
G36*
X107108228Y-71981703D02*
G01*
X107263100Y-72045853D01*
X107402481Y-72138985D01*
X107521015Y-72257519D01*
X107614147Y-72396900D01*
X107678297Y-72551772D01*
X107711000Y-72716184D01*
X107711000Y-72883816D01*
X107678297Y-73048228D01*
X107614147Y-73203100D01*
X107521015Y-73342481D01*
X107402481Y-73461015D01*
X107263100Y-73554147D01*
X107108228Y-73618297D01*
X106943816Y-73651000D01*
X106776184Y-73651000D01*
X106611772Y-73618297D01*
X106456900Y-73554147D01*
X106317519Y-73461015D01*
X106198985Y-73342481D01*
X106105853Y-73203100D01*
X106041703Y-73048228D01*
X106009000Y-72883816D01*
X106009000Y-72716184D01*
X106041703Y-72551772D01*
X106105853Y-72396900D01*
X106198985Y-72257519D01*
X106317519Y-72138985D01*
X106456900Y-72045853D01*
X106611772Y-71981703D01*
X106776184Y-71949000D01*
X106943816Y-71949000D01*
X107108228Y-71981703D01*
G37*
G36*
X110251000Y-73651000D02*
G01*
X108549000Y-73651000D01*
X108549000Y-71949000D01*
X110251000Y-71949000D01*
X110251000Y-73651000D01*
G37*
G36*
X84901000Y-72901000D02*
G01*
X83099000Y-72901000D01*
X83099000Y-71099000D01*
X84901000Y-71099000D01*
X84901000Y-72901000D01*
G37*
G36*
X76653512Y-71103927D02*
G01*
X76802812Y-71133624D01*
X76966784Y-71201544D01*
X77114354Y-71300147D01*
X77239853Y-71425646D01*
X77338456Y-71573216D01*
X77406376Y-71737188D01*
X77441000Y-71911259D01*
X77441000Y-72088741D01*
X77406376Y-72262812D01*
X77338456Y-72426784D01*
X77239853Y-72574354D01*
X77114354Y-72699853D01*
X76966784Y-72798456D01*
X76802812Y-72866376D01*
X76653512Y-72896073D01*
X76628742Y-72901000D01*
X76451258Y-72901000D01*
X76426488Y-72896073D01*
X76277188Y-72866376D01*
X76113216Y-72798456D01*
X75965646Y-72699853D01*
X75840147Y-72574354D01*
X75741544Y-72426784D01*
X75673624Y-72262812D01*
X75639000Y-72088741D01*
X75639000Y-71911259D01*
X75673624Y-71737188D01*
X75741544Y-71573216D01*
X75840147Y-71425646D01*
X75965646Y-71300147D01*
X76113216Y-71201544D01*
X76277188Y-71133624D01*
X76426488Y-71103927D01*
X76451258Y-71099000D01*
X76628742Y-71099000D01*
X76653512Y-71103927D01*
G37*
G36*
X74901000Y-72901000D02*
G01*
X73099000Y-72901000D01*
X73099000Y-71099000D01*
X74901000Y-71099000D01*
X74901000Y-72901000D01*
G37*
G36*
X86653512Y-71103927D02*
G01*
X86802812Y-71133624D01*
X86966784Y-71201544D01*
X87114354Y-71300147D01*
X87239853Y-71425646D01*
X87338456Y-71573216D01*
X87406376Y-71737188D01*
X87441000Y-71911259D01*
X87441000Y-72088741D01*
X87406376Y-72262812D01*
X87338456Y-72426784D01*
X87239853Y-72574354D01*
X87114354Y-72699853D01*
X86966784Y-72798456D01*
X86802812Y-72866376D01*
X86653512Y-72896073D01*
X86628742Y-72901000D01*
X86451258Y-72901000D01*
X86426488Y-72896073D01*
X86277188Y-72866376D01*
X86113216Y-72798456D01*
X85965646Y-72699853D01*
X85840147Y-72574354D01*
X85741544Y-72426784D01*
X85673624Y-72262812D01*
X85639000Y-72088741D01*
X85639000Y-71911259D01*
X85673624Y-71737188D01*
X85741544Y-71573216D01*
X85840147Y-71425646D01*
X85965646Y-71300147D01*
X86113216Y-71201544D01*
X86277188Y-71133624D01*
X86426488Y-71103927D01*
X86451258Y-71099000D01*
X86628742Y-71099000D01*
X86653512Y-71103927D01*
G37*
G36*
X35948228Y-71206703D02*
G01*
X36103100Y-71270853D01*
X36242481Y-71363985D01*
X36361015Y-71482519D01*
X36454147Y-71621900D01*
X36518297Y-71776772D01*
X36551000Y-71941184D01*
X36551000Y-72108816D01*
X36518297Y-72273228D01*
X36454147Y-72428100D01*
X36361015Y-72567481D01*
X36242481Y-72686015D01*
X36103100Y-72779147D01*
X35948228Y-72843297D01*
X35783816Y-72876000D01*
X35616184Y-72876000D01*
X35451772Y-72843297D01*
X35296900Y-72779147D01*
X35157519Y-72686015D01*
X35038985Y-72567481D01*
X34945853Y-72428100D01*
X34881703Y-72273228D01*
X34849000Y-72108816D01*
X34849000Y-71941184D01*
X34881703Y-71776772D01*
X34945853Y-71621900D01*
X35038985Y-71482519D01*
X35157519Y-71363985D01*
X35296900Y-71270853D01*
X35451772Y-71206703D01*
X35616184Y-71174000D01*
X35783816Y-71174000D01*
X35948228Y-71206703D01*
G37*
G36*
X41028228Y-71206703D02*
G01*
X41183100Y-71270853D01*
X41322481Y-71363985D01*
X41441015Y-71482519D01*
X41534147Y-71621900D01*
X41598297Y-71776772D01*
X41631000Y-71941184D01*
X41631000Y-72108816D01*
X41598297Y-72273228D01*
X41534147Y-72428100D01*
X41441015Y-72567481D01*
X41322481Y-72686015D01*
X41183100Y-72779147D01*
X41028228Y-72843297D01*
X40863816Y-72876000D01*
X40696184Y-72876000D01*
X40531772Y-72843297D01*
X40376900Y-72779147D01*
X40237519Y-72686015D01*
X40118985Y-72567481D01*
X40025853Y-72428100D01*
X39961703Y-72273228D01*
X39929000Y-72108816D01*
X39929000Y-71941184D01*
X39961703Y-71776772D01*
X40025853Y-71621900D01*
X40118985Y-71482519D01*
X40237519Y-71363985D01*
X40376900Y-71270853D01*
X40531772Y-71206703D01*
X40696184Y-71174000D01*
X40863816Y-71174000D01*
X41028228Y-71206703D01*
G37*
G36*
X44171000Y-72876000D02*
G01*
X42469000Y-72876000D01*
X42469000Y-71174000D01*
X44171000Y-71174000D01*
X44171000Y-72876000D01*
G37*
G36*
X38488228Y-71206703D02*
G01*
X38643100Y-71270853D01*
X38782481Y-71363985D01*
X38901015Y-71482519D01*
X38994147Y-71621900D01*
X39058297Y-71776772D01*
X39091000Y-71941184D01*
X39091000Y-72108816D01*
X39058297Y-72273228D01*
X38994147Y-72428100D01*
X38901015Y-72567481D01*
X38782481Y-72686015D01*
X38643100Y-72779147D01*
X38488228Y-72843297D01*
X38323816Y-72876000D01*
X38156184Y-72876000D01*
X37991772Y-72843297D01*
X37836900Y-72779147D01*
X37697519Y-72686015D01*
X37578985Y-72567481D01*
X37485853Y-72428100D01*
X37421703Y-72273228D01*
X37389000Y-72108816D01*
X37389000Y-71941184D01*
X37421703Y-71776772D01*
X37485853Y-71621900D01*
X37578985Y-71482519D01*
X37697519Y-71363985D01*
X37836900Y-71270853D01*
X37991772Y-71206703D01*
X38156184Y-71174000D01*
X38323816Y-71174000D01*
X38488228Y-71206703D01*
G37*
G36*
X63151000Y-72851000D02*
G01*
X61449000Y-72851000D01*
X61449000Y-71149000D01*
X63151000Y-71149000D01*
X63151000Y-72851000D01*
G37*
G36*
X60008228Y-71181703D02*
G01*
X60163100Y-71245853D01*
X60302481Y-71338985D01*
X60421015Y-71457519D01*
X60514147Y-71596900D01*
X60578297Y-71751772D01*
X60611000Y-71916184D01*
X60611000Y-72083816D01*
X60578297Y-72248228D01*
X60514147Y-72403100D01*
X60421015Y-72542481D01*
X60302481Y-72661015D01*
X60163100Y-72754147D01*
X60008228Y-72818297D01*
X59843816Y-72851000D01*
X59676184Y-72851000D01*
X59511772Y-72818297D01*
X59356900Y-72754147D01*
X59217519Y-72661015D01*
X59098985Y-72542481D01*
X59005853Y-72403100D01*
X58941703Y-72248228D01*
X58909000Y-72083816D01*
X58909000Y-71916184D01*
X58941703Y-71751772D01*
X59005853Y-71596900D01*
X59098985Y-71457519D01*
X59217519Y-71338985D01*
X59356900Y-71245853D01*
X59511772Y-71181703D01*
X59676184Y-71149000D01*
X59843816Y-71149000D01*
X60008228Y-71181703D01*
G37*
G36*
X57468228Y-71181703D02*
G01*
X57623100Y-71245853D01*
X57762481Y-71338985D01*
X57881015Y-71457519D01*
X57974147Y-71596900D01*
X58038297Y-71751772D01*
X58071000Y-71916184D01*
X58071000Y-72083816D01*
X58038297Y-72248228D01*
X57974147Y-72403100D01*
X57881015Y-72542481D01*
X57762481Y-72661015D01*
X57623100Y-72754147D01*
X57468228Y-72818297D01*
X57303816Y-72851000D01*
X57136184Y-72851000D01*
X56971772Y-72818297D01*
X56816900Y-72754147D01*
X56677519Y-72661015D01*
X56558985Y-72542481D01*
X56465853Y-72403100D01*
X56401703Y-72248228D01*
X56369000Y-72083816D01*
X56369000Y-71916184D01*
X56401703Y-71751772D01*
X56465853Y-71596900D01*
X56558985Y-71457519D01*
X56677519Y-71338985D01*
X56816900Y-71245853D01*
X56971772Y-71181703D01*
X57136184Y-71149000D01*
X57303816Y-71149000D01*
X57468228Y-71181703D01*
G37*
G36*
X54928228Y-71181703D02*
G01*
X55083100Y-71245853D01*
X55222481Y-71338985D01*
X55341015Y-71457519D01*
X55434147Y-71596900D01*
X55498297Y-71751772D01*
X55531000Y-71916184D01*
X55531000Y-72083816D01*
X55498297Y-72248228D01*
X55434147Y-72403100D01*
X55341015Y-72542481D01*
X55222481Y-72661015D01*
X55083100Y-72754147D01*
X54928228Y-72818297D01*
X54763816Y-72851000D01*
X54596184Y-72851000D01*
X54431772Y-72818297D01*
X54276900Y-72754147D01*
X54137519Y-72661015D01*
X54018985Y-72542481D01*
X53925853Y-72403100D01*
X53861703Y-72248228D01*
X53829000Y-72083816D01*
X53829000Y-71916184D01*
X53861703Y-71751772D01*
X53925853Y-71596900D01*
X54018985Y-71457519D01*
X54137519Y-71338985D01*
X54276900Y-71245853D01*
X54431772Y-71181703D01*
X54596184Y-71149000D01*
X54763816Y-71149000D01*
X54928228Y-71181703D01*
G37*
G36*
X104453512Y-68303927D02*
G01*
X104602812Y-68333624D01*
X104766784Y-68401544D01*
X104914354Y-68500147D01*
X105039853Y-68625646D01*
X105138456Y-68773216D01*
X105206376Y-68937188D01*
X105241000Y-69111259D01*
X105241000Y-69288741D01*
X105206376Y-69462812D01*
X105138456Y-69626784D01*
X105039853Y-69774354D01*
X104914354Y-69899853D01*
X104766784Y-69998456D01*
X104602812Y-70066376D01*
X104453512Y-70096073D01*
X104428742Y-70101000D01*
X104251258Y-70101000D01*
X104226488Y-70096073D01*
X104077188Y-70066376D01*
X103913216Y-69998456D01*
X103765646Y-69899853D01*
X103640147Y-69774354D01*
X103541544Y-69626784D01*
X103473624Y-69462812D01*
X103439000Y-69288741D01*
X103439000Y-69111259D01*
X103473624Y-68937188D01*
X103541544Y-68773216D01*
X103640147Y-68625646D01*
X103765646Y-68500147D01*
X103913216Y-68401544D01*
X104077188Y-68333624D01*
X104226488Y-68303927D01*
X104251258Y-68299000D01*
X104428742Y-68299000D01*
X104453512Y-68303927D01*
G37*
G36*
X106993512Y-68303927D02*
G01*
X107142812Y-68333624D01*
X107306784Y-68401544D01*
X107454354Y-68500147D01*
X107579853Y-68625646D01*
X107678456Y-68773216D01*
X107746376Y-68937188D01*
X107781000Y-69111259D01*
X107781000Y-69288741D01*
X107746376Y-69462812D01*
X107678456Y-69626784D01*
X107579853Y-69774354D01*
X107454354Y-69899853D01*
X107306784Y-69998456D01*
X107142812Y-70066376D01*
X106993512Y-70096073D01*
X106968742Y-70101000D01*
X106791258Y-70101000D01*
X106766488Y-70096073D01*
X106617188Y-70066376D01*
X106453216Y-69998456D01*
X106305646Y-69899853D01*
X106180147Y-69774354D01*
X106081544Y-69626784D01*
X106013624Y-69462812D01*
X105979000Y-69288741D01*
X105979000Y-69111259D01*
X106013624Y-68937188D01*
X106081544Y-68773216D01*
X106180147Y-68625646D01*
X106305646Y-68500147D01*
X106453216Y-68401544D01*
X106617188Y-68333624D01*
X106766488Y-68303927D01*
X106791258Y-68299000D01*
X106968742Y-68299000D01*
X106993512Y-68303927D01*
G37*
G36*
X109533512Y-68303927D02*
G01*
X109682812Y-68333624D01*
X109846784Y-68401544D01*
X109994354Y-68500147D01*
X110119853Y-68625646D01*
X110218456Y-68773216D01*
X110286376Y-68937188D01*
X110321000Y-69111259D01*
X110321000Y-69288741D01*
X110286376Y-69462812D01*
X110218456Y-69626784D01*
X110119853Y-69774354D01*
X109994354Y-69899853D01*
X109846784Y-69998456D01*
X109682812Y-70066376D01*
X109533512Y-70096073D01*
X109508742Y-70101000D01*
X109331258Y-70101000D01*
X109306488Y-70096073D01*
X109157188Y-70066376D01*
X108993216Y-69998456D01*
X108845646Y-69899853D01*
X108720147Y-69774354D01*
X108621544Y-69626784D01*
X108553624Y-69462812D01*
X108519000Y-69288741D01*
X108519000Y-69111259D01*
X108553624Y-68937188D01*
X108621544Y-68773216D01*
X108720147Y-68625646D01*
X108845646Y-68500147D01*
X108993216Y-68401544D01*
X109157188Y-68333624D01*
X109306488Y-68303927D01*
X109331258Y-68299000D01*
X109508742Y-68299000D01*
X109533512Y-68303927D01*
G37*
G36*
X102701000Y-70101000D02*
G01*
X100899000Y-70101000D01*
X100899000Y-68299000D01*
X102701000Y-68299000D01*
X102701000Y-70101000D01*
G37*
G36*
X122248228Y-67781703D02*
G01*
X122403100Y-67845853D01*
X122542481Y-67938985D01*
X122661015Y-68057519D01*
X122754147Y-68196900D01*
X122818297Y-68351772D01*
X122851000Y-68516184D01*
X122851000Y-68683816D01*
X122818297Y-68848228D01*
X122754147Y-69003100D01*
X122661015Y-69142481D01*
X122542481Y-69261015D01*
X122403100Y-69354147D01*
X122248228Y-69418297D01*
X122083816Y-69451000D01*
X121916184Y-69451000D01*
X121751772Y-69418297D01*
X121596900Y-69354147D01*
X121457519Y-69261015D01*
X121338985Y-69142481D01*
X121245853Y-69003100D01*
X121181703Y-68848228D01*
X121149000Y-68683816D01*
X121149000Y-68516184D01*
X121181703Y-68351772D01*
X121245853Y-68196900D01*
X121338985Y-68057519D01*
X121457519Y-67938985D01*
X121596900Y-67845853D01*
X121751772Y-67781703D01*
X121916184Y-67749000D01*
X122083816Y-67749000D01*
X122248228Y-67781703D01*
G37*
G36*
X114448228Y-67781703D02*
G01*
X114603100Y-67845853D01*
X114742481Y-67938985D01*
X114861015Y-68057519D01*
X114954147Y-68196900D01*
X115018297Y-68351772D01*
X115051000Y-68516184D01*
X115051000Y-68683816D01*
X115018297Y-68848228D01*
X114954147Y-69003100D01*
X114861015Y-69142481D01*
X114742481Y-69261015D01*
X114603100Y-69354147D01*
X114448228Y-69418297D01*
X114283816Y-69451000D01*
X114116184Y-69451000D01*
X113951772Y-69418297D01*
X113796900Y-69354147D01*
X113657519Y-69261015D01*
X113538985Y-69142481D01*
X113445853Y-69003100D01*
X113381703Y-68848228D01*
X113349000Y-68683816D01*
X113349000Y-68516184D01*
X113381703Y-68351772D01*
X113445853Y-68196900D01*
X113538985Y-68057519D01*
X113657519Y-67938985D01*
X113796900Y-67845853D01*
X113951772Y-67781703D01*
X114116184Y-67749000D01*
X114283816Y-67749000D01*
X114448228Y-67781703D01*
G37*
G36*
X118364903Y-63397075D02*
G01*
X118592571Y-63491378D01*
X118797466Y-63628285D01*
X118971715Y-63802534D01*
X119108622Y-64007429D01*
X119202925Y-64235097D01*
X119251000Y-64476787D01*
X119251000Y-64723213D01*
X119202925Y-64964903D01*
X119108622Y-65192571D01*
X118971715Y-65397466D01*
X118797466Y-65571715D01*
X118592571Y-65708622D01*
X118592570Y-65708623D01*
X118592569Y-65708623D01*
X118364903Y-65802925D01*
X118123214Y-65851000D01*
X117876786Y-65851000D01*
X117635097Y-65802925D01*
X117407431Y-65708623D01*
X117407430Y-65708623D01*
X117407429Y-65708622D01*
X117202534Y-65571715D01*
X117028285Y-65397466D01*
X116891378Y-65192571D01*
X116797075Y-64964903D01*
X116749000Y-64723213D01*
X116749000Y-64476787D01*
X116797075Y-64235097D01*
X116891378Y-64007429D01*
X117028285Y-63802534D01*
X117202534Y-63628285D01*
X117407429Y-63491378D01*
X117635097Y-63397075D01*
X117876786Y-63349000D01*
X118123214Y-63349000D01*
X118364903Y-63397075D01*
G37*
G36*
X106364903Y-63397075D02*
G01*
X106592571Y-63491378D01*
X106797466Y-63628285D01*
X106971715Y-63802534D01*
X107108622Y-64007429D01*
X107202925Y-64235097D01*
X107251000Y-64476787D01*
X107251000Y-64723213D01*
X107202925Y-64964903D01*
X107108622Y-65192571D01*
X106971715Y-65397466D01*
X106797466Y-65571715D01*
X106592571Y-65708622D01*
X106592570Y-65708623D01*
X106592569Y-65708623D01*
X106364903Y-65802925D01*
X106123214Y-65851000D01*
X105876786Y-65851000D01*
X105635097Y-65802925D01*
X105407431Y-65708623D01*
X105407430Y-65708623D01*
X105407429Y-65708622D01*
X105202534Y-65571715D01*
X105028285Y-65397466D01*
X104891378Y-65192571D01*
X104797075Y-64964903D01*
X104749000Y-64723213D01*
X104749000Y-64476787D01*
X104797075Y-64235097D01*
X104891378Y-64007429D01*
X105028285Y-63802534D01*
X105202534Y-63628285D01*
X105407429Y-63491378D01*
X105635097Y-63397075D01*
X105876786Y-63349000D01*
X106123214Y-63349000D01*
X106364903Y-63397075D01*
G37*
G36*
X106250677Y-53374354D02*
G01*
X106364903Y-53397075D01*
X106592571Y-53491378D01*
X106797466Y-53628285D01*
X106971715Y-53802534D01*
X106971716Y-53802536D01*
X107108623Y-54007431D01*
X107202925Y-54235097D01*
X107251000Y-54476786D01*
X107251000Y-54723214D01*
X107213206Y-54913216D01*
X107202925Y-54964903D01*
X107108622Y-55192571D01*
X106971715Y-55397466D01*
X106797466Y-55571715D01*
X106750926Y-55602812D01*
X106592568Y-55708624D01*
X106530058Y-55734516D01*
X106508447Y-55746067D01*
X106489505Y-55761612D01*
X106473959Y-55780554D01*
X106462408Y-55802164D01*
X106455295Y-55825613D01*
X106452893Y-55849999D01*
X106455295Y-55874386D01*
X106462408Y-55897834D01*
X106473959Y-55919445D01*
X106489504Y-55938387D01*
X106508446Y-55953933D01*
X106530058Y-55965484D01*
X106592568Y-55991376D01*
X106592571Y-55991378D01*
X106797466Y-56128285D01*
X106971715Y-56302534D01*
X107108622Y-56507429D01*
X107202925Y-56735097D01*
X107251000Y-56976787D01*
X107251000Y-57223213D01*
X107202925Y-57464903D01*
X107108622Y-57692571D01*
X106971715Y-57897466D01*
X106797466Y-58071715D01*
X106691062Y-58142812D01*
X106592568Y-58208624D01*
X106530058Y-58234516D01*
X106508447Y-58246067D01*
X106489505Y-58261612D01*
X106473959Y-58280554D01*
X106462408Y-58302164D01*
X106455295Y-58325613D01*
X106452893Y-58349999D01*
X106455295Y-58374386D01*
X106462408Y-58397834D01*
X106473959Y-58419445D01*
X106489504Y-58438387D01*
X106508446Y-58453933D01*
X106530058Y-58465484D01*
X106592568Y-58491376D01*
X106592571Y-58491378D01*
X106797466Y-58628285D01*
X106971715Y-58802534D01*
X106971716Y-58802536D01*
X107108623Y-59007431D01*
X107202925Y-59235097D01*
X107251000Y-59476786D01*
X107251000Y-59723214D01*
X107227114Y-59843295D01*
X107202925Y-59964903D01*
X107108622Y-60192571D01*
X106971715Y-60397466D01*
X106797466Y-60571715D01*
X106592571Y-60708622D01*
X106592570Y-60708623D01*
X106592569Y-60708623D01*
X106364903Y-60802925D01*
X106123214Y-60851000D01*
X105876786Y-60851000D01*
X105635097Y-60802925D01*
X105407431Y-60708623D01*
X105407430Y-60708623D01*
X105407429Y-60708622D01*
X105202534Y-60571715D01*
X105028285Y-60397466D01*
X104891378Y-60192571D01*
X104797075Y-59964903D01*
X104772886Y-59843295D01*
X104749000Y-59723214D01*
X104749000Y-59476786D01*
X104797075Y-59235097D01*
X104891377Y-59007431D01*
X105028284Y-58802536D01*
X105028285Y-58802534D01*
X105202534Y-58628285D01*
X105407429Y-58491378D01*
X105407432Y-58491376D01*
X105469942Y-58465484D01*
X105491553Y-58453933D01*
X105510495Y-58438388D01*
X105526041Y-58419446D01*
X105537592Y-58397836D01*
X105544705Y-58374387D01*
X105547107Y-58350001D01*
X105544705Y-58325614D01*
X105537592Y-58302166D01*
X105526041Y-58280555D01*
X105510496Y-58261613D01*
X105491554Y-58246067D01*
X105469942Y-58234516D01*
X105407432Y-58208624D01*
X105308938Y-58142812D01*
X105202534Y-58071715D01*
X105028285Y-57897466D01*
X104891378Y-57692571D01*
X104797075Y-57464903D01*
X104749000Y-57223213D01*
X104749000Y-56976787D01*
X104797075Y-56735097D01*
X104891378Y-56507429D01*
X105028285Y-56302534D01*
X105202534Y-56128285D01*
X105407429Y-55991378D01*
X105407432Y-55991376D01*
X105469942Y-55965484D01*
X105491553Y-55953933D01*
X105510495Y-55938388D01*
X105526041Y-55919446D01*
X105537592Y-55897836D01*
X105544705Y-55874387D01*
X105547107Y-55850001D01*
X105544705Y-55825614D01*
X105537592Y-55802166D01*
X105526041Y-55780555D01*
X105510496Y-55761613D01*
X105491554Y-55746067D01*
X105469942Y-55734516D01*
X105407432Y-55708624D01*
X105249074Y-55602812D01*
X105202534Y-55571715D01*
X105028285Y-55397466D01*
X104891378Y-55192571D01*
X104797075Y-54964903D01*
X104786794Y-54913216D01*
X104749000Y-54723214D01*
X104749000Y-54476786D01*
X104797075Y-54235097D01*
X104891377Y-54007431D01*
X105028284Y-53802536D01*
X105028285Y-53802534D01*
X105202534Y-53628285D01*
X105407429Y-53491378D01*
X105635097Y-53397075D01*
X105749323Y-53374354D01*
X105876786Y-53349000D01*
X106123214Y-53349000D01*
X106250677Y-53374354D01*
G37*
G36*
X118250677Y-53374354D02*
G01*
X118364903Y-53397075D01*
X118592571Y-53491378D01*
X118797466Y-53628285D01*
X118971715Y-53802534D01*
X118971716Y-53802536D01*
X119108623Y-54007431D01*
X119202925Y-54235097D01*
X119251000Y-54476786D01*
X119251000Y-54723214D01*
X119213206Y-54913216D01*
X119202925Y-54964903D01*
X119108622Y-55192571D01*
X118971715Y-55397466D01*
X118797466Y-55571715D01*
X118750926Y-55602812D01*
X118592568Y-55708624D01*
X118530058Y-55734516D01*
X118508447Y-55746067D01*
X118489505Y-55761612D01*
X118473959Y-55780554D01*
X118462408Y-55802164D01*
X118455295Y-55825613D01*
X118452893Y-55849999D01*
X118455295Y-55874386D01*
X118462408Y-55897834D01*
X118473959Y-55919445D01*
X118489504Y-55938387D01*
X118508446Y-55953933D01*
X118530058Y-55965484D01*
X118592568Y-55991376D01*
X118592571Y-55991378D01*
X118797466Y-56128285D01*
X118971715Y-56302534D01*
X119108622Y-56507429D01*
X119202925Y-56735097D01*
X119251000Y-56976787D01*
X119251000Y-57223213D01*
X119202925Y-57464903D01*
X119108622Y-57692571D01*
X118971715Y-57897466D01*
X118797466Y-58071715D01*
X118691062Y-58142812D01*
X118592568Y-58208624D01*
X118530058Y-58234516D01*
X118508447Y-58246067D01*
X118489505Y-58261612D01*
X118473959Y-58280554D01*
X118462408Y-58302164D01*
X118455295Y-58325613D01*
X118452893Y-58349999D01*
X118455295Y-58374386D01*
X118462408Y-58397834D01*
X118473959Y-58419445D01*
X118489504Y-58438387D01*
X118508446Y-58453933D01*
X118530058Y-58465484D01*
X118592568Y-58491376D01*
X118592571Y-58491378D01*
X118797466Y-58628285D01*
X118971715Y-58802534D01*
X118971716Y-58802536D01*
X119108623Y-59007431D01*
X119202925Y-59235097D01*
X119251000Y-59476786D01*
X119251000Y-59723214D01*
X119227114Y-59843295D01*
X119202925Y-59964903D01*
X119108622Y-60192571D01*
X118971715Y-60397466D01*
X118797466Y-60571715D01*
X118592571Y-60708622D01*
X118592570Y-60708623D01*
X118592569Y-60708623D01*
X118364903Y-60802925D01*
X118123214Y-60851000D01*
X117876786Y-60851000D01*
X117635097Y-60802925D01*
X117407431Y-60708623D01*
X117407430Y-60708623D01*
X117407429Y-60708622D01*
X117202534Y-60571715D01*
X117028285Y-60397466D01*
X116891378Y-60192571D01*
X116797075Y-59964903D01*
X116772886Y-59843295D01*
X116749000Y-59723214D01*
X116749000Y-59476786D01*
X116797075Y-59235097D01*
X116891377Y-59007431D01*
X117028284Y-58802536D01*
X117028285Y-58802534D01*
X117202534Y-58628285D01*
X117407429Y-58491378D01*
X117407432Y-58491376D01*
X117469942Y-58465484D01*
X117491553Y-58453933D01*
X117510495Y-58438388D01*
X117526041Y-58419446D01*
X117537592Y-58397836D01*
X117544705Y-58374387D01*
X117547107Y-58350001D01*
X117544705Y-58325614D01*
X117537592Y-58302166D01*
X117526041Y-58280555D01*
X117510496Y-58261613D01*
X117491554Y-58246067D01*
X117469942Y-58234516D01*
X117407432Y-58208624D01*
X117308938Y-58142812D01*
X117202534Y-58071715D01*
X117028285Y-57897466D01*
X116891378Y-57692571D01*
X116797075Y-57464903D01*
X116749000Y-57223213D01*
X116749000Y-56976787D01*
X116797075Y-56735097D01*
X116891378Y-56507429D01*
X117028285Y-56302534D01*
X117202534Y-56128285D01*
X117407429Y-55991378D01*
X117407432Y-55991376D01*
X117469942Y-55965484D01*
X117491553Y-55953933D01*
X117510495Y-55938388D01*
X117526041Y-55919446D01*
X117537592Y-55897836D01*
X117544705Y-55874387D01*
X117547107Y-55850001D01*
X117544705Y-55825614D01*
X117537592Y-55802166D01*
X117526041Y-55780555D01*
X117510496Y-55761613D01*
X117491554Y-55746067D01*
X117469942Y-55734516D01*
X117407432Y-55708624D01*
X117249074Y-55602812D01*
X117202534Y-55571715D01*
X117028285Y-55397466D01*
X116891378Y-55192571D01*
X116797075Y-54964903D01*
X116786794Y-54913216D01*
X116749000Y-54723214D01*
X116749000Y-54476786D01*
X116797075Y-54235097D01*
X116891377Y-54007431D01*
X117028284Y-53802536D01*
X117028285Y-53802534D01*
X117202534Y-53628285D01*
X117407429Y-53491378D01*
X117635097Y-53397075D01*
X117749323Y-53374354D01*
X117876786Y-53349000D01*
X118123214Y-53349000D01*
X118250677Y-53374354D01*
G37*
G36*
X79678228Y-58206703D02*
G01*
X79833100Y-58270853D01*
X79972481Y-58363985D01*
X80091015Y-58482519D01*
X80184147Y-58621900D01*
X80248297Y-58776772D01*
X80281000Y-58941184D01*
X80281000Y-59108816D01*
X80248297Y-59273228D01*
X80184147Y-59428100D01*
X80091015Y-59567481D01*
X79972481Y-59686015D01*
X79833100Y-59779147D01*
X79678228Y-59843297D01*
X79513816Y-59876000D01*
X79346184Y-59876000D01*
X79181772Y-59843297D01*
X79026900Y-59779147D01*
X78887519Y-59686015D01*
X78768985Y-59567481D01*
X78675853Y-59428100D01*
X78611703Y-59273228D01*
X78579000Y-59108816D01*
X78579000Y-58941184D01*
X78611703Y-58776772D01*
X78675853Y-58621900D01*
X78768985Y-58482519D01*
X78887519Y-58363985D01*
X79026900Y-58270853D01*
X79181772Y-58206703D01*
X79346184Y-58174000D01*
X79513816Y-58174000D01*
X79678228Y-58206703D01*
G37*
G36*
X87298228Y-58206703D02*
G01*
X87453100Y-58270853D01*
X87592481Y-58363985D01*
X87711015Y-58482519D01*
X87804147Y-58621900D01*
X87868297Y-58776772D01*
X87901000Y-58941184D01*
X87901000Y-59108816D01*
X87868297Y-59273228D01*
X87804147Y-59428100D01*
X87711015Y-59567481D01*
X87592481Y-59686015D01*
X87453100Y-59779147D01*
X87298228Y-59843297D01*
X87133816Y-59876000D01*
X86966184Y-59876000D01*
X86801772Y-59843297D01*
X86646900Y-59779147D01*
X86507519Y-59686015D01*
X86388985Y-59567481D01*
X86295853Y-59428100D01*
X86231703Y-59273228D01*
X86199000Y-59108816D01*
X86199000Y-58941184D01*
X86231703Y-58776772D01*
X86295853Y-58621900D01*
X86388985Y-58482519D01*
X86507519Y-58363985D01*
X86646900Y-58270853D01*
X86801772Y-58206703D01*
X86966184Y-58174000D01*
X87133816Y-58174000D01*
X87298228Y-58206703D01*
G37*
G36*
X82218228Y-58206703D02*
G01*
X82373100Y-58270853D01*
X82512481Y-58363985D01*
X82631015Y-58482519D01*
X82724147Y-58621900D01*
X82788297Y-58776772D01*
X82821000Y-58941184D01*
X82821000Y-59108816D01*
X82788297Y-59273228D01*
X82724147Y-59428100D01*
X82631015Y-59567481D01*
X82512481Y-59686015D01*
X82373100Y-59779147D01*
X82218228Y-59843297D01*
X82053816Y-59876000D01*
X81886184Y-59876000D01*
X81721772Y-59843297D01*
X81566900Y-59779147D01*
X81427519Y-59686015D01*
X81308985Y-59567481D01*
X81215853Y-59428100D01*
X81151703Y-59273228D01*
X81119000Y-59108816D01*
X81119000Y-58941184D01*
X81151703Y-58776772D01*
X81215853Y-58621900D01*
X81308985Y-58482519D01*
X81427519Y-58363985D01*
X81566900Y-58270853D01*
X81721772Y-58206703D01*
X81886184Y-58174000D01*
X82053816Y-58174000D01*
X82218228Y-58206703D01*
G37*
G36*
X84758228Y-58206703D02*
G01*
X84913100Y-58270853D01*
X85052481Y-58363985D01*
X85171015Y-58482519D01*
X85264147Y-58621900D01*
X85328297Y-58776772D01*
X85361000Y-58941184D01*
X85361000Y-59108816D01*
X85328297Y-59273228D01*
X85264147Y-59428100D01*
X85171015Y-59567481D01*
X85052481Y-59686015D01*
X84913100Y-59779147D01*
X84758228Y-59843297D01*
X84593816Y-59876000D01*
X84426184Y-59876000D01*
X84261772Y-59843297D01*
X84106900Y-59779147D01*
X83967519Y-59686015D01*
X83848985Y-59567481D01*
X83755853Y-59428100D01*
X83691703Y-59273228D01*
X83659000Y-59108816D01*
X83659000Y-58941184D01*
X83691703Y-58776772D01*
X83755853Y-58621900D01*
X83848985Y-58482519D01*
X83967519Y-58363985D01*
X84106900Y-58270853D01*
X84261772Y-58206703D01*
X84426184Y-58174000D01*
X84593816Y-58174000D01*
X84758228Y-58206703D01*
G37*
G36*
X67648228Y-58201703D02*
G01*
X67803100Y-58265853D01*
X67942481Y-58358985D01*
X68061015Y-58477519D01*
X68154147Y-58616900D01*
X68218297Y-58771772D01*
X68251000Y-58936184D01*
X68251000Y-59103816D01*
X68218297Y-59268228D01*
X68154147Y-59423100D01*
X68061015Y-59562481D01*
X67942481Y-59681015D01*
X67803100Y-59774147D01*
X67648228Y-59838297D01*
X67483816Y-59871000D01*
X67316184Y-59871000D01*
X67151772Y-59838297D01*
X66996900Y-59774147D01*
X66857519Y-59681015D01*
X66738985Y-59562481D01*
X66645853Y-59423100D01*
X66581703Y-59268228D01*
X66549000Y-59103816D01*
X66549000Y-58936184D01*
X66581703Y-58771772D01*
X66645853Y-58616900D01*
X66738985Y-58477519D01*
X66857519Y-58358985D01*
X66996900Y-58265853D01*
X67151772Y-58201703D01*
X67316184Y-58169000D01*
X67483816Y-58169000D01*
X67648228Y-58201703D01*
G37*
G36*
X60028228Y-58201703D02*
G01*
X60183100Y-58265853D01*
X60322481Y-58358985D01*
X60441015Y-58477519D01*
X60534147Y-58616900D01*
X60598297Y-58771772D01*
X60631000Y-58936184D01*
X60631000Y-59103816D01*
X60598297Y-59268228D01*
X60534147Y-59423100D01*
X60441015Y-59562481D01*
X60322481Y-59681015D01*
X60183100Y-59774147D01*
X60028228Y-59838297D01*
X59863816Y-59871000D01*
X59696184Y-59871000D01*
X59531772Y-59838297D01*
X59376900Y-59774147D01*
X59237519Y-59681015D01*
X59118985Y-59562481D01*
X59025853Y-59423100D01*
X58961703Y-59268228D01*
X58929000Y-59103816D01*
X58929000Y-58936184D01*
X58961703Y-58771772D01*
X59025853Y-58616900D01*
X59118985Y-58477519D01*
X59237519Y-58358985D01*
X59376900Y-58265853D01*
X59531772Y-58201703D01*
X59696184Y-58169000D01*
X59863816Y-58169000D01*
X60028228Y-58201703D01*
G37*
G36*
X62568228Y-58201703D02*
G01*
X62723100Y-58265853D01*
X62862481Y-58358985D01*
X62981015Y-58477519D01*
X63074147Y-58616900D01*
X63138297Y-58771772D01*
X63171000Y-58936184D01*
X63171000Y-59103816D01*
X63138297Y-59268228D01*
X63074147Y-59423100D01*
X62981015Y-59562481D01*
X62862481Y-59681015D01*
X62723100Y-59774147D01*
X62568228Y-59838297D01*
X62403816Y-59871000D01*
X62236184Y-59871000D01*
X62071772Y-59838297D01*
X61916900Y-59774147D01*
X61777519Y-59681015D01*
X61658985Y-59562481D01*
X61565853Y-59423100D01*
X61501703Y-59268228D01*
X61469000Y-59103816D01*
X61469000Y-58936184D01*
X61501703Y-58771772D01*
X61565853Y-58616900D01*
X61658985Y-58477519D01*
X61777519Y-58358985D01*
X61916900Y-58265853D01*
X62071772Y-58201703D01*
X62236184Y-58169000D01*
X62403816Y-58169000D01*
X62568228Y-58201703D01*
G37*
G36*
X65108228Y-58201703D02*
G01*
X65263100Y-58265853D01*
X65402481Y-58358985D01*
X65521015Y-58477519D01*
X65614147Y-58616900D01*
X65678297Y-58771772D01*
X65711000Y-58936184D01*
X65711000Y-59103816D01*
X65678297Y-59268228D01*
X65614147Y-59423100D01*
X65521015Y-59562481D01*
X65402481Y-59681015D01*
X65263100Y-59774147D01*
X65108228Y-59838297D01*
X64943816Y-59871000D01*
X64776184Y-59871000D01*
X64611772Y-59838297D01*
X64456900Y-59774147D01*
X64317519Y-59681015D01*
X64198985Y-59562481D01*
X64105853Y-59423100D01*
X64041703Y-59268228D01*
X64009000Y-59103816D01*
X64009000Y-58936184D01*
X64041703Y-58771772D01*
X64105853Y-58616900D01*
X64198985Y-58477519D01*
X64317519Y-58358985D01*
X64456900Y-58265853D01*
X64611772Y-58201703D01*
X64776184Y-58169000D01*
X64943816Y-58169000D01*
X65108228Y-58201703D01*
G37*
G36*
X44653512Y-56983927D02*
G01*
X44802812Y-57013624D01*
X44966784Y-57081544D01*
X45114354Y-57180147D01*
X45239853Y-57305646D01*
X45338456Y-57453216D01*
X45406376Y-57617188D01*
X45441000Y-57791259D01*
X45441000Y-57968741D01*
X45406376Y-58142812D01*
X45338456Y-58306784D01*
X45239853Y-58454354D01*
X45114354Y-58579853D01*
X44966784Y-58678456D01*
X44802812Y-58746376D01*
X44675139Y-58771771D01*
X44628742Y-58781000D01*
X44451258Y-58781000D01*
X44404861Y-58771771D01*
X44277188Y-58746376D01*
X44113216Y-58678456D01*
X43965646Y-58579853D01*
X43840147Y-58454354D01*
X43741544Y-58306784D01*
X43673624Y-58142812D01*
X43639000Y-57968741D01*
X43639000Y-57791259D01*
X43673624Y-57617188D01*
X43741544Y-57453216D01*
X43840147Y-57305646D01*
X43965646Y-57180147D01*
X44113216Y-57081544D01*
X44277188Y-57013624D01*
X44426488Y-56983927D01*
X44451258Y-56979000D01*
X44628742Y-56979000D01*
X44653512Y-56983927D01*
G37*
G36*
X34653512Y-56983927D02*
G01*
X34802812Y-57013624D01*
X34966784Y-57081544D01*
X35114354Y-57180147D01*
X35239853Y-57305646D01*
X35338456Y-57453216D01*
X35406376Y-57617188D01*
X35441000Y-57791259D01*
X35441000Y-57968741D01*
X35406376Y-58142812D01*
X35338456Y-58306784D01*
X35239853Y-58454354D01*
X35114354Y-58579853D01*
X34966784Y-58678456D01*
X34802812Y-58746376D01*
X34675139Y-58771771D01*
X34628742Y-58781000D01*
X34451258Y-58781000D01*
X34404861Y-58771771D01*
X34277188Y-58746376D01*
X34113216Y-58678456D01*
X33965646Y-58579853D01*
X33840147Y-58454354D01*
X33741544Y-58306784D01*
X33673624Y-58142812D01*
X33639000Y-57968741D01*
X33639000Y-57791259D01*
X33673624Y-57617188D01*
X33741544Y-57453216D01*
X33840147Y-57305646D01*
X33965646Y-57180147D01*
X34113216Y-57081544D01*
X34277188Y-57013624D01*
X34426488Y-56983927D01*
X34451258Y-56979000D01*
X34628742Y-56979000D01*
X34653512Y-56983927D01*
G37*
G36*
X32113512Y-56983927D02*
G01*
X32262812Y-57013624D01*
X32426784Y-57081544D01*
X32574354Y-57180147D01*
X32699853Y-57305646D01*
X32798456Y-57453216D01*
X32866376Y-57617188D01*
X32901000Y-57791259D01*
X32901000Y-57968741D01*
X32866376Y-58142812D01*
X32798456Y-58306784D01*
X32699853Y-58454354D01*
X32574354Y-58579853D01*
X32426784Y-58678456D01*
X32262812Y-58746376D01*
X32135139Y-58771771D01*
X32088742Y-58781000D01*
X31911258Y-58781000D01*
X31864861Y-58771771D01*
X31737188Y-58746376D01*
X31573216Y-58678456D01*
X31425646Y-58579853D01*
X31300147Y-58454354D01*
X31201544Y-58306784D01*
X31133624Y-58142812D01*
X31099000Y-57968741D01*
X31099000Y-57791259D01*
X31133624Y-57617188D01*
X31201544Y-57453216D01*
X31300147Y-57305646D01*
X31425646Y-57180147D01*
X31573216Y-57081544D01*
X31737188Y-57013624D01*
X31886488Y-56983927D01*
X31911258Y-56979000D01*
X32088742Y-56979000D01*
X32113512Y-56983927D01*
G37*
G36*
X42113512Y-56983927D02*
G01*
X42262812Y-57013624D01*
X42426784Y-57081544D01*
X42574354Y-57180147D01*
X42699853Y-57305646D01*
X42798456Y-57453216D01*
X42866376Y-57617188D01*
X42901000Y-57791259D01*
X42901000Y-57968741D01*
X42866376Y-58142812D01*
X42798456Y-58306784D01*
X42699853Y-58454354D01*
X42574354Y-58579853D01*
X42426784Y-58678456D01*
X42262812Y-58746376D01*
X42135139Y-58771771D01*
X42088742Y-58781000D01*
X41911258Y-58781000D01*
X41864861Y-58771771D01*
X41737188Y-58746376D01*
X41573216Y-58678456D01*
X41425646Y-58579853D01*
X41300147Y-58454354D01*
X41201544Y-58306784D01*
X41133624Y-58142812D01*
X41099000Y-57968741D01*
X41099000Y-57791259D01*
X41133624Y-57617188D01*
X41201544Y-57453216D01*
X41300147Y-57305646D01*
X41425646Y-57180147D01*
X41573216Y-57081544D01*
X41737188Y-57013624D01*
X41886488Y-56983927D01*
X41911258Y-56979000D01*
X42088742Y-56979000D01*
X42113512Y-56983927D01*
G37*
G36*
X42113512Y-54443927D02*
G01*
X42262812Y-54473624D01*
X42426784Y-54541544D01*
X42574354Y-54640147D01*
X42699853Y-54765646D01*
X42798456Y-54913216D01*
X42866376Y-55077188D01*
X42901000Y-55251259D01*
X42901000Y-55428741D01*
X42866376Y-55602812D01*
X42798456Y-55766784D01*
X42699853Y-55914354D01*
X42574354Y-56039853D01*
X42426784Y-56138456D01*
X42262812Y-56206376D01*
X42113512Y-56236073D01*
X42088742Y-56241000D01*
X41911258Y-56241000D01*
X41886488Y-56236073D01*
X41737188Y-56206376D01*
X41573216Y-56138456D01*
X41425646Y-56039853D01*
X41300147Y-55914354D01*
X41201544Y-55766784D01*
X41133624Y-55602812D01*
X41099000Y-55428741D01*
X41099000Y-55251259D01*
X41133624Y-55077188D01*
X41201544Y-54913216D01*
X41300147Y-54765646D01*
X41425646Y-54640147D01*
X41573216Y-54541544D01*
X41737188Y-54473624D01*
X41886488Y-54443927D01*
X41911258Y-54439000D01*
X42088742Y-54439000D01*
X42113512Y-54443927D01*
G37*
G36*
X44653512Y-54443927D02*
G01*
X44802812Y-54473624D01*
X44966784Y-54541544D01*
X45114354Y-54640147D01*
X45239853Y-54765646D01*
X45338456Y-54913216D01*
X45406376Y-55077188D01*
X45441000Y-55251259D01*
X45441000Y-55428741D01*
X45406376Y-55602812D01*
X45338456Y-55766784D01*
X45239853Y-55914354D01*
X45114354Y-56039853D01*
X44966784Y-56138456D01*
X44802812Y-56206376D01*
X44653512Y-56236073D01*
X44628742Y-56241000D01*
X44451258Y-56241000D01*
X44426488Y-56236073D01*
X44277188Y-56206376D01*
X44113216Y-56138456D01*
X43965646Y-56039853D01*
X43840147Y-55914354D01*
X43741544Y-55766784D01*
X43673624Y-55602812D01*
X43639000Y-55428741D01*
X43639000Y-55251259D01*
X43673624Y-55077188D01*
X43741544Y-54913216D01*
X43840147Y-54765646D01*
X43965646Y-54640147D01*
X44113216Y-54541544D01*
X44277188Y-54473624D01*
X44426488Y-54443927D01*
X44451258Y-54439000D01*
X44628742Y-54439000D01*
X44653512Y-54443927D01*
G37*
G36*
X32113512Y-54443927D02*
G01*
X32262812Y-54473624D01*
X32426784Y-54541544D01*
X32574354Y-54640147D01*
X32699853Y-54765646D01*
X32798456Y-54913216D01*
X32866376Y-55077188D01*
X32901000Y-55251259D01*
X32901000Y-55428741D01*
X32866376Y-55602812D01*
X32798456Y-55766784D01*
X32699853Y-55914354D01*
X32574354Y-56039853D01*
X32426784Y-56138456D01*
X32262812Y-56206376D01*
X32113512Y-56236073D01*
X32088742Y-56241000D01*
X31911258Y-56241000D01*
X31886488Y-56236073D01*
X31737188Y-56206376D01*
X31573216Y-56138456D01*
X31425646Y-56039853D01*
X31300147Y-55914354D01*
X31201544Y-55766784D01*
X31133624Y-55602812D01*
X31099000Y-55428741D01*
X31099000Y-55251259D01*
X31133624Y-55077188D01*
X31201544Y-54913216D01*
X31300147Y-54765646D01*
X31425646Y-54640147D01*
X31573216Y-54541544D01*
X31737188Y-54473624D01*
X31886488Y-54443927D01*
X31911258Y-54439000D01*
X32088742Y-54439000D01*
X32113512Y-54443927D01*
G37*
G36*
X34653512Y-54443927D02*
G01*
X34802812Y-54473624D01*
X34966784Y-54541544D01*
X35114354Y-54640147D01*
X35239853Y-54765646D01*
X35338456Y-54913216D01*
X35406376Y-55077188D01*
X35441000Y-55251259D01*
X35441000Y-55428741D01*
X35406376Y-55602812D01*
X35338456Y-55766784D01*
X35239853Y-55914354D01*
X35114354Y-56039853D01*
X34966784Y-56138456D01*
X34802812Y-56206376D01*
X34653512Y-56236073D01*
X34628742Y-56241000D01*
X34451258Y-56241000D01*
X34426488Y-56236073D01*
X34277188Y-56206376D01*
X34113216Y-56138456D01*
X33965646Y-56039853D01*
X33840147Y-55914354D01*
X33741544Y-55766784D01*
X33673624Y-55602812D01*
X33639000Y-55428741D01*
X33639000Y-55251259D01*
X33673624Y-55077188D01*
X33741544Y-54913216D01*
X33840147Y-54765646D01*
X33965646Y-54640147D01*
X34113216Y-54541544D01*
X34277188Y-54473624D01*
X34426488Y-54443927D01*
X34451258Y-54439000D01*
X34628742Y-54439000D01*
X34653512Y-54443927D01*
G37*
G36*
X42901000Y-53701000D02*
G01*
X41099000Y-53701000D01*
X41099000Y-51899000D01*
X42901000Y-51899000D01*
X42901000Y-53701000D01*
G37*
G36*
X44653512Y-51903927D02*
G01*
X44802812Y-51933624D01*
X44966784Y-52001544D01*
X45114354Y-52100147D01*
X45239853Y-52225646D01*
X45338456Y-52373216D01*
X45406376Y-52537188D01*
X45441000Y-52711259D01*
X45441000Y-52888741D01*
X45406376Y-53062812D01*
X45338456Y-53226784D01*
X45239853Y-53374354D01*
X45114354Y-53499853D01*
X44966784Y-53598456D01*
X44802812Y-53666376D01*
X44653512Y-53696073D01*
X44628742Y-53701000D01*
X44451258Y-53701000D01*
X44426488Y-53696073D01*
X44277188Y-53666376D01*
X44113216Y-53598456D01*
X43965646Y-53499853D01*
X43840147Y-53374354D01*
X43741544Y-53226784D01*
X43673624Y-53062812D01*
X43639000Y-52888741D01*
X43639000Y-52711259D01*
X43673624Y-52537188D01*
X43741544Y-52373216D01*
X43840147Y-52225646D01*
X43965646Y-52100147D01*
X44113216Y-52001544D01*
X44277188Y-51933624D01*
X44426488Y-51903927D01*
X44451258Y-51899000D01*
X44628742Y-51899000D01*
X44653512Y-51903927D01*
G37*
G36*
X32901000Y-53701000D02*
G01*
X31099000Y-53701000D01*
X31099000Y-51899000D01*
X32901000Y-51899000D01*
X32901000Y-53701000D01*
G37*
G36*
X34653512Y-51903927D02*
G01*
X34802812Y-51933624D01*
X34966784Y-52001544D01*
X35114354Y-52100147D01*
X35239853Y-52225646D01*
X35338456Y-52373216D01*
X35406376Y-52537188D01*
X35441000Y-52711259D01*
X35441000Y-52888741D01*
X35406376Y-53062812D01*
X35338456Y-53226784D01*
X35239853Y-53374354D01*
X35114354Y-53499853D01*
X34966784Y-53598456D01*
X34802812Y-53666376D01*
X34653512Y-53696073D01*
X34628742Y-53701000D01*
X34451258Y-53701000D01*
X34426488Y-53696073D01*
X34277188Y-53666376D01*
X34113216Y-53598456D01*
X33965646Y-53499853D01*
X33840147Y-53374354D01*
X33741544Y-53226784D01*
X33673624Y-53062812D01*
X33639000Y-52888741D01*
X33639000Y-52711259D01*
X33673624Y-52537188D01*
X33741544Y-52373216D01*
X33840147Y-52225646D01*
X33965646Y-52100147D01*
X34113216Y-52001544D01*
X34277188Y-51933624D01*
X34426488Y-51903927D01*
X34451258Y-51899000D01*
X34628742Y-51899000D01*
X34653512Y-51903927D01*
G37*
G36*
X82218228Y-50586703D02*
G01*
X82373100Y-50650853D01*
X82512481Y-50743985D01*
X82631015Y-50862519D01*
X82724147Y-51001900D01*
X82788297Y-51156772D01*
X82821000Y-51321184D01*
X82821000Y-51488816D01*
X82788297Y-51653228D01*
X82724147Y-51808100D01*
X82631015Y-51947481D01*
X82512481Y-52066015D01*
X82373100Y-52159147D01*
X82218228Y-52223297D01*
X82053816Y-52256000D01*
X81886184Y-52256000D01*
X81721772Y-52223297D01*
X81566900Y-52159147D01*
X81427519Y-52066015D01*
X81308985Y-51947481D01*
X81215853Y-51808100D01*
X81151703Y-51653228D01*
X81119000Y-51488816D01*
X81119000Y-51321184D01*
X81151703Y-51156772D01*
X81215853Y-51001900D01*
X81308985Y-50862519D01*
X81427519Y-50743985D01*
X81566900Y-50650853D01*
X81721772Y-50586703D01*
X81886184Y-50554000D01*
X82053816Y-50554000D01*
X82218228Y-50586703D01*
G37*
G36*
X79678228Y-50586703D02*
G01*
X79833100Y-50650853D01*
X79972481Y-50743985D01*
X80091015Y-50862519D01*
X80184147Y-51001900D01*
X80248297Y-51156772D01*
X80281000Y-51321184D01*
X80281000Y-51488816D01*
X80248297Y-51653228D01*
X80184147Y-51808100D01*
X80091015Y-51947481D01*
X79972481Y-52066015D01*
X79833100Y-52159147D01*
X79678228Y-52223297D01*
X79513816Y-52256000D01*
X79346184Y-52256000D01*
X79181772Y-52223297D01*
X79026900Y-52159147D01*
X78887519Y-52066015D01*
X78768985Y-51947481D01*
X78675853Y-51808100D01*
X78611703Y-51653228D01*
X78579000Y-51488816D01*
X78579000Y-51321184D01*
X78611703Y-51156772D01*
X78675853Y-51001900D01*
X78768985Y-50862519D01*
X78887519Y-50743985D01*
X79026900Y-50650853D01*
X79181772Y-50586703D01*
X79346184Y-50554000D01*
X79513816Y-50554000D01*
X79678228Y-50586703D01*
G37*
G36*
X84758228Y-50586703D02*
G01*
X84913100Y-50650853D01*
X85052481Y-50743985D01*
X85171015Y-50862519D01*
X85264147Y-51001900D01*
X85328297Y-51156772D01*
X85361000Y-51321184D01*
X85361000Y-51488816D01*
X85328297Y-51653228D01*
X85264147Y-51808100D01*
X85171015Y-51947481D01*
X85052481Y-52066015D01*
X84913100Y-52159147D01*
X84758228Y-52223297D01*
X84593816Y-52256000D01*
X84426184Y-52256000D01*
X84261772Y-52223297D01*
X84106900Y-52159147D01*
X83967519Y-52066015D01*
X83848985Y-51947481D01*
X83755853Y-51808100D01*
X83691703Y-51653228D01*
X83659000Y-51488816D01*
X83659000Y-51321184D01*
X83691703Y-51156772D01*
X83755853Y-51001900D01*
X83848985Y-50862519D01*
X83967519Y-50743985D01*
X84106900Y-50650853D01*
X84261772Y-50586703D01*
X84426184Y-50554000D01*
X84593816Y-50554000D01*
X84758228Y-50586703D01*
G37*
G36*
X87901000Y-52256000D02*
G01*
X86199000Y-52256000D01*
X86199000Y-50554000D01*
X87901000Y-50554000D01*
X87901000Y-52256000D01*
G37*
G36*
X68251000Y-52251000D02*
G01*
X66549000Y-52251000D01*
X66549000Y-50549000D01*
X68251000Y-50549000D01*
X68251000Y-52251000D01*
G37*
G36*
X65108228Y-50581703D02*
G01*
X65263100Y-50645853D01*
X65402481Y-50738985D01*
X65521015Y-50857519D01*
X65614147Y-50996900D01*
X65678297Y-51151772D01*
X65711000Y-51316184D01*
X65711000Y-51483816D01*
X65678297Y-51648228D01*
X65614147Y-51803100D01*
X65521015Y-51942481D01*
X65402481Y-52061015D01*
X65263100Y-52154147D01*
X65108228Y-52218297D01*
X64943816Y-52251000D01*
X64776184Y-52251000D01*
X64611772Y-52218297D01*
X64456900Y-52154147D01*
X64317519Y-52061015D01*
X64198985Y-51942481D01*
X64105853Y-51803100D01*
X64041703Y-51648228D01*
X64009000Y-51483816D01*
X64009000Y-51316184D01*
X64041703Y-51151772D01*
X64105853Y-50996900D01*
X64198985Y-50857519D01*
X64317519Y-50738985D01*
X64456900Y-50645853D01*
X64611772Y-50581703D01*
X64776184Y-50549000D01*
X64943816Y-50549000D01*
X65108228Y-50581703D01*
G37*
G36*
X60028228Y-50581703D02*
G01*
X60183100Y-50645853D01*
X60322481Y-50738985D01*
X60441015Y-50857519D01*
X60534147Y-50996900D01*
X60598297Y-51151772D01*
X60631000Y-51316184D01*
X60631000Y-51483816D01*
X60598297Y-51648228D01*
X60534147Y-51803100D01*
X60441015Y-51942481D01*
X60322481Y-52061015D01*
X60183100Y-52154147D01*
X60028228Y-52218297D01*
X59863816Y-52251000D01*
X59696184Y-52251000D01*
X59531772Y-52218297D01*
X59376900Y-52154147D01*
X59237519Y-52061015D01*
X59118985Y-51942481D01*
X59025853Y-51803100D01*
X58961703Y-51648228D01*
X58929000Y-51483816D01*
X58929000Y-51316184D01*
X58961703Y-51151772D01*
X59025853Y-50996900D01*
X59118985Y-50857519D01*
X59237519Y-50738985D01*
X59376900Y-50645853D01*
X59531772Y-50581703D01*
X59696184Y-50549000D01*
X59863816Y-50549000D01*
X60028228Y-50581703D01*
G37*
G36*
X62568228Y-50581703D02*
G01*
X62723100Y-50645853D01*
X62862481Y-50738985D01*
X62981015Y-50857519D01*
X63074147Y-50996900D01*
X63138297Y-51151772D01*
X63171000Y-51316184D01*
X63171000Y-51483816D01*
X63138297Y-51648228D01*
X63074147Y-51803100D01*
X62981015Y-51942481D01*
X62862481Y-52061015D01*
X62723100Y-52154147D01*
X62568228Y-52218297D01*
X62403816Y-52251000D01*
X62236184Y-52251000D01*
X62071772Y-52218297D01*
X61916900Y-52154147D01*
X61777519Y-52061015D01*
X61658985Y-51942481D01*
X61565853Y-51803100D01*
X61501703Y-51648228D01*
X61469000Y-51483816D01*
X61469000Y-51316184D01*
X61501703Y-51151772D01*
X61565853Y-50996900D01*
X61658985Y-50857519D01*
X61777519Y-50738985D01*
X61916900Y-50645853D01*
X62071772Y-50581703D01*
X62236184Y-50549000D01*
X62403816Y-50549000D01*
X62568228Y-50581703D01*
G37*
G36*
X118364903Y-48397075D02*
G01*
X118592571Y-48491378D01*
X118797466Y-48628285D01*
X118971715Y-48802534D01*
X119108622Y-49007429D01*
X119202925Y-49235097D01*
X119251000Y-49476787D01*
X119251000Y-49723213D01*
X119202925Y-49964903D01*
X119108622Y-50192571D01*
X118971715Y-50397466D01*
X118797466Y-50571715D01*
X118592571Y-50708622D01*
X118592570Y-50708623D01*
X118592569Y-50708623D01*
X118364903Y-50802925D01*
X118123214Y-50851000D01*
X117876786Y-50851000D01*
X117635097Y-50802925D01*
X117407431Y-50708623D01*
X117407430Y-50708623D01*
X117407429Y-50708622D01*
X117202534Y-50571715D01*
X117028285Y-50397466D01*
X116891378Y-50192571D01*
X116797075Y-49964903D01*
X116749000Y-49723213D01*
X116749000Y-49476787D01*
X116797075Y-49235097D01*
X116891378Y-49007429D01*
X117028285Y-48802534D01*
X117202534Y-48628285D01*
X117407429Y-48491378D01*
X117635097Y-48397075D01*
X117876786Y-48349000D01*
X118123214Y-48349000D01*
X118364903Y-48397075D01*
G37*
G36*
X106364903Y-48397075D02*
G01*
X106592571Y-48491378D01*
X106797466Y-48628285D01*
X106971715Y-48802534D01*
X107108622Y-49007429D01*
X107202925Y-49235097D01*
X107251000Y-49476787D01*
X107251000Y-49723213D01*
X107202925Y-49964903D01*
X107108622Y-50192571D01*
X106971715Y-50397466D01*
X106797466Y-50571715D01*
X106592571Y-50708622D01*
X106592570Y-50708623D01*
X106592569Y-50708623D01*
X106364903Y-50802925D01*
X106123214Y-50851000D01*
X105876786Y-50851000D01*
X105635097Y-50802925D01*
X105407431Y-50708623D01*
X105407430Y-50708623D01*
X105407429Y-50708622D01*
X105202534Y-50571715D01*
X105028285Y-50397466D01*
X104891378Y-50192571D01*
X104797075Y-49964903D01*
X104749000Y-49723213D01*
X104749000Y-49476787D01*
X104797075Y-49235097D01*
X104891378Y-49007429D01*
X105028285Y-48802534D01*
X105202534Y-48628285D01*
X105407429Y-48491378D01*
X105635097Y-48397075D01*
X105876786Y-48349000D01*
X106123214Y-48349000D01*
X106364903Y-48397075D01*
G37*
G36*
X113048228Y-44581703D02*
G01*
X113203100Y-44645853D01*
X113342481Y-44738985D01*
X113461015Y-44857519D01*
X113554147Y-44996900D01*
X113618297Y-45151772D01*
X113651000Y-45316184D01*
X113651000Y-45483816D01*
X113618297Y-45648228D01*
X113554147Y-45803100D01*
X113461015Y-45942481D01*
X113342481Y-46061015D01*
X113203100Y-46154147D01*
X113048228Y-46218297D01*
X112883816Y-46251000D01*
X112716184Y-46251000D01*
X112551772Y-46218297D01*
X112396900Y-46154147D01*
X112257519Y-46061015D01*
X112138985Y-45942481D01*
X112045853Y-45803100D01*
X111981703Y-45648228D01*
X111949000Y-45483816D01*
X111949000Y-45316184D01*
X111981703Y-45151772D01*
X112045853Y-44996900D01*
X112138985Y-44857519D01*
X112257519Y-44738985D01*
X112396900Y-44645853D01*
X112551772Y-44581703D01*
X112716184Y-44549000D01*
X112883816Y-44549000D01*
X113048228Y-44581703D01*
G37*
G36*
X103048228Y-44581703D02*
G01*
X103203100Y-44645853D01*
X103342481Y-44738985D01*
X103461015Y-44857519D01*
X103554147Y-44996900D01*
X103618297Y-45151772D01*
X103651000Y-45316184D01*
X103651000Y-45483816D01*
X103618297Y-45648228D01*
X103554147Y-45803100D01*
X103461015Y-45942481D01*
X103342481Y-46061015D01*
X103203100Y-46154147D01*
X103048228Y-46218297D01*
X102883816Y-46251000D01*
X102716184Y-46251000D01*
X102551772Y-46218297D01*
X102396900Y-46154147D01*
X102257519Y-46061015D01*
X102138985Y-45942481D01*
X102045853Y-45803100D01*
X101981703Y-45648228D01*
X101949000Y-45483816D01*
X101949000Y-45316184D01*
X101981703Y-45151772D01*
X102045853Y-44996900D01*
X102138985Y-44857519D01*
X102257519Y-44738985D01*
X102396900Y-44645853D01*
X102551772Y-44581703D01*
X102716184Y-44549000D01*
X102883816Y-44549000D01*
X103048228Y-44581703D01*
G37*
G36*
X32306416Y-42609879D02*
G01*
X32497592Y-42689067D01*
X32497594Y-42689068D01*
X32669648Y-42804031D01*
X32815969Y-42950352D01*
X32930933Y-43122408D01*
X33010121Y-43313584D01*
X33050490Y-43516534D01*
X33050490Y-43723466D01*
X33010121Y-43926416D01*
X32930933Y-44117592D01*
X32930932Y-44117594D01*
X32815969Y-44289648D01*
X32669648Y-44435969D01*
X32497594Y-44550932D01*
X32497593Y-44550933D01*
X32497592Y-44550933D01*
X32306416Y-44630121D01*
X32103466Y-44670490D01*
X31896534Y-44670490D01*
X31693584Y-44630121D01*
X31502408Y-44550933D01*
X31502407Y-44550933D01*
X31502406Y-44550932D01*
X31330352Y-44435969D01*
X31184031Y-44289648D01*
X31069068Y-44117594D01*
X31069067Y-44117592D01*
X30989879Y-43926416D01*
X30949510Y-43723466D01*
X30949510Y-43516534D01*
X30989879Y-43313584D01*
X31069067Y-43122408D01*
X31184031Y-42950352D01*
X31330352Y-42804031D01*
X31502406Y-42689068D01*
X31502408Y-42689067D01*
X31693584Y-42609879D01*
X31896534Y-42569510D01*
X32103466Y-42569510D01*
X32306416Y-42609879D01*
G37*
G36*
X32306416Y-40069879D02*
G01*
X32497592Y-40149067D01*
X32497594Y-40149068D01*
X32669648Y-40264031D01*
X32815969Y-40410352D01*
X32930933Y-40582408D01*
X33010121Y-40773584D01*
X33050490Y-40976534D01*
X33050490Y-41183466D01*
X33010121Y-41386416D01*
X32930933Y-41577592D01*
X32930932Y-41577594D01*
X32815969Y-41749648D01*
X32669648Y-41895969D01*
X32497594Y-42010932D01*
X32497593Y-42010933D01*
X32497592Y-42010933D01*
X32306416Y-42090121D01*
X32103466Y-42130490D01*
X31896534Y-42130490D01*
X31693584Y-42090121D01*
X31502408Y-42010933D01*
X31502407Y-42010933D01*
X31502406Y-42010932D01*
X31330352Y-41895969D01*
X31184031Y-41749648D01*
X31069068Y-41577594D01*
X31069067Y-41577592D01*
X30989879Y-41386416D01*
X30949510Y-41183466D01*
X30949510Y-40976534D01*
X30989879Y-40773584D01*
X31069067Y-40582408D01*
X31184031Y-40410352D01*
X31330352Y-40264031D01*
X31502406Y-40149068D01*
X31502408Y-40149067D01*
X31693584Y-40069879D01*
X31896534Y-40029510D01*
X32103466Y-40029510D01*
X32306416Y-40069879D01*
G37*
G36*
X113048228Y-39581703D02*
G01*
X113203100Y-39645853D01*
X113342481Y-39738985D01*
X113461015Y-39857519D01*
X113554147Y-39996900D01*
X113618297Y-40151772D01*
X113651000Y-40316184D01*
X113651000Y-40483816D01*
X113618297Y-40648228D01*
X113554147Y-40803100D01*
X113461015Y-40942481D01*
X113342481Y-41061015D01*
X113203100Y-41154147D01*
X113048228Y-41218297D01*
X112883816Y-41251000D01*
X112716184Y-41251000D01*
X112551772Y-41218297D01*
X112396900Y-41154147D01*
X112257519Y-41061015D01*
X112138985Y-40942481D01*
X112045853Y-40803100D01*
X111981703Y-40648228D01*
X111949000Y-40483816D01*
X111949000Y-40316184D01*
X111981703Y-40151772D01*
X112045853Y-39996900D01*
X112138985Y-39857519D01*
X112257519Y-39738985D01*
X112396900Y-39645853D01*
X112551772Y-39581703D01*
X112716184Y-39549000D01*
X112883816Y-39549000D01*
X113048228Y-39581703D01*
G37*
G36*
X103048228Y-39581703D02*
G01*
X103203100Y-39645853D01*
X103342481Y-39738985D01*
X103461015Y-39857519D01*
X103554147Y-39996900D01*
X103618297Y-40151772D01*
X103651000Y-40316184D01*
X103651000Y-40483816D01*
X103618297Y-40648228D01*
X103554147Y-40803100D01*
X103461015Y-40942481D01*
X103342481Y-41061015D01*
X103203100Y-41154147D01*
X103048228Y-41218297D01*
X102883816Y-41251000D01*
X102716184Y-41251000D01*
X102551772Y-41218297D01*
X102396900Y-41154147D01*
X102257519Y-41061015D01*
X102138985Y-40942481D01*
X102045853Y-40803100D01*
X101981703Y-40648228D01*
X101949000Y-40483816D01*
X101949000Y-40316184D01*
X101981703Y-40151772D01*
X102045853Y-39996900D01*
X102138985Y-39857519D01*
X102257519Y-39738985D01*
X102396900Y-39645853D01*
X102551772Y-39581703D01*
X102716184Y-39549000D01*
X102883816Y-39549000D01*
X103048228Y-39581703D01*
G37*
G36*
X32306416Y-37529879D02*
G01*
X32497592Y-37609067D01*
X32497594Y-37609068D01*
X32669648Y-37724031D01*
X32815969Y-37870352D01*
X32908601Y-38008985D01*
X32930933Y-38042408D01*
X33010121Y-38233584D01*
X33050490Y-38436534D01*
X33050490Y-38643466D01*
X33010121Y-38846416D01*
X32980375Y-38918228D01*
X32930932Y-39037594D01*
X32815969Y-39209648D01*
X32669648Y-39355969D01*
X32497594Y-39470932D01*
X32497593Y-39470933D01*
X32497592Y-39470933D01*
X32306416Y-39550121D01*
X32103466Y-39590490D01*
X31896534Y-39590490D01*
X31693584Y-39550121D01*
X31502408Y-39470933D01*
X31502407Y-39470933D01*
X31502406Y-39470932D01*
X31330352Y-39355969D01*
X31184031Y-39209648D01*
X31069068Y-39037594D01*
X31019625Y-38918228D01*
X30989879Y-38846416D01*
X30949510Y-38643466D01*
X30949510Y-38436534D01*
X30989879Y-38233584D01*
X31069067Y-38042408D01*
X31091400Y-38008985D01*
X31184031Y-37870352D01*
X31330352Y-37724031D01*
X31502406Y-37609068D01*
X31502408Y-37609067D01*
X31693584Y-37529879D01*
X31896534Y-37489510D01*
X32103466Y-37489510D01*
X32306416Y-37529879D01*
G37*
G36*
X83598228Y-37851703D02*
G01*
X83753100Y-37915853D01*
X83892481Y-38008985D01*
X84011015Y-38127519D01*
X84104147Y-38266900D01*
X84168297Y-38421772D01*
X84201000Y-38586184D01*
X84201000Y-38753816D01*
X84168297Y-38918228D01*
X84104147Y-39073100D01*
X84011015Y-39212481D01*
X83892481Y-39331015D01*
X83753100Y-39424147D01*
X83598228Y-39488297D01*
X83433816Y-39521000D01*
X83266184Y-39521000D01*
X83101772Y-39488297D01*
X82946900Y-39424147D01*
X82807519Y-39331015D01*
X82688985Y-39212481D01*
X82595853Y-39073100D01*
X82531703Y-38918228D01*
X82499000Y-38753816D01*
X82499000Y-38586184D01*
X82531703Y-38421772D01*
X82595853Y-38266900D01*
X82688985Y-38127519D01*
X82807519Y-38008985D01*
X82946900Y-37915853D01*
X83101772Y-37851703D01*
X83266184Y-37819000D01*
X83433816Y-37819000D01*
X83598228Y-37851703D01*
G37*
G36*
X81058228Y-37851703D02*
G01*
X81213100Y-37915853D01*
X81352481Y-38008985D01*
X81471015Y-38127519D01*
X81564147Y-38266900D01*
X81628297Y-38421772D01*
X81661000Y-38586184D01*
X81661000Y-38753816D01*
X81628297Y-38918228D01*
X81564147Y-39073100D01*
X81471015Y-39212481D01*
X81352481Y-39331015D01*
X81213100Y-39424147D01*
X81058228Y-39488297D01*
X80893816Y-39521000D01*
X80726184Y-39521000D01*
X80561772Y-39488297D01*
X80406900Y-39424147D01*
X80267519Y-39331015D01*
X80148985Y-39212481D01*
X80055853Y-39073100D01*
X79991703Y-38918228D01*
X79959000Y-38753816D01*
X79959000Y-38586184D01*
X79991703Y-38421772D01*
X80055853Y-38266900D01*
X80148985Y-38127519D01*
X80267519Y-38008985D01*
X80406900Y-37915853D01*
X80561772Y-37851703D01*
X80726184Y-37819000D01*
X80893816Y-37819000D01*
X81058228Y-37851703D01*
G37*
G36*
X78518228Y-37851703D02*
G01*
X78673100Y-37915853D01*
X78812481Y-38008985D01*
X78931015Y-38127519D01*
X79024147Y-38266900D01*
X79088297Y-38421772D01*
X79121000Y-38586184D01*
X79121000Y-38753816D01*
X79088297Y-38918228D01*
X79024147Y-39073100D01*
X78931015Y-39212481D01*
X78812481Y-39331015D01*
X78673100Y-39424147D01*
X78518228Y-39488297D01*
X78353816Y-39521000D01*
X78186184Y-39521000D01*
X78021772Y-39488297D01*
X77866900Y-39424147D01*
X77727519Y-39331015D01*
X77608985Y-39212481D01*
X77515853Y-39073100D01*
X77451703Y-38918228D01*
X77419000Y-38753816D01*
X77419000Y-38586184D01*
X77451703Y-38421772D01*
X77515853Y-38266900D01*
X77608985Y-38127519D01*
X77727519Y-38008985D01*
X77866900Y-37915853D01*
X78021772Y-37851703D01*
X78186184Y-37819000D01*
X78353816Y-37819000D01*
X78518228Y-37851703D01*
G37*
G36*
X75978228Y-37851703D02*
G01*
X76133100Y-37915853D01*
X76272481Y-38008985D01*
X76391015Y-38127519D01*
X76484147Y-38266900D01*
X76548297Y-38421772D01*
X76581000Y-38586184D01*
X76581000Y-38753816D01*
X76548297Y-38918228D01*
X76484147Y-39073100D01*
X76391015Y-39212481D01*
X76272481Y-39331015D01*
X76133100Y-39424147D01*
X75978228Y-39488297D01*
X75813816Y-39521000D01*
X75646184Y-39521000D01*
X75481772Y-39488297D01*
X75326900Y-39424147D01*
X75187519Y-39331015D01*
X75068985Y-39212481D01*
X74975853Y-39073100D01*
X74911703Y-38918228D01*
X74879000Y-38753816D01*
X74879000Y-38586184D01*
X74911703Y-38421772D01*
X74975853Y-38266900D01*
X75068985Y-38127519D01*
X75187519Y-38008985D01*
X75326900Y-37915853D01*
X75481772Y-37851703D01*
X75646184Y-37819000D01*
X75813816Y-37819000D01*
X75978228Y-37851703D01*
G37*
G36*
X41578228Y-37851703D02*
G01*
X41733100Y-37915853D01*
X41872481Y-38008985D01*
X41991015Y-38127519D01*
X42084147Y-38266900D01*
X42148297Y-38421772D01*
X42181000Y-38586184D01*
X42181000Y-38753816D01*
X42148297Y-38918228D01*
X42084147Y-39073100D01*
X41991015Y-39212481D01*
X41872481Y-39331015D01*
X41733100Y-39424147D01*
X41578228Y-39488297D01*
X41413816Y-39521000D01*
X41246184Y-39521000D01*
X41081772Y-39488297D01*
X40926900Y-39424147D01*
X40787519Y-39331015D01*
X40668985Y-39212481D01*
X40575853Y-39073100D01*
X40511703Y-38918228D01*
X40479000Y-38753816D01*
X40479000Y-38586184D01*
X40511703Y-38421772D01*
X40575853Y-38266900D01*
X40668985Y-38127519D01*
X40787519Y-38008985D01*
X40926900Y-37915853D01*
X41081772Y-37851703D01*
X41246184Y-37819000D01*
X41413816Y-37819000D01*
X41578228Y-37851703D01*
G37*
G36*
X67518228Y-37851703D02*
G01*
X67673100Y-37915853D01*
X67812481Y-38008985D01*
X67931015Y-38127519D01*
X68024147Y-38266900D01*
X68088297Y-38421772D01*
X68121000Y-38586184D01*
X68121000Y-38753816D01*
X68088297Y-38918228D01*
X68024147Y-39073100D01*
X67931015Y-39212481D01*
X67812481Y-39331015D01*
X67673100Y-39424147D01*
X67518228Y-39488297D01*
X67353816Y-39521000D01*
X67186184Y-39521000D01*
X67021772Y-39488297D01*
X66866900Y-39424147D01*
X66727519Y-39331015D01*
X66608985Y-39212481D01*
X66515853Y-39073100D01*
X66451703Y-38918228D01*
X66419000Y-38753816D01*
X66419000Y-38586184D01*
X66451703Y-38421772D01*
X66515853Y-38266900D01*
X66608985Y-38127519D01*
X66727519Y-38008985D01*
X66866900Y-37915853D01*
X67021772Y-37851703D01*
X67186184Y-37819000D01*
X67353816Y-37819000D01*
X67518228Y-37851703D01*
G37*
G36*
X64978228Y-37851703D02*
G01*
X65133100Y-37915853D01*
X65272481Y-38008985D01*
X65391015Y-38127519D01*
X65484147Y-38266900D01*
X65548297Y-38421772D01*
X65581000Y-38586184D01*
X65581000Y-38753816D01*
X65548297Y-38918228D01*
X65484147Y-39073100D01*
X65391015Y-39212481D01*
X65272481Y-39331015D01*
X65133100Y-39424147D01*
X64978228Y-39488297D01*
X64813816Y-39521000D01*
X64646184Y-39521000D01*
X64481772Y-39488297D01*
X64326900Y-39424147D01*
X64187519Y-39331015D01*
X64068985Y-39212481D01*
X63975853Y-39073100D01*
X63911703Y-38918228D01*
X63879000Y-38753816D01*
X63879000Y-38586184D01*
X63911703Y-38421772D01*
X63975853Y-38266900D01*
X64068985Y-38127519D01*
X64187519Y-38008985D01*
X64326900Y-37915853D01*
X64481772Y-37851703D01*
X64646184Y-37819000D01*
X64813816Y-37819000D01*
X64978228Y-37851703D01*
G37*
G36*
X46658228Y-37851703D02*
G01*
X46813100Y-37915853D01*
X46952481Y-38008985D01*
X47071015Y-38127519D01*
X47164147Y-38266900D01*
X47228297Y-38421772D01*
X47261000Y-38586184D01*
X47261000Y-38753816D01*
X47228297Y-38918228D01*
X47164147Y-39073100D01*
X47071015Y-39212481D01*
X46952481Y-39331015D01*
X46813100Y-39424147D01*
X46658228Y-39488297D01*
X46493816Y-39521000D01*
X46326184Y-39521000D01*
X46161772Y-39488297D01*
X46006900Y-39424147D01*
X45867519Y-39331015D01*
X45748985Y-39212481D01*
X45655853Y-39073100D01*
X45591703Y-38918228D01*
X45559000Y-38753816D01*
X45559000Y-38586184D01*
X45591703Y-38421772D01*
X45655853Y-38266900D01*
X45748985Y-38127519D01*
X45867519Y-38008985D01*
X46006900Y-37915853D01*
X46161772Y-37851703D01*
X46326184Y-37819000D01*
X46493816Y-37819000D01*
X46658228Y-37851703D01*
G37*
G36*
X49198228Y-37851703D02*
G01*
X49353100Y-37915853D01*
X49492481Y-38008985D01*
X49611015Y-38127519D01*
X49704147Y-38266900D01*
X49768297Y-38421772D01*
X49801000Y-38586184D01*
X49801000Y-38753816D01*
X49768297Y-38918228D01*
X49704147Y-39073100D01*
X49611015Y-39212481D01*
X49492481Y-39331015D01*
X49353100Y-39424147D01*
X49198228Y-39488297D01*
X49033816Y-39521000D01*
X48866184Y-39521000D01*
X48701772Y-39488297D01*
X48546900Y-39424147D01*
X48407519Y-39331015D01*
X48288985Y-39212481D01*
X48195853Y-39073100D01*
X48131703Y-38918228D01*
X48099000Y-38753816D01*
X48099000Y-38586184D01*
X48131703Y-38421772D01*
X48195853Y-38266900D01*
X48288985Y-38127519D01*
X48407519Y-38008985D01*
X48546900Y-37915853D01*
X48701772Y-37851703D01*
X48866184Y-37819000D01*
X49033816Y-37819000D01*
X49198228Y-37851703D01*
G37*
G36*
X72598228Y-37851703D02*
G01*
X72753100Y-37915853D01*
X72892481Y-38008985D01*
X73011015Y-38127519D01*
X73104147Y-38266900D01*
X73168297Y-38421772D01*
X73201000Y-38586184D01*
X73201000Y-38753816D01*
X73168297Y-38918228D01*
X73104147Y-39073100D01*
X73011015Y-39212481D01*
X72892481Y-39331015D01*
X72753100Y-39424147D01*
X72598228Y-39488297D01*
X72433816Y-39521000D01*
X72266184Y-39521000D01*
X72101772Y-39488297D01*
X71946900Y-39424147D01*
X71807519Y-39331015D01*
X71688985Y-39212481D01*
X71595853Y-39073100D01*
X71531703Y-38918228D01*
X71499000Y-38753816D01*
X71499000Y-38586184D01*
X71531703Y-38421772D01*
X71595853Y-38266900D01*
X71688985Y-38127519D01*
X71807519Y-38008985D01*
X71946900Y-37915853D01*
X72101772Y-37851703D01*
X72266184Y-37819000D01*
X72433816Y-37819000D01*
X72598228Y-37851703D01*
G37*
G36*
X70058228Y-37851703D02*
G01*
X70213100Y-37915853D01*
X70352481Y-38008985D01*
X70471015Y-38127519D01*
X70564147Y-38266900D01*
X70628297Y-38421772D01*
X70661000Y-38586184D01*
X70661000Y-38753816D01*
X70628297Y-38918228D01*
X70564147Y-39073100D01*
X70471015Y-39212481D01*
X70352481Y-39331015D01*
X70213100Y-39424147D01*
X70058228Y-39488297D01*
X69893816Y-39521000D01*
X69726184Y-39521000D01*
X69561772Y-39488297D01*
X69406900Y-39424147D01*
X69267519Y-39331015D01*
X69148985Y-39212481D01*
X69055853Y-39073100D01*
X68991703Y-38918228D01*
X68959000Y-38753816D01*
X68959000Y-38586184D01*
X68991703Y-38421772D01*
X69055853Y-38266900D01*
X69148985Y-38127519D01*
X69267519Y-38008985D01*
X69406900Y-37915853D01*
X69561772Y-37851703D01*
X69726184Y-37819000D01*
X69893816Y-37819000D01*
X70058228Y-37851703D01*
G37*
G36*
X44118228Y-37851703D02*
G01*
X44273100Y-37915853D01*
X44412481Y-38008985D01*
X44531015Y-38127519D01*
X44624147Y-38266900D01*
X44688297Y-38421772D01*
X44721000Y-38586184D01*
X44721000Y-38753816D01*
X44688297Y-38918228D01*
X44624147Y-39073100D01*
X44531015Y-39212481D01*
X44412481Y-39331015D01*
X44273100Y-39424147D01*
X44118228Y-39488297D01*
X43953816Y-39521000D01*
X43786184Y-39521000D01*
X43621772Y-39488297D01*
X43466900Y-39424147D01*
X43327519Y-39331015D01*
X43208985Y-39212481D01*
X43115853Y-39073100D01*
X43051703Y-38918228D01*
X43019000Y-38753816D01*
X43019000Y-38586184D01*
X43051703Y-38421772D01*
X43115853Y-38266900D01*
X43208985Y-38127519D01*
X43327519Y-38008985D01*
X43466900Y-37915853D01*
X43621772Y-37851703D01*
X43786184Y-37819000D01*
X43953816Y-37819000D01*
X44118228Y-37851703D01*
G37*
G36*
X33050490Y-37050490D02*
G01*
X30949510Y-37050490D01*
X30949510Y-34949510D01*
X33050490Y-34949510D01*
X33050490Y-37050490D01*
G37*
G36*
X103403512Y-33833927D02*
G01*
X103552812Y-33863624D01*
X103716784Y-33931544D01*
X103864354Y-34030147D01*
X103989853Y-34155646D01*
X104088456Y-34303216D01*
X104156376Y-34467188D01*
X104191000Y-34641259D01*
X104191000Y-34818741D01*
X104156376Y-34992812D01*
X104088456Y-35156784D01*
X103989853Y-35304354D01*
X103864354Y-35429853D01*
X103716784Y-35528456D01*
X103552812Y-35596376D01*
X103403512Y-35626073D01*
X103378742Y-35631000D01*
X103201258Y-35631000D01*
X103176488Y-35626073D01*
X103027188Y-35596376D01*
X102863216Y-35528456D01*
X102715646Y-35429853D01*
X102590147Y-35304354D01*
X102491544Y-35156784D01*
X102423624Y-34992812D01*
X102389000Y-34818741D01*
X102389000Y-34641259D01*
X102423624Y-34467188D01*
X102491544Y-34303216D01*
X102590147Y-34155646D01*
X102715646Y-34030147D01*
X102863216Y-33931544D01*
X103027188Y-33863624D01*
X103176488Y-33833927D01*
X103201258Y-33829000D01*
X103378742Y-33829000D01*
X103403512Y-33833927D01*
G37*
G36*
X100863512Y-33833927D02*
G01*
X101012812Y-33863624D01*
X101176784Y-33931544D01*
X101324354Y-34030147D01*
X101449853Y-34155646D01*
X101548456Y-34303216D01*
X101616376Y-34467188D01*
X101651000Y-34641259D01*
X101651000Y-34818741D01*
X101616376Y-34992812D01*
X101548456Y-35156784D01*
X101449853Y-35304354D01*
X101324354Y-35429853D01*
X101176784Y-35528456D01*
X101012812Y-35596376D01*
X100863512Y-35626073D01*
X100838742Y-35631000D01*
X100661258Y-35631000D01*
X100636488Y-35626073D01*
X100487188Y-35596376D01*
X100323216Y-35528456D01*
X100175646Y-35429853D01*
X100050147Y-35304354D01*
X99951544Y-35156784D01*
X99883624Y-34992812D01*
X99849000Y-34818741D01*
X99849000Y-34641259D01*
X99883624Y-34467188D01*
X99951544Y-34303216D01*
X100050147Y-34155646D01*
X100175646Y-34030147D01*
X100323216Y-33931544D01*
X100487188Y-33863624D01*
X100636488Y-33833927D01*
X100661258Y-33829000D01*
X100838742Y-33829000D01*
X100863512Y-33833927D01*
G37*
G36*
X90513512Y-33783927D02*
G01*
X90662812Y-33813624D01*
X90826784Y-33881544D01*
X90974354Y-33980147D01*
X91099853Y-34105646D01*
X91198456Y-34253216D01*
X91266376Y-34417188D01*
X91301000Y-34591259D01*
X91301000Y-34768741D01*
X91266376Y-34942812D01*
X91198456Y-35106784D01*
X91099853Y-35254354D01*
X90974354Y-35379853D01*
X90826784Y-35478456D01*
X90662812Y-35546376D01*
X90513512Y-35576073D01*
X90488742Y-35581000D01*
X90311258Y-35581000D01*
X90286488Y-35576073D01*
X90137188Y-35546376D01*
X89973216Y-35478456D01*
X89825646Y-35379853D01*
X89700147Y-35254354D01*
X89601544Y-35106784D01*
X89533624Y-34942812D01*
X89499000Y-34768741D01*
X89499000Y-34591259D01*
X89533624Y-34417188D01*
X89601544Y-34253216D01*
X89700147Y-34105646D01*
X89825646Y-33980147D01*
X89973216Y-33881544D01*
X90137188Y-33813624D01*
X90286488Y-33783927D01*
X90311258Y-33779000D01*
X90488742Y-33779000D01*
X90513512Y-33783927D01*
G37*
G36*
X93053512Y-33783927D02*
G01*
X93202812Y-33813624D01*
X93366784Y-33881544D01*
X93514354Y-33980147D01*
X93639853Y-34105646D01*
X93738456Y-34253216D01*
X93806376Y-34417188D01*
X93841000Y-34591259D01*
X93841000Y-34768741D01*
X93806376Y-34942812D01*
X93738456Y-35106784D01*
X93639853Y-35254354D01*
X93514354Y-35379853D01*
X93366784Y-35478456D01*
X93202812Y-35546376D01*
X93053512Y-35576073D01*
X93028742Y-35581000D01*
X92851258Y-35581000D01*
X92826488Y-35576073D01*
X92677188Y-35546376D01*
X92513216Y-35478456D01*
X92365646Y-35379853D01*
X92240147Y-35254354D01*
X92141544Y-35106784D01*
X92073624Y-34942812D01*
X92039000Y-34768741D01*
X92039000Y-34591259D01*
X92073624Y-34417188D01*
X92141544Y-34253216D01*
X92240147Y-34105646D01*
X92365646Y-33980147D01*
X92513216Y-33881544D01*
X92677188Y-33813624D01*
X92826488Y-33783927D01*
X92851258Y-33779000D01*
X93028742Y-33779000D01*
X93053512Y-33783927D01*
G37*
G36*
X58053512Y-33783927D02*
G01*
X58202812Y-33813624D01*
X58366784Y-33881544D01*
X58514354Y-33980147D01*
X58639853Y-34105646D01*
X58738456Y-34253216D01*
X58806376Y-34417188D01*
X58841000Y-34591259D01*
X58841000Y-34768741D01*
X58806376Y-34942812D01*
X58738456Y-35106784D01*
X58639853Y-35254354D01*
X58514354Y-35379853D01*
X58366784Y-35478456D01*
X58202812Y-35546376D01*
X58053512Y-35576073D01*
X58028742Y-35581000D01*
X57851258Y-35581000D01*
X57826488Y-35576073D01*
X57677188Y-35546376D01*
X57513216Y-35478456D01*
X57365646Y-35379853D01*
X57240147Y-35254354D01*
X57141544Y-35106784D01*
X57073624Y-34942812D01*
X57039000Y-34768741D01*
X57039000Y-34591259D01*
X57073624Y-34417188D01*
X57141544Y-34253216D01*
X57240147Y-34105646D01*
X57365646Y-33980147D01*
X57513216Y-33881544D01*
X57677188Y-33813624D01*
X57826488Y-33783927D01*
X57851258Y-33779000D01*
X58028742Y-33779000D01*
X58053512Y-33783927D01*
G37*
G36*
X55513512Y-33783927D02*
G01*
X55662812Y-33813624D01*
X55826784Y-33881544D01*
X55974354Y-33980147D01*
X56099853Y-34105646D01*
X56198456Y-34253216D01*
X56266376Y-34417188D01*
X56301000Y-34591259D01*
X56301000Y-34768741D01*
X56266376Y-34942812D01*
X56198456Y-35106784D01*
X56099853Y-35254354D01*
X55974354Y-35379853D01*
X55826784Y-35478456D01*
X55662812Y-35546376D01*
X55513512Y-35576073D01*
X55488742Y-35581000D01*
X55311258Y-35581000D01*
X55286488Y-35576073D01*
X55137188Y-35546376D01*
X54973216Y-35478456D01*
X54825646Y-35379853D01*
X54700147Y-35254354D01*
X54601544Y-35106784D01*
X54533624Y-34942812D01*
X54499000Y-34768741D01*
X54499000Y-34591259D01*
X54533624Y-34417188D01*
X54601544Y-34253216D01*
X54700147Y-34105646D01*
X54825646Y-33980147D01*
X54973216Y-33881544D01*
X55137188Y-33813624D01*
X55286488Y-33783927D01*
X55311258Y-33779000D01*
X55488742Y-33779000D01*
X55513512Y-33783927D01*
G37*
G36*
X114190490Y-33250490D02*
G01*
X112089510Y-33250490D01*
X112089510Y-31149510D01*
X114190490Y-31149510D01*
X114190490Y-33250490D01*
G37*
G36*
X110906416Y-31189879D02*
G01*
X111097592Y-31269067D01*
X111097594Y-31269068D01*
X111269648Y-31384031D01*
X111415969Y-31530352D01*
X111496584Y-31651000D01*
X111530933Y-31702408D01*
X111610121Y-31893584D01*
X111650490Y-32096534D01*
X111650490Y-32303466D01*
X111610121Y-32506416D01*
X111564405Y-32616784D01*
X111530932Y-32697594D01*
X111415969Y-32869648D01*
X111269648Y-33015969D01*
X111097594Y-33130932D01*
X111097593Y-33130933D01*
X111097592Y-33130933D01*
X110906416Y-33210121D01*
X110703466Y-33250490D01*
X110496534Y-33250490D01*
X110293584Y-33210121D01*
X110102408Y-33130933D01*
X110102407Y-33130933D01*
X110102406Y-33130932D01*
X109930352Y-33015969D01*
X109784031Y-32869648D01*
X109669068Y-32697594D01*
X109635595Y-32616784D01*
X109589879Y-32506416D01*
X109549510Y-32303466D01*
X109549510Y-32096534D01*
X109589879Y-31893584D01*
X109669067Y-31702408D01*
X109703417Y-31651000D01*
X109784031Y-31530352D01*
X109930352Y-31384031D01*
X110102406Y-31269068D01*
X110102408Y-31269067D01*
X110293584Y-31189879D01*
X110496534Y-31149510D01*
X110703466Y-31149510D01*
X110906416Y-31189879D01*
G37*
G36*
X103403512Y-31293927D02*
G01*
X103552812Y-31323624D01*
X103716784Y-31391544D01*
X103864354Y-31490147D01*
X103989853Y-31615646D01*
X104088456Y-31763216D01*
X104156376Y-31927188D01*
X104191000Y-32101259D01*
X104191000Y-32278741D01*
X104156376Y-32452812D01*
X104088456Y-32616784D01*
X103989853Y-32764354D01*
X103864354Y-32889853D01*
X103716784Y-32988456D01*
X103552812Y-33056376D01*
X103403512Y-33086073D01*
X103378742Y-33091000D01*
X103201258Y-33091000D01*
X103176488Y-33086073D01*
X103027188Y-33056376D01*
X102863216Y-32988456D01*
X102715646Y-32889853D01*
X102590147Y-32764354D01*
X102491544Y-32616784D01*
X102423624Y-32452812D01*
X102389000Y-32278741D01*
X102389000Y-32101259D01*
X102423624Y-31927188D01*
X102491544Y-31763216D01*
X102590147Y-31615646D01*
X102715646Y-31490147D01*
X102863216Y-31391544D01*
X103027188Y-31323624D01*
X103176488Y-31293927D01*
X103201258Y-31289000D01*
X103378742Y-31289000D01*
X103403512Y-31293927D01*
G37*
G36*
X100863512Y-31293927D02*
G01*
X101012812Y-31323624D01*
X101176784Y-31391544D01*
X101324354Y-31490147D01*
X101449853Y-31615646D01*
X101548456Y-31763216D01*
X101616376Y-31927188D01*
X101651000Y-32101259D01*
X101651000Y-32278741D01*
X101616376Y-32452812D01*
X101548456Y-32616784D01*
X101449853Y-32764354D01*
X101324354Y-32889853D01*
X101176784Y-32988456D01*
X101012812Y-33056376D01*
X100863512Y-33086073D01*
X100838742Y-33091000D01*
X100661258Y-33091000D01*
X100636488Y-33086073D01*
X100487188Y-33056376D01*
X100323216Y-32988456D01*
X100175646Y-32889853D01*
X100050147Y-32764354D01*
X99951544Y-32616784D01*
X99883624Y-32452812D01*
X99849000Y-32278741D01*
X99849000Y-32101259D01*
X99883624Y-31927188D01*
X99951544Y-31763216D01*
X100050147Y-31615646D01*
X100175646Y-31490147D01*
X100323216Y-31391544D01*
X100487188Y-31323624D01*
X100636488Y-31293927D01*
X100661258Y-31289000D01*
X100838742Y-31289000D01*
X100863512Y-31293927D01*
G37*
G36*
X93053512Y-31243927D02*
G01*
X93202812Y-31273624D01*
X93366784Y-31341544D01*
X93514354Y-31440147D01*
X93639853Y-31565646D01*
X93738456Y-31713216D01*
X93806376Y-31877188D01*
X93841000Y-32051259D01*
X93841000Y-32228741D01*
X93806376Y-32402812D01*
X93738456Y-32566784D01*
X93639853Y-32714354D01*
X93514354Y-32839853D01*
X93366784Y-32938456D01*
X93202812Y-33006376D01*
X93053512Y-33036073D01*
X93028742Y-33041000D01*
X92851258Y-33041000D01*
X92826488Y-33036073D01*
X92677188Y-33006376D01*
X92513216Y-32938456D01*
X92365646Y-32839853D01*
X92240147Y-32714354D01*
X92141544Y-32566784D01*
X92073624Y-32402812D01*
X92039000Y-32228741D01*
X92039000Y-32051259D01*
X92073624Y-31877188D01*
X92141544Y-31713216D01*
X92240147Y-31565646D01*
X92365646Y-31440147D01*
X92513216Y-31341544D01*
X92677188Y-31273624D01*
X92826488Y-31243927D01*
X92851258Y-31239000D01*
X93028742Y-31239000D01*
X93053512Y-31243927D01*
G37*
G36*
X90513512Y-31243927D02*
G01*
X90662812Y-31273624D01*
X90826784Y-31341544D01*
X90974354Y-31440147D01*
X91099853Y-31565646D01*
X91198456Y-31713216D01*
X91266376Y-31877188D01*
X91301000Y-32051259D01*
X91301000Y-32228741D01*
X91266376Y-32402812D01*
X91198456Y-32566784D01*
X91099853Y-32714354D01*
X90974354Y-32839853D01*
X90826784Y-32938456D01*
X90662812Y-33006376D01*
X90513512Y-33036073D01*
X90488742Y-33041000D01*
X90311258Y-33041000D01*
X90286488Y-33036073D01*
X90137188Y-33006376D01*
X89973216Y-32938456D01*
X89825646Y-32839853D01*
X89700147Y-32714354D01*
X89601544Y-32566784D01*
X89533624Y-32402812D01*
X89499000Y-32228741D01*
X89499000Y-32051259D01*
X89533624Y-31877188D01*
X89601544Y-31713216D01*
X89700147Y-31565646D01*
X89825646Y-31440147D01*
X89973216Y-31341544D01*
X90137188Y-31273624D01*
X90286488Y-31243927D01*
X90311258Y-31239000D01*
X90488742Y-31239000D01*
X90513512Y-31243927D01*
G37*
G36*
X58053512Y-31243927D02*
G01*
X58202812Y-31273624D01*
X58366784Y-31341544D01*
X58514354Y-31440147D01*
X58639853Y-31565646D01*
X58738456Y-31713216D01*
X58806376Y-31877188D01*
X58841000Y-32051259D01*
X58841000Y-32228741D01*
X58806376Y-32402812D01*
X58738456Y-32566784D01*
X58639853Y-32714354D01*
X58514354Y-32839853D01*
X58366784Y-32938456D01*
X58202812Y-33006376D01*
X58053512Y-33036073D01*
X58028742Y-33041000D01*
X57851258Y-33041000D01*
X57826488Y-33036073D01*
X57677188Y-33006376D01*
X57513216Y-32938456D01*
X57365646Y-32839853D01*
X57240147Y-32714354D01*
X57141544Y-32566784D01*
X57073624Y-32402812D01*
X57039000Y-32228741D01*
X57039000Y-32051259D01*
X57073624Y-31877188D01*
X57141544Y-31713216D01*
X57240147Y-31565646D01*
X57365646Y-31440147D01*
X57513216Y-31341544D01*
X57677188Y-31273624D01*
X57826488Y-31243927D01*
X57851258Y-31239000D01*
X58028742Y-31239000D01*
X58053512Y-31243927D01*
G37*
G36*
X55513512Y-31243927D02*
G01*
X55662812Y-31273624D01*
X55826784Y-31341544D01*
X55974354Y-31440147D01*
X56099853Y-31565646D01*
X56198456Y-31713216D01*
X56266376Y-31877188D01*
X56301000Y-32051259D01*
X56301000Y-32228741D01*
X56266376Y-32402812D01*
X56198456Y-32566784D01*
X56099853Y-32714354D01*
X55974354Y-32839853D01*
X55826784Y-32938456D01*
X55662812Y-33006376D01*
X55513512Y-33036073D01*
X55488742Y-33041000D01*
X55311258Y-33041000D01*
X55286488Y-33036073D01*
X55137188Y-33006376D01*
X54973216Y-32938456D01*
X54825646Y-32839853D01*
X54700147Y-32714354D01*
X54601544Y-32566784D01*
X54533624Y-32402812D01*
X54499000Y-32228741D01*
X54499000Y-32051259D01*
X54533624Y-31877188D01*
X54601544Y-31713216D01*
X54700147Y-31565646D01*
X54825646Y-31440147D01*
X54973216Y-31341544D01*
X55137188Y-31273624D01*
X55286488Y-31243927D01*
X55311258Y-31239000D01*
X55488742Y-31239000D01*
X55513512Y-31243927D01*
G37*
G36*
X81058228Y-30231703D02*
G01*
X81213100Y-30295853D01*
X81352481Y-30388985D01*
X81471015Y-30507519D01*
X81564147Y-30646900D01*
X81628297Y-30801772D01*
X81661000Y-30966184D01*
X81661000Y-31133816D01*
X81628297Y-31298228D01*
X81564147Y-31453100D01*
X81471015Y-31592481D01*
X81352481Y-31711015D01*
X81213100Y-31804147D01*
X81058228Y-31868297D01*
X80893816Y-31901000D01*
X80726184Y-31901000D01*
X80561772Y-31868297D01*
X80406900Y-31804147D01*
X80267519Y-31711015D01*
X80148985Y-31592481D01*
X80055853Y-31453100D01*
X79991703Y-31298228D01*
X79959000Y-31133816D01*
X79959000Y-30966184D01*
X79991703Y-30801772D01*
X80055853Y-30646900D01*
X80148985Y-30507519D01*
X80267519Y-30388985D01*
X80406900Y-30295853D01*
X80561772Y-30231703D01*
X80726184Y-30199000D01*
X80893816Y-30199000D01*
X81058228Y-30231703D01*
G37*
G36*
X84201000Y-31901000D02*
G01*
X82499000Y-31901000D01*
X82499000Y-30199000D01*
X84201000Y-30199000D01*
X84201000Y-31901000D01*
G37*
G36*
X78518228Y-30231703D02*
G01*
X78673100Y-30295853D01*
X78812481Y-30388985D01*
X78931015Y-30507519D01*
X79024147Y-30646900D01*
X79088297Y-30801772D01*
X79121000Y-30966184D01*
X79121000Y-31133816D01*
X79088297Y-31298228D01*
X79024147Y-31453100D01*
X78931015Y-31592481D01*
X78812481Y-31711015D01*
X78673100Y-31804147D01*
X78518228Y-31868297D01*
X78353816Y-31901000D01*
X78186184Y-31901000D01*
X78021772Y-31868297D01*
X77866900Y-31804147D01*
X77727519Y-31711015D01*
X77608985Y-31592481D01*
X77515853Y-31453100D01*
X77451703Y-31298228D01*
X77419000Y-31133816D01*
X77419000Y-30966184D01*
X77451703Y-30801772D01*
X77515853Y-30646900D01*
X77608985Y-30507519D01*
X77727519Y-30388985D01*
X77866900Y-30295853D01*
X78021772Y-30231703D01*
X78186184Y-30199000D01*
X78353816Y-30199000D01*
X78518228Y-30231703D01*
G37*
G36*
X75978228Y-30231703D02*
G01*
X76133100Y-30295853D01*
X76272481Y-30388985D01*
X76391015Y-30507519D01*
X76484147Y-30646900D01*
X76548297Y-30801772D01*
X76581000Y-30966184D01*
X76581000Y-31133816D01*
X76548297Y-31298228D01*
X76484147Y-31453100D01*
X76391015Y-31592481D01*
X76272481Y-31711015D01*
X76133100Y-31804147D01*
X75978228Y-31868297D01*
X75813816Y-31901000D01*
X75646184Y-31901000D01*
X75481772Y-31868297D01*
X75326900Y-31804147D01*
X75187519Y-31711015D01*
X75068985Y-31592481D01*
X74975853Y-31453100D01*
X74911703Y-31298228D01*
X74879000Y-31133816D01*
X74879000Y-30966184D01*
X74911703Y-30801772D01*
X74975853Y-30646900D01*
X75068985Y-30507519D01*
X75187519Y-30388985D01*
X75326900Y-30295853D01*
X75481772Y-30231703D01*
X75646184Y-30199000D01*
X75813816Y-30199000D01*
X75978228Y-30231703D01*
G37*
G36*
X73201000Y-31901000D02*
G01*
X71499000Y-31901000D01*
X71499000Y-30199000D01*
X73201000Y-30199000D01*
X73201000Y-31901000D01*
G37*
G36*
X70058228Y-30231703D02*
G01*
X70213100Y-30295853D01*
X70352481Y-30388985D01*
X70471015Y-30507519D01*
X70564147Y-30646900D01*
X70628297Y-30801772D01*
X70661000Y-30966184D01*
X70661000Y-31133816D01*
X70628297Y-31298228D01*
X70564147Y-31453100D01*
X70471015Y-31592481D01*
X70352481Y-31711015D01*
X70213100Y-31804147D01*
X70058228Y-31868297D01*
X69893816Y-31901000D01*
X69726184Y-31901000D01*
X69561772Y-31868297D01*
X69406900Y-31804147D01*
X69267519Y-31711015D01*
X69148985Y-31592481D01*
X69055853Y-31453100D01*
X68991703Y-31298228D01*
X68959000Y-31133816D01*
X68959000Y-30966184D01*
X68991703Y-30801772D01*
X69055853Y-30646900D01*
X69148985Y-30507519D01*
X69267519Y-30388985D01*
X69406900Y-30295853D01*
X69561772Y-30231703D01*
X69726184Y-30199000D01*
X69893816Y-30199000D01*
X70058228Y-30231703D01*
G37*
G36*
X67518228Y-30231703D02*
G01*
X67673100Y-30295853D01*
X67812481Y-30388985D01*
X67931015Y-30507519D01*
X68024147Y-30646900D01*
X68088297Y-30801772D01*
X68121000Y-30966184D01*
X68121000Y-31133816D01*
X68088297Y-31298228D01*
X68024147Y-31453100D01*
X67931015Y-31592481D01*
X67812481Y-31711015D01*
X67673100Y-31804147D01*
X67518228Y-31868297D01*
X67353816Y-31901000D01*
X67186184Y-31901000D01*
X67021772Y-31868297D01*
X66866900Y-31804147D01*
X66727519Y-31711015D01*
X66608985Y-31592481D01*
X66515853Y-31453100D01*
X66451703Y-31298228D01*
X66419000Y-31133816D01*
X66419000Y-30966184D01*
X66451703Y-30801772D01*
X66515853Y-30646900D01*
X66608985Y-30507519D01*
X66727519Y-30388985D01*
X66866900Y-30295853D01*
X67021772Y-30231703D01*
X67186184Y-30199000D01*
X67353816Y-30199000D01*
X67518228Y-30231703D01*
G37*
G36*
X64978228Y-30231703D02*
G01*
X65133100Y-30295853D01*
X65272481Y-30388985D01*
X65391015Y-30507519D01*
X65484147Y-30646900D01*
X65548297Y-30801772D01*
X65581000Y-30966184D01*
X65581000Y-31133816D01*
X65548297Y-31298228D01*
X65484147Y-31453100D01*
X65391015Y-31592481D01*
X65272481Y-31711015D01*
X65133100Y-31804147D01*
X64978228Y-31868297D01*
X64813816Y-31901000D01*
X64646184Y-31901000D01*
X64481772Y-31868297D01*
X64326900Y-31804147D01*
X64187519Y-31711015D01*
X64068985Y-31592481D01*
X63975853Y-31453100D01*
X63911703Y-31298228D01*
X63879000Y-31133816D01*
X63879000Y-30966184D01*
X63911703Y-30801772D01*
X63975853Y-30646900D01*
X64068985Y-30507519D01*
X64187519Y-30388985D01*
X64326900Y-30295853D01*
X64481772Y-30231703D01*
X64646184Y-30199000D01*
X64813816Y-30199000D01*
X64978228Y-30231703D01*
G37*
G36*
X49801000Y-31901000D02*
G01*
X48099000Y-31901000D01*
X48099000Y-30199000D01*
X49801000Y-30199000D01*
X49801000Y-31901000D01*
G37*
G36*
X46658228Y-30231703D02*
G01*
X46813100Y-30295853D01*
X46952481Y-30388985D01*
X47071015Y-30507519D01*
X47164147Y-30646900D01*
X47228297Y-30801772D01*
X47261000Y-30966184D01*
X47261000Y-31133816D01*
X47228297Y-31298228D01*
X47164147Y-31453100D01*
X47071015Y-31592481D01*
X46952481Y-31711015D01*
X46813100Y-31804147D01*
X46658228Y-31868297D01*
X46493816Y-31901000D01*
X46326184Y-31901000D01*
X46161772Y-31868297D01*
X46006900Y-31804147D01*
X45867519Y-31711015D01*
X45748985Y-31592481D01*
X45655853Y-31453100D01*
X45591703Y-31298228D01*
X45559000Y-31133816D01*
X45559000Y-30966184D01*
X45591703Y-30801772D01*
X45655853Y-30646900D01*
X45748985Y-30507519D01*
X45867519Y-30388985D01*
X46006900Y-30295853D01*
X46161772Y-30231703D01*
X46326184Y-30199000D01*
X46493816Y-30199000D01*
X46658228Y-30231703D01*
G37*
G36*
X41578228Y-30231703D02*
G01*
X41733100Y-30295853D01*
X41872481Y-30388985D01*
X41991015Y-30507519D01*
X42084147Y-30646900D01*
X42148297Y-30801772D01*
X42181000Y-30966184D01*
X42181000Y-31133816D01*
X42148297Y-31298228D01*
X42084147Y-31453100D01*
X41991015Y-31592481D01*
X41872481Y-31711015D01*
X41733100Y-31804147D01*
X41578228Y-31868297D01*
X41413816Y-31901000D01*
X41246184Y-31901000D01*
X41081772Y-31868297D01*
X40926900Y-31804147D01*
X40787519Y-31711015D01*
X40668985Y-31592481D01*
X40575853Y-31453100D01*
X40511703Y-31298228D01*
X40479000Y-31133816D01*
X40479000Y-30966184D01*
X40511703Y-30801772D01*
X40575853Y-30646900D01*
X40668985Y-30507519D01*
X40787519Y-30388985D01*
X40926900Y-30295853D01*
X41081772Y-30231703D01*
X41246184Y-30199000D01*
X41413816Y-30199000D01*
X41578228Y-30231703D01*
G37*
G36*
X44118228Y-30231703D02*
G01*
X44273100Y-30295853D01*
X44412481Y-30388985D01*
X44531015Y-30507519D01*
X44624147Y-30646900D01*
X44688297Y-30801772D01*
X44721000Y-30966184D01*
X44721000Y-31133816D01*
X44688297Y-31298228D01*
X44624147Y-31453100D01*
X44531015Y-31592481D01*
X44412481Y-31711015D01*
X44273100Y-31804147D01*
X44118228Y-31868297D01*
X43953816Y-31901000D01*
X43786184Y-31901000D01*
X43621772Y-31868297D01*
X43466900Y-31804147D01*
X43327519Y-31711015D01*
X43208985Y-31592481D01*
X43115853Y-31453100D01*
X43051703Y-31298228D01*
X43019000Y-31133816D01*
X43019000Y-30966184D01*
X43051703Y-30801772D01*
X43115853Y-30646900D01*
X43208985Y-30507519D01*
X43327519Y-30388985D01*
X43466900Y-30295853D01*
X43621772Y-30231703D01*
X43786184Y-30199000D01*
X43953816Y-30199000D01*
X44118228Y-30231703D01*
G37*
G36*
X30375256Y-28391298D02*
G01*
X30481579Y-28412447D01*
X30782042Y-28536903D01*
X31052451Y-28717585D01*
X31282415Y-28947549D01*
X31463097Y-29217958D01*
X31573584Y-29484696D01*
X31587553Y-29518422D01*
X31651000Y-29837389D01*
X31651000Y-30162611D01*
X31624496Y-30295853D01*
X31587553Y-30481579D01*
X31463097Y-30782042D01*
X31282415Y-31052451D01*
X31052451Y-31282415D01*
X30782042Y-31463097D01*
X30481579Y-31587553D01*
X30375256Y-31608702D01*
X30162611Y-31651000D01*
X29837389Y-31651000D01*
X29624744Y-31608702D01*
X29518421Y-31587553D01*
X29217958Y-31463097D01*
X28947549Y-31282415D01*
X28717585Y-31052451D01*
X28536903Y-30782042D01*
X28412447Y-30481579D01*
X28375504Y-30295853D01*
X28349000Y-30162611D01*
X28349000Y-29837389D01*
X28412447Y-29518422D01*
X28426417Y-29484696D01*
X28536903Y-29217958D01*
X28717585Y-28947549D01*
X28947549Y-28717585D01*
X29217958Y-28536903D01*
X29518421Y-28412447D01*
X29624744Y-28391298D01*
X29837389Y-28349000D01*
X30162611Y-28349000D01*
X30375256Y-28391298D01*
G37*
G36*
X120375256Y-28391298D02*
G01*
X120481579Y-28412447D01*
X120782042Y-28536903D01*
X121052451Y-28717585D01*
X121282415Y-28947549D01*
X121463097Y-29217958D01*
X121573584Y-29484696D01*
X121587553Y-29518422D01*
X121651000Y-29837389D01*
X121651000Y-30162611D01*
X121624496Y-30295853D01*
X121587553Y-30481579D01*
X121463097Y-30782042D01*
X121282415Y-31052451D01*
X121052451Y-31282415D01*
X120782042Y-31463097D01*
X120481579Y-31587553D01*
X120375256Y-31608702D01*
X120162611Y-31651000D01*
X119837389Y-31651000D01*
X119624744Y-31608702D01*
X119518421Y-31587553D01*
X119217958Y-31463097D01*
X118947549Y-31282415D01*
X118717585Y-31052451D01*
X118536903Y-30782042D01*
X118412447Y-30481579D01*
X118375504Y-30295853D01*
X118349000Y-30162611D01*
X118349000Y-29837389D01*
X118412447Y-29518422D01*
X118426417Y-29484696D01*
X118536903Y-29217958D01*
X118717585Y-28947549D01*
X118947549Y-28717585D01*
X119217958Y-28536903D01*
X119518421Y-28412447D01*
X119624744Y-28391298D01*
X119837389Y-28349000D01*
X120162611Y-28349000D01*
X120375256Y-28391298D01*
G37*
G36*
X103403512Y-28753927D02*
G01*
X103552812Y-28783624D01*
X103716784Y-28851544D01*
X103864354Y-28950147D01*
X103989853Y-29075646D01*
X104088456Y-29223216D01*
X104156376Y-29387188D01*
X104191000Y-29561259D01*
X104191000Y-29738741D01*
X104156376Y-29912812D01*
X104088456Y-30076784D01*
X103989853Y-30224354D01*
X103864354Y-30349853D01*
X103716784Y-30448456D01*
X103552812Y-30516376D01*
X103403512Y-30546073D01*
X103378742Y-30551000D01*
X103201258Y-30551000D01*
X103176488Y-30546073D01*
X103027188Y-30516376D01*
X102863216Y-30448456D01*
X102715646Y-30349853D01*
X102590147Y-30224354D01*
X102491544Y-30076784D01*
X102423624Y-29912812D01*
X102389000Y-29738741D01*
X102389000Y-29561259D01*
X102423624Y-29387188D01*
X102491544Y-29223216D01*
X102590147Y-29075646D01*
X102715646Y-28950147D01*
X102863216Y-28851544D01*
X103027188Y-28783624D01*
X103176488Y-28753927D01*
X103201258Y-28749000D01*
X103378742Y-28749000D01*
X103403512Y-28753927D01*
G37*
G36*
X101651000Y-30551000D02*
G01*
X99849000Y-30551000D01*
X99849000Y-28749000D01*
X101651000Y-28749000D01*
X101651000Y-30551000D01*
G37*
G36*
X56301000Y-30501000D02*
G01*
X54499000Y-30501000D01*
X54499000Y-28699000D01*
X56301000Y-28699000D01*
X56301000Y-30501000D01*
G37*
G36*
X58053512Y-28703927D02*
G01*
X58202812Y-28733624D01*
X58366784Y-28801544D01*
X58514354Y-28900147D01*
X58639853Y-29025646D01*
X58738456Y-29173216D01*
X58806376Y-29337188D01*
X58841000Y-29511259D01*
X58841000Y-29688741D01*
X58806376Y-29862812D01*
X58738456Y-30026784D01*
X58639853Y-30174354D01*
X58514354Y-30299853D01*
X58366784Y-30398456D01*
X58202812Y-30466376D01*
X58053512Y-30496073D01*
X58028742Y-30501000D01*
X57851258Y-30501000D01*
X57826488Y-30496073D01*
X57677188Y-30466376D01*
X57513216Y-30398456D01*
X57365646Y-30299853D01*
X57240147Y-30174354D01*
X57141544Y-30026784D01*
X57073624Y-29862812D01*
X57039000Y-29688741D01*
X57039000Y-29511259D01*
X57073624Y-29337188D01*
X57141544Y-29173216D01*
X57240147Y-29025646D01*
X57365646Y-28900147D01*
X57513216Y-28801544D01*
X57677188Y-28733624D01*
X57826488Y-28703927D01*
X57851258Y-28699000D01*
X58028742Y-28699000D01*
X58053512Y-28703927D01*
G37*
G36*
X91301000Y-30501000D02*
G01*
X89499000Y-30501000D01*
X89499000Y-28699000D01*
X91301000Y-28699000D01*
X91301000Y-30501000D01*
G37*
G36*
X93053512Y-28703927D02*
G01*
X93202812Y-28733624D01*
X93366784Y-28801544D01*
X93514354Y-28900147D01*
X93639853Y-29025646D01*
X93738456Y-29173216D01*
X93806376Y-29337188D01*
X93841000Y-29511259D01*
X93841000Y-29688741D01*
X93806376Y-29862812D01*
X93738456Y-30026784D01*
X93639853Y-30174354D01*
X93514354Y-30299853D01*
X93366784Y-30398456D01*
X93202812Y-30466376D01*
X93053512Y-30496073D01*
X93028742Y-30501000D01*
X92851258Y-30501000D01*
X92826488Y-30496073D01*
X92677188Y-30466376D01*
X92513216Y-30398456D01*
X92365646Y-30299853D01*
X92240147Y-30174354D01*
X92141544Y-30026784D01*
X92073624Y-29862812D01*
X92039000Y-29688741D01*
X92039000Y-29511259D01*
X92073624Y-29337188D01*
X92141544Y-29173216D01*
X92240147Y-29025646D01*
X92365646Y-28900147D01*
X92513216Y-28801544D01*
X92677188Y-28733624D01*
X92826488Y-28703927D01*
X92851258Y-28699000D01*
X93028742Y-28699000D01*
X93053512Y-28703927D01*
G37*
G36*
X113276601Y-29074397D02*
G01*
X113315305Y-29082096D01*
X113347340Y-29095365D01*
X113424680Y-29127400D01*
X113523115Y-29193173D01*
X113606827Y-29276885D01*
X113672600Y-29375320D01*
X113717904Y-29484696D01*
X113741000Y-29600805D01*
X113741000Y-29719195D01*
X113725603Y-29796601D01*
X113717904Y-29835305D01*
X113706510Y-29862812D01*
X113672600Y-29944680D01*
X113606827Y-30043115D01*
X113523115Y-30126827D01*
X113424680Y-30192600D01*
X113348020Y-30224353D01*
X113315305Y-30237904D01*
X113276601Y-30245603D01*
X113199195Y-30261000D01*
X113080805Y-30261000D01*
X113003399Y-30245603D01*
X112964695Y-30237904D01*
X112931980Y-30224353D01*
X112855320Y-30192600D01*
X112756885Y-30126827D01*
X112673173Y-30043115D01*
X112607400Y-29944680D01*
X112573490Y-29862812D01*
X112562096Y-29835305D01*
X112554397Y-29796601D01*
X112539000Y-29719195D01*
X112539000Y-29600805D01*
X112562096Y-29484696D01*
X112607400Y-29375320D01*
X112673173Y-29276885D01*
X112756885Y-29193173D01*
X112855320Y-29127400D01*
X112932660Y-29095365D01*
X112964695Y-29082096D01*
X113003399Y-29074397D01*
X113080805Y-29059000D01*
X113199195Y-29059000D01*
X113276601Y-29074397D01*
G37*
G36*
X110736601Y-29074397D02*
G01*
X110775305Y-29082096D01*
X110807340Y-29095365D01*
X110884680Y-29127400D01*
X110983115Y-29193173D01*
X111066827Y-29276885D01*
X111132600Y-29375320D01*
X111177904Y-29484696D01*
X111201000Y-29600805D01*
X111201000Y-29719195D01*
X111185603Y-29796601D01*
X111177904Y-29835305D01*
X111166510Y-29862812D01*
X111132600Y-29944680D01*
X111066827Y-30043115D01*
X110983115Y-30126827D01*
X110884680Y-30192600D01*
X110808020Y-30224353D01*
X110775305Y-30237904D01*
X110736601Y-30245603D01*
X110659195Y-30261000D01*
X110540805Y-30261000D01*
X110463399Y-30245603D01*
X110424695Y-30237904D01*
X110391980Y-30224353D01*
X110315320Y-30192600D01*
X110216885Y-30126827D01*
X110133173Y-30043115D01*
X110067400Y-29944680D01*
X110033490Y-29862812D01*
X110022096Y-29835305D01*
X110014397Y-29796601D01*
X109999000Y-29719195D01*
X109999000Y-29600805D01*
X110022096Y-29484696D01*
X110067400Y-29375320D01*
X110133173Y-29276885D01*
X110216885Y-29193173D01*
X110315320Y-29127400D01*
X110392660Y-29095365D01*
X110424695Y-29082096D01*
X110463399Y-29074397D01*
X110540805Y-29059000D01*
X110659195Y-29059000D01*
X110736601Y-29074397D01*
G37*
M02*
