G04 #@! TF.GenerationSoftware,KiCad,Pcbnew,5.1.5+dfsg1-2build2*
G04 #@! TF.CreationDate,2021-10-21T22:41:25+10:30*
G04 #@! TF.ProjectId,xover,786f7665-722e-46b6-9963-61645f706362,rev?*
G04 #@! TF.SameCoordinates,Original*
G04 #@! TF.FileFunction,Copper,L1,Top*
G04 #@! TF.FilePolarity,Positive*
%FSLAX46Y46*%
G04 Gerber Fmt 4.6, Leading zero omitted, Abs format (unit mm)*
G04 Created by KiCad (PCBNEW 5.1.5+dfsg1-2build2) date 2021-10-21 22:41:25*
%MOMM*%
%LPD*%
G04 APERTURE LIST*
%ADD10R,1.600000X1.600000*%
%ADD11O,1.600000X1.600000*%
%ADD12C,1.440000*%
%ADD13R,1.300000X0.700000*%
%ADD14R,0.700000X1.300000*%
%ADD15R,1.700000X1.700000*%
%ADD16O,1.700000X1.700000*%
%ADD17C,2.500000*%
%ADD18R,2.500000X2.500000*%
%ADD19O,1.998980X1.998980*%
%ADD20R,1.998980X1.998980*%
%ADD21C,1.000000*%
%ADD22R,1.250000X1.000000*%
%ADD23R,1.000000X1.250000*%
%ADD24R,2.500000X2.000000*%
%ADD25C,2.400000*%
%ADD26C,1.600000*%
%ADD27R,2.000000X2.500000*%
%ADD28C,0.800000*%
%ADD29C,1.000000*%
%ADD30C,0.250000*%
G04 APERTURE END LIST*
D10*
X114400000Y-108600000D03*
D11*
X106780000Y-116220000D03*
X111860000Y-108600000D03*
X109320000Y-116220000D03*
X109320000Y-108600000D03*
X111860000Y-116220000D03*
X106780000Y-108600000D03*
X114400000Y-116220000D03*
D10*
X91600000Y-90300000D03*
D11*
X83980000Y-97920000D03*
X89060000Y-90300000D03*
X86520000Y-97920000D03*
X86520000Y-90300000D03*
X89060000Y-97920000D03*
X83980000Y-90300000D03*
X91600000Y-97920000D03*
D10*
X109400000Y-72800000D03*
D11*
X101780000Y-80420000D03*
X106860000Y-72800000D03*
X104320000Y-80420000D03*
X104320000Y-72800000D03*
X106860000Y-80420000D03*
X101780000Y-72800000D03*
X109400000Y-80420000D03*
D10*
X77100000Y-90300000D03*
D11*
X69480000Y-97920000D03*
X74560000Y-90300000D03*
X72020000Y-97920000D03*
X72020000Y-90300000D03*
X74560000Y-97920000D03*
X69480000Y-90300000D03*
X77100000Y-97920000D03*
D10*
X67400000Y-51400000D03*
D11*
X59780000Y-59020000D03*
X64860000Y-51400000D03*
X62320000Y-59020000D03*
X62320000Y-51400000D03*
X64860000Y-59020000D03*
X59780000Y-51400000D03*
X67400000Y-59020000D03*
D10*
X62300000Y-72000000D03*
D11*
X54680000Y-79620000D03*
X59760000Y-72000000D03*
X57220000Y-79620000D03*
X57220000Y-72000000D03*
X59760000Y-79620000D03*
X54680000Y-72000000D03*
X62300000Y-79620000D03*
D10*
X72350000Y-31050000D03*
D11*
X64730000Y-38670000D03*
X69810000Y-31050000D03*
X67270000Y-38670000D03*
X67270000Y-31050000D03*
X69810000Y-38670000D03*
X64730000Y-31050000D03*
X72350000Y-38670000D03*
D10*
X48950000Y-31050000D03*
D11*
X41330000Y-38670000D03*
X46410000Y-31050000D03*
X43870000Y-38670000D03*
X43870000Y-31050000D03*
X46410000Y-38670000D03*
X41330000Y-31050000D03*
X48950000Y-38670000D03*
D10*
X87050000Y-51405000D03*
D11*
X79430000Y-59025000D03*
X84510000Y-51405000D03*
X81970000Y-59025000D03*
X81970000Y-51405000D03*
X84510000Y-59025000D03*
X79430000Y-51405000D03*
X87050000Y-59025000D03*
D10*
X43800000Y-105875000D03*
D11*
X36180000Y-113495000D03*
X41260000Y-105875000D03*
X38720000Y-113495000D03*
X38720000Y-105875000D03*
X41260000Y-113495000D03*
X36180000Y-105875000D03*
X43800000Y-113495000D03*
D10*
X43320000Y-72025000D03*
D11*
X35700000Y-79645000D03*
X40780000Y-72025000D03*
X38240000Y-79645000D03*
X38240000Y-72025000D03*
X40780000Y-79645000D03*
X35700000Y-72025000D03*
X43320000Y-79645000D03*
D10*
X57945000Y-105945000D03*
D11*
X50325000Y-113565000D03*
X55405000Y-105945000D03*
X52865000Y-113565000D03*
X52865000Y-105945000D03*
X55405000Y-113565000D03*
X50325000Y-105945000D03*
X57945000Y-113565000D03*
D10*
X83350000Y-31050000D03*
D11*
X75730000Y-38670000D03*
X80810000Y-31050000D03*
X78270000Y-38670000D03*
X78270000Y-31050000D03*
X80810000Y-38670000D03*
X75730000Y-31050000D03*
X83350000Y-38670000D03*
D12*
X90480000Y-102400000D03*
X87940000Y-102400000D03*
X85400000Y-102400000D03*
X90200000Y-85700000D03*
X87660000Y-85700000D03*
X85120000Y-85700000D03*
X75800000Y-102400000D03*
X73260000Y-102400000D03*
X70720000Y-102400000D03*
X75700000Y-85700000D03*
X73160000Y-85700000D03*
X70620000Y-85700000D03*
D13*
X81200000Y-102700000D03*
X81200000Y-104600000D03*
X81200000Y-101100000D03*
X81200000Y-99200000D03*
X81200000Y-83500000D03*
X81200000Y-85400000D03*
X81200000Y-88700000D03*
X81200000Y-86800000D03*
X99000000Y-83300000D03*
X99000000Y-85200000D03*
X99000000Y-59950000D03*
X99000000Y-58050000D03*
X99000000Y-49950000D03*
X99000000Y-48050000D03*
X99000000Y-61250000D03*
X99000000Y-63150000D03*
X99000000Y-51250000D03*
X99000000Y-53150000D03*
X99000000Y-66350000D03*
X99000000Y-64450000D03*
X99000000Y-56350000D03*
X99000000Y-54450000D03*
X99000000Y-80000000D03*
X99000000Y-81900000D03*
D14*
X109400000Y-45800000D03*
X107500000Y-45800000D03*
X99350000Y-45800000D03*
X97450000Y-45800000D03*
X109400000Y-43800000D03*
X107500000Y-43800000D03*
X99350000Y-43800000D03*
X97450000Y-43800000D03*
X109400000Y-41800000D03*
X107500000Y-41800000D03*
X99350000Y-41800000D03*
X97450000Y-41800000D03*
X118450000Y-80400000D03*
X120350000Y-80400000D03*
X122900000Y-45800000D03*
X121000000Y-45800000D03*
X119400000Y-41800000D03*
X117500000Y-41800000D03*
X122900000Y-43800000D03*
X121000000Y-43800000D03*
X119400000Y-43800000D03*
X117500000Y-43800000D03*
X122900000Y-41800000D03*
X121000000Y-41800000D03*
X119400000Y-45800000D03*
X117500000Y-45800000D03*
D13*
X66700000Y-102500000D03*
X66700000Y-104400000D03*
X66700000Y-101050000D03*
X66700000Y-99150000D03*
X66700000Y-83550000D03*
X66700000Y-85450000D03*
X66700000Y-88750000D03*
X66700000Y-86850000D03*
X61800000Y-63250000D03*
X61800000Y-61350000D03*
X67400000Y-48950000D03*
X67400000Y-47050000D03*
X65400000Y-47050000D03*
X65400000Y-48950000D03*
X59800000Y-61350000D03*
X59800000Y-63250000D03*
X63800000Y-61350000D03*
X63800000Y-63250000D03*
X63400000Y-48950000D03*
X63400000Y-47050000D03*
X56300000Y-83950000D03*
X56300000Y-82050000D03*
X62300000Y-69650000D03*
X62300000Y-67750000D03*
X60300000Y-67750000D03*
X60300000Y-69650000D03*
X54300000Y-82050000D03*
X54300000Y-83950000D03*
X58300000Y-82050000D03*
X58300000Y-83950000D03*
X58300000Y-69650000D03*
X58300000Y-67750000D03*
D14*
X116900000Y-113400000D03*
X118800000Y-113400000D03*
X118800000Y-111200000D03*
X116900000Y-111200000D03*
D13*
X113000000Y-106100000D03*
X113000000Y-104200000D03*
X110600000Y-104200000D03*
X110600000Y-106100000D03*
D14*
X40750000Y-41250000D03*
X42650000Y-41250000D03*
X38500000Y-42600000D03*
X36600000Y-42600000D03*
X46100000Y-41250000D03*
X44200000Y-41250000D03*
X38500000Y-40600000D03*
X36600000Y-40600000D03*
X53050000Y-41250000D03*
X54950000Y-41250000D03*
X56750000Y-41250000D03*
X58650000Y-41250000D03*
X56750000Y-28450000D03*
X58650000Y-28450000D03*
X44450000Y-28450000D03*
X46350000Y-28450000D03*
X38500000Y-36600000D03*
X36600000Y-36600000D03*
X54950000Y-28450000D03*
X53050000Y-28450000D03*
X49850000Y-28450000D03*
X47950000Y-28450000D03*
X38500000Y-34600000D03*
X36600000Y-34600000D03*
D13*
X81400000Y-63500000D03*
X81400000Y-61600000D03*
X87000000Y-48900000D03*
X87000000Y-47000000D03*
X85000000Y-47000000D03*
X85000000Y-48900000D03*
X79400000Y-61600000D03*
X79400000Y-63500000D03*
X83400000Y-61600000D03*
X83400000Y-63500000D03*
X83000000Y-48900000D03*
X83000000Y-47000000D03*
X38100000Y-115950000D03*
X38100000Y-117850000D03*
X38100000Y-119250000D03*
X38100000Y-121150000D03*
X38800000Y-103450000D03*
X38800000Y-101550000D03*
X38800000Y-100150000D03*
X38800000Y-98250000D03*
X37400000Y-84050000D03*
X37400000Y-82150000D03*
X43400000Y-69650000D03*
X43400000Y-67750000D03*
X41400000Y-67750000D03*
X41400000Y-69650000D03*
X35400000Y-82150000D03*
X35400000Y-84050000D03*
X39400000Y-82150000D03*
X39400000Y-84050000D03*
X39400000Y-69650000D03*
X39400000Y-67750000D03*
X52225000Y-115950000D03*
X52225000Y-117850000D03*
X52225000Y-119250000D03*
X52225000Y-121150000D03*
X52950000Y-103575000D03*
X52950000Y-101675000D03*
X52950000Y-100275000D03*
X52950000Y-98375000D03*
D14*
X81250000Y-28450000D03*
X79350000Y-28450000D03*
X79500000Y-41250000D03*
X77600000Y-41250000D03*
X77900000Y-28450000D03*
X76000000Y-28450000D03*
X84450000Y-28450000D03*
X82550000Y-28450000D03*
D15*
X93800000Y-32400000D03*
D16*
X93800000Y-34940000D03*
X91260000Y-32400000D03*
X91260000Y-34940000D03*
X88720000Y-32400000D03*
X88720000Y-34940000D03*
D15*
X32000000Y-52800000D03*
D16*
X34540000Y-52800000D03*
X32000000Y-55340000D03*
X34540000Y-55340000D03*
X32000000Y-57880000D03*
X34540000Y-57880000D03*
D15*
X42000000Y-52800000D03*
D16*
X44540000Y-52800000D03*
X42000000Y-55340000D03*
X44540000Y-55340000D03*
X42000000Y-57880000D03*
X44540000Y-57880000D03*
D15*
X74000000Y-72000000D03*
D16*
X76540000Y-72000000D03*
X74000000Y-74540000D03*
X76540000Y-74540000D03*
X74000000Y-77080000D03*
X76540000Y-77080000D03*
D15*
X84000000Y-72000000D03*
D16*
X86540000Y-72000000D03*
X84000000Y-74540000D03*
X86540000Y-74540000D03*
X84000000Y-77080000D03*
X86540000Y-77080000D03*
D15*
X101800000Y-69200000D03*
D16*
X104340000Y-69200000D03*
X106880000Y-69200000D03*
X109420000Y-69200000D03*
D15*
X54350000Y-36050000D03*
D16*
X54350000Y-33510000D03*
X56890000Y-36050000D03*
X56890000Y-33510000D03*
X59430000Y-36050000D03*
X59430000Y-33510000D03*
D17*
X94000000Y-118000000D03*
D18*
X89000000Y-118000000D03*
D17*
X99000000Y-118000000D03*
D19*
X81780000Y-118000000D03*
X79240000Y-118000000D03*
D20*
X76700000Y-118000000D03*
D19*
X84320000Y-118000000D03*
X69080000Y-118000000D03*
X66540000Y-118000000D03*
D20*
X64000000Y-118000000D03*
D19*
X71620000Y-118000000D03*
D15*
X48380000Y-90200000D03*
D16*
X48380000Y-92740000D03*
X45840000Y-90200000D03*
X45840000Y-92740000D03*
X43300000Y-90200000D03*
X43300000Y-92740000D03*
D20*
X113140000Y-32200000D03*
D19*
X110600000Y-32200000D03*
D15*
X104650000Y-32500000D03*
D16*
X104650000Y-35040000D03*
X102110000Y-32500000D03*
X102110000Y-35040000D03*
X99570000Y-32500000D03*
X99570000Y-35040000D03*
D19*
X32000000Y-41080000D03*
X32000000Y-38540000D03*
D20*
X32000000Y-36000000D03*
D19*
X32000000Y-43620000D03*
D21*
X-120000000Y-187000000D03*
X-121000000Y-182000000D03*
X-114500000Y-185500000D03*
X-116000000Y-180500000D03*
D22*
X81200000Y-90300000D03*
X81200000Y-92300000D03*
X94300000Y-95600000D03*
X94300000Y-97600000D03*
X99000000Y-70800000D03*
X99000000Y-72800000D03*
D23*
X112000000Y-80400000D03*
X114000000Y-80400000D03*
D24*
X108750000Y-54100000D03*
X108750000Y-50100000D03*
D25*
X106000000Y-64600000D03*
X106000000Y-49600000D03*
X106000000Y-54600000D03*
X106000000Y-59600000D03*
X106000000Y-57100000D03*
D24*
X103250000Y-54100000D03*
X103250000Y-50100000D03*
X108750000Y-89100000D03*
X108750000Y-85100000D03*
D25*
X106000000Y-99600000D03*
X106000000Y-84600000D03*
X106000000Y-89600000D03*
X106000000Y-94600000D03*
X106000000Y-92100000D03*
D24*
X103250000Y-89100000D03*
X103250000Y-85100000D03*
X120950000Y-89100000D03*
X120950000Y-85100000D03*
D25*
X118200000Y-99600000D03*
X118200000Y-84600000D03*
X118200000Y-89600000D03*
X118200000Y-94600000D03*
X118200000Y-92100000D03*
D24*
X115450000Y-89100000D03*
X115450000Y-85100000D03*
X114800000Y-44900000D03*
X114800000Y-40900000D03*
D26*
X112800000Y-45400000D03*
X112800000Y-40400000D03*
D24*
X104800000Y-44900000D03*
X104800000Y-40900000D03*
D26*
X102800000Y-45400000D03*
X102800000Y-40400000D03*
D24*
X116200000Y-73100000D03*
X116200000Y-69100000D03*
D26*
X114200000Y-73600000D03*
X114200000Y-68600000D03*
D24*
X120000000Y-69100000D03*
X120000000Y-73100000D03*
D26*
X122000000Y-68600000D03*
X122000000Y-73600000D03*
D24*
X120750000Y-54100000D03*
X120750000Y-50100000D03*
D25*
X118000000Y-64600000D03*
X118000000Y-49600000D03*
X118000000Y-54600000D03*
X118000000Y-59600000D03*
X118000000Y-57100000D03*
D24*
X115250000Y-54100000D03*
X115250000Y-50100000D03*
D22*
X66700000Y-90300000D03*
X66700000Y-92300000D03*
X79800000Y-95600000D03*
X79800000Y-97600000D03*
X59800000Y-46800000D03*
X59800000Y-48800000D03*
X67400000Y-61600000D03*
X67400000Y-63600000D03*
D24*
X56400000Y-51200000D03*
X56400000Y-47200000D03*
X53100000Y-47200000D03*
X53100000Y-51200000D03*
X56500000Y-59000000D03*
X56500000Y-63000000D03*
X53200000Y-63000000D03*
X53200000Y-59000000D03*
D22*
X54600000Y-67500000D03*
X54600000Y-69500000D03*
X62300000Y-82200000D03*
X62300000Y-84200000D03*
D24*
X51400000Y-71800000D03*
X51400000Y-67800000D03*
X48100000Y-67800000D03*
X48100000Y-71800000D03*
X51400000Y-79400000D03*
X51400000Y-83400000D03*
X48100000Y-83400000D03*
X48100000Y-79400000D03*
D22*
X106800000Y-104000000D03*
X106800000Y-106000000D03*
X114400000Y-118800000D03*
X114400000Y-120800000D03*
D24*
X103400000Y-120400000D03*
X103400000Y-116400000D03*
X103400000Y-104600000D03*
X103400000Y-108600000D03*
D27*
X110800000Y-122600000D03*
X106800000Y-122600000D03*
D24*
X121000000Y-108800000D03*
X121000000Y-104800000D03*
D27*
X110800000Y-119400000D03*
X106800000Y-119400000D03*
D24*
X117800000Y-108800000D03*
X117800000Y-104800000D03*
D23*
X62750000Y-28450000D03*
X64750000Y-28450000D03*
X42550000Y-28450000D03*
X40550000Y-28450000D03*
X72550000Y-41250000D03*
X74550000Y-41250000D03*
X48150000Y-41250000D03*
X50150000Y-41250000D03*
X38800000Y-44600000D03*
X36800000Y-44600000D03*
X38800000Y-38600000D03*
X36800000Y-38600000D03*
D22*
X79400000Y-46800000D03*
X79400000Y-48800000D03*
X87000000Y-61600000D03*
X87000000Y-63600000D03*
D24*
X76100000Y-51200000D03*
X76100000Y-47200000D03*
X72800000Y-47200000D03*
X72800000Y-51200000D03*
X76100000Y-59200000D03*
X76100000Y-63200000D03*
X72800000Y-63200000D03*
X72800000Y-59200000D03*
D22*
X33375000Y-103900000D03*
X33375000Y-105900000D03*
X46525000Y-113475000D03*
X46525000Y-115475000D03*
D24*
X35400000Y-120600000D03*
X35400000Y-116600000D03*
X36150000Y-98825000D03*
X36150000Y-102825000D03*
X43900000Y-116600000D03*
X43900000Y-120600000D03*
X41400000Y-102900000D03*
X41400000Y-98900000D03*
X40700000Y-116600000D03*
X40700000Y-120600000D03*
X44600000Y-102900000D03*
X44600000Y-98900000D03*
D22*
X35600000Y-67500000D03*
X35600000Y-69500000D03*
X43300000Y-82200000D03*
X43300000Y-84200000D03*
D24*
X32300000Y-71800000D03*
X32300000Y-67800000D03*
X29000000Y-67800000D03*
X29000000Y-71800000D03*
X32300000Y-79400000D03*
X32300000Y-83400000D03*
X29000000Y-83400000D03*
X29000000Y-79400000D03*
D22*
X47600000Y-104025000D03*
X47600000Y-106025000D03*
X60700000Y-113625000D03*
X60700000Y-115625000D03*
D24*
X49550000Y-120600000D03*
X49550000Y-116600000D03*
X50250000Y-98925000D03*
X50250000Y-102925000D03*
X58075000Y-116600000D03*
X58075000Y-120600000D03*
X58850000Y-102925000D03*
X58850000Y-98925000D03*
X54875000Y-116600000D03*
X54875000Y-120600000D03*
X55650000Y-102925000D03*
X55650000Y-98925000D03*
D23*
X72350000Y-28450000D03*
X74350000Y-28450000D03*
D10*
X95500000Y-108900000D03*
D26*
X100500000Y-108900000D03*
D23*
X84150000Y-41250000D03*
X82150000Y-41250000D03*
D10*
X87500000Y-108900000D03*
D26*
X92500000Y-108900000D03*
D28*
X53550000Y-39250000D03*
X58150000Y-39250000D03*
X98800000Y-78400000D03*
X96000000Y-78400000D03*
X90600000Y-43000000D03*
X99000000Y-113400000D03*
X100400000Y-85200000D03*
X115400000Y-80400000D03*
X113000000Y-120800000D03*
X103400000Y-122400000D03*
X97600000Y-70800000D03*
X105400000Y-104000002D03*
X43550000Y-28450000D03*
X59950000Y-41250000D03*
X59950000Y-28450000D03*
X35400000Y-38600000D03*
X35400000Y-44600000D03*
X40750000Y-42850000D03*
X70950000Y-28450000D03*
X80950000Y-41250000D03*
X51550000Y-41250000D03*
X74550000Y-42650000D03*
X88500000Y-47000000D03*
X88600000Y-63600000D03*
X80800000Y-46800000D03*
X68900000Y-63600000D03*
X68900000Y-47100000D03*
X61400000Y-46800000D03*
X79900000Y-90300000D03*
X81200000Y-97600000D03*
X94300000Y-99000000D03*
X68100000Y-85500000D03*
X79900000Y-85400000D03*
X65300000Y-90300000D03*
X46400000Y-116800000D03*
X60600000Y-117000000D03*
X82600000Y-104600000D03*
X68200000Y-104400000D03*
X56400000Y-67600000D03*
X63600000Y-67800000D03*
X37100000Y-67500000D03*
X62300000Y-85400000D03*
X44950000Y-67750000D03*
X43300000Y-85700000D03*
X47800000Y-98900000D03*
X47600000Y-102900000D03*
X33400000Y-98900000D03*
X33300000Y-102600000D03*
X35400000Y-122500000D03*
X49500000Y-122400000D03*
X53750000Y-30649998D03*
X58350000Y-30650000D03*
X95000000Y-53200000D03*
X92100000Y-53200000D03*
X95000000Y-70425000D03*
X92000000Y-70500000D03*
X96100000Y-92300000D03*
X99699998Y-92300000D03*
X99600000Y-106400000D03*
X96600000Y-106400000D03*
X48200000Y-112699998D03*
X57600000Y-108500000D03*
X29000000Y-77800000D03*
X34200002Y-72800000D03*
X34500000Y-60500000D03*
X37500000Y-69700000D03*
X41300000Y-66700000D03*
X33300000Y-69900000D03*
X33600000Y-122700000D03*
X74100000Y-112900000D03*
X74100000Y-108200000D03*
X78100000Y-52000000D03*
X72800000Y-60900000D03*
X59700000Y-44100000D03*
X62000000Y-44100000D03*
X68500018Y-40500000D03*
X77100000Y-49200000D03*
X85000006Y-46000000D03*
X81100002Y-48700004D03*
X43550000Y-34450000D03*
X105600000Y-114600000D03*
X116600002Y-117200000D03*
X48200000Y-81000000D03*
X53400004Y-72800000D03*
X45800000Y-72700000D03*
X45800000Y-78200000D03*
X56400000Y-69600000D03*
X60400000Y-66600000D03*
X52200000Y-69800000D03*
X58300000Y-52050000D03*
X53200000Y-60700000D03*
X68550000Y-29450000D03*
X61500000Y-48900000D03*
X65400000Y-45900000D03*
X57525000Y-49200000D03*
X116400000Y-81800000D03*
X87550000Y-43650000D03*
X92800000Y-38800000D03*
X86936827Y-42463173D03*
X91800000Y-37800000D03*
X65400000Y-108200000D03*
X65400000Y-112600000D03*
X64000000Y-112600000D03*
X64000000Y-108200000D03*
X79600000Y-99000000D03*
X79000000Y-91149990D03*
X78800000Y-108200000D03*
X78800000Y-112799996D03*
X80000000Y-108200000D03*
X80000000Y-112800000D03*
X81100000Y-71300000D03*
X81100000Y-68700000D03*
X111400000Y-88325000D03*
X111400000Y-90000000D03*
X70100000Y-70600000D03*
X70100000Y-73400000D03*
X86500000Y-81500000D03*
X76600000Y-81000000D03*
X94300000Y-90900000D03*
X96600000Y-97600000D03*
X69400000Y-100400000D03*
X82525000Y-83600000D03*
X84100000Y-83600000D03*
X83900000Y-100300000D03*
D29*
X114400000Y-116220000D02*
X114400000Y-118800000D01*
X111980000Y-80420000D02*
X112000000Y-80400000D01*
X109400000Y-80420000D02*
X111980000Y-80420000D01*
X52970000Y-38670000D02*
X53550000Y-39250000D01*
X48950000Y-38670000D02*
X52970000Y-38670000D01*
X58150000Y-39250000D02*
X60350000Y-39250000D01*
X60350000Y-39250000D02*
X62950000Y-36650000D01*
X62950000Y-36650000D02*
X70330000Y-36650000D01*
X84150000Y-39470000D02*
X84150000Y-41250000D01*
X83350000Y-37538630D02*
X82461370Y-36650000D01*
X83350000Y-38670000D02*
X83350000Y-37538630D01*
X72350000Y-36850000D02*
X72550000Y-36650000D01*
X72350000Y-38670000D02*
X72350000Y-36850000D01*
X72550000Y-36650000D02*
X70330000Y-36650000D01*
X82461370Y-36650000D02*
X72550000Y-36650000D01*
X48150000Y-39470000D02*
X48150000Y-41250000D01*
X48950000Y-38670000D02*
X48150000Y-39470000D01*
X94400000Y-72434315D02*
X93400000Y-71434315D01*
X83350000Y-38670000D02*
X84150000Y-39470000D01*
X109400000Y-80420000D02*
X107380000Y-78400000D01*
X94400000Y-72434315D02*
X94434315Y-72434315D01*
X107380000Y-78400000D02*
X98800000Y-78400000D01*
X96000000Y-74034315D02*
X94400000Y-72434315D01*
X96000000Y-78400000D02*
X96000000Y-74034315D01*
X90500000Y-42900000D02*
X90600000Y-43000000D01*
X72350000Y-41050000D02*
X72550000Y-41250000D01*
X72350000Y-38670000D02*
X72350000Y-41050000D01*
X87050000Y-61550000D02*
X87000000Y-61600000D01*
X87050000Y-59025000D02*
X87050000Y-61550000D01*
X93400000Y-59100000D02*
X93400000Y-71434315D01*
X93300000Y-57100000D02*
X93400000Y-57200000D01*
X67400000Y-57888630D02*
X68188630Y-57100000D01*
X67400000Y-59020000D02*
X67400000Y-57888630D01*
X93400000Y-57200000D02*
X93400000Y-59100000D01*
X87050000Y-59025000D02*
X87050000Y-57150000D01*
X87100000Y-57100000D02*
X93300000Y-57100000D01*
X87050000Y-57150000D02*
X87100000Y-57100000D01*
X68188630Y-57100000D02*
X87100000Y-57100000D01*
X93400000Y-45800000D02*
X93400000Y-57200000D01*
X90500000Y-42900000D02*
X93400000Y-45800000D01*
X58400001Y-57099999D02*
X55800002Y-54500000D01*
X68188630Y-57100000D02*
X58400001Y-57099999D01*
X55800002Y-54500000D02*
X49000000Y-54500000D01*
X47300000Y-52800000D02*
X44540000Y-52800000D01*
X49000000Y-54500000D02*
X47300000Y-52800000D01*
X94780000Y-79620000D02*
X96000000Y-78400000D01*
X62300000Y-79620000D02*
X79120000Y-79620000D01*
X78400000Y-95600000D02*
X79800000Y-95600000D01*
X77100000Y-96900000D02*
X78400000Y-95600000D01*
X77100000Y-97920000D02*
X77100000Y-96900000D01*
X96000000Y-78400000D02*
X96000000Y-87000000D01*
X96000000Y-87000000D02*
X98200000Y-89200000D01*
X98000000Y-95600000D02*
X98200000Y-95400000D01*
X94300000Y-95600000D02*
X98000000Y-95600000D01*
X98200000Y-89200000D02*
X98200000Y-95400000D01*
X91600000Y-96788630D02*
X91600000Y-95600000D01*
X91600000Y-97920000D02*
X91600000Y-96788630D01*
X91600000Y-95600000D02*
X94300000Y-95600000D01*
X79800000Y-95600000D02*
X91600000Y-95600000D01*
X67400000Y-59020000D02*
X67400000Y-61600000D01*
X98200000Y-110200006D02*
X98200000Y-95400000D01*
X98200000Y-110200006D02*
X97000006Y-111400000D01*
X97000006Y-111400000D02*
X87400000Y-111400000D01*
X97000006Y-111965691D02*
X97000006Y-111400000D01*
X98434315Y-113400000D02*
X97000006Y-111965691D01*
X99000000Y-113400000D02*
X98434315Y-113400000D01*
X87400000Y-114150000D02*
X87400000Y-111400000D01*
X89000000Y-115750000D02*
X87400000Y-114150000D01*
X89000000Y-118000000D02*
X89000000Y-115750000D01*
X87400000Y-110800000D02*
X87400000Y-111400000D01*
X87500000Y-110700000D02*
X87400000Y-110800000D01*
X87500000Y-108900000D02*
X87500000Y-110700000D01*
X43800000Y-111800000D02*
X43800000Y-113495000D01*
X44200000Y-111400000D02*
X43800000Y-111800000D01*
X46525000Y-111475000D02*
X46600000Y-111400000D01*
X46525000Y-113475000D02*
X46525000Y-111475000D01*
X46600000Y-111400000D02*
X44200000Y-111400000D01*
X60700000Y-111500000D02*
X60800000Y-111400000D01*
X60700000Y-113625000D02*
X60700000Y-111500000D01*
X87400000Y-111400000D02*
X60800000Y-111400000D01*
X58000000Y-112378630D02*
X58000000Y-111400000D01*
X57945000Y-112433630D02*
X58000000Y-112378630D01*
X57945000Y-113565000D02*
X57945000Y-112433630D01*
X58000000Y-111400000D02*
X46600000Y-111400000D01*
X60800000Y-111400000D02*
X58000000Y-111400000D01*
X43320000Y-82180000D02*
X43300000Y-82200000D01*
X43320000Y-79645000D02*
X43320000Y-82180000D01*
X62300000Y-79620000D02*
X62300000Y-82200000D01*
X59680000Y-77000000D02*
X61500001Y-78820001D01*
X43320000Y-77780000D02*
X44100000Y-77000000D01*
X61500001Y-78820001D02*
X62300000Y-79620000D01*
X44100000Y-77000000D02*
X59680000Y-77000000D01*
X43320000Y-79645000D02*
X43320000Y-77780000D01*
X89400000Y-79600000D02*
X94780000Y-79620000D01*
X79120000Y-79620000D02*
X89400000Y-79600000D01*
X89400000Y-73800000D02*
X89400000Y-79600000D01*
X87600000Y-72000000D02*
X89400000Y-73800000D01*
X86540000Y-72000000D02*
X87600000Y-72000000D01*
X77400000Y-72000000D02*
X76540000Y-72000000D01*
X79500000Y-74100000D02*
X77400000Y-72000000D01*
X79500000Y-79700000D02*
X79500000Y-74100000D01*
X86270000Y-38670000D02*
X90600000Y-43000000D01*
X83350000Y-38670000D02*
X86270000Y-38670000D01*
X115700000Y-73600000D02*
X116200000Y-73100000D01*
X114200000Y-73600000D02*
X115700000Y-73600000D01*
X120500000Y-73600000D02*
X120000000Y-73100000D01*
X122000000Y-73600000D02*
X120500000Y-73600000D01*
X117500000Y-54100000D02*
X118000000Y-54600000D01*
X115250000Y-54100000D02*
X117500000Y-54100000D01*
X118500000Y-54100000D02*
X118000000Y-54600000D01*
X120750000Y-54100000D02*
X118500000Y-54100000D01*
X106500000Y-54100000D02*
X106000000Y-54600000D01*
X108750000Y-54100000D02*
X106500000Y-54100000D01*
X105500000Y-54100000D02*
X106000000Y-54600000D01*
X103250000Y-54100000D02*
X105500000Y-54100000D01*
X99000000Y-85200000D02*
X100400000Y-85200000D01*
X114000000Y-80400000D02*
X115400000Y-80400000D01*
X114400000Y-120800000D02*
X113000000Y-120800000D01*
X103400000Y-120400000D02*
X103400000Y-122400000D01*
X99000000Y-70800000D02*
X97600000Y-70800000D01*
X106800000Y-104000000D02*
X106799998Y-104000002D01*
X105965685Y-104000002D02*
X105400000Y-104000002D01*
X105000001Y-104400001D02*
X105400000Y-104000002D01*
X106799998Y-104000002D02*
X105965685Y-104000002D01*
X103400000Y-104600000D02*
X104800002Y-104600000D01*
X104800002Y-104600000D02*
X105000001Y-104400001D01*
X42550000Y-28450000D02*
X43550000Y-28450000D01*
X44450000Y-28450000D02*
X43550000Y-28450000D01*
X58650000Y-41250000D02*
X59950000Y-41250000D01*
X58650000Y-28450000D02*
X59950000Y-28450000D01*
X36600000Y-44400000D02*
X36800000Y-44600000D01*
X36600000Y-42600000D02*
X36600000Y-44400000D01*
X36600000Y-38400000D02*
X36800000Y-38600000D01*
X36600000Y-36600000D02*
X36600000Y-38400000D01*
X36800000Y-38600000D02*
X35400000Y-38600000D01*
X36800000Y-44600000D02*
X35400000Y-44600000D01*
X40750000Y-41250000D02*
X40750000Y-42850000D01*
X62750000Y-28450000D02*
X59950000Y-28450000D01*
X72350000Y-28450000D02*
X70950000Y-28450000D01*
X82150000Y-41250000D02*
X80950000Y-41250000D01*
X50150000Y-41250000D02*
X51550000Y-41250000D01*
X74550000Y-41250000D02*
X74550000Y-42650000D01*
X87000000Y-47000000D02*
X88500000Y-47000000D01*
X87000000Y-63600000D02*
X88600000Y-63600000D01*
X79400000Y-46800000D02*
X80800000Y-46800000D01*
D30*
X86100000Y-63600000D02*
X87000000Y-63600000D01*
X85000000Y-62500000D02*
X86100000Y-63600000D01*
X82300000Y-62500000D02*
X85000000Y-62500000D01*
X81400000Y-61600000D02*
X82300000Y-62500000D01*
D29*
X67400000Y-63600000D02*
X68900000Y-63600000D01*
D30*
X66525000Y-63600000D02*
X67400000Y-63600000D01*
X65225000Y-62300000D02*
X66525000Y-63600000D01*
X62100000Y-62300000D02*
X65225000Y-62300000D01*
X61800000Y-62000000D02*
X62100000Y-62300000D01*
X61800000Y-61350000D02*
X61800000Y-62000000D01*
D29*
X68850000Y-47050000D02*
X68900000Y-47100000D01*
X67400000Y-47050000D02*
X68850000Y-47050000D01*
X59800000Y-46800000D02*
X61400000Y-46800000D01*
X81200000Y-90300000D02*
X79900000Y-90300000D01*
X79800000Y-97600000D02*
X81200000Y-97600000D01*
X94300000Y-97600000D02*
X94300000Y-99000000D01*
X68050000Y-85450000D02*
X68100000Y-85500000D01*
X66700000Y-85450000D02*
X68050000Y-85450000D01*
X81200000Y-85400000D02*
X79900000Y-85400000D01*
X66700000Y-90300000D02*
X65300000Y-90300000D01*
X46525000Y-116675000D02*
X46400000Y-116800000D01*
X46525000Y-115475000D02*
X46525000Y-116675000D01*
X60700000Y-116900000D02*
X60600000Y-117000000D01*
X60700000Y-115625000D02*
X60700000Y-116900000D01*
X81200000Y-104600000D02*
X82600000Y-104600000D01*
X66700000Y-104400000D02*
X68200000Y-104400000D01*
X56300000Y-67500000D02*
X56400000Y-67600000D01*
X54600000Y-67500000D02*
X56300000Y-67500000D01*
X63550000Y-67750000D02*
X63600000Y-67800000D01*
X62300000Y-67750000D02*
X63550000Y-67750000D01*
X35600000Y-67500000D02*
X37100000Y-67500000D01*
X62300000Y-84200000D02*
X62300000Y-85400000D01*
X43400000Y-67750000D02*
X44950000Y-67750000D01*
X45000000Y-67800000D02*
X44950000Y-67750000D01*
D30*
X61000000Y-84200000D02*
X62300000Y-84200000D01*
X59800000Y-83000000D02*
X61000000Y-84200000D01*
X56500000Y-83000000D02*
X59800000Y-83000000D01*
X56300000Y-82800000D02*
X56500000Y-83000000D01*
X56300000Y-82050000D02*
X56300000Y-82800000D01*
X42425000Y-84200000D02*
X43300000Y-84200000D01*
X41325000Y-83100000D02*
X42425000Y-84200000D01*
X37400000Y-83100000D02*
X41325000Y-83100000D01*
X37400000Y-82150000D02*
X37400000Y-83100000D01*
D29*
X43300000Y-84200000D02*
X43300000Y-85134315D01*
X43300000Y-85134315D02*
X43300000Y-85700000D01*
X47825000Y-98925000D02*
X47800000Y-98900000D01*
X50250000Y-98925000D02*
X47825000Y-98925000D01*
X47600000Y-104025000D02*
X47600000Y-102900000D01*
X33475000Y-98825000D02*
X33400000Y-98900000D01*
X36150000Y-98825000D02*
X33475000Y-98825000D01*
X33375000Y-102675000D02*
X33300000Y-102600000D01*
X33375000Y-103900000D02*
X33375000Y-102675000D01*
X35400000Y-120600000D02*
X35400000Y-122500000D01*
X49550000Y-122350000D02*
X49500000Y-122400000D01*
X49550000Y-120600000D02*
X49550000Y-122350000D01*
X106800000Y-108580000D02*
X106780000Y-108600000D01*
X106800000Y-106000000D02*
X106800000Y-108580000D01*
X101780000Y-72800000D02*
X99000000Y-72800000D01*
X40550000Y-30270000D02*
X40550000Y-28450000D01*
X41330000Y-31050000D02*
X40550000Y-30270000D01*
X41330000Y-31050000D02*
X43530000Y-33250000D01*
X43530000Y-33250000D02*
X51149998Y-33250000D01*
X51149998Y-33250000D02*
X53350001Y-31049997D01*
X53350001Y-31049997D02*
X53750000Y-30649998D01*
X58749999Y-31049999D02*
X58350000Y-30650000D01*
X64730000Y-31050000D02*
X58749999Y-31049999D01*
X64730000Y-28470000D02*
X64750000Y-28450000D01*
X64730000Y-31050000D02*
X64730000Y-28470000D01*
X74350000Y-29670000D02*
X74350000Y-28450000D01*
X75730000Y-31050000D02*
X74350000Y-29670000D01*
X64730000Y-31430000D02*
X64730000Y-31050000D01*
X66550000Y-33250000D02*
X64730000Y-31430000D01*
X75730000Y-32181370D02*
X74661370Y-33250000D01*
X74661370Y-33250000D02*
X66550000Y-33250000D01*
X75730000Y-31050000D02*
X75730000Y-32181370D01*
X97375000Y-72800000D02*
X99000000Y-72800000D01*
X74661370Y-33250000D02*
X84950000Y-33250000D01*
X106780000Y-109731370D02*
X106780000Y-108600000D01*
X105211370Y-111300000D02*
X106780000Y-109731370D01*
X79400000Y-51375000D02*
X79430000Y-51405000D01*
X79400000Y-48800000D02*
X79400000Y-51375000D01*
X95000000Y-70425000D02*
X97375000Y-72800000D01*
X95000000Y-53200000D02*
X95000000Y-70425000D01*
X95000000Y-44800000D02*
X95000000Y-53200000D01*
X86400000Y-36200000D02*
X95000000Y-44800000D01*
X59780000Y-52080000D02*
X59780000Y-51400000D01*
X60900000Y-53200000D02*
X59780000Y-52080000D01*
X79400000Y-52566370D02*
X79400000Y-53200000D01*
X79430000Y-52536370D02*
X79400000Y-52566370D01*
X79430000Y-51405000D02*
X79430000Y-52536370D01*
X79400000Y-53200000D02*
X60900000Y-53200000D01*
X92100000Y-53200000D02*
X79400000Y-53200000D01*
X60900000Y-53200000D02*
X50200000Y-53200000D01*
X50200000Y-53200000D02*
X47500000Y-50500000D01*
X32000000Y-50950000D02*
X32000000Y-52800000D01*
X32450000Y-50500000D02*
X32000000Y-50950000D01*
X92000000Y-70500000D02*
X91500000Y-70000000D01*
X84000000Y-70150000D02*
X84000000Y-72000000D01*
X84150000Y-70000000D02*
X84000000Y-70150000D01*
X91500000Y-70000000D02*
X84150000Y-70000000D01*
X74000000Y-70150000D02*
X74000000Y-72000000D01*
X74150000Y-70000000D02*
X74000000Y-70150000D01*
X84150000Y-70000000D02*
X74150000Y-70000000D01*
X67000000Y-72000000D02*
X64500000Y-74500000D01*
X74000000Y-72000000D02*
X67000000Y-72000000D01*
X81200000Y-92300000D02*
X82825000Y-92300000D01*
X99699998Y-91734315D02*
X99699998Y-92300000D01*
X97375000Y-72800000D02*
X97375000Y-86375000D01*
X99699998Y-88699998D02*
X99699998Y-91734315D01*
X97375000Y-86375000D02*
X99699998Y-88699998D01*
X84000000Y-91451370D02*
X84000000Y-92300000D01*
X83980000Y-90300000D02*
X83980000Y-91431370D01*
X84000000Y-92300000D02*
X96100000Y-92300000D01*
X83980000Y-91431370D02*
X84000000Y-91451370D01*
X82825000Y-92300000D02*
X84000000Y-92300000D01*
X59780000Y-48820000D02*
X59800000Y-48800000D01*
X59780000Y-51400000D02*
X59780000Y-48820000D01*
X42000000Y-50600000D02*
X42100000Y-50500000D01*
X42000000Y-52800000D02*
X42000000Y-50600000D01*
X42100000Y-50500000D02*
X32450000Y-50500000D01*
X47500000Y-50500000D02*
X42100000Y-50500000D01*
X69480000Y-92220000D02*
X69400000Y-92300000D01*
X69480000Y-90300000D02*
X69480000Y-92220000D01*
X66700000Y-92300000D02*
X69400000Y-92300000D01*
X105211370Y-111300000D02*
X100500000Y-111300000D01*
X100500000Y-111300000D02*
X100400000Y-111200000D01*
X100400000Y-111200000D02*
X100500000Y-108900000D01*
X100500000Y-115900000D02*
X100400000Y-111200000D01*
X99699998Y-108099998D02*
X100500000Y-108900000D01*
X100500000Y-116500000D02*
X99000000Y-118000000D01*
X100500000Y-115900000D02*
X100500000Y-116500000D01*
X78000000Y-92300000D02*
X81200000Y-92300000D01*
X69400000Y-92300000D02*
X78000000Y-92300000D01*
X99699998Y-106499998D02*
X99600000Y-106400000D01*
X99699998Y-106500002D02*
X99699998Y-106499998D01*
X99699998Y-92300000D02*
X99699998Y-106500002D01*
X99699998Y-106500002D02*
X99699998Y-108099998D01*
X96600000Y-106400000D02*
X85800000Y-106400000D01*
X85800000Y-106400000D02*
X82400000Y-109800000D01*
X82400000Y-109800000D02*
X52400000Y-109800000D01*
X52400000Y-109800000D02*
X50600000Y-108000000D01*
X33375000Y-107400000D02*
X33975000Y-108000000D01*
X33375000Y-105900000D02*
X33375000Y-107400000D01*
X47600000Y-106025000D02*
X47600000Y-108000000D01*
X47600000Y-108000000D02*
X50600000Y-108000000D01*
X50325000Y-107725000D02*
X50600000Y-108000000D01*
X50325000Y-105945000D02*
X50325000Y-107725000D01*
X54600000Y-73211370D02*
X54600000Y-74400000D01*
X54680000Y-73131370D02*
X54600000Y-73211370D01*
X54680000Y-72000000D02*
X54680000Y-73131370D01*
X64500000Y-74500000D02*
X54600000Y-74400000D01*
X54680000Y-69580000D02*
X54600000Y-69500000D01*
X54680000Y-72000000D02*
X54680000Y-69580000D01*
X35700000Y-69600000D02*
X35600000Y-69500000D01*
X35700000Y-72025000D02*
X35700000Y-69600000D01*
X36499999Y-72824999D02*
X35700000Y-72025000D01*
X37975000Y-74300000D02*
X36499999Y-72824999D01*
X54500000Y-74300000D02*
X37975000Y-74300000D01*
X54600000Y-74400000D02*
X54500000Y-74300000D01*
X36180000Y-107006370D02*
X36200000Y-107026370D01*
X36200000Y-107026370D02*
X36200000Y-108000000D01*
X36180000Y-105875000D02*
X36180000Y-107006370D01*
X36200000Y-108000000D02*
X47600000Y-108000000D01*
X33975000Y-108000000D02*
X36200000Y-108000000D01*
X85250000Y-33250000D02*
X84950000Y-33250000D01*
X86250000Y-31250000D02*
X86250000Y-32250000D01*
X93250000Y-30000000D02*
X87500000Y-30000000D01*
X93800000Y-30550000D02*
X93250000Y-30000000D01*
X87500000Y-30000000D02*
X86250000Y-31250000D01*
X93800000Y-32400000D02*
X93800000Y-30550000D01*
X86400000Y-34150000D02*
X85500000Y-33250000D01*
X86400000Y-36200000D02*
X86400000Y-34150000D01*
X85500000Y-33250000D02*
X85250000Y-33250000D01*
X86250000Y-32250000D02*
X85500000Y-33250000D01*
D30*
X55405000Y-105945000D02*
X57945000Y-105945000D01*
X57945000Y-103830000D02*
X58850000Y-102925000D01*
X57945000Y-105945000D02*
X57945000Y-103830000D01*
X58850000Y-102925000D02*
X55650000Y-102925000D01*
X50699991Y-123275009D02*
X49137559Y-123275009D01*
X52225000Y-121150000D02*
X52225000Y-121750000D01*
X52225000Y-121750000D02*
X50699991Y-123275009D01*
X47800001Y-113099997D02*
X48200000Y-112699998D01*
X49137559Y-123275009D02*
X47800001Y-121937451D01*
X47800001Y-121937451D02*
X47800001Y-113099997D01*
X57350000Y-98925000D02*
X55650000Y-98925000D01*
X58850000Y-98925000D02*
X57350000Y-98925000D01*
X55650000Y-100175000D02*
X55650000Y-98925000D01*
X55550000Y-100275000D02*
X55650000Y-100175000D01*
X52950000Y-100275000D02*
X55550000Y-100275000D01*
X52950000Y-101675000D02*
X52950000Y-100275000D01*
X58075000Y-120600000D02*
X54875000Y-120600000D01*
X54875000Y-119350000D02*
X54875000Y-120600000D01*
X54775000Y-119250000D02*
X54875000Y-119350000D01*
X52225000Y-119250000D02*
X54775000Y-119250000D01*
X52225000Y-119250000D02*
X52225000Y-117850000D01*
X53996370Y-113565000D02*
X55405000Y-113565000D01*
X52865000Y-113565000D02*
X53996370Y-113565000D01*
X55405000Y-116070000D02*
X54875000Y-116600000D01*
X55405000Y-113565000D02*
X55405000Y-116070000D01*
X54875000Y-116600000D02*
X58075000Y-116600000D01*
X72500000Y-82500000D02*
X75700000Y-85700000D01*
X65600000Y-82500000D02*
X72500000Y-82500000D01*
X64700000Y-83400000D02*
X65600000Y-82500000D01*
X64700000Y-86500000D02*
X64700000Y-83400000D01*
X63100000Y-88100000D02*
X64700000Y-86500000D01*
X63100000Y-106100000D02*
X63100000Y-88100000D01*
X60700000Y-108500000D02*
X63100000Y-106100000D01*
X57600000Y-108500000D02*
X60700000Y-108500000D01*
X50900000Y-103575000D02*
X50250000Y-102925000D01*
X52950000Y-103575000D02*
X50900000Y-103575000D01*
X52865000Y-103660000D02*
X52950000Y-103575000D01*
X52865000Y-105945000D02*
X52865000Y-103660000D01*
X50200000Y-115950000D02*
X49550000Y-116600000D01*
X52225000Y-115950000D02*
X50200000Y-115950000D01*
X49550000Y-114340000D02*
X50325000Y-113565000D01*
X49550000Y-116600000D02*
X49550000Y-114340000D01*
X42270000Y-72025000D02*
X40780000Y-72025000D01*
X43320000Y-72025000D02*
X42270000Y-72025000D01*
X39400000Y-70645000D02*
X39400000Y-69650000D01*
X40780000Y-72025000D02*
X39400000Y-70645000D01*
X29000000Y-79400000D02*
X29000000Y-77800000D01*
X39400000Y-69050000D02*
X39400000Y-69650000D01*
X34799998Y-68500000D02*
X38850000Y-68500000D01*
X38850000Y-68500000D02*
X39400000Y-69050000D01*
X34200002Y-69099996D02*
X34799998Y-68500000D01*
X34200002Y-72800000D02*
X34200002Y-69099996D01*
X29000000Y-83400000D02*
X32300000Y-83400000D01*
X32300000Y-84650000D02*
X32850000Y-85200000D01*
X32300000Y-83400000D02*
X32300000Y-84650000D01*
X39400000Y-84650000D02*
X39400000Y-84050000D01*
X38850000Y-85200000D02*
X39400000Y-84650000D01*
X32850000Y-85200000D02*
X38850000Y-85200000D01*
X35400000Y-79945000D02*
X35700000Y-79645000D01*
X35400000Y-82150000D02*
X35400000Y-79945000D01*
X32545000Y-79645000D02*
X32300000Y-79400000D01*
X35700000Y-79645000D02*
X32545000Y-79645000D01*
X34500000Y-60500000D02*
X29300000Y-60500000D01*
X29300000Y-60500000D02*
X27100000Y-62700000D01*
X27500000Y-71800000D02*
X29000000Y-71800000D01*
X27100000Y-71400000D02*
X27500000Y-71800000D01*
X27100000Y-62700000D02*
X27100000Y-71400000D01*
X29600000Y-90200000D02*
X43300000Y-90200000D01*
X27200000Y-87800000D02*
X29600000Y-90200000D01*
X27200000Y-72300000D02*
X27200000Y-87800000D01*
X27500000Y-72000000D02*
X27200000Y-72300000D01*
X27500000Y-71800000D02*
X27500000Y-72000000D01*
X29000000Y-67800000D02*
X32300000Y-67800000D01*
X32300000Y-66550000D02*
X32650000Y-66200000D01*
X32300000Y-67800000D02*
X32300000Y-66550000D01*
X39400000Y-67150000D02*
X39400000Y-67750000D01*
X38450000Y-66200000D02*
X39400000Y-67150000D01*
X32650000Y-66200000D02*
X38450000Y-66200000D01*
X38240000Y-70440000D02*
X37500000Y-69700000D01*
X38240000Y-72025000D02*
X38240000Y-70440000D01*
X41300000Y-67650000D02*
X41400000Y-67750000D01*
X41300000Y-66700000D02*
X41300000Y-67650000D01*
X32950000Y-69900000D02*
X33300000Y-69900000D01*
X32300000Y-70550000D02*
X32950000Y-69900000D01*
X32300000Y-71800000D02*
X32300000Y-70550000D01*
X42750000Y-105875000D02*
X41260000Y-105875000D01*
X43800000Y-105875000D02*
X42750000Y-105875000D01*
X43800000Y-103700000D02*
X44600000Y-102900000D01*
X43800000Y-105875000D02*
X43800000Y-103700000D01*
X44600000Y-102900000D02*
X41400000Y-102900000D01*
X38100000Y-121750000D02*
X36474990Y-123375010D01*
X33999999Y-123099999D02*
X33600000Y-122700000D01*
X34275010Y-123375010D02*
X33999999Y-123099999D01*
X38100000Y-121150000D02*
X38100000Y-121750000D01*
X36474990Y-123375010D02*
X34275010Y-123375010D01*
X44600000Y-98900000D02*
X41400000Y-98900000D01*
X40150000Y-100150000D02*
X41400000Y-98900000D01*
X38800000Y-100150000D02*
X40150000Y-100150000D01*
X38800000Y-101550000D02*
X38800000Y-100150000D01*
X41260000Y-116040000D02*
X40700000Y-116600000D01*
X41260000Y-113495000D02*
X41260000Y-116040000D01*
X42200000Y-116600000D02*
X43900000Y-116600000D01*
X40700000Y-116600000D02*
X42200000Y-116600000D01*
X38720000Y-113495000D02*
X41260000Y-113495000D01*
X47299991Y-122144561D02*
X48930449Y-123775019D01*
X47299991Y-119749991D02*
X47299991Y-122144561D01*
X48930449Y-123775019D02*
X71724981Y-123775019D01*
X44150000Y-116600000D02*
X47299991Y-119749991D01*
X43900000Y-116600000D02*
X44150000Y-116600000D01*
X74100000Y-121400000D02*
X74100000Y-112900000D01*
X71724981Y-123775019D02*
X74100000Y-121400000D01*
X74100000Y-104100000D02*
X75800000Y-102400000D01*
X74100000Y-108200000D02*
X74100000Y-104100000D01*
X43900000Y-120600000D02*
X40700000Y-120600000D01*
X39000000Y-119250000D02*
X38100000Y-119250000D01*
X40600000Y-119250000D02*
X39000000Y-119250000D01*
X40700000Y-119350000D02*
X40600000Y-119250000D01*
X40700000Y-120600000D02*
X40700000Y-119350000D01*
X38100000Y-119250000D02*
X38100000Y-117850000D01*
X36775000Y-103450000D02*
X36150000Y-102825000D01*
X38800000Y-103450000D02*
X36775000Y-103450000D01*
X38720000Y-103530000D02*
X38800000Y-103450000D01*
X38720000Y-105875000D02*
X38720000Y-103530000D01*
X35400000Y-114275000D02*
X36180000Y-113495000D01*
X35400000Y-116600000D02*
X35400000Y-114275000D01*
X36050000Y-115950000D02*
X35400000Y-116600000D01*
X38100000Y-115950000D02*
X36050000Y-115950000D01*
X87050000Y-51405000D02*
X84510000Y-51405000D01*
X83000000Y-49895000D02*
X83000000Y-48900000D01*
X84510000Y-51405000D02*
X83000000Y-49895000D01*
X78100000Y-48299998D02*
X78100000Y-51434315D01*
X83000000Y-48300000D02*
X82524999Y-47824999D01*
X83000000Y-48900000D02*
X83000000Y-48300000D01*
X78574999Y-47824999D02*
X78100000Y-48299998D01*
X82524999Y-47824999D02*
X78574999Y-47824999D01*
X78100000Y-51434315D02*
X78100000Y-52000000D01*
X72800000Y-59200000D02*
X72800000Y-60900000D01*
X83400000Y-63500000D02*
X83400000Y-64400000D01*
X83400000Y-64400000D02*
X83100000Y-64700000D01*
X76350000Y-64700000D02*
X76100000Y-64450000D01*
X76100000Y-64450000D02*
X76100000Y-63200000D01*
X83100000Y-64700000D02*
X76350000Y-64700000D01*
X76100000Y-63200000D02*
X72800000Y-63200000D01*
X79255000Y-59200000D02*
X79430000Y-59025000D01*
X76100000Y-59200000D02*
X79255000Y-59200000D01*
X79400000Y-59055000D02*
X79430000Y-59025000D01*
X79400000Y-61600000D02*
X79400000Y-59055000D01*
X76100000Y-47200000D02*
X72800000Y-47200000D01*
X83000000Y-46400000D02*
X82100000Y-45500000D01*
X83000000Y-47000000D02*
X83000000Y-46400000D01*
X76100000Y-45950000D02*
X76100000Y-47200000D01*
X76550000Y-45500000D02*
X76100000Y-45950000D01*
X82100000Y-45500000D02*
X76550000Y-45500000D01*
X69810000Y-31050000D02*
X72350000Y-31050000D01*
X69810000Y-31050000D02*
X69810000Y-28352549D01*
X69810000Y-28352549D02*
X70712549Y-27450000D01*
X76000000Y-27550000D02*
X76000000Y-28450000D01*
X75899999Y-27449999D02*
X76000000Y-27550000D01*
X70712549Y-27450000D02*
X75899999Y-27449999D01*
X42892880Y-46600000D02*
X45092880Y-44400000D01*
X32000000Y-46600000D02*
X42892880Y-46600000D01*
X59134315Y-44100000D02*
X59700000Y-44100000D01*
X28800000Y-49800000D02*
X32000000Y-46600000D01*
X58834315Y-44400000D02*
X59134315Y-44100000D01*
X28800000Y-57107120D02*
X28800000Y-49800000D01*
X31392880Y-59700000D02*
X28800000Y-57107120D01*
X45092880Y-44400000D02*
X58834315Y-44400000D01*
X40180000Y-59700000D02*
X31392880Y-59700000D01*
X42000000Y-57880000D02*
X40180000Y-59700000D01*
X72800000Y-51200000D02*
X71300000Y-51200000D01*
X71300000Y-51200000D02*
X70800001Y-50700001D01*
X62000000Y-44100000D02*
X68000000Y-44100000D01*
X70800001Y-46900001D02*
X68000000Y-44100000D01*
X70800001Y-50700001D02*
X70800001Y-46900001D01*
X68000000Y-44100000D02*
X68500018Y-43599982D01*
X68500018Y-43599982D02*
X68500018Y-41065685D01*
X68500018Y-41065685D02*
X68500018Y-40500000D01*
X85000000Y-47000000D02*
X85000000Y-46000006D01*
X85000000Y-46000006D02*
X85000006Y-46000000D01*
X81100002Y-50535002D02*
X81100002Y-48700004D01*
X81970000Y-51405000D02*
X81100002Y-50535002D01*
X77100000Y-49225000D02*
X77100000Y-49200000D01*
X76100000Y-50225000D02*
X77100000Y-49225000D01*
X76100000Y-51200000D02*
X76100000Y-50225000D01*
X38500000Y-34600000D02*
X38500000Y-36600000D01*
X38500000Y-38300000D02*
X38800000Y-38600000D01*
X38500000Y-36600000D02*
X38500000Y-38300000D01*
X42150000Y-35850000D02*
X43550000Y-34450000D01*
X41400000Y-36600000D02*
X42150000Y-35850000D01*
X38500000Y-36600000D02*
X41400000Y-36600000D01*
X38500000Y-40600000D02*
X38500000Y-42600000D01*
X38500000Y-44300000D02*
X38800000Y-44600000D01*
X38500000Y-42600000D02*
X38500000Y-44300000D01*
X38500000Y-40300000D02*
X39100000Y-39700000D01*
X38500000Y-40600000D02*
X38500000Y-40300000D01*
X40300000Y-39700000D02*
X39100000Y-39700000D01*
X41330000Y-38670000D02*
X40300000Y-39700000D01*
X121000000Y-104800000D02*
X117800000Y-104800000D01*
X112800000Y-104200000D02*
X113000000Y-104200000D01*
X113600000Y-104800000D02*
X113000000Y-104200000D01*
X117800000Y-104800000D02*
X113600000Y-104800000D01*
X110600000Y-104200000D02*
X113000000Y-104200000D01*
X111860000Y-108600000D02*
X114400000Y-108600000D01*
X117600000Y-108600000D02*
X117800000Y-108800000D01*
X114400000Y-108600000D02*
X117600000Y-108600000D01*
X117800000Y-108800000D02*
X121000000Y-108800000D01*
X116900000Y-111200000D02*
X116900000Y-111500000D01*
X117100000Y-109500000D02*
X117800000Y-108800000D01*
X116900000Y-109700000D02*
X117800000Y-108800000D01*
X116900000Y-111200000D02*
X116900000Y-109700000D01*
X106800000Y-121100000D02*
X106800000Y-119400000D01*
X106800000Y-122600000D02*
X106800000Y-121100000D01*
X118800000Y-113400000D02*
X118800000Y-111200000D01*
X118800000Y-113800000D02*
X118800000Y-113400000D01*
X118800000Y-114300000D02*
X118800000Y-113400000D01*
X109100988Y-114700010D02*
X118399990Y-114700010D01*
X118399990Y-114700010D02*
X118800000Y-114300000D01*
X108000000Y-115800998D02*
X109100988Y-114700010D01*
X108000000Y-116700000D02*
X108000000Y-115800998D01*
X106800000Y-117900000D02*
X108000000Y-116700000D01*
X106800000Y-119400000D02*
X106800000Y-117900000D01*
X111860000Y-118340000D02*
X110800000Y-119400000D01*
X111860000Y-116220000D02*
X111860000Y-118340000D01*
X110800000Y-121100000D02*
X110800000Y-119400000D01*
X110800000Y-122600000D02*
X110800000Y-121100000D01*
X109320000Y-116220000D02*
X109380000Y-116220000D01*
X104650000Y-32500000D02*
X104650000Y-35040000D01*
X106210000Y-36600000D02*
X104650000Y-35040000D01*
X122000000Y-36600000D02*
X106210000Y-36600000D01*
X123800000Y-38400000D02*
X122000000Y-36600000D01*
X123800000Y-110965679D02*
X123800000Y-38400000D01*
X117565679Y-117200000D02*
X123800000Y-110965679D01*
X116600002Y-117200000D02*
X117565679Y-117200000D01*
X103400000Y-108600000D02*
X103650000Y-108600000D01*
X110119999Y-107800001D02*
X109320000Y-108600000D01*
X110920997Y-107800001D02*
X110119999Y-107800001D01*
X112620998Y-106100000D02*
X110920997Y-107800001D01*
X113000000Y-106100000D02*
X112620998Y-106100000D01*
X109320000Y-106719998D02*
X109320000Y-108600000D01*
X107600002Y-105000000D02*
X109320000Y-106719998D01*
X106000000Y-105000000D02*
X107600002Y-105000000D01*
X103400000Y-107600000D02*
X106000000Y-105000000D01*
X103400000Y-108600000D02*
X103400000Y-107600000D01*
X103580000Y-116220000D02*
X103400000Y-116400000D01*
X106780000Y-116220000D02*
X103580000Y-116220000D01*
X106780000Y-115020000D02*
X106780000Y-116220000D01*
X108400000Y-113400000D02*
X106780000Y-115020000D01*
X116900000Y-113400000D02*
X108400000Y-113400000D01*
X58300000Y-84550000D02*
X57750000Y-85100000D01*
X58300000Y-83950000D02*
X58300000Y-84550000D01*
X51400000Y-84650000D02*
X51400000Y-83400000D01*
X51850000Y-85100000D02*
X51400000Y-84650000D01*
X57750000Y-85100000D02*
X51850000Y-85100000D01*
X51400000Y-83400000D02*
X48100000Y-83400000D01*
X59760000Y-72000000D02*
X62300000Y-72000000D01*
X58300000Y-70540000D02*
X58300000Y-69650000D01*
X59760000Y-72000000D02*
X58300000Y-70540000D01*
X48200000Y-79500000D02*
X48100000Y-79400000D01*
X48200000Y-81000000D02*
X48200000Y-79500000D01*
X58300000Y-69650000D02*
X58300000Y-70250000D01*
X58300000Y-69650000D02*
X58300000Y-69050000D01*
X58300000Y-69050000D02*
X57874999Y-68624999D01*
X57874999Y-68624999D02*
X53575001Y-68624999D01*
X53575001Y-68624999D02*
X53400004Y-68799996D01*
X53400004Y-68799996D02*
X53400004Y-72234315D01*
X53400004Y-72234315D02*
X53400004Y-72800000D01*
X54300000Y-80000000D02*
X54680000Y-79620000D01*
X54300000Y-82050000D02*
X54300000Y-80000000D01*
X51620000Y-79620000D02*
X51400000Y-79400000D01*
X54680000Y-79620000D02*
X51620000Y-79620000D01*
X48100000Y-67800000D02*
X51400000Y-67800000D01*
X51400000Y-66550000D02*
X51750000Y-66200000D01*
X51400000Y-67800000D02*
X51400000Y-66550000D01*
X58300000Y-67150000D02*
X58300000Y-67750000D01*
X57350000Y-66200000D02*
X58300000Y-67150000D01*
X51750000Y-66200000D02*
X57350000Y-66200000D01*
X44540000Y-57880000D02*
X46200000Y-59540000D01*
X46600000Y-71800000D02*
X48100000Y-71800000D01*
X46200000Y-71400000D02*
X46600000Y-71800000D01*
X46200000Y-59540000D02*
X46200000Y-71400000D01*
X46600000Y-71900000D02*
X46600000Y-71800000D01*
X45800000Y-72700000D02*
X46600000Y-71900000D01*
X50000000Y-89400000D02*
X45800000Y-85200000D01*
X50000000Y-91200000D02*
X50000000Y-89400000D01*
X49685001Y-91514999D02*
X50000000Y-91200000D01*
X45800000Y-85200000D02*
X45800000Y-78200000D01*
X45085001Y-91514999D02*
X49685001Y-91514999D01*
X43860000Y-92740000D02*
X45085001Y-91514999D01*
X43300000Y-92740000D02*
X43860000Y-92740000D01*
X57220000Y-70420000D02*
X56400000Y-69600000D01*
X57220000Y-72000000D02*
X57220000Y-70420000D01*
X60400000Y-67650000D02*
X60300000Y-67750000D01*
X60400000Y-66600000D02*
X60400000Y-67650000D01*
X51400000Y-70600000D02*
X52200000Y-69800000D01*
X51400000Y-71800000D02*
X51400000Y-70600000D01*
X63800000Y-63850000D02*
X63050000Y-64600000D01*
X63800000Y-63250000D02*
X63800000Y-63850000D01*
X56500000Y-64250000D02*
X56500000Y-63000000D01*
X56850000Y-64600000D02*
X56500000Y-64250000D01*
X63050000Y-64600000D02*
X56850000Y-64600000D01*
X56500000Y-63000000D02*
X53200000Y-63000000D01*
X63400000Y-49940000D02*
X63400000Y-48950000D01*
X64860000Y-51400000D02*
X63400000Y-49940000D01*
X58300000Y-48499998D02*
X58300000Y-52050000D01*
X58874999Y-47924999D02*
X58300000Y-48499998D01*
X62974999Y-47924999D02*
X58874999Y-47924999D01*
X63400000Y-48350000D02*
X62974999Y-47924999D01*
X63400000Y-48950000D02*
X63400000Y-48350000D01*
X53100000Y-58700000D02*
X53200000Y-58800000D01*
X53200000Y-58800000D02*
X53200000Y-60134315D01*
X53200000Y-60134315D02*
X53200000Y-60700000D01*
X67400000Y-51400000D02*
X64860000Y-51400000D01*
X59760000Y-59000000D02*
X59780000Y-59020000D01*
X56500000Y-59000000D02*
X59760000Y-59000000D01*
X59780000Y-61330000D02*
X59800000Y-61350000D01*
X59780000Y-59020000D02*
X59780000Y-61330000D01*
X56400000Y-47200000D02*
X53100000Y-47200000D01*
X56400000Y-45950000D02*
X56400000Y-47200000D01*
X56849989Y-45500011D02*
X56400000Y-45950000D01*
X62450011Y-45500011D02*
X56849989Y-45500011D01*
X63400000Y-46450000D02*
X62450011Y-45500011D01*
X63400000Y-47050000D02*
X63400000Y-46450000D01*
X79350000Y-29350000D02*
X79050000Y-29650000D01*
X79350000Y-28450000D02*
X79350000Y-29350000D01*
X76849992Y-26949992D02*
X70484323Y-26949992D01*
X76950000Y-29175002D02*
X76950000Y-27050000D01*
X76950000Y-27050000D02*
X76849992Y-26949992D01*
X70484323Y-26949992D02*
X68550000Y-28884315D01*
X68550000Y-28884315D02*
X68550000Y-29450000D01*
X79050000Y-29650000D02*
X77424998Y-29650000D01*
X77424998Y-29650000D02*
X76950000Y-29175002D01*
X51600000Y-51200000D02*
X50800000Y-50400000D01*
X53100000Y-51200000D02*
X51600000Y-51200000D01*
X29300000Y-56900000D02*
X30280000Y-57880000D01*
X29300000Y-50100000D02*
X29300000Y-56900000D01*
X32300000Y-47100000D02*
X29300000Y-50100000D01*
X43100000Y-47100000D02*
X32300000Y-47100000D01*
X45200000Y-45000000D02*
X43100000Y-47100000D01*
X30280000Y-57880000D02*
X32000000Y-57880000D01*
X50800000Y-45050000D02*
X50750000Y-45000000D01*
X50800000Y-50400000D02*
X50800000Y-45050000D01*
X50750000Y-45000000D02*
X45200000Y-45000000D01*
X59940000Y-45000000D02*
X50750000Y-45000000D01*
X59940000Y-45000000D02*
X60750000Y-44190000D01*
X60750000Y-44190000D02*
X60750000Y-43750000D01*
X60750000Y-43750000D02*
X64000000Y-40500000D01*
X65440000Y-40500000D02*
X67270000Y-38670000D01*
X64000000Y-40500000D02*
X65440000Y-40500000D01*
X69810000Y-38670000D02*
X67270000Y-38670000D01*
X61520001Y-50600001D02*
X61520001Y-50020001D01*
X62320000Y-51400000D02*
X61520001Y-50600001D01*
X61500000Y-50000000D02*
X61500000Y-48900000D01*
X61520001Y-50020001D02*
X61500000Y-50000000D01*
X65400000Y-45900000D02*
X65400000Y-47050000D01*
X57150000Y-49200000D02*
X57525000Y-49200000D01*
X56400000Y-49950000D02*
X57150000Y-49200000D01*
X56400000Y-51200000D02*
X56400000Y-49950000D01*
X120500000Y-68600000D02*
X120000000Y-69100000D01*
X122000000Y-68600000D02*
X120500000Y-68600000D01*
X115700000Y-68600000D02*
X116200000Y-69100000D01*
X114200000Y-68600000D02*
X115700000Y-68600000D01*
X115750000Y-49600000D02*
X115250000Y-50100000D01*
X118000000Y-49600000D02*
X115750000Y-49600000D01*
X120250000Y-49600000D02*
X120750000Y-50100000D01*
X118000000Y-49600000D02*
X120250000Y-49600000D01*
X119400000Y-45800000D02*
X121000000Y-45800000D01*
X119400000Y-48200000D02*
X118000000Y-49600000D01*
X119400000Y-45800000D02*
X119400000Y-48200000D01*
X116200000Y-69100000D02*
X120000000Y-69100000D01*
X122250000Y-50100000D02*
X123200000Y-51050000D01*
X120750000Y-50100000D02*
X122250000Y-50100000D01*
X123200000Y-67400000D02*
X122000000Y-68600000D01*
X123200000Y-51050000D02*
X123200000Y-67400000D01*
X107800000Y-47000000D02*
X109875002Y-47000000D01*
X107500000Y-46700000D02*
X107800000Y-47000000D01*
X107500000Y-45800000D02*
X107500000Y-46700000D01*
X104300000Y-45400000D02*
X104800000Y-44900000D01*
X102800000Y-45400000D02*
X104300000Y-45400000D01*
X105700000Y-45800000D02*
X104800000Y-44900000D01*
X107500000Y-45800000D02*
X105700000Y-45800000D01*
X106860000Y-69220000D02*
X106880000Y-69200000D01*
X106860000Y-72800000D02*
X106860000Y-69220000D01*
X109875002Y-47000000D02*
X110400000Y-47000000D01*
X116900000Y-41800000D02*
X117500000Y-41800000D01*
X115900000Y-42800000D02*
X116900000Y-41800000D01*
X111200000Y-43600000D02*
X112000000Y-42800000D01*
X111200000Y-46200000D02*
X111200000Y-43600000D01*
X112000000Y-42800000D02*
X115900000Y-42800000D01*
X110400000Y-47000000D02*
X111200000Y-46200000D01*
X111200000Y-47800000D02*
X110400000Y-47000000D01*
X106880000Y-67020000D02*
X111200000Y-62700000D01*
X111200000Y-62700000D02*
X111200000Y-47800000D01*
X106880000Y-69200000D02*
X106880000Y-67020000D01*
X106880000Y-67180000D02*
X106880000Y-69200000D01*
X106600000Y-66900000D02*
X106880000Y-67180000D01*
X99550000Y-66900000D02*
X106600000Y-66900000D01*
X99000000Y-66350000D02*
X99550000Y-66900000D01*
X104300000Y-40400000D02*
X104800000Y-40900000D01*
X102800000Y-40400000D02*
X104300000Y-40400000D01*
X101400000Y-41800000D02*
X102800000Y-40400000D01*
X99350000Y-41800000D02*
X101400000Y-41800000D01*
X114300000Y-40400000D02*
X114800000Y-40900000D01*
X112800000Y-40400000D02*
X114300000Y-40400000D01*
X111400000Y-41800000D02*
X112800000Y-40400000D01*
X109400000Y-41800000D02*
X111400000Y-41800000D01*
X120450000Y-84600000D02*
X120950000Y-85100000D01*
X118200000Y-84600000D02*
X120450000Y-84600000D01*
X115950000Y-84600000D02*
X115450000Y-85100000D01*
X118200000Y-84600000D02*
X115950000Y-84600000D01*
X114300000Y-45400000D02*
X114800000Y-44900000D01*
X112800000Y-45400000D02*
X114300000Y-45400000D01*
X114800000Y-46150000D02*
X115850000Y-47200000D01*
X114800000Y-44900000D02*
X114800000Y-46150000D01*
X117775002Y-47200000D02*
X118400000Y-46575002D01*
X115850000Y-47200000D02*
X117775002Y-47200000D01*
X118400000Y-41124998D02*
X118924998Y-40600000D01*
X118400000Y-46575002D02*
X118400000Y-41124998D01*
X122900000Y-40900000D02*
X122900000Y-41800000D01*
X122600000Y-40600000D02*
X122900000Y-40900000D01*
X118924998Y-40600000D02*
X122600000Y-40600000D01*
X109400000Y-69220000D02*
X109420000Y-69200000D01*
X109400000Y-72800000D02*
X109400000Y-69220000D01*
X109400000Y-72800000D02*
X110450000Y-72800000D01*
X116400000Y-81234315D02*
X116400000Y-81800000D01*
X116400000Y-78750000D02*
X116400000Y-81234315D01*
X110450000Y-72800000D02*
X116400000Y-78750000D01*
X109420000Y-67380000D02*
X109420000Y-69200000D01*
X112600000Y-64200000D02*
X109420000Y-67380000D01*
X112600000Y-48350000D02*
X112600000Y-64200000D01*
X114800000Y-46150000D02*
X112600000Y-48350000D01*
X103750000Y-84600000D02*
X103250000Y-85100000D01*
X106000000Y-84600000D02*
X103750000Y-84600000D01*
X108250000Y-84600000D02*
X108750000Y-85100000D01*
X106000000Y-84600000D02*
X108250000Y-84600000D01*
X99420000Y-80420000D02*
X99000000Y-80000000D01*
X101780000Y-80420000D02*
X99420000Y-80420000D01*
X103000000Y-85100000D02*
X103250000Y-85100000D01*
X103250000Y-81890000D02*
X101780000Y-80420000D01*
X103250000Y-85100000D02*
X103250000Y-81890000D01*
X108250000Y-49600000D02*
X108750000Y-50100000D01*
X106000000Y-49600000D02*
X108250000Y-49600000D01*
X103750000Y-49600000D02*
X103250000Y-50100000D01*
X106000000Y-49600000D02*
X103750000Y-49600000D01*
X99000000Y-58050000D02*
X99000000Y-56350000D01*
X99900000Y-56350000D02*
X100600000Y-55650000D01*
X99000000Y-56350000D02*
X99900000Y-56350000D01*
X101750000Y-50100000D02*
X103250000Y-50100000D01*
X100600000Y-51250000D02*
X101750000Y-50100000D01*
X100600000Y-55650000D02*
X100600000Y-51250000D01*
X35049490Y-34600000D02*
X36600000Y-34600000D01*
X33649490Y-36000000D02*
X35049490Y-34600000D01*
X32000000Y-36000000D02*
X33649490Y-36000000D01*
X34600000Y-40600000D02*
X36600000Y-40600000D01*
X34120000Y-41080000D02*
X34600000Y-40600000D01*
X32000000Y-41080000D02*
X34120000Y-41080000D01*
X102110000Y-35040000D02*
X102110000Y-32500000D01*
X77650000Y-43650000D02*
X87550000Y-43650000D01*
X75730000Y-41730000D02*
X77650000Y-43650000D01*
X75730000Y-38670000D02*
X75730000Y-41730000D01*
X98350000Y-38800000D02*
X102110000Y-35040000D01*
X92800000Y-38800000D02*
X98350000Y-38800000D01*
X79500000Y-42150000D02*
X79800000Y-42450000D01*
X79500000Y-41250000D02*
X79500000Y-42150000D01*
X86923654Y-42450000D02*
X86936827Y-42463173D01*
X79800000Y-42450000D02*
X86923654Y-42450000D01*
X112189490Y-34400000D02*
X113140000Y-33449490D01*
X110200000Y-34400000D02*
X112189490Y-34400000D01*
X105800000Y-30000000D02*
X110200000Y-34400000D01*
X97000000Y-31500000D02*
X98500000Y-30000000D01*
X113140000Y-33449490D02*
X113140000Y-32200000D01*
X98500000Y-30000000D02*
X105800000Y-30000000D01*
X97000000Y-36000000D02*
X97000000Y-31500000D01*
X95200000Y-37800000D02*
X97000000Y-36000000D01*
X91800000Y-37800000D02*
X95200000Y-37800000D01*
X39648630Y-79645000D02*
X38240000Y-79645000D01*
X40780000Y-79645000D02*
X39648630Y-79645000D01*
X39400000Y-81025000D02*
X39400000Y-82150000D01*
X40780000Y-79645000D02*
X39400000Y-81025000D01*
X48380000Y-89680000D02*
X48380000Y-90200000D01*
X44800000Y-86100000D02*
X48380000Y-89680000D01*
X44800000Y-83324990D02*
X44800000Y-86100000D01*
X42624988Y-83324990D02*
X44800000Y-83324990D01*
X41449998Y-82150000D02*
X42624988Y-83324990D01*
X39400000Y-82150000D02*
X41449998Y-82150000D01*
X59760000Y-79620000D02*
X57220000Y-79620000D01*
X58300000Y-81080000D02*
X58300000Y-82050000D01*
X59760000Y-79620000D02*
X58300000Y-81080000D01*
X60349998Y-82050000D02*
X61499998Y-83200000D01*
X58300000Y-82050000D02*
X60349998Y-82050000D01*
X63100002Y-83200000D02*
X63500000Y-83599998D01*
X61499998Y-83200000D02*
X63100002Y-83200000D01*
X49582081Y-92740000D02*
X48380000Y-92740000D01*
X56197451Y-92740000D02*
X49582081Y-92740000D01*
X63500000Y-85437451D02*
X56197451Y-92740000D01*
X63500000Y-83599998D02*
X63500000Y-85437451D01*
X45400000Y-90200000D02*
X45840000Y-90200000D01*
X44100000Y-91500000D02*
X45400000Y-90200000D01*
X42726998Y-91500000D02*
X44100000Y-91500000D01*
X40900000Y-93326998D02*
X42726998Y-91500000D01*
X40900000Y-95550000D02*
X40900000Y-93326998D01*
X38800000Y-97650000D02*
X40900000Y-95550000D01*
X38800000Y-98250000D02*
X38800000Y-97650000D01*
X45840000Y-93942081D02*
X47697919Y-95800000D01*
X45840000Y-92740000D02*
X45840000Y-93942081D01*
X52950000Y-97775000D02*
X52950000Y-98375000D01*
X50975000Y-95800000D02*
X52950000Y-97775000D01*
X47697919Y-95800000D02*
X50975000Y-95800000D01*
X65800000Y-101050000D02*
X65400000Y-101450000D01*
X65400000Y-107634315D02*
X65400000Y-108200000D01*
X66700000Y-101050000D02*
X65800000Y-101050000D01*
X65400000Y-101450000D02*
X65400000Y-107634315D01*
X65400000Y-113165685D02*
X65400000Y-112600000D01*
X65400000Y-114320000D02*
X65400000Y-113165685D01*
X69080000Y-118000000D02*
X65400000Y-114320000D01*
X64000000Y-118000000D02*
X64000000Y-112600000D01*
X64000000Y-108200000D02*
X64000000Y-90000000D01*
X65250000Y-88750000D02*
X66700000Y-88750000D01*
X64000000Y-90000000D02*
X65250000Y-88750000D01*
X79000000Y-90584305D02*
X79000000Y-91149990D01*
X81200000Y-88700000D02*
X80262549Y-88700000D01*
X80262549Y-88700000D02*
X79000000Y-89962549D01*
X79000000Y-89962549D02*
X79000000Y-90584305D01*
X78800000Y-107634315D02*
X78800000Y-108200000D01*
X78800000Y-99800000D02*
X78800000Y-107634315D01*
X79600000Y-99000000D02*
X78800000Y-99800000D01*
X76700000Y-118000000D02*
X76700000Y-114899996D01*
X76700000Y-114899996D02*
X78800000Y-112799996D01*
X81200000Y-101100000D02*
X80300000Y-101100000D01*
X80300000Y-101100000D02*
X80000000Y-101400000D01*
X80000000Y-101400000D02*
X80000000Y-107634315D01*
X80000000Y-107634315D02*
X80000000Y-108200000D01*
X81780000Y-118000000D02*
X80000000Y-116220000D01*
X80000000Y-116220000D02*
X80000000Y-113365685D01*
X80000000Y-113365685D02*
X80000000Y-112800000D01*
X81970000Y-59025000D02*
X84510000Y-59025000D01*
X83400000Y-60135000D02*
X84510000Y-59025000D01*
X83400000Y-61600000D02*
X83400000Y-60135000D01*
X83500000Y-61500000D02*
X83400000Y-61600000D01*
X84000000Y-77080000D02*
X81100000Y-74180000D01*
X81100000Y-74180000D02*
X81100000Y-71300000D01*
X85200000Y-61600000D02*
X83400000Y-61600000D01*
X86075001Y-62475001D02*
X85200000Y-61600000D01*
X88712452Y-62475001D02*
X86075001Y-62475001D01*
X89500000Y-63262549D02*
X88712452Y-62475001D01*
X89500000Y-64200000D02*
X89500000Y-63262549D01*
X88900000Y-64800000D02*
X89500000Y-64200000D01*
X85000000Y-64800000D02*
X88900000Y-64800000D01*
X81100000Y-68700000D02*
X85000000Y-64800000D01*
X110600000Y-106100000D02*
X110900000Y-106100000D01*
X105451370Y-80420000D02*
X106860000Y-80420000D01*
X104320000Y-80420000D02*
X105451370Y-80420000D01*
X111000001Y-90399999D02*
X111400000Y-90000000D01*
X109000000Y-92400000D02*
X111000001Y-90399999D01*
X109000000Y-105400000D02*
X109000000Y-92400000D01*
X109700000Y-106100000D02*
X109000000Y-105400000D01*
X110600000Y-106100000D02*
X109700000Y-106100000D01*
X111400000Y-84200000D02*
X111400000Y-88325000D01*
X110000000Y-82800000D02*
X111400000Y-84200000D01*
X108108630Y-82800000D02*
X110000000Y-82800000D01*
X106860000Y-81551370D02*
X108108630Y-82800000D01*
X106860000Y-80420000D02*
X106860000Y-81551370D01*
X116950000Y-82800000D02*
X112800000Y-82800000D01*
X118450000Y-81300000D02*
X116950000Y-82800000D01*
X112800000Y-82800000D02*
X111400000Y-84200000D01*
X118450000Y-80400000D02*
X118450000Y-81300000D01*
X62320000Y-59020000D02*
X64860000Y-59020000D01*
X63800000Y-60080000D02*
X64860000Y-59020000D01*
X63800000Y-61350000D02*
X63800000Y-60080000D01*
X70100000Y-63562549D02*
X70100000Y-70600000D01*
X69262441Y-62724990D02*
X70100000Y-63562549D01*
X66357110Y-62724990D02*
X69262441Y-62724990D01*
X64982120Y-61350000D02*
X66357110Y-62724990D01*
X63800000Y-61350000D02*
X64982120Y-61350000D01*
X73780000Y-77080000D02*
X74000000Y-77080000D01*
X70100000Y-73400000D02*
X73780000Y-77080000D01*
X99000000Y-48050000D02*
X97850000Y-48050000D01*
X97450000Y-47650000D02*
X97450000Y-45800000D01*
X97850000Y-48050000D02*
X97450000Y-47650000D01*
X88777919Y-36200000D02*
X88720000Y-36142081D01*
X88800000Y-36200000D02*
X88777919Y-36200000D01*
X96200000Y-43600000D02*
X88800000Y-36200000D01*
X88720000Y-36142081D02*
X88720000Y-34940000D01*
X96200000Y-66800000D02*
X96200000Y-43600000D01*
X98600000Y-69200000D02*
X96200000Y-66800000D01*
X101800000Y-69200000D02*
X98600000Y-69200000D01*
X98100000Y-48050000D02*
X99000000Y-48050000D01*
X97600000Y-48550000D02*
X98100000Y-48050000D01*
X97600000Y-67000000D02*
X97600000Y-48550000D01*
X98000000Y-67400000D02*
X97600000Y-67000000D01*
X101500000Y-67400000D02*
X98000000Y-67400000D01*
X101800000Y-67700000D02*
X101500000Y-67400000D01*
X101800000Y-69200000D02*
X101800000Y-67700000D01*
X90200000Y-85700000D02*
X86500000Y-82000000D01*
X86500000Y-82000000D02*
X86500000Y-81500000D01*
X76875001Y-80724999D02*
X81624999Y-80724999D01*
X76600000Y-81000000D02*
X76875001Y-80724999D01*
X81624999Y-80724999D02*
X83300000Y-82400000D01*
X83300000Y-82400000D02*
X83300000Y-85500602D01*
X83300000Y-85500602D02*
X83300000Y-87100000D01*
X83300000Y-87100000D02*
X83900000Y-87700000D01*
X83900000Y-87700000D02*
X93600000Y-87700000D01*
X93600000Y-87700000D02*
X94300000Y-88400000D01*
X94300000Y-88400000D02*
X94300000Y-90900000D01*
X96600000Y-100000000D02*
X96600000Y-97600000D01*
X94200000Y-102400000D02*
X96600000Y-100000000D01*
X90480000Y-102400000D02*
X94200000Y-102400000D01*
X84400000Y-31050000D02*
X83350000Y-31050000D01*
X84450000Y-31000000D02*
X84400000Y-31050000D01*
X84450000Y-28450000D02*
X84450000Y-31000000D01*
X81150000Y-30710000D02*
X80810000Y-31050000D01*
X77900000Y-27550000D02*
X78200000Y-27250000D01*
X77900000Y-28450000D02*
X77900000Y-27550000D01*
X81250000Y-27550000D02*
X81250000Y-28450000D01*
X80950000Y-27250000D02*
X81250000Y-27550000D01*
X78200000Y-27250000D02*
X80950000Y-27250000D01*
X81250000Y-28450000D02*
X82550000Y-28450000D01*
X81250000Y-30610000D02*
X80810000Y-31050000D01*
X81250000Y-28450000D02*
X81250000Y-30610000D01*
X77600000Y-39340000D02*
X78270000Y-38670000D01*
X77600000Y-41250000D02*
X77600000Y-39340000D01*
X78270000Y-38670000D02*
X80810000Y-38670000D01*
X37400000Y-84050000D02*
X35400000Y-84050000D01*
X43400000Y-69650000D02*
X41400000Y-69650000D01*
X79400000Y-63500000D02*
X81400000Y-63500000D01*
X85000000Y-48900000D02*
X87000000Y-48900000D01*
X52450000Y-28450000D02*
X49850000Y-28450000D01*
X53050000Y-28450000D02*
X52450000Y-28450000D01*
X49850000Y-30150000D02*
X48950000Y-31050000D01*
X49850000Y-28450000D02*
X49850000Y-30150000D01*
X47950000Y-28450000D02*
X46350000Y-28450000D01*
X46350000Y-30990000D02*
X46410000Y-31050000D01*
X46350000Y-28450000D02*
X46350000Y-30990000D01*
X46410000Y-40940000D02*
X46100000Y-41250000D01*
X46410000Y-38670000D02*
X46410000Y-40940000D01*
X53050000Y-42150000D02*
X53050000Y-41250000D01*
X51474990Y-43725010D02*
X53050000Y-42150000D01*
X47387559Y-43725010D02*
X51474990Y-43725010D01*
X46100000Y-42437451D02*
X47387559Y-43725010D01*
X46100000Y-41250000D02*
X46100000Y-42437451D01*
X42650000Y-41250000D02*
X44200000Y-41250000D01*
X44200000Y-39000000D02*
X43870000Y-38670000D01*
X44200000Y-41250000D02*
X44200000Y-39000000D01*
X56300000Y-83950000D02*
X54300000Y-83950000D01*
X60300000Y-69650000D02*
X62300000Y-69650000D01*
X59800000Y-63250000D02*
X61800000Y-63250000D01*
X65400000Y-48950000D02*
X67400000Y-48950000D01*
X77100000Y-90300000D02*
X74560000Y-90300000D01*
X74560000Y-89168630D02*
X73291370Y-87900000D01*
X74560000Y-90300000D02*
X74560000Y-89168630D01*
X73291370Y-87900000D02*
X69100000Y-87900000D01*
X68050000Y-86850000D02*
X66700000Y-86850000D01*
X69100000Y-87900000D02*
X68050000Y-86850000D01*
X73160000Y-84460000D02*
X73160000Y-85700000D01*
X72250000Y-83550000D02*
X73160000Y-84460000D01*
X66700000Y-83550000D02*
X72250000Y-83550000D01*
X74560000Y-97920000D02*
X72020000Y-97920000D01*
X72020000Y-97920000D02*
X72020000Y-99180000D01*
X72020000Y-99180000D02*
X71600000Y-99600000D01*
X71600000Y-99600000D02*
X68400000Y-99600000D01*
X67950000Y-99150000D02*
X66700000Y-99150000D01*
X68400000Y-99600000D02*
X67950000Y-99150000D01*
X67600000Y-102500000D02*
X69300000Y-104200000D01*
X66700000Y-102500000D02*
X67600000Y-102500000D01*
X71460000Y-104200000D02*
X73260000Y-102400000D01*
X69300000Y-104200000D02*
X71460000Y-104200000D01*
X67600000Y-102200000D02*
X69400000Y-100400000D01*
X67600000Y-102500000D02*
X67600000Y-102200000D01*
X117500000Y-43800000D02*
X117500000Y-45800000D01*
X121000000Y-41800000D02*
X121000000Y-43800000D01*
X119400000Y-43800000D02*
X119400000Y-41800000D01*
X122900000Y-43800000D02*
X122900000Y-45800000D01*
X97450000Y-41800000D02*
X97450000Y-43800000D01*
X107500000Y-43800000D02*
X107500000Y-41800000D01*
X99350000Y-43800000D02*
X99350000Y-45800000D01*
X109400000Y-45800000D02*
X109400000Y-43800000D01*
X99000000Y-81900000D02*
X99000000Y-83300000D01*
X99000000Y-53150000D02*
X99000000Y-54450000D01*
X99000000Y-63150000D02*
X99000000Y-64450000D01*
X99000000Y-49950000D02*
X99000000Y-51250000D01*
X99000000Y-59950000D02*
X99000000Y-61250000D01*
X90550000Y-90300000D02*
X89060000Y-90300000D01*
X91600000Y-90300000D02*
X90550000Y-90300000D01*
X89060000Y-89168630D02*
X89100000Y-89128630D01*
X89060000Y-90300000D02*
X89060000Y-89168630D01*
X88171380Y-88200010D02*
X83500010Y-88200010D01*
X89100000Y-89128630D02*
X88171380Y-88200010D01*
X82100000Y-86800000D02*
X81200000Y-86800000D01*
X83500010Y-88200010D02*
X82100000Y-86800000D01*
X82425000Y-83500000D02*
X82525000Y-83600000D01*
X81200000Y-83500000D02*
X82425000Y-83500000D01*
X85560000Y-83600000D02*
X87660000Y-85700000D01*
X84100000Y-83600000D02*
X85560000Y-83600000D01*
X89060000Y-97920000D02*
X86520000Y-97920000D01*
X82200000Y-99200000D02*
X81200000Y-99200000D01*
X82500000Y-99500000D02*
X82200000Y-99200000D01*
X86071370Y-99500000D02*
X82500000Y-99500000D01*
X86520000Y-99051370D02*
X86071370Y-99500000D01*
X86520000Y-97920000D02*
X86520000Y-99051370D01*
X82100000Y-102700000D02*
X83500000Y-104100000D01*
X81200000Y-102700000D02*
X82100000Y-102700000D01*
X86240000Y-104100000D02*
X87940000Y-102400000D01*
X83500000Y-104100000D02*
X86240000Y-104100000D01*
X82100000Y-102700000D02*
X83000000Y-101800000D01*
X83900000Y-100900000D02*
X83900000Y-100300000D01*
X83000000Y-101800000D02*
X83900000Y-100900000D01*
X54950000Y-36650000D02*
X54350000Y-36050000D01*
X54950000Y-41250000D02*
X54950000Y-36650000D01*
X54950000Y-32910000D02*
X54950000Y-28450000D01*
X54350000Y-33510000D02*
X54950000Y-32910000D01*
X56750000Y-36190000D02*
X56890000Y-36050000D01*
X56750000Y-41250000D02*
X56750000Y-36190000D01*
X56750000Y-42150000D02*
X57250000Y-42650000D01*
X56750000Y-41250000D02*
X56750000Y-42150000D01*
X60750000Y-42650000D02*
X64730000Y-38670000D01*
X57250000Y-42650000D02*
X60750000Y-42650000D01*
X56890000Y-28590000D02*
X56750000Y-28450000D01*
X56890000Y-33510000D02*
X56890000Y-28590000D01*
X67270000Y-28770000D02*
X67270000Y-31050000D01*
X65750000Y-27250000D02*
X67270000Y-28770000D01*
X57050000Y-27250000D02*
X65750000Y-27250000D01*
X56750000Y-27550000D02*
X57050000Y-27250000D01*
X56750000Y-28450000D02*
X56750000Y-27550000D01*
X118200000Y-99600000D02*
X118200000Y-94600000D01*
X118200000Y-94600000D02*
X118200000Y-92100000D01*
X118200000Y-92100000D02*
X118200000Y-89600000D01*
X120450000Y-89600000D02*
X120950000Y-89100000D01*
X118200000Y-89600000D02*
X120450000Y-89600000D01*
X115950000Y-89600000D02*
X115450000Y-89100000D01*
X118200000Y-89600000D02*
X115950000Y-89600000D01*
X108250000Y-89600000D02*
X108750000Y-89100000D01*
X106000000Y-89600000D02*
X108250000Y-89600000D01*
X103750000Y-89600000D02*
X103250000Y-89100000D01*
X106000000Y-89600000D02*
X103750000Y-89600000D01*
X106000000Y-89600000D02*
X106000000Y-92100000D01*
X106000000Y-92100000D02*
X106000000Y-94600000D01*
X106000000Y-94600000D02*
X106000000Y-99600000D01*
X120950000Y-80400000D02*
X123000000Y-82450000D01*
X120350000Y-80400000D02*
X120950000Y-80400000D01*
X122450000Y-89100000D02*
X120950000Y-89100000D01*
X123000000Y-88550000D02*
X122450000Y-89100000D01*
X123000000Y-82450000D02*
X123000000Y-88550000D01*
X108750000Y-89100000D02*
X115450000Y-89100000D01*
M02*
