G04 #@! TF.GenerationSoftware,KiCad,Pcbnew,5.1.5+dfsg1-2build2*
G04 #@! TF.CreationDate,2021-10-21T22:41:25+10:30*
G04 #@! TF.ProjectId,xover,786f7665-722e-46b6-9963-61645f706362,rev?*
G04 #@! TF.SameCoordinates,Original*
G04 #@! TF.FileFunction,Legend,Bot*
G04 #@! TF.FilePolarity,Positive*
%FSLAX46Y46*%
G04 Gerber Fmt 4.6, Leading zero omitted, Abs format (unit mm)*
G04 Created by KiCad (PCBNEW 5.1.5+dfsg1-2build2) date 2021-10-21 22:41:25*
%MOMM*%
%LPD*%
G04 APERTURE LIST*
%ADD10C,0.150000*%
%ADD11C,0.300000*%
%ADD12C,0.010000*%
%ADD13C,1.200000*%
%ADD14C,0.600000*%
%ADD15C,0.200000*%
G04 APERTURE END LIST*
D10*
X52404761Y-117802380D02*
X52738095Y-117326190D01*
X52976190Y-117802380D02*
X52976190Y-116802380D01*
X52595238Y-116802380D01*
X52500000Y-116850000D01*
X52452380Y-116897619D01*
X52404761Y-116992857D01*
X52404761Y-117135714D01*
X52452380Y-117230952D01*
X52500000Y-117278571D01*
X52595238Y-117326190D01*
X52976190Y-117326190D01*
X51595238Y-117754761D02*
X51690476Y-117802380D01*
X51880952Y-117802380D01*
X51976190Y-117754761D01*
X52023809Y-117659523D01*
X52023809Y-117278571D01*
X51976190Y-117183333D01*
X51880952Y-117135714D01*
X51690476Y-117135714D01*
X51595238Y-117183333D01*
X51547619Y-117278571D01*
X51547619Y-117373809D01*
X52023809Y-117469047D01*
X51214285Y-117135714D02*
X50976190Y-117802380D01*
X50738095Y-117135714D01*
X50357142Y-117707142D02*
X50309523Y-117754761D01*
X50357142Y-117802380D01*
X50404761Y-117754761D01*
X50357142Y-117707142D01*
X50357142Y-117802380D01*
X49928571Y-117516666D02*
X49452380Y-117516666D01*
X50023809Y-117802380D02*
X49690476Y-116802380D01*
X49357142Y-117802380D01*
X48309523Y-116897619D02*
X48261904Y-116850000D01*
X48166666Y-116802380D01*
X47928571Y-116802380D01*
X47833333Y-116850000D01*
X47785714Y-116897619D01*
X47738095Y-116992857D01*
X47738095Y-117088095D01*
X47785714Y-117230952D01*
X48357142Y-117802380D01*
X47738095Y-117802380D01*
X47119047Y-116802380D02*
X47023809Y-116802380D01*
X46928571Y-116850000D01*
X46880952Y-116897619D01*
X46833333Y-116992857D01*
X46785714Y-117183333D01*
X46785714Y-117421428D01*
X46833333Y-117611904D01*
X46880952Y-117707142D01*
X46928571Y-117754761D01*
X47023809Y-117802380D01*
X47119047Y-117802380D01*
X47214285Y-117754761D01*
X47261904Y-117707142D01*
X47309523Y-117611904D01*
X47357142Y-117421428D01*
X47357142Y-117183333D01*
X47309523Y-116992857D01*
X47261904Y-116897619D01*
X47214285Y-116850000D01*
X47119047Y-116802380D01*
X46404761Y-116897619D02*
X46357142Y-116850000D01*
X46261904Y-116802380D01*
X46023809Y-116802380D01*
X45928571Y-116850000D01*
X45880952Y-116897619D01*
X45833333Y-116992857D01*
X45833333Y-117088095D01*
X45880952Y-117230952D01*
X46452380Y-117802380D01*
X45833333Y-117802380D01*
X44880952Y-117802380D02*
X45452380Y-117802380D01*
X45166666Y-117802380D02*
X45166666Y-116802380D01*
X45261904Y-116945238D01*
X45357142Y-117040476D01*
X45452380Y-117088095D01*
X43928571Y-117802380D02*
X44500000Y-117802380D01*
X44214285Y-117802380D02*
X44214285Y-116802380D01*
X44309523Y-116945238D01*
X44404761Y-117040476D01*
X44500000Y-117088095D01*
X43309523Y-116802380D02*
X43214285Y-116802380D01*
X43119047Y-116850000D01*
X43071428Y-116897619D01*
X43023809Y-116992857D01*
X42976190Y-117183333D01*
X42976190Y-117421428D01*
X43023809Y-117611904D01*
X43071428Y-117707142D01*
X43119047Y-117754761D01*
X43214285Y-117802380D01*
X43309523Y-117802380D01*
X43404761Y-117754761D01*
X43452380Y-117707142D01*
X43500000Y-117611904D01*
X43547619Y-117421428D01*
X43547619Y-117183333D01*
X43500000Y-116992857D01*
X43452380Y-116897619D01*
X43404761Y-116850000D01*
X43309523Y-116802380D01*
X57785714Y-118785714D02*
X57595238Y-119452380D01*
X57404761Y-118976190D01*
X57214285Y-119452380D01*
X57023809Y-118785714D01*
X56642857Y-119452380D02*
X56642857Y-118785714D01*
X56642857Y-118452380D02*
X56690476Y-118500000D01*
X56642857Y-118547619D01*
X56595238Y-118500000D01*
X56642857Y-118452380D01*
X56642857Y-118547619D01*
X56023809Y-119452380D02*
X56119047Y-119404761D01*
X56166666Y-119309523D01*
X56166666Y-118452380D01*
X55500000Y-119452380D02*
X55595238Y-119404761D01*
X55642857Y-119309523D01*
X55642857Y-118452380D01*
X55119047Y-119452380D02*
X55119047Y-118785714D01*
X55119047Y-118452380D02*
X55166666Y-118500000D01*
X55119047Y-118547619D01*
X55071428Y-118500000D01*
X55119047Y-118452380D01*
X55119047Y-118547619D01*
X54214285Y-119452380D02*
X54214285Y-118928571D01*
X54261904Y-118833333D01*
X54357142Y-118785714D01*
X54547619Y-118785714D01*
X54642857Y-118833333D01*
X54214285Y-119404761D02*
X54309523Y-119452380D01*
X54547619Y-119452380D01*
X54642857Y-119404761D01*
X54690476Y-119309523D01*
X54690476Y-119214285D01*
X54642857Y-119119047D01*
X54547619Y-119071428D01*
X54309523Y-119071428D01*
X54214285Y-119023809D01*
X53738095Y-119452380D02*
X53738095Y-118785714D01*
X53738095Y-118880952D02*
X53690476Y-118833333D01*
X53595238Y-118785714D01*
X53452380Y-118785714D01*
X53357142Y-118833333D01*
X53309523Y-118928571D01*
X53309523Y-119452380D01*
X53309523Y-118928571D02*
X53261904Y-118833333D01*
X53166666Y-118785714D01*
X53023809Y-118785714D01*
X52928571Y-118833333D01*
X52880952Y-118928571D01*
X52880952Y-119452380D01*
X51785714Y-118976190D02*
X51833333Y-118928571D01*
X51928571Y-118880952D01*
X52023809Y-118880952D01*
X52119047Y-118928571D01*
X52166666Y-118976190D01*
X52214285Y-119071428D01*
X52214285Y-119166666D01*
X52166666Y-119261904D01*
X52119047Y-119309523D01*
X52023809Y-119357142D01*
X51928571Y-119357142D01*
X51833333Y-119309523D01*
X51785714Y-119261904D01*
X51785714Y-118880952D02*
X51785714Y-119261904D01*
X51738095Y-119309523D01*
X51690476Y-119309523D01*
X51595238Y-119261904D01*
X51547619Y-119166666D01*
X51547619Y-118928571D01*
X51642857Y-118785714D01*
X51785714Y-118690476D01*
X51976190Y-118642857D01*
X52166666Y-118690476D01*
X52309523Y-118785714D01*
X52404761Y-118928571D01*
X52452380Y-119119047D01*
X52404761Y-119309523D01*
X52309523Y-119452380D01*
X52166666Y-119547619D01*
X51976190Y-119595238D01*
X51785714Y-119547619D01*
X51642857Y-119452380D01*
X51119047Y-119452380D02*
X51119047Y-118452380D01*
X51119047Y-118833333D02*
X51023809Y-118785714D01*
X50833333Y-118785714D01*
X50738095Y-118833333D01*
X50690476Y-118880952D01*
X50642857Y-118976190D01*
X50642857Y-119261904D01*
X50690476Y-119357142D01*
X50738095Y-119404761D01*
X50833333Y-119452380D01*
X51023809Y-119452380D01*
X51119047Y-119404761D01*
X50214285Y-119452380D02*
X50214285Y-118785714D01*
X50214285Y-118976190D02*
X50166666Y-118880952D01*
X50119047Y-118833333D01*
X50023809Y-118785714D01*
X49928571Y-118785714D01*
X49452380Y-119452380D02*
X49547619Y-119404761D01*
X49595238Y-119357142D01*
X49642857Y-119261904D01*
X49642857Y-118976190D01*
X49595238Y-118880952D01*
X49547619Y-118833333D01*
X49452380Y-118785714D01*
X49309523Y-118785714D01*
X49214285Y-118833333D01*
X49166666Y-118880952D01*
X49119047Y-118976190D01*
X49119047Y-119261904D01*
X49166666Y-119357142D01*
X49214285Y-119404761D01*
X49309523Y-119452380D01*
X49452380Y-119452380D01*
X48261904Y-119452380D02*
X48261904Y-118452380D01*
X48261904Y-119404761D02*
X48357142Y-119452380D01*
X48547619Y-119452380D01*
X48642857Y-119404761D01*
X48690476Y-119357142D01*
X48738095Y-119261904D01*
X48738095Y-118976190D01*
X48690476Y-118880952D01*
X48642857Y-118833333D01*
X48547619Y-118785714D01*
X48357142Y-118785714D01*
X48261904Y-118833333D01*
X47785714Y-119452380D02*
X47785714Y-118785714D01*
X47785714Y-118452380D02*
X47833333Y-118500000D01*
X47785714Y-118547619D01*
X47738095Y-118500000D01*
X47785714Y-118452380D01*
X47785714Y-118547619D01*
X46928571Y-119404761D02*
X47023809Y-119452380D01*
X47214285Y-119452380D01*
X47309523Y-119404761D01*
X47357142Y-119309523D01*
X47357142Y-118928571D01*
X47309523Y-118833333D01*
X47214285Y-118785714D01*
X47023809Y-118785714D01*
X46928571Y-118833333D01*
X46880952Y-118928571D01*
X46880952Y-119023809D01*
X47357142Y-119119047D01*
X46452380Y-119071428D02*
X45690476Y-119071428D01*
X45357142Y-118785714D02*
X44976190Y-118785714D01*
X45214285Y-118452380D02*
X45214285Y-119309523D01*
X45166666Y-119404761D01*
X45071428Y-119452380D01*
X44976190Y-119452380D01*
X44738095Y-118785714D02*
X44500000Y-119452380D01*
X44261904Y-118785714D02*
X44500000Y-119452380D01*
X44595238Y-119690476D01*
X44642857Y-119738095D01*
X44738095Y-119785714D01*
X43880952Y-119452380D02*
X43880952Y-118785714D01*
X43880952Y-118976190D02*
X43833333Y-118880952D01*
X43785714Y-118833333D01*
X43690476Y-118785714D01*
X43595238Y-118785714D01*
X43261904Y-119452380D02*
X43261904Y-118785714D01*
X43261904Y-118976190D02*
X43214285Y-118880952D01*
X43166666Y-118833333D01*
X43071428Y-118785714D01*
X42976190Y-118785714D01*
X42261904Y-119404761D02*
X42357142Y-119452380D01*
X42547619Y-119452380D01*
X42642857Y-119404761D01*
X42690476Y-119309523D01*
X42690476Y-118928571D01*
X42642857Y-118833333D01*
X42547619Y-118785714D01*
X42357142Y-118785714D01*
X42261904Y-118833333D01*
X42214285Y-118928571D01*
X42214285Y-119023809D01*
X42690476Y-119119047D01*
X41642857Y-119452380D02*
X41738095Y-119404761D01*
X41785714Y-119309523D01*
X41785714Y-118452380D01*
X41119047Y-119452380D02*
X41214285Y-119404761D01*
X41261904Y-119309523D01*
X41261904Y-118452380D01*
X40738095Y-119357142D02*
X40690476Y-119404761D01*
X40738095Y-119452380D01*
X40785714Y-119404761D01*
X40738095Y-119357142D01*
X40738095Y-119452380D01*
X40119047Y-119452380D02*
X40214285Y-119404761D01*
X40261904Y-119357142D01*
X40309523Y-119261904D01*
X40309523Y-118976190D01*
X40261904Y-118880952D01*
X40214285Y-118833333D01*
X40119047Y-118785714D01*
X39976190Y-118785714D01*
X39880952Y-118833333D01*
X39833333Y-118880952D01*
X39785714Y-118976190D01*
X39785714Y-119261904D01*
X39833333Y-119357142D01*
X39880952Y-119404761D01*
X39976190Y-119452380D01*
X40119047Y-119452380D01*
X39357142Y-119452380D02*
X39357142Y-118785714D01*
X39357142Y-118976190D02*
X39309523Y-118880952D01*
X39261904Y-118833333D01*
X39166666Y-118785714D01*
X39071428Y-118785714D01*
X38309523Y-118785714D02*
X38309523Y-119595238D01*
X38357142Y-119690476D01*
X38404761Y-119738095D01*
X38500000Y-119785714D01*
X38642857Y-119785714D01*
X38738095Y-119738095D01*
X38309523Y-119404761D02*
X38404761Y-119452380D01*
X38595238Y-119452380D01*
X38690476Y-119404761D01*
X38738095Y-119357142D01*
X38785714Y-119261904D01*
X38785714Y-118976190D01*
X38738095Y-118880952D01*
X38690476Y-118833333D01*
X38595238Y-118785714D01*
X38404761Y-118785714D01*
X38309523Y-118833333D01*
X55785714Y-120435714D02*
X55785714Y-121245238D01*
X55833333Y-121340476D01*
X55880952Y-121388095D01*
X55976190Y-121435714D01*
X56119047Y-121435714D01*
X56214285Y-121388095D01*
X55785714Y-121054761D02*
X55880952Y-121102380D01*
X56071428Y-121102380D01*
X56166666Y-121054761D01*
X56214285Y-121007142D01*
X56261904Y-120911904D01*
X56261904Y-120626190D01*
X56214285Y-120530952D01*
X56166666Y-120483333D01*
X56071428Y-120435714D01*
X55880952Y-120435714D01*
X55785714Y-120483333D01*
X55309523Y-121102380D02*
X55309523Y-120435714D01*
X55309523Y-120102380D02*
X55357142Y-120150000D01*
X55309523Y-120197619D01*
X55261904Y-120150000D01*
X55309523Y-120102380D01*
X55309523Y-120197619D01*
X54976190Y-120435714D02*
X54595238Y-120435714D01*
X54833333Y-120102380D02*
X54833333Y-120959523D01*
X54785714Y-121054761D01*
X54690476Y-121102380D01*
X54595238Y-121102380D01*
X54261904Y-121102380D02*
X54261904Y-120102380D01*
X53833333Y-121102380D02*
X53833333Y-120578571D01*
X53880952Y-120483333D01*
X53976190Y-120435714D01*
X54119047Y-120435714D01*
X54214285Y-120483333D01*
X54261904Y-120530952D01*
X52928571Y-120435714D02*
X52928571Y-121102380D01*
X53357142Y-120435714D02*
X53357142Y-120959523D01*
X53309523Y-121054761D01*
X53214285Y-121102380D01*
X53071428Y-121102380D01*
X52976190Y-121054761D01*
X52928571Y-121007142D01*
X52452380Y-121102380D02*
X52452380Y-120102380D01*
X52452380Y-120483333D02*
X52357142Y-120435714D01*
X52166666Y-120435714D01*
X52071428Y-120483333D01*
X52023809Y-120530952D01*
X51976190Y-120626190D01*
X51976190Y-120911904D01*
X52023809Y-121007142D01*
X52071428Y-121054761D01*
X52166666Y-121102380D01*
X52357142Y-121102380D01*
X52452380Y-121054761D01*
X51547619Y-121007142D02*
X51500000Y-121054761D01*
X51547619Y-121102380D01*
X51595238Y-121054761D01*
X51547619Y-121007142D01*
X51547619Y-121102380D01*
X50642857Y-121054761D02*
X50738095Y-121102380D01*
X50928571Y-121102380D01*
X51023809Y-121054761D01*
X51071428Y-121007142D01*
X51119047Y-120911904D01*
X51119047Y-120626190D01*
X51071428Y-120530952D01*
X51023809Y-120483333D01*
X50928571Y-120435714D01*
X50738095Y-120435714D01*
X50642857Y-120483333D01*
X50071428Y-121102380D02*
X50166666Y-121054761D01*
X50214285Y-121007142D01*
X50261904Y-120911904D01*
X50261904Y-120626190D01*
X50214285Y-120530952D01*
X50166666Y-120483333D01*
X50071428Y-120435714D01*
X49928571Y-120435714D01*
X49833333Y-120483333D01*
X49785714Y-120530952D01*
X49738095Y-120626190D01*
X49738095Y-120911904D01*
X49785714Y-121007142D01*
X49833333Y-121054761D01*
X49928571Y-121102380D01*
X50071428Y-121102380D01*
X49309523Y-121102380D02*
X49309523Y-120435714D01*
X49309523Y-120530952D02*
X49261904Y-120483333D01*
X49166666Y-120435714D01*
X49023809Y-120435714D01*
X48928571Y-120483333D01*
X48880952Y-120578571D01*
X48880952Y-121102380D01*
X48880952Y-120578571D02*
X48833333Y-120483333D01*
X48738095Y-120435714D01*
X48595238Y-120435714D01*
X48500000Y-120483333D01*
X48452380Y-120578571D01*
X48452380Y-121102380D01*
X47261904Y-120054761D02*
X48119047Y-121340476D01*
X46928571Y-120435714D02*
X46928571Y-121435714D01*
X46928571Y-120483333D02*
X46833333Y-120435714D01*
X46642857Y-120435714D01*
X46547619Y-120483333D01*
X46500000Y-120530952D01*
X46452380Y-120626190D01*
X46452380Y-120911904D01*
X46500000Y-121007142D01*
X46547619Y-121054761D01*
X46642857Y-121102380D01*
X46833333Y-121102380D01*
X46928571Y-121054761D01*
X46023809Y-121102380D02*
X46023809Y-120102380D01*
X45595238Y-121102380D02*
X45595238Y-120578571D01*
X45642857Y-120483333D01*
X45738095Y-120435714D01*
X45880952Y-120435714D01*
X45976190Y-120483333D01*
X46023809Y-120530952D01*
X44738095Y-121054761D02*
X44833333Y-121102380D01*
X45023809Y-121102380D01*
X45119047Y-121054761D01*
X45166666Y-120959523D01*
X45166666Y-120578571D01*
X45119047Y-120483333D01*
X45023809Y-120435714D01*
X44833333Y-120435714D01*
X44738095Y-120483333D01*
X44690476Y-120578571D01*
X44690476Y-120673809D01*
X45166666Y-120769047D01*
X44261904Y-120435714D02*
X44261904Y-121102380D01*
X44261904Y-120530952D02*
X44214285Y-120483333D01*
X44119047Y-120435714D01*
X43976190Y-120435714D01*
X43880952Y-120483333D01*
X43833333Y-120578571D01*
X43833333Y-121102380D01*
X43357142Y-121102380D02*
X43357142Y-120435714D01*
X43357142Y-120102380D02*
X43404761Y-120150000D01*
X43357142Y-120197619D01*
X43309523Y-120150000D01*
X43357142Y-120102380D01*
X43357142Y-120197619D01*
X42452380Y-121102380D02*
X42452380Y-120102380D01*
X42452380Y-121054761D02*
X42547619Y-121102380D01*
X42738095Y-121102380D01*
X42833333Y-121054761D01*
X42880952Y-121007142D01*
X42928571Y-120911904D01*
X42928571Y-120626190D01*
X42880952Y-120530952D01*
X42833333Y-120483333D01*
X42738095Y-120435714D01*
X42547619Y-120435714D01*
X42452380Y-120483333D01*
X41833333Y-121102380D02*
X41928571Y-121054761D01*
X41976190Y-121007142D01*
X42023809Y-120911904D01*
X42023809Y-120626190D01*
X41976190Y-120530952D01*
X41928571Y-120483333D01*
X41833333Y-120435714D01*
X41690476Y-120435714D01*
X41595238Y-120483333D01*
X41547619Y-120530952D01*
X41500000Y-120626190D01*
X41500000Y-120911904D01*
X41547619Y-121007142D01*
X41595238Y-121054761D01*
X41690476Y-121102380D01*
X41833333Y-121102380D01*
X41071428Y-120435714D02*
X41071428Y-121102380D01*
X41071428Y-120530952D02*
X41023809Y-120483333D01*
X40928571Y-120435714D01*
X40785714Y-120435714D01*
X40690476Y-120483333D01*
X40642857Y-120578571D01*
X40642857Y-121102380D01*
X39785714Y-121054761D02*
X39880952Y-121102380D01*
X40071428Y-121102380D01*
X40166666Y-121054761D01*
X40214285Y-120959523D01*
X40214285Y-120578571D01*
X40166666Y-120483333D01*
X40071428Y-120435714D01*
X39880952Y-120435714D01*
X39785714Y-120483333D01*
X39738095Y-120578571D01*
X39738095Y-120673809D01*
X40214285Y-120769047D01*
D11*
X85428571Y-62445238D02*
X85333333Y-62350000D01*
X85142857Y-62254761D01*
X84666666Y-62254761D01*
X84476190Y-62350000D01*
X84380952Y-62445238D01*
X84285714Y-62635714D01*
X84285714Y-62826190D01*
X84380952Y-63111904D01*
X85523809Y-64254761D01*
X84285714Y-64254761D01*
X83619047Y-64254761D02*
X82571428Y-62921428D01*
X83619047Y-62921428D02*
X82571428Y-64254761D01*
X81904761Y-62445238D02*
X81809523Y-62350000D01*
X81619047Y-62254761D01*
X81142857Y-62254761D01*
X80952380Y-62350000D01*
X80857142Y-62445238D01*
X80761904Y-62635714D01*
X80761904Y-62826190D01*
X80857142Y-63111904D01*
X82000000Y-64254761D01*
X80761904Y-64254761D01*
X79904761Y-64064285D02*
X79809523Y-64159523D01*
X79904761Y-64254761D01*
X80000000Y-64159523D01*
X79904761Y-64064285D01*
X79904761Y-64254761D01*
X77904761Y-64254761D02*
X79047619Y-64254761D01*
X78476190Y-64254761D02*
X78476190Y-62254761D01*
X78666666Y-62540476D01*
X78857142Y-62730952D01*
X79047619Y-62826190D01*
X74571428Y-64254761D02*
X75523809Y-64254761D01*
X75523809Y-62254761D01*
X73904761Y-64254761D02*
X73904761Y-62921428D01*
X73904761Y-62254761D02*
X74000000Y-62350000D01*
X73904761Y-62445238D01*
X73809523Y-62350000D01*
X73904761Y-62254761D01*
X73904761Y-62445238D01*
X72952380Y-62921428D02*
X72952380Y-64254761D01*
X72952380Y-63111904D02*
X72857142Y-63016666D01*
X72666666Y-62921428D01*
X72380952Y-62921428D01*
X72190476Y-63016666D01*
X72095238Y-63207142D01*
X72095238Y-64254761D01*
X71142857Y-64254761D02*
X71142857Y-62254761D01*
X70952380Y-63492857D02*
X70380952Y-64254761D01*
X70380952Y-62921428D02*
X71142857Y-63683333D01*
X69714285Y-62921428D02*
X69333333Y-64254761D01*
X68952380Y-63302380D01*
X68571428Y-64254761D01*
X68190476Y-62921428D01*
X67428571Y-64254761D02*
X67428571Y-62921428D01*
X67428571Y-62254761D02*
X67523809Y-62350000D01*
X67428571Y-62445238D01*
X67333333Y-62350000D01*
X67428571Y-62254761D01*
X67428571Y-62445238D01*
X66761904Y-62921428D02*
X66000000Y-62921428D01*
X66476190Y-62254761D02*
X66476190Y-63969047D01*
X66380952Y-64159523D01*
X66190476Y-64254761D01*
X66000000Y-64254761D01*
X65523809Y-62921428D02*
X64476190Y-62921428D01*
X65523809Y-64254761D01*
X64476190Y-64254761D01*
X87857142Y-66983333D02*
X86904761Y-66983333D01*
X88047619Y-67554761D02*
X87380952Y-65554761D01*
X86714285Y-67554761D01*
X85190476Y-67459523D02*
X85380952Y-67554761D01*
X85761904Y-67554761D01*
X85952380Y-67459523D01*
X86047619Y-67364285D01*
X86142857Y-67173809D01*
X86142857Y-66602380D01*
X86047619Y-66411904D01*
X85952380Y-66316666D01*
X85761904Y-66221428D01*
X85380952Y-66221428D01*
X85190476Y-66316666D01*
X84619047Y-66221428D02*
X83857142Y-66221428D01*
X84333333Y-65554761D02*
X84333333Y-67269047D01*
X84238095Y-67459523D01*
X84047619Y-67554761D01*
X83857142Y-67554761D01*
X83190476Y-67554761D02*
X83190476Y-66221428D01*
X83190476Y-65554761D02*
X83285714Y-65650000D01*
X83190476Y-65745238D01*
X83095238Y-65650000D01*
X83190476Y-65554761D01*
X83190476Y-65745238D01*
X82428571Y-66221428D02*
X81952380Y-67554761D01*
X81476190Y-66221428D01*
X79952380Y-67459523D02*
X80142857Y-67554761D01*
X80523809Y-67554761D01*
X80714285Y-67459523D01*
X80809523Y-67269047D01*
X80809523Y-66507142D01*
X80714285Y-66316666D01*
X80523809Y-66221428D01*
X80142857Y-66221428D01*
X79952380Y-66316666D01*
X79857142Y-66507142D01*
X79857142Y-66697619D01*
X80809523Y-66888095D01*
X76333333Y-67364285D02*
X76428571Y-67459523D01*
X76714285Y-67554761D01*
X76904761Y-67554761D01*
X77190476Y-67459523D01*
X77380952Y-67269047D01*
X77476190Y-67078571D01*
X77571428Y-66697619D01*
X77571428Y-66411904D01*
X77476190Y-66030952D01*
X77380952Y-65840476D01*
X77190476Y-65650000D01*
X76904761Y-65554761D01*
X76714285Y-65554761D01*
X76428571Y-65650000D01*
X76333333Y-65745238D01*
X75476190Y-67554761D02*
X75476190Y-66221428D01*
X75476190Y-66602380D02*
X75380952Y-66411904D01*
X75285714Y-66316666D01*
X75095238Y-66221428D01*
X74904761Y-66221428D01*
X73952380Y-67554761D02*
X74142857Y-67459523D01*
X74238095Y-67364285D01*
X74333333Y-67173809D01*
X74333333Y-66602380D01*
X74238095Y-66411904D01*
X74142857Y-66316666D01*
X73952380Y-66221428D01*
X73666666Y-66221428D01*
X73476190Y-66316666D01*
X73380952Y-66411904D01*
X73285714Y-66602380D01*
X73285714Y-67173809D01*
X73380952Y-67364285D01*
X73476190Y-67459523D01*
X73666666Y-67554761D01*
X73952380Y-67554761D01*
X72523809Y-67459523D02*
X72333333Y-67554761D01*
X71952380Y-67554761D01*
X71761904Y-67459523D01*
X71666666Y-67269047D01*
X71666666Y-67173809D01*
X71761904Y-66983333D01*
X71952380Y-66888095D01*
X72238095Y-66888095D01*
X72428571Y-66792857D01*
X72523809Y-66602380D01*
X72523809Y-66507142D01*
X72428571Y-66316666D01*
X72238095Y-66221428D01*
X71952380Y-66221428D01*
X71761904Y-66316666D01*
X70904761Y-67459523D02*
X70714285Y-67554761D01*
X70333333Y-67554761D01*
X70142857Y-67459523D01*
X70047619Y-67269047D01*
X70047619Y-67173809D01*
X70142857Y-66983333D01*
X70333333Y-66888095D01*
X70619047Y-66888095D01*
X70809523Y-66792857D01*
X70904761Y-66602380D01*
X70904761Y-66507142D01*
X70809523Y-66316666D01*
X70619047Y-66221428D01*
X70333333Y-66221428D01*
X70142857Y-66316666D01*
X68904761Y-67554761D02*
X69095238Y-67459523D01*
X69190476Y-67364285D01*
X69285714Y-67173809D01*
X69285714Y-66602380D01*
X69190476Y-66411904D01*
X69095238Y-66316666D01*
X68904761Y-66221428D01*
X68619047Y-66221428D01*
X68428571Y-66316666D01*
X68333333Y-66411904D01*
X68238095Y-66602380D01*
X68238095Y-67173809D01*
X68333333Y-67364285D01*
X68428571Y-67459523D01*
X68619047Y-67554761D01*
X68904761Y-67554761D01*
X67571428Y-66221428D02*
X67095238Y-67554761D01*
X66619047Y-66221428D01*
X65095238Y-67459523D02*
X65285714Y-67554761D01*
X65666666Y-67554761D01*
X65857142Y-67459523D01*
X65952380Y-67269047D01*
X65952380Y-66507142D01*
X65857142Y-66316666D01*
X65666666Y-66221428D01*
X65285714Y-66221428D01*
X65095238Y-66316666D01*
X65000000Y-66507142D01*
X65000000Y-66697619D01*
X65952380Y-66888095D01*
X64142857Y-67554761D02*
X64142857Y-66221428D01*
X64142857Y-66602380D02*
X64047619Y-66411904D01*
X63952380Y-66316666D01*
X63761904Y-66221428D01*
X63571428Y-66221428D01*
X63000000Y-67459523D02*
X62809523Y-67554761D01*
X62428571Y-67554761D01*
X62238095Y-67459523D01*
X62142857Y-67269047D01*
X62142857Y-67173809D01*
X62238095Y-66983333D01*
X62428571Y-66888095D01*
X62714285Y-66888095D01*
X62904761Y-66792857D01*
X63000000Y-66602380D01*
X63000000Y-66507142D01*
X62904761Y-66316666D01*
X62714285Y-66221428D01*
X62428571Y-66221428D01*
X62238095Y-66316666D01*
D12*
G36*
X37231114Y-94584505D02*
G01*
X37156461Y-94621727D01*
X37090569Y-94690261D01*
X37072423Y-94715648D01*
X37052655Y-94748866D01*
X37039828Y-94784945D01*
X37032490Y-94833098D01*
X37029187Y-94902536D01*
X37028462Y-94994206D01*
X37031737Y-95119830D01*
X37043123Y-95214154D01*
X37064959Y-95284523D01*
X37099581Y-95338286D01*
X37149330Y-95382788D01*
X37152986Y-95385423D01*
X37202015Y-95412377D01*
X37261055Y-95425712D01*
X37336141Y-95429000D01*
X37458205Y-95429000D01*
X37458256Y-95547497D01*
X37459392Y-95613492D01*
X37466314Y-95652202D01*
X37484402Y-95675419D01*
X37519038Y-95694933D01*
X37527355Y-95698920D01*
X37566280Y-95717603D01*
X37596417Y-95729403D01*
X37618826Y-95730422D01*
X37634567Y-95716761D01*
X37644698Y-95684522D01*
X37650277Y-95629804D01*
X37652365Y-95548711D01*
X37652019Y-95437344D01*
X37650300Y-95291802D01*
X37649763Y-95248269D01*
X37647828Y-95098205D01*
X37646096Y-95000042D01*
X37458308Y-95000042D01*
X37457252Y-95083364D01*
X37452562Y-95137880D01*
X37441949Y-95173837D01*
X37423128Y-95201482D01*
X37410350Y-95214965D01*
X37358110Y-95254417D01*
X37311858Y-95257628D01*
X37264133Y-95225049D01*
X37262923Y-95223846D01*
X37243506Y-95198668D01*
X37231693Y-95164447D01*
X37225735Y-95111748D01*
X37223880Y-95031131D01*
X37223846Y-95013271D01*
X37228330Y-94902175D01*
X37242926Y-94825161D01*
X37269350Y-94778147D01*
X37309317Y-94757050D01*
X37332416Y-94754923D01*
X37387238Y-94764900D01*
X37424842Y-94797752D01*
X37447477Y-94857857D01*
X37457394Y-94949598D01*
X37458308Y-95000042D01*
X37646096Y-95000042D01*
X37645778Y-94982060D01*
X37643127Y-94894679D01*
X37639394Y-94830905D01*
X37634093Y-94785582D01*
X37626742Y-94753555D01*
X37616857Y-94729668D01*
X37603954Y-94708764D01*
X37598421Y-94700898D01*
X37525031Y-94626595D01*
X37432240Y-94584467D01*
X37324904Y-94572722D01*
X37231114Y-94584505D01*
G37*
X37231114Y-94584505D02*
X37156461Y-94621727D01*
X37090569Y-94690261D01*
X37072423Y-94715648D01*
X37052655Y-94748866D01*
X37039828Y-94784945D01*
X37032490Y-94833098D01*
X37029187Y-94902536D01*
X37028462Y-94994206D01*
X37031737Y-95119830D01*
X37043123Y-95214154D01*
X37064959Y-95284523D01*
X37099581Y-95338286D01*
X37149330Y-95382788D01*
X37152986Y-95385423D01*
X37202015Y-95412377D01*
X37261055Y-95425712D01*
X37336141Y-95429000D01*
X37458205Y-95429000D01*
X37458256Y-95547497D01*
X37459392Y-95613492D01*
X37466314Y-95652202D01*
X37484402Y-95675419D01*
X37519038Y-95694933D01*
X37527355Y-95698920D01*
X37566280Y-95717603D01*
X37596417Y-95729403D01*
X37618826Y-95730422D01*
X37634567Y-95716761D01*
X37644698Y-95684522D01*
X37650277Y-95629804D01*
X37652365Y-95548711D01*
X37652019Y-95437344D01*
X37650300Y-95291802D01*
X37649763Y-95248269D01*
X37647828Y-95098205D01*
X37646096Y-95000042D01*
X37458308Y-95000042D01*
X37457252Y-95083364D01*
X37452562Y-95137880D01*
X37441949Y-95173837D01*
X37423128Y-95201482D01*
X37410350Y-95214965D01*
X37358110Y-95254417D01*
X37311858Y-95257628D01*
X37264133Y-95225049D01*
X37262923Y-95223846D01*
X37243506Y-95198668D01*
X37231693Y-95164447D01*
X37225735Y-95111748D01*
X37223880Y-95031131D01*
X37223846Y-95013271D01*
X37228330Y-94902175D01*
X37242926Y-94825161D01*
X37269350Y-94778147D01*
X37309317Y-94757050D01*
X37332416Y-94754923D01*
X37387238Y-94764900D01*
X37424842Y-94797752D01*
X37447477Y-94857857D01*
X37457394Y-94949598D01*
X37458308Y-95000042D01*
X37646096Y-95000042D01*
X37645778Y-94982060D01*
X37643127Y-94894679D01*
X37639394Y-94830905D01*
X37634093Y-94785582D01*
X37626742Y-94753555D01*
X37616857Y-94729668D01*
X37603954Y-94708764D01*
X37598421Y-94700898D01*
X37525031Y-94626595D01*
X37432240Y-94584467D01*
X37324904Y-94572722D01*
X37231114Y-94584505D01*
G36*
X35728336Y-94595089D02*
G01*
X35665633Y-94631358D01*
X35622039Y-94667358D01*
X35590155Y-94705075D01*
X35568190Y-94751199D01*
X35554351Y-94812421D01*
X35546847Y-94895431D01*
X35543883Y-95006919D01*
X35543539Y-95087062D01*
X35543539Y-95382065D01*
X35709615Y-95456515D01*
X35719385Y-95133402D01*
X35723421Y-95012729D01*
X35727656Y-94925141D01*
X35732903Y-94864650D01*
X35739975Y-94825268D01*
X35749689Y-94801007D01*
X35762856Y-94785880D01*
X35767081Y-94782606D01*
X35831091Y-94757034D01*
X35895792Y-94767153D01*
X35934308Y-94794000D01*
X35949975Y-94813024D01*
X35960820Y-94837988D01*
X35967712Y-94875834D01*
X35971521Y-94933502D01*
X35973117Y-95017935D01*
X35973385Y-95105928D01*
X35973437Y-95216323D01*
X35975328Y-95294463D01*
X35981655Y-95347165D01*
X35995017Y-95381242D01*
X36018015Y-95403511D01*
X36053246Y-95420787D01*
X36100303Y-95438738D01*
X36151697Y-95458278D01*
X36145579Y-95111485D01*
X36143116Y-94986468D01*
X36140233Y-94894082D01*
X36136102Y-94827881D01*
X36129893Y-94781420D01*
X36120774Y-94748256D01*
X36107917Y-94721944D01*
X36092416Y-94698729D01*
X36017629Y-94624569D01*
X35926372Y-94581684D01*
X35827117Y-94571412D01*
X35728336Y-94595089D01*
G37*
X35728336Y-94595089D02*
X35665633Y-94631358D01*
X35622039Y-94667358D01*
X35590155Y-94705075D01*
X35568190Y-94751199D01*
X35554351Y-94812421D01*
X35546847Y-94895431D01*
X35543883Y-95006919D01*
X35543539Y-95087062D01*
X35543539Y-95382065D01*
X35709615Y-95456515D01*
X35719385Y-95133402D01*
X35723421Y-95012729D01*
X35727656Y-94925141D01*
X35732903Y-94864650D01*
X35739975Y-94825268D01*
X35749689Y-94801007D01*
X35762856Y-94785880D01*
X35767081Y-94782606D01*
X35831091Y-94757034D01*
X35895792Y-94767153D01*
X35934308Y-94794000D01*
X35949975Y-94813024D01*
X35960820Y-94837988D01*
X35967712Y-94875834D01*
X35971521Y-94933502D01*
X35973117Y-95017935D01*
X35973385Y-95105928D01*
X35973437Y-95216323D01*
X35975328Y-95294463D01*
X35981655Y-95347165D01*
X35995017Y-95381242D01*
X36018015Y-95403511D01*
X36053246Y-95420787D01*
X36100303Y-95438738D01*
X36151697Y-95458278D01*
X36145579Y-95111485D01*
X36143116Y-94986468D01*
X36140233Y-94894082D01*
X36136102Y-94827881D01*
X36129893Y-94781420D01*
X36120774Y-94748256D01*
X36107917Y-94721944D01*
X36092416Y-94698729D01*
X36017629Y-94624569D01*
X35926372Y-94581684D01*
X35827117Y-94571412D01*
X35728336Y-94595089D01*
G36*
X37983114Y-94587256D02*
G01*
X37891536Y-94635409D01*
X37823951Y-94712905D01*
X37799943Y-94762727D01*
X37781262Y-94837533D01*
X37771699Y-94932052D01*
X37770792Y-95035210D01*
X37778079Y-95135935D01*
X37793097Y-95223153D01*
X37815385Y-95285791D01*
X37822235Y-95296579D01*
X37903368Y-95377105D01*
X37999734Y-95425336D01*
X38104299Y-95439450D01*
X38210032Y-95417629D01*
X38239457Y-95404547D01*
X38296759Y-95364231D01*
X38347050Y-95310775D01*
X38351803Y-95303995D01*
X38371122Y-95271321D01*
X38383892Y-95236394D01*
X38391436Y-95190414D01*
X38395076Y-95124584D01*
X38396135Y-95030105D01*
X38396154Y-95008923D01*
X38396106Y-95002182D01*
X38200769Y-95002182D01*
X38199632Y-95091349D01*
X38195159Y-95150520D01*
X38185754Y-95188741D01*
X38169824Y-95215053D01*
X38161692Y-95223846D01*
X38114942Y-95257261D01*
X38069553Y-95255737D01*
X38023660Y-95226752D01*
X37996288Y-95195809D01*
X37980077Y-95150643D01*
X37970974Y-95079420D01*
X37970349Y-95071114D01*
X37968796Y-94942037D01*
X37985035Y-94846172D01*
X38018848Y-94784107D01*
X38070016Y-94756432D01*
X38088280Y-94754923D01*
X38136240Y-94762513D01*
X38169047Y-94788808D01*
X38189105Y-94839095D01*
X38198822Y-94918664D01*
X38200769Y-95002182D01*
X38396106Y-95002182D01*
X38395426Y-94908249D01*
X38392371Y-94837906D01*
X38385678Y-94789163D01*
X38374040Y-94753288D01*
X38356147Y-94721548D01*
X38352192Y-94715648D01*
X38285733Y-94636104D01*
X38213315Y-94589929D01*
X38125151Y-94571599D01*
X38095213Y-94570703D01*
X37983114Y-94587256D01*
G37*
X37983114Y-94587256D02*
X37891536Y-94635409D01*
X37823951Y-94712905D01*
X37799943Y-94762727D01*
X37781262Y-94837533D01*
X37771699Y-94932052D01*
X37770792Y-95035210D01*
X37778079Y-95135935D01*
X37793097Y-95223153D01*
X37815385Y-95285791D01*
X37822235Y-95296579D01*
X37903368Y-95377105D01*
X37999734Y-95425336D01*
X38104299Y-95439450D01*
X38210032Y-95417629D01*
X38239457Y-95404547D01*
X38296759Y-95364231D01*
X38347050Y-95310775D01*
X38351803Y-95303995D01*
X38371122Y-95271321D01*
X38383892Y-95236394D01*
X38391436Y-95190414D01*
X38395076Y-95124584D01*
X38396135Y-95030105D01*
X38396154Y-95008923D01*
X38396106Y-95002182D01*
X38200769Y-95002182D01*
X38199632Y-95091349D01*
X38195159Y-95150520D01*
X38185754Y-95188741D01*
X38169824Y-95215053D01*
X38161692Y-95223846D01*
X38114942Y-95257261D01*
X38069553Y-95255737D01*
X38023660Y-95226752D01*
X37996288Y-95195809D01*
X37980077Y-95150643D01*
X37970974Y-95079420D01*
X37970349Y-95071114D01*
X37968796Y-94942037D01*
X37985035Y-94846172D01*
X38018848Y-94784107D01*
X38070016Y-94756432D01*
X38088280Y-94754923D01*
X38136240Y-94762513D01*
X38169047Y-94788808D01*
X38189105Y-94839095D01*
X38198822Y-94918664D01*
X38200769Y-95002182D01*
X38396106Y-95002182D01*
X38395426Y-94908249D01*
X38392371Y-94837906D01*
X38385678Y-94789163D01*
X38374040Y-94753288D01*
X38356147Y-94721548D01*
X38352192Y-94715648D01*
X38285733Y-94636104D01*
X38213315Y-94589929D01*
X38125151Y-94571599D01*
X38095213Y-94570703D01*
X37983114Y-94587256D01*
G36*
X36465746Y-94599745D02*
G01*
X36388714Y-94651567D01*
X36329184Y-94726412D01*
X36293622Y-94821654D01*
X36286429Y-94891756D01*
X36287246Y-94921009D01*
X36294086Y-94943407D01*
X36312888Y-94963474D01*
X36349592Y-94985733D01*
X36410138Y-95014709D01*
X36500466Y-95054927D01*
X36500923Y-95055129D01*
X36584067Y-95093210D01*
X36652247Y-95127025D01*
X36698495Y-95152933D01*
X36715842Y-95167295D01*
X36715846Y-95167411D01*
X36700557Y-95198685D01*
X36664804Y-95233157D01*
X36623758Y-95257990D01*
X36602963Y-95262923D01*
X36546230Y-95245862D01*
X36497373Y-95203133D01*
X36473535Y-95156155D01*
X36450603Y-95121522D01*
X36405682Y-95082081D01*
X36352877Y-95048009D01*
X36306290Y-95029480D01*
X36296548Y-95028462D01*
X36285582Y-95045215D01*
X36284921Y-95088039D01*
X36292980Y-95145781D01*
X36308173Y-95207289D01*
X36328914Y-95261409D01*
X36329962Y-95263510D01*
X36392379Y-95350660D01*
X36473274Y-95409939D01*
X36565144Y-95439034D01*
X36660487Y-95435634D01*
X36751802Y-95397428D01*
X36755862Y-95394741D01*
X36827694Y-95329642D01*
X36874927Y-95244705D01*
X36901066Y-95133021D01*
X36904574Y-95101643D01*
X36910787Y-94953536D01*
X36903339Y-94884468D01*
X36715846Y-94884468D01*
X36713410Y-94927552D01*
X36700086Y-94940126D01*
X36666868Y-94930719D01*
X36614506Y-94908483D01*
X36555976Y-94880610D01*
X36554521Y-94879872D01*
X36504911Y-94853777D01*
X36485000Y-94836363D01*
X36489910Y-94818107D01*
X36510584Y-94794120D01*
X36563181Y-94759406D01*
X36619823Y-94756856D01*
X36670631Y-94782119D01*
X36705724Y-94830847D01*
X36715846Y-94884468D01*
X36903339Y-94884468D01*
X36898008Y-94835036D01*
X36865222Y-94741055D01*
X36819579Y-94675215D01*
X36737198Y-94608681D01*
X36646454Y-94575676D01*
X36553815Y-94573573D01*
X36465746Y-94599745D01*
G37*
X36465746Y-94599745D02*
X36388714Y-94651567D01*
X36329184Y-94726412D01*
X36293622Y-94821654D01*
X36286429Y-94891756D01*
X36287246Y-94921009D01*
X36294086Y-94943407D01*
X36312888Y-94963474D01*
X36349592Y-94985733D01*
X36410138Y-95014709D01*
X36500466Y-95054927D01*
X36500923Y-95055129D01*
X36584067Y-95093210D01*
X36652247Y-95127025D01*
X36698495Y-95152933D01*
X36715842Y-95167295D01*
X36715846Y-95167411D01*
X36700557Y-95198685D01*
X36664804Y-95233157D01*
X36623758Y-95257990D01*
X36602963Y-95262923D01*
X36546230Y-95245862D01*
X36497373Y-95203133D01*
X36473535Y-95156155D01*
X36450603Y-95121522D01*
X36405682Y-95082081D01*
X36352877Y-95048009D01*
X36306290Y-95029480D01*
X36296548Y-95028462D01*
X36285582Y-95045215D01*
X36284921Y-95088039D01*
X36292980Y-95145781D01*
X36308173Y-95207289D01*
X36328914Y-95261409D01*
X36329962Y-95263510D01*
X36392379Y-95350660D01*
X36473274Y-95409939D01*
X36565144Y-95439034D01*
X36660487Y-95435634D01*
X36751802Y-95397428D01*
X36755862Y-95394741D01*
X36827694Y-95329642D01*
X36874927Y-95244705D01*
X36901066Y-95133021D01*
X36904574Y-95101643D01*
X36910787Y-94953536D01*
X36903339Y-94884468D01*
X36715846Y-94884468D01*
X36713410Y-94927552D01*
X36700086Y-94940126D01*
X36666868Y-94930719D01*
X36614506Y-94908483D01*
X36555976Y-94880610D01*
X36554521Y-94879872D01*
X36504911Y-94853777D01*
X36485000Y-94836363D01*
X36489910Y-94818107D01*
X36510584Y-94794120D01*
X36563181Y-94759406D01*
X36619823Y-94756856D01*
X36670631Y-94782119D01*
X36705724Y-94830847D01*
X36715846Y-94884468D01*
X36903339Y-94884468D01*
X36898008Y-94835036D01*
X36865222Y-94741055D01*
X36819579Y-94675215D01*
X36737198Y-94608681D01*
X36646454Y-94575676D01*
X36553815Y-94573573D01*
X36465746Y-94599745D01*
G36*
X34840154Y-94492120D02*
G01*
X34834428Y-94571980D01*
X34827851Y-94619039D01*
X34818738Y-94639566D01*
X34805402Y-94639829D01*
X34801077Y-94637378D01*
X34743556Y-94619636D01*
X34668732Y-94620672D01*
X34592661Y-94638910D01*
X34545082Y-94662505D01*
X34496298Y-94700198D01*
X34460636Y-94742855D01*
X34436155Y-94797057D01*
X34420913Y-94869384D01*
X34412970Y-94966419D01*
X34410384Y-95094742D01*
X34410338Y-95119358D01*
X34410308Y-95395870D01*
X34471839Y-95417320D01*
X34515541Y-95431912D01*
X34539518Y-95438706D01*
X34540223Y-95438769D01*
X34542585Y-95420345D01*
X34544594Y-95369526D01*
X34546099Y-95292993D01*
X34546947Y-95197430D01*
X34547077Y-95139329D01*
X34547349Y-95024771D01*
X34548748Y-94942667D01*
X34552151Y-94886393D01*
X34558433Y-94849326D01*
X34568471Y-94824844D01*
X34583139Y-94806325D01*
X34592298Y-94797406D01*
X34655211Y-94761466D01*
X34723864Y-94758775D01*
X34786152Y-94789170D01*
X34797671Y-94800144D01*
X34814567Y-94820779D01*
X34826286Y-94845256D01*
X34833767Y-94880647D01*
X34837946Y-94934026D01*
X34839763Y-95012466D01*
X34840154Y-95120617D01*
X34840154Y-95395870D01*
X34901685Y-95417320D01*
X34945387Y-95431912D01*
X34969364Y-95438706D01*
X34970070Y-95438769D01*
X34971874Y-95420069D01*
X34973500Y-95367322D01*
X34974883Y-95285557D01*
X34975958Y-95179805D01*
X34976660Y-95055094D01*
X34976923Y-94916455D01*
X34976923Y-94381806D01*
X34849923Y-94328236D01*
X34840154Y-94492120D01*
G37*
X34840154Y-94492120D02*
X34834428Y-94571980D01*
X34827851Y-94619039D01*
X34818738Y-94639566D01*
X34805402Y-94639829D01*
X34801077Y-94637378D01*
X34743556Y-94619636D01*
X34668732Y-94620672D01*
X34592661Y-94638910D01*
X34545082Y-94662505D01*
X34496298Y-94700198D01*
X34460636Y-94742855D01*
X34436155Y-94797057D01*
X34420913Y-94869384D01*
X34412970Y-94966419D01*
X34410384Y-95094742D01*
X34410338Y-95119358D01*
X34410308Y-95395870D01*
X34471839Y-95417320D01*
X34515541Y-95431912D01*
X34539518Y-95438706D01*
X34540223Y-95438769D01*
X34542585Y-95420345D01*
X34544594Y-95369526D01*
X34546099Y-95292993D01*
X34546947Y-95197430D01*
X34547077Y-95139329D01*
X34547349Y-95024771D01*
X34548748Y-94942667D01*
X34552151Y-94886393D01*
X34558433Y-94849326D01*
X34568471Y-94824844D01*
X34583139Y-94806325D01*
X34592298Y-94797406D01*
X34655211Y-94761466D01*
X34723864Y-94758775D01*
X34786152Y-94789170D01*
X34797671Y-94800144D01*
X34814567Y-94820779D01*
X34826286Y-94845256D01*
X34833767Y-94880647D01*
X34837946Y-94934026D01*
X34839763Y-95012466D01*
X34840154Y-95120617D01*
X34840154Y-95395870D01*
X34901685Y-95417320D01*
X34945387Y-95431912D01*
X34969364Y-95438706D01*
X34970070Y-95438769D01*
X34971874Y-95420069D01*
X34973500Y-95367322D01*
X34974883Y-95285557D01*
X34975958Y-95179805D01*
X34976660Y-95055094D01*
X34976923Y-94916455D01*
X34976923Y-94381806D01*
X34849923Y-94328236D01*
X34840154Y-94492120D01*
G36*
X33946499Y-94626303D02*
G01*
X33869940Y-94654733D01*
X33869064Y-94655279D01*
X33821715Y-94690127D01*
X33786759Y-94730852D01*
X33762175Y-94783925D01*
X33745938Y-94855814D01*
X33736025Y-94952992D01*
X33730414Y-95081928D01*
X33729923Y-95100298D01*
X33722859Y-95377287D01*
X33782305Y-95408028D01*
X33825319Y-95428802D01*
X33851290Y-95438646D01*
X33852491Y-95438769D01*
X33856986Y-95420606D01*
X33860556Y-95371612D01*
X33862752Y-95300031D01*
X33863231Y-95242068D01*
X33863242Y-95148170D01*
X33867534Y-95089203D01*
X33882497Y-95061079D01*
X33914518Y-95059706D01*
X33969986Y-95080998D01*
X34053731Y-95120136D01*
X34115311Y-95152643D01*
X34146983Y-95180845D01*
X34156294Y-95211582D01*
X34156308Y-95213104D01*
X34140943Y-95266054D01*
X34095453Y-95294660D01*
X34025834Y-95298803D01*
X33975687Y-95298084D01*
X33949246Y-95312527D01*
X33932757Y-95347218D01*
X33923267Y-95391416D01*
X33936943Y-95416493D01*
X33942093Y-95420082D01*
X33990575Y-95434496D01*
X34058469Y-95436537D01*
X34128388Y-95426983D01*
X34177932Y-95409522D01*
X34246430Y-95351364D01*
X34285366Y-95270408D01*
X34293077Y-95207160D01*
X34287193Y-95150111D01*
X34265899Y-95103542D01*
X34223735Y-95062181D01*
X34155241Y-95020755D01*
X34054956Y-94973993D01*
X34048846Y-94971350D01*
X33958510Y-94929617D01*
X33902765Y-94895391D01*
X33878871Y-94864635D01*
X33884087Y-94833311D01*
X33915672Y-94797383D01*
X33925117Y-94789116D01*
X33988383Y-94757058D01*
X34053936Y-94758407D01*
X34111028Y-94789838D01*
X34148907Y-94848024D01*
X34152426Y-94859446D01*
X34186700Y-94914837D01*
X34230191Y-94941518D01*
X34293077Y-94967960D01*
X34293077Y-94899548D01*
X34273948Y-94800110D01*
X34217169Y-94708902D01*
X34187622Y-94678389D01*
X34120458Y-94639228D01*
X34035044Y-94621500D01*
X33946499Y-94626303D01*
G37*
X33946499Y-94626303D02*
X33869940Y-94654733D01*
X33869064Y-94655279D01*
X33821715Y-94690127D01*
X33786759Y-94730852D01*
X33762175Y-94783925D01*
X33745938Y-94855814D01*
X33736025Y-94952992D01*
X33730414Y-95081928D01*
X33729923Y-95100298D01*
X33722859Y-95377287D01*
X33782305Y-95408028D01*
X33825319Y-95428802D01*
X33851290Y-95438646D01*
X33852491Y-95438769D01*
X33856986Y-95420606D01*
X33860556Y-95371612D01*
X33862752Y-95300031D01*
X33863231Y-95242068D01*
X33863242Y-95148170D01*
X33867534Y-95089203D01*
X33882497Y-95061079D01*
X33914518Y-95059706D01*
X33969986Y-95080998D01*
X34053731Y-95120136D01*
X34115311Y-95152643D01*
X34146983Y-95180845D01*
X34156294Y-95211582D01*
X34156308Y-95213104D01*
X34140943Y-95266054D01*
X34095453Y-95294660D01*
X34025834Y-95298803D01*
X33975687Y-95298084D01*
X33949246Y-95312527D01*
X33932757Y-95347218D01*
X33923267Y-95391416D01*
X33936943Y-95416493D01*
X33942093Y-95420082D01*
X33990575Y-95434496D01*
X34058469Y-95436537D01*
X34128388Y-95426983D01*
X34177932Y-95409522D01*
X34246430Y-95351364D01*
X34285366Y-95270408D01*
X34293077Y-95207160D01*
X34287193Y-95150111D01*
X34265899Y-95103542D01*
X34223735Y-95062181D01*
X34155241Y-95020755D01*
X34054956Y-94973993D01*
X34048846Y-94971350D01*
X33958510Y-94929617D01*
X33902765Y-94895391D01*
X33878871Y-94864635D01*
X33884087Y-94833311D01*
X33915672Y-94797383D01*
X33925117Y-94789116D01*
X33988383Y-94757058D01*
X34053936Y-94758407D01*
X34111028Y-94789838D01*
X34148907Y-94848024D01*
X34152426Y-94859446D01*
X34186700Y-94914837D01*
X34230191Y-94941518D01*
X34293077Y-94967960D01*
X34293077Y-94899548D01*
X34273948Y-94800110D01*
X34217169Y-94708902D01*
X34187622Y-94678389D01*
X34120458Y-94639228D01*
X34035044Y-94621500D01*
X33946499Y-94626303D01*
G36*
X33286638Y-94624670D02*
G01*
X33197883Y-94657421D01*
X33125978Y-94715350D01*
X33097856Y-94756128D01*
X33067198Y-94830954D01*
X33067835Y-94885058D01*
X33100013Y-94921446D01*
X33111919Y-94927633D01*
X33163325Y-94946925D01*
X33189578Y-94941982D01*
X33198470Y-94909587D01*
X33198923Y-94891692D01*
X33215203Y-94825859D01*
X33257635Y-94779807D01*
X33316612Y-94757564D01*
X33382525Y-94763161D01*
X33436105Y-94792229D01*
X33454202Y-94808810D01*
X33467029Y-94828925D01*
X33475694Y-94859332D01*
X33481304Y-94906788D01*
X33484965Y-94978050D01*
X33487785Y-95079875D01*
X33488516Y-95112115D01*
X33491180Y-95222410D01*
X33494208Y-95300036D01*
X33498750Y-95351396D01*
X33505954Y-95382890D01*
X33516967Y-95400920D01*
X33532940Y-95411888D01*
X33543166Y-95416733D01*
X33586594Y-95433301D01*
X33612158Y-95438769D01*
X33620605Y-95420507D01*
X33625761Y-95365296D01*
X33627654Y-95272499D01*
X33626311Y-95141478D01*
X33625893Y-95121269D01*
X33622942Y-95001733D01*
X33619452Y-94914449D01*
X33614486Y-94852591D01*
X33607107Y-94809336D01*
X33596376Y-94777860D01*
X33581355Y-94751339D01*
X33573498Y-94739975D01*
X33528447Y-94689692D01*
X33478060Y-94650581D01*
X33471892Y-94647167D01*
X33381542Y-94620212D01*
X33286638Y-94624670D01*
G37*
X33286638Y-94624670D02*
X33197883Y-94657421D01*
X33125978Y-94715350D01*
X33097856Y-94756128D01*
X33067198Y-94830954D01*
X33067835Y-94885058D01*
X33100013Y-94921446D01*
X33111919Y-94927633D01*
X33163325Y-94946925D01*
X33189578Y-94941982D01*
X33198470Y-94909587D01*
X33198923Y-94891692D01*
X33215203Y-94825859D01*
X33257635Y-94779807D01*
X33316612Y-94757564D01*
X33382525Y-94763161D01*
X33436105Y-94792229D01*
X33454202Y-94808810D01*
X33467029Y-94828925D01*
X33475694Y-94859332D01*
X33481304Y-94906788D01*
X33484965Y-94978050D01*
X33487785Y-95079875D01*
X33488516Y-95112115D01*
X33491180Y-95222410D01*
X33494208Y-95300036D01*
X33498750Y-95351396D01*
X33505954Y-95382890D01*
X33516967Y-95400920D01*
X33532940Y-95411888D01*
X33543166Y-95416733D01*
X33586594Y-95433301D01*
X33612158Y-95438769D01*
X33620605Y-95420507D01*
X33625761Y-95365296D01*
X33627654Y-95272499D01*
X33626311Y-95141478D01*
X33625893Y-95121269D01*
X33622942Y-95001733D01*
X33619452Y-94914449D01*
X33614486Y-94852591D01*
X33607107Y-94809336D01*
X33596376Y-94777860D01*
X33581355Y-94751339D01*
X33573498Y-94739975D01*
X33528447Y-94689692D01*
X33478060Y-94650581D01*
X33471892Y-94647167D01*
X33381542Y-94620212D01*
X33286638Y-94624670D01*
G36*
X32397919Y-94780289D02*
G01*
X32398167Y-94926320D01*
X32399128Y-95038655D01*
X32401206Y-95122678D01*
X32404807Y-95183769D01*
X32410335Y-95227309D01*
X32418196Y-95258679D01*
X32428793Y-95283262D01*
X32436818Y-95297294D01*
X32503272Y-95373388D01*
X32587530Y-95421084D01*
X32680751Y-95438199D01*
X32774100Y-95422546D01*
X32829688Y-95394418D01*
X32888043Y-95345760D01*
X32927814Y-95286333D01*
X32951810Y-95208507D01*
X32962839Y-95104652D01*
X32964401Y-95028462D01*
X32964191Y-95022986D01*
X32827692Y-95022986D01*
X32826859Y-95110355D01*
X32823039Y-95168192D01*
X32814254Y-95206029D01*
X32798526Y-95233398D01*
X32779734Y-95254042D01*
X32716625Y-95293890D01*
X32648863Y-95297295D01*
X32584821Y-95264025D01*
X32579836Y-95259517D01*
X32558561Y-95236067D01*
X32545221Y-95208166D01*
X32537999Y-95166641D01*
X32535077Y-95102316D01*
X32534615Y-95031200D01*
X32535617Y-94941858D01*
X32539762Y-94882258D01*
X32548764Y-94843089D01*
X32564333Y-94815040D01*
X32577098Y-94800144D01*
X32636400Y-94762575D01*
X32704699Y-94758057D01*
X32769890Y-94786753D01*
X32782472Y-94797406D01*
X32803889Y-94821063D01*
X32817256Y-94849251D01*
X32824434Y-94891245D01*
X32827281Y-94956319D01*
X32827692Y-95022986D01*
X32964191Y-95022986D01*
X32959678Y-94905765D01*
X32943638Y-94813577D01*
X32913472Y-94744269D01*
X32866371Y-94690211D01*
X32829688Y-94662505D01*
X32763010Y-94632572D01*
X32685728Y-94618678D01*
X32613890Y-94622397D01*
X32573692Y-94637400D01*
X32557918Y-94641670D01*
X32547450Y-94625750D01*
X32540144Y-94583089D01*
X32534615Y-94518106D01*
X32528563Y-94445732D01*
X32520156Y-94402187D01*
X32504859Y-94377287D01*
X32478136Y-94360845D01*
X32461346Y-94353564D01*
X32397846Y-94326963D01*
X32397919Y-94780289D01*
G37*
X32397919Y-94780289D02*
X32398167Y-94926320D01*
X32399128Y-95038655D01*
X32401206Y-95122678D01*
X32404807Y-95183769D01*
X32410335Y-95227309D01*
X32418196Y-95258679D01*
X32428793Y-95283262D01*
X32436818Y-95297294D01*
X32503272Y-95373388D01*
X32587530Y-95421084D01*
X32680751Y-95438199D01*
X32774100Y-95422546D01*
X32829688Y-95394418D01*
X32888043Y-95345760D01*
X32927814Y-95286333D01*
X32951810Y-95208507D01*
X32962839Y-95104652D01*
X32964401Y-95028462D01*
X32964191Y-95022986D01*
X32827692Y-95022986D01*
X32826859Y-95110355D01*
X32823039Y-95168192D01*
X32814254Y-95206029D01*
X32798526Y-95233398D01*
X32779734Y-95254042D01*
X32716625Y-95293890D01*
X32648863Y-95297295D01*
X32584821Y-95264025D01*
X32579836Y-95259517D01*
X32558561Y-95236067D01*
X32545221Y-95208166D01*
X32537999Y-95166641D01*
X32535077Y-95102316D01*
X32534615Y-95031200D01*
X32535617Y-94941858D01*
X32539762Y-94882258D01*
X32548764Y-94843089D01*
X32564333Y-94815040D01*
X32577098Y-94800144D01*
X32636400Y-94762575D01*
X32704699Y-94758057D01*
X32769890Y-94786753D01*
X32782472Y-94797406D01*
X32803889Y-94821063D01*
X32817256Y-94849251D01*
X32824434Y-94891245D01*
X32827281Y-94956319D01*
X32827692Y-95022986D01*
X32964191Y-95022986D01*
X32959678Y-94905765D01*
X32943638Y-94813577D01*
X32913472Y-94744269D01*
X32866371Y-94690211D01*
X32829688Y-94662505D01*
X32763010Y-94632572D01*
X32685728Y-94618678D01*
X32613890Y-94622397D01*
X32573692Y-94637400D01*
X32557918Y-94641670D01*
X32547450Y-94625750D01*
X32540144Y-94583089D01*
X32534615Y-94518106D01*
X32528563Y-94445732D01*
X32520156Y-94402187D01*
X32504859Y-94377287D01*
X32478136Y-94360845D01*
X32461346Y-94353564D01*
X32397846Y-94326963D01*
X32397919Y-94780289D01*
G36*
X31604071Y-94636662D02*
G01*
X31601089Y-94688068D01*
X31598753Y-94766192D01*
X31597251Y-94864857D01*
X31596769Y-94968343D01*
X31596769Y-95318533D01*
X31658599Y-95380363D01*
X31701207Y-95418462D01*
X31738610Y-95433895D01*
X31789730Y-95432918D01*
X31810022Y-95430433D01*
X31873446Y-95423200D01*
X31925905Y-95419055D01*
X31938692Y-95418672D01*
X31981801Y-95421176D01*
X32043456Y-95427462D01*
X32067362Y-95430433D01*
X32126078Y-95435028D01*
X32165536Y-95425046D01*
X32204662Y-95394228D01*
X32218785Y-95380363D01*
X32280615Y-95318533D01*
X32280615Y-94663503D01*
X32230850Y-94640829D01*
X32187998Y-94624034D01*
X32162927Y-94618154D01*
X32156499Y-94636736D01*
X32150491Y-94688655D01*
X32145303Y-94768172D01*
X32141336Y-94869546D01*
X32139423Y-94955192D01*
X32134077Y-95292231D01*
X32087440Y-95298825D01*
X32045024Y-95294214D01*
X32024240Y-95279287D01*
X32018430Y-95251377D01*
X32013470Y-95191925D01*
X32009754Y-95108466D01*
X32007676Y-95008532D01*
X32007376Y-94957104D01*
X32007077Y-94661054D01*
X31945546Y-94639604D01*
X31901996Y-94625020D01*
X31878306Y-94618219D01*
X31877623Y-94618154D01*
X31875246Y-94636642D01*
X31872634Y-94687906D01*
X31870005Y-94765649D01*
X31867579Y-94863574D01*
X31865885Y-94955192D01*
X31860539Y-95292231D01*
X31743308Y-95292231D01*
X31737928Y-94984746D01*
X31732549Y-94677261D01*
X31675399Y-94647707D01*
X31633203Y-94627413D01*
X31608230Y-94618204D01*
X31607509Y-94618154D01*
X31604071Y-94636662D01*
G37*
X31604071Y-94636662D02*
X31601089Y-94688068D01*
X31598753Y-94766192D01*
X31597251Y-94864857D01*
X31596769Y-94968343D01*
X31596769Y-95318533D01*
X31658599Y-95380363D01*
X31701207Y-95418462D01*
X31738610Y-95433895D01*
X31789730Y-95432918D01*
X31810022Y-95430433D01*
X31873446Y-95423200D01*
X31925905Y-95419055D01*
X31938692Y-95418672D01*
X31981801Y-95421176D01*
X32043456Y-95427462D01*
X32067362Y-95430433D01*
X32126078Y-95435028D01*
X32165536Y-95425046D01*
X32204662Y-95394228D01*
X32218785Y-95380363D01*
X32280615Y-95318533D01*
X32280615Y-94663503D01*
X32230850Y-94640829D01*
X32187998Y-94624034D01*
X32162927Y-94618154D01*
X32156499Y-94636736D01*
X32150491Y-94688655D01*
X32145303Y-94768172D01*
X32141336Y-94869546D01*
X32139423Y-94955192D01*
X32134077Y-95292231D01*
X32087440Y-95298825D01*
X32045024Y-95294214D01*
X32024240Y-95279287D01*
X32018430Y-95251377D01*
X32013470Y-95191925D01*
X32009754Y-95108466D01*
X32007676Y-95008532D01*
X32007376Y-94957104D01*
X32007077Y-94661054D01*
X31945546Y-94639604D01*
X31901996Y-94625020D01*
X31878306Y-94618219D01*
X31877623Y-94618154D01*
X31875246Y-94636642D01*
X31872634Y-94687906D01*
X31870005Y-94765649D01*
X31867579Y-94863574D01*
X31865885Y-94955192D01*
X31860539Y-95292231D01*
X31743308Y-95292231D01*
X31737928Y-94984746D01*
X31732549Y-94677261D01*
X31675399Y-94647707D01*
X31633203Y-94627413D01*
X31608230Y-94618204D01*
X31607509Y-94618154D01*
X31604071Y-94636662D01*
G36*
X31112667Y-94633528D02*
G01*
X31056410Y-94659117D01*
X31012253Y-94690124D01*
X30979899Y-94724795D01*
X30957562Y-94769520D01*
X30943454Y-94830692D01*
X30935789Y-94914701D01*
X30932780Y-95027940D01*
X30932462Y-95102509D01*
X30932462Y-95393420D01*
X30982227Y-95416095D01*
X31021424Y-95432667D01*
X31040843Y-95438769D01*
X31044558Y-95420610D01*
X31047505Y-95371648D01*
X31049309Y-95300153D01*
X31049692Y-95243385D01*
X31051339Y-95161371D01*
X31055778Y-95096309D01*
X31062260Y-95056467D01*
X31067410Y-95048000D01*
X31102023Y-95056646D01*
X31156360Y-95078823D01*
X31219278Y-95108886D01*
X31279632Y-95141192D01*
X31326279Y-95170098D01*
X31348074Y-95189961D01*
X31348161Y-95190175D01*
X31346286Y-95226935D01*
X31329475Y-95262026D01*
X31299961Y-95290528D01*
X31256884Y-95300061D01*
X31220068Y-95298950D01*
X31167926Y-95298133D01*
X31140556Y-95310349D01*
X31124118Y-95342624D01*
X31122045Y-95348710D01*
X31114919Y-95394739D01*
X31133976Y-95422687D01*
X31183647Y-95436007D01*
X31237303Y-95438470D01*
X31333858Y-95420210D01*
X31383841Y-95394131D01*
X31445571Y-95332868D01*
X31478310Y-95257670D01*
X31481247Y-95178211D01*
X31453576Y-95104167D01*
X31411953Y-95057769D01*
X31370396Y-95031793D01*
X31305078Y-94998907D01*
X31228962Y-94965557D01*
X31216274Y-94960461D01*
X31132667Y-94923565D01*
X31084470Y-94891046D01*
X31068970Y-94858718D01*
X31083450Y-94822394D01*
X31108308Y-94794000D01*
X31167061Y-94759039D01*
X31231707Y-94756417D01*
X31290992Y-94783358D01*
X31333661Y-94837088D01*
X31339261Y-94850950D01*
X31371867Y-94901936D01*
X31419470Y-94939787D01*
X31479539Y-94970850D01*
X31479539Y-94882768D01*
X31476003Y-94828951D01*
X31460844Y-94786534D01*
X31427232Y-94741279D01*
X31394965Y-94706420D01*
X31344791Y-94657062D01*
X31305807Y-94630547D01*
X31263936Y-94619911D01*
X31216540Y-94618154D01*
X31112667Y-94633528D01*
G37*
X31112667Y-94633528D02*
X31056410Y-94659117D01*
X31012253Y-94690124D01*
X30979899Y-94724795D01*
X30957562Y-94769520D01*
X30943454Y-94830692D01*
X30935789Y-94914701D01*
X30932780Y-95027940D01*
X30932462Y-95102509D01*
X30932462Y-95393420D01*
X30982227Y-95416095D01*
X31021424Y-95432667D01*
X31040843Y-95438769D01*
X31044558Y-95420610D01*
X31047505Y-95371648D01*
X31049309Y-95300153D01*
X31049692Y-95243385D01*
X31051339Y-95161371D01*
X31055778Y-95096309D01*
X31062260Y-95056467D01*
X31067410Y-95048000D01*
X31102023Y-95056646D01*
X31156360Y-95078823D01*
X31219278Y-95108886D01*
X31279632Y-95141192D01*
X31326279Y-95170098D01*
X31348074Y-95189961D01*
X31348161Y-95190175D01*
X31346286Y-95226935D01*
X31329475Y-95262026D01*
X31299961Y-95290528D01*
X31256884Y-95300061D01*
X31220068Y-95298950D01*
X31167926Y-95298133D01*
X31140556Y-95310349D01*
X31124118Y-95342624D01*
X31122045Y-95348710D01*
X31114919Y-95394739D01*
X31133976Y-95422687D01*
X31183647Y-95436007D01*
X31237303Y-95438470D01*
X31333858Y-95420210D01*
X31383841Y-95394131D01*
X31445571Y-95332868D01*
X31478310Y-95257670D01*
X31481247Y-95178211D01*
X31453576Y-95104167D01*
X31411953Y-95057769D01*
X31370396Y-95031793D01*
X31305078Y-94998907D01*
X31228962Y-94965557D01*
X31216274Y-94960461D01*
X31132667Y-94923565D01*
X31084470Y-94891046D01*
X31068970Y-94858718D01*
X31083450Y-94822394D01*
X31108308Y-94794000D01*
X31167061Y-94759039D01*
X31231707Y-94756417D01*
X31290992Y-94783358D01*
X31333661Y-94837088D01*
X31339261Y-94850950D01*
X31371867Y-94901936D01*
X31419470Y-94939787D01*
X31479539Y-94970850D01*
X31479539Y-94882768D01*
X31476003Y-94828951D01*
X31460844Y-94786534D01*
X31427232Y-94741279D01*
X31394965Y-94706420D01*
X31344791Y-94657062D01*
X31305807Y-94630547D01*
X31263936Y-94619911D01*
X31216540Y-94618154D01*
X31112667Y-94633528D01*
G36*
X30429193Y-94636782D02*
G01*
X30405839Y-94646988D01*
X30350098Y-94691134D01*
X30302431Y-94754967D01*
X30272952Y-94823087D01*
X30268154Y-94856670D01*
X30284240Y-94903556D01*
X30319525Y-94928365D01*
X30357356Y-94943387D01*
X30374679Y-94946155D01*
X30383114Y-94926066D01*
X30399770Y-94882351D01*
X30407077Y-94862598D01*
X30448052Y-94794271D01*
X30507378Y-94760191D01*
X30583448Y-94761239D01*
X30589082Y-94762581D01*
X30629695Y-94781836D01*
X30659552Y-94819375D01*
X30679945Y-94879809D01*
X30692164Y-94967751D01*
X30697500Y-95087813D01*
X30698000Y-95151698D01*
X30698248Y-95252403D01*
X30699874Y-95321054D01*
X30704199Y-95364673D01*
X30712546Y-95390282D01*
X30726235Y-95404903D01*
X30746589Y-95415558D01*
X30747766Y-95416095D01*
X30786962Y-95432667D01*
X30806381Y-95438769D01*
X30809365Y-95420319D01*
X30811919Y-95369323D01*
X30813860Y-95292308D01*
X30815003Y-95195805D01*
X30815231Y-95125184D01*
X30814068Y-94988525D01*
X30809521Y-94884851D01*
X30800001Y-94808108D01*
X30783919Y-94752246D01*
X30759687Y-94711212D01*
X30725714Y-94678954D01*
X30692167Y-94656440D01*
X30611501Y-94626476D01*
X30517619Y-94619718D01*
X30429193Y-94636782D01*
G37*
X30429193Y-94636782D02*
X30405839Y-94646988D01*
X30350098Y-94691134D01*
X30302431Y-94754967D01*
X30272952Y-94823087D01*
X30268154Y-94856670D01*
X30284240Y-94903556D01*
X30319525Y-94928365D01*
X30357356Y-94943387D01*
X30374679Y-94946155D01*
X30383114Y-94926066D01*
X30399770Y-94882351D01*
X30407077Y-94862598D01*
X30448052Y-94794271D01*
X30507378Y-94760191D01*
X30583448Y-94761239D01*
X30589082Y-94762581D01*
X30629695Y-94781836D01*
X30659552Y-94819375D01*
X30679945Y-94879809D01*
X30692164Y-94967751D01*
X30697500Y-95087813D01*
X30698000Y-95151698D01*
X30698248Y-95252403D01*
X30699874Y-95321054D01*
X30704199Y-95364673D01*
X30712546Y-95390282D01*
X30726235Y-95404903D01*
X30746589Y-95415558D01*
X30747766Y-95416095D01*
X30786962Y-95432667D01*
X30806381Y-95438769D01*
X30809365Y-95420319D01*
X30811919Y-95369323D01*
X30813860Y-95292308D01*
X30815003Y-95195805D01*
X30815231Y-95125184D01*
X30814068Y-94988525D01*
X30809521Y-94884851D01*
X30800001Y-94808108D01*
X30783919Y-94752246D01*
X30759687Y-94711212D01*
X30725714Y-94678954D01*
X30692167Y-94656440D01*
X30611501Y-94626476D01*
X30517619Y-94619718D01*
X30429193Y-94636782D01*
G36*
X29754776Y-94647838D02*
G01*
X29677472Y-94698361D01*
X29640186Y-94743590D01*
X29610647Y-94825663D01*
X29608301Y-94890607D01*
X29613615Y-94977445D01*
X29813885Y-95065103D01*
X29911261Y-95109887D01*
X29974887Y-95145913D01*
X30007971Y-95177117D01*
X30013720Y-95207436D01*
X29995342Y-95240805D01*
X29975077Y-95262923D01*
X29916111Y-95298393D01*
X29851976Y-95300879D01*
X29793074Y-95273235D01*
X29749803Y-95218320D01*
X29742064Y-95198928D01*
X29704994Y-95138364D01*
X29662346Y-95112552D01*
X29603846Y-95090471D01*
X29603846Y-95174184D01*
X29609018Y-95231150D01*
X29629277Y-95279189D01*
X29671738Y-95334346D01*
X29678049Y-95341514D01*
X29725280Y-95390585D01*
X29765879Y-95416920D01*
X29816672Y-95429035D01*
X29858780Y-95433003D01*
X29934098Y-95433991D01*
X29987714Y-95421466D01*
X30021162Y-95402869D01*
X30073732Y-95361975D01*
X30110121Y-95317748D01*
X30133150Y-95262126D01*
X30145641Y-95187047D01*
X30150413Y-95084449D01*
X30150794Y-95032376D01*
X30149499Y-94969948D01*
X30031529Y-94969948D01*
X30030161Y-95003438D01*
X30026751Y-95008923D01*
X30004247Y-95001472D01*
X29955818Y-94981753D01*
X29891092Y-94953718D01*
X29877557Y-94947692D01*
X29795756Y-94906096D01*
X29750688Y-94869538D01*
X29740783Y-94835296D01*
X29764474Y-94800648D01*
X29784040Y-94785339D01*
X29854640Y-94754721D01*
X29920720Y-94759780D01*
X29976041Y-94797151D01*
X30014364Y-94863473D01*
X30026651Y-94916116D01*
X30031529Y-94969948D01*
X30149499Y-94969948D01*
X30148270Y-94910720D01*
X30138968Y-94820710D01*
X30120540Y-94755167D01*
X30090640Y-94706912D01*
X30046920Y-94668767D01*
X30027859Y-94656440D01*
X29941274Y-94624336D01*
X29846478Y-94622316D01*
X29754776Y-94647838D01*
G37*
X29754776Y-94647838D02*
X29677472Y-94698361D01*
X29640186Y-94743590D01*
X29610647Y-94825663D01*
X29608301Y-94890607D01*
X29613615Y-94977445D01*
X29813885Y-95065103D01*
X29911261Y-95109887D01*
X29974887Y-95145913D01*
X30007971Y-95177117D01*
X30013720Y-95207436D01*
X29995342Y-95240805D01*
X29975077Y-95262923D01*
X29916111Y-95298393D01*
X29851976Y-95300879D01*
X29793074Y-95273235D01*
X29749803Y-95218320D01*
X29742064Y-95198928D01*
X29704994Y-95138364D01*
X29662346Y-95112552D01*
X29603846Y-95090471D01*
X29603846Y-95174184D01*
X29609018Y-95231150D01*
X29629277Y-95279189D01*
X29671738Y-95334346D01*
X29678049Y-95341514D01*
X29725280Y-95390585D01*
X29765879Y-95416920D01*
X29816672Y-95429035D01*
X29858780Y-95433003D01*
X29934098Y-95433991D01*
X29987714Y-95421466D01*
X30021162Y-95402869D01*
X30073732Y-95361975D01*
X30110121Y-95317748D01*
X30133150Y-95262126D01*
X30145641Y-95187047D01*
X30150413Y-95084449D01*
X30150794Y-95032376D01*
X30149499Y-94969948D01*
X30031529Y-94969948D01*
X30030161Y-95003438D01*
X30026751Y-95008923D01*
X30004247Y-95001472D01*
X29955818Y-94981753D01*
X29891092Y-94953718D01*
X29877557Y-94947692D01*
X29795756Y-94906096D01*
X29750688Y-94869538D01*
X29740783Y-94835296D01*
X29764474Y-94800648D01*
X29784040Y-94785339D01*
X29854640Y-94754721D01*
X29920720Y-94759780D01*
X29976041Y-94797151D01*
X30014364Y-94863473D01*
X30026651Y-94916116D01*
X30031529Y-94969948D01*
X30149499Y-94969948D01*
X30148270Y-94910720D01*
X30138968Y-94820710D01*
X30120540Y-94755167D01*
X30090640Y-94706912D01*
X30046920Y-94668767D01*
X30027859Y-94656440D01*
X29941274Y-94624336D01*
X29846478Y-94622316D01*
X29754776Y-94647838D01*
G36*
X33860122Y-88287776D02*
G01*
X33754388Y-88288355D01*
X33677868Y-88289922D01*
X33625628Y-88292972D01*
X33592737Y-88297996D01*
X33574263Y-88305489D01*
X33565273Y-88315944D01*
X33560837Y-88329853D01*
X33560406Y-88331654D01*
X33553667Y-88364145D01*
X33541192Y-88428252D01*
X33524281Y-88517151D01*
X33504229Y-88624019D01*
X33482336Y-88742033D01*
X33481571Y-88746178D01*
X33459641Y-88861831D01*
X33439123Y-88964014D01*
X33421341Y-89046598D01*
X33407619Y-89103456D01*
X33399282Y-89128458D01*
X33398884Y-89128901D01*
X33374323Y-89141110D01*
X33323685Y-89161456D01*
X33257905Y-89185545D01*
X33257539Y-89185674D01*
X33174683Y-89216818D01*
X33077000Y-89256491D01*
X32984923Y-89296381D01*
X32980566Y-89298353D01*
X32830593Y-89366420D01*
X32498502Y-89139639D01*
X32396626Y-89070504D01*
X32304343Y-89008697D01*
X32226997Y-88957733D01*
X32169936Y-88921127D01*
X32138505Y-88902394D01*
X32135521Y-88901004D01*
X32112679Y-88907190D01*
X32070018Y-88937035D01*
X32005872Y-88991947D01*
X31918579Y-89073334D01*
X31829465Y-89159922D01*
X31743559Y-89245247D01*
X31666673Y-89323108D01*
X31603436Y-89388697D01*
X31558477Y-89437205D01*
X31536424Y-89463825D01*
X31535604Y-89465195D01*
X31533166Y-89483463D01*
X31542350Y-89513295D01*
X31565426Y-89558721D01*
X31604663Y-89623770D01*
X31662330Y-89712470D01*
X31739205Y-89826657D01*
X31807430Y-89927162D01*
X31868418Y-90017303D01*
X31918644Y-90091849D01*
X31954584Y-90145565D01*
X31972713Y-90173218D01*
X31973854Y-90175095D01*
X31971641Y-90201590D01*
X31954862Y-90253086D01*
X31926858Y-90319851D01*
X31916878Y-90341172D01*
X31873328Y-90436159D01*
X31826866Y-90543937D01*
X31789123Y-90637192D01*
X31761927Y-90706406D01*
X31740325Y-90759006D01*
X31727842Y-90786497D01*
X31726291Y-90788616D01*
X31703332Y-90792124D01*
X31649214Y-90801738D01*
X31571132Y-90816089D01*
X31476281Y-90833807D01*
X31371857Y-90853525D01*
X31265056Y-90873874D01*
X31163074Y-90893486D01*
X31073106Y-90910991D01*
X31002347Y-90925022D01*
X30957994Y-90934209D01*
X30947115Y-90936807D01*
X30935878Y-90943218D01*
X30927395Y-90957697D01*
X30921286Y-90985133D01*
X30917168Y-91030411D01*
X30914659Y-91098420D01*
X30913379Y-91194047D01*
X30912946Y-91322180D01*
X30912923Y-91374701D01*
X30912923Y-91801845D01*
X31015500Y-91822091D01*
X31072569Y-91833070D01*
X31157731Y-91849095D01*
X31260628Y-91868233D01*
X31370904Y-91888551D01*
X31401385Y-91894132D01*
X31503145Y-91913917D01*
X31591795Y-91933373D01*
X31659892Y-91950697D01*
X31699996Y-91964088D01*
X31706677Y-91968079D01*
X31723081Y-91996342D01*
X31746601Y-92051109D01*
X31772684Y-92121588D01*
X31777858Y-92136769D01*
X31812044Y-92230896D01*
X31854477Y-92337101D01*
X31896003Y-92432473D01*
X31896208Y-92432916D01*
X31965360Y-92582525D01*
X31510488Y-93251617D01*
X31802500Y-93544116D01*
X31890820Y-93631170D01*
X31971375Y-93707909D01*
X32039640Y-93770237D01*
X32091092Y-93814056D01*
X32121206Y-93835270D01*
X32125526Y-93836616D01*
X32150889Y-93826016D01*
X32202642Y-93796547D01*
X32275132Y-93751705D01*
X32362706Y-93694984D01*
X32457388Y-93631462D01*
X32553484Y-93566668D01*
X32639163Y-93510287D01*
X32708984Y-93465788D01*
X32757506Y-93436639D01*
X32779218Y-93426308D01*
X32805707Y-93435050D01*
X32855938Y-93458087D01*
X32919549Y-93490631D01*
X32926292Y-93494249D01*
X33011954Y-93537210D01*
X33070694Y-93558279D01*
X33107228Y-93558503D01*
X33126269Y-93538928D01*
X33126380Y-93538654D01*
X33135898Y-93515472D01*
X33158597Y-93460441D01*
X33192718Y-93377822D01*
X33236500Y-93271872D01*
X33288184Y-93146852D01*
X33346008Y-93007020D01*
X33402009Y-92871637D01*
X33463553Y-92722234D01*
X33520061Y-92583832D01*
X33569839Y-92460673D01*
X33611194Y-92357002D01*
X33642432Y-92277059D01*
X33661859Y-92225088D01*
X33667846Y-92205692D01*
X33652832Y-92183443D01*
X33613561Y-92147982D01*
X33561193Y-92108887D01*
X33412059Y-91985245D01*
X33295489Y-91843522D01*
X33212882Y-91686704D01*
X33165634Y-91517775D01*
X33155143Y-91339722D01*
X33162769Y-91257539D01*
X33204318Y-91087031D01*
X33275877Y-90936459D01*
X33373005Y-90807309D01*
X33491266Y-90701064D01*
X33626220Y-90619210D01*
X33773429Y-90563232D01*
X33928456Y-90534615D01*
X34086861Y-90534844D01*
X34244206Y-90565405D01*
X34396054Y-90627782D01*
X34537965Y-90723460D01*
X34597197Y-90777572D01*
X34710797Y-90916520D01*
X34789894Y-91068361D01*
X34835014Y-91228667D01*
X34846684Y-91393012D01*
X34825431Y-91556971D01*
X34771780Y-91716118D01*
X34686260Y-91866025D01*
X34569395Y-92002267D01*
X34438807Y-92108887D01*
X34384412Y-92149642D01*
X34345986Y-92184718D01*
X34332154Y-92205726D01*
X34339397Y-92228635D01*
X34359995Y-92283365D01*
X34392254Y-92365672D01*
X34434479Y-92471315D01*
X34484977Y-92596050D01*
X34542052Y-92735636D01*
X34598146Y-92871670D01*
X34660033Y-93021201D01*
X34717356Y-93159767D01*
X34768356Y-93283107D01*
X34811273Y-93386964D01*
X34844347Y-93467080D01*
X34865819Y-93519195D01*
X34873775Y-93538654D01*
X34892571Y-93558423D01*
X34928926Y-93558365D01*
X34987521Y-93537441D01*
X35073032Y-93494613D01*
X35073708Y-93494249D01*
X35138093Y-93461012D01*
X35190139Y-93436802D01*
X35219488Y-93426404D01*
X35220783Y-93426308D01*
X35242876Y-93436855D01*
X35291652Y-93466184D01*
X35361669Y-93510827D01*
X35447486Y-93567314D01*
X35542612Y-93631462D01*
X35639460Y-93696411D01*
X35726747Y-93752896D01*
X35798819Y-93797421D01*
X35850023Y-93826490D01*
X35874474Y-93836616D01*
X35896990Y-93823307D01*
X35942258Y-93786112D01*
X36005756Y-93729128D01*
X36082961Y-93656449D01*
X36169349Y-93572171D01*
X36197601Y-93544016D01*
X36489713Y-93251416D01*
X36267369Y-92925104D01*
X36199798Y-92824897D01*
X36140493Y-92734963D01*
X36092783Y-92660510D01*
X36059993Y-92606751D01*
X36045452Y-92578894D01*
X36045026Y-92576912D01*
X36052692Y-92550655D01*
X36073311Y-92497837D01*
X36103315Y-92427310D01*
X36124375Y-92380093D01*
X36163752Y-92289694D01*
X36200835Y-92198366D01*
X36229585Y-92121200D01*
X36237395Y-92097692D01*
X36259583Y-92034916D01*
X36281273Y-91986411D01*
X36293187Y-91968079D01*
X36319477Y-91956859D01*
X36376858Y-91940954D01*
X36457882Y-91922167D01*
X36555105Y-91902299D01*
X36598615Y-91894132D01*
X36709104Y-91873829D01*
X36815084Y-91854170D01*
X36906199Y-91837088D01*
X36972092Y-91824518D01*
X36984500Y-91822091D01*
X37087077Y-91801845D01*
X37087077Y-91374701D01*
X37086847Y-91234246D01*
X37085901Y-91127979D01*
X37083859Y-91051013D01*
X37080338Y-90998460D01*
X37074957Y-90965433D01*
X37067334Y-90947045D01*
X37057088Y-90938408D01*
X37052885Y-90936807D01*
X37027530Y-90931127D01*
X36971516Y-90919795D01*
X36892036Y-90904179D01*
X36796288Y-90885647D01*
X36691467Y-90865569D01*
X36584768Y-90845312D01*
X36483387Y-90826246D01*
X36394521Y-90809739D01*
X36325363Y-90797159D01*
X36283111Y-90789875D01*
X36273710Y-90788616D01*
X36265193Y-90771763D01*
X36246340Y-90726870D01*
X36220676Y-90662430D01*
X36210877Y-90637192D01*
X36171352Y-90539686D01*
X36124808Y-90431959D01*
X36083123Y-90341172D01*
X36052450Y-90271753D01*
X36032044Y-90214710D01*
X36025232Y-90179777D01*
X36026318Y-90175095D01*
X36040715Y-90152991D01*
X36073588Y-90103831D01*
X36121410Y-90032848D01*
X36180652Y-89945278D01*
X36247785Y-89846357D01*
X36261059Y-89826830D01*
X36338954Y-89711140D01*
X36396213Y-89623044D01*
X36435119Y-89558486D01*
X36457956Y-89513411D01*
X36467006Y-89483763D01*
X36464552Y-89465485D01*
X36464489Y-89465369D01*
X36445173Y-89441361D01*
X36402449Y-89394947D01*
X36340949Y-89330937D01*
X36265302Y-89254145D01*
X36180139Y-89169382D01*
X36170535Y-89159922D01*
X36063210Y-89055989D01*
X35980385Y-88979675D01*
X35920395Y-88929571D01*
X35881577Y-88904270D01*
X35864480Y-88901004D01*
X35839527Y-88915250D01*
X35787745Y-88948156D01*
X35714480Y-88996208D01*
X35625080Y-89055890D01*
X35524889Y-89123688D01*
X35501499Y-89139639D01*
X35169407Y-89366420D01*
X35019435Y-89298353D01*
X34928230Y-89258685D01*
X34830331Y-89218791D01*
X34746169Y-89186983D01*
X34742462Y-89185674D01*
X34676631Y-89161576D01*
X34625884Y-89141200D01*
X34601158Y-89128936D01*
X34601116Y-89128901D01*
X34593271Y-89106734D01*
X34579934Y-89052217D01*
X34562430Y-88971480D01*
X34542083Y-88870650D01*
X34520218Y-88755856D01*
X34518429Y-88746178D01*
X34496496Y-88627904D01*
X34476360Y-88520542D01*
X34459320Y-88430917D01*
X34446672Y-88365851D01*
X34439716Y-88332168D01*
X34439594Y-88331654D01*
X34435361Y-88317325D01*
X34427129Y-88306507D01*
X34409967Y-88298706D01*
X34378942Y-88293429D01*
X34329122Y-88290182D01*
X34255576Y-88288472D01*
X34153371Y-88287807D01*
X34017575Y-88287693D01*
X34000000Y-88287692D01*
X33860122Y-88287776D01*
G37*
X33860122Y-88287776D02*
X33754388Y-88288355D01*
X33677868Y-88289922D01*
X33625628Y-88292972D01*
X33592737Y-88297996D01*
X33574263Y-88305489D01*
X33565273Y-88315944D01*
X33560837Y-88329853D01*
X33560406Y-88331654D01*
X33553667Y-88364145D01*
X33541192Y-88428252D01*
X33524281Y-88517151D01*
X33504229Y-88624019D01*
X33482336Y-88742033D01*
X33481571Y-88746178D01*
X33459641Y-88861831D01*
X33439123Y-88964014D01*
X33421341Y-89046598D01*
X33407619Y-89103456D01*
X33399282Y-89128458D01*
X33398884Y-89128901D01*
X33374323Y-89141110D01*
X33323685Y-89161456D01*
X33257905Y-89185545D01*
X33257539Y-89185674D01*
X33174683Y-89216818D01*
X33077000Y-89256491D01*
X32984923Y-89296381D01*
X32980566Y-89298353D01*
X32830593Y-89366420D01*
X32498502Y-89139639D01*
X32396626Y-89070504D01*
X32304343Y-89008697D01*
X32226997Y-88957733D01*
X32169936Y-88921127D01*
X32138505Y-88902394D01*
X32135521Y-88901004D01*
X32112679Y-88907190D01*
X32070018Y-88937035D01*
X32005872Y-88991947D01*
X31918579Y-89073334D01*
X31829465Y-89159922D01*
X31743559Y-89245247D01*
X31666673Y-89323108D01*
X31603436Y-89388697D01*
X31558477Y-89437205D01*
X31536424Y-89463825D01*
X31535604Y-89465195D01*
X31533166Y-89483463D01*
X31542350Y-89513295D01*
X31565426Y-89558721D01*
X31604663Y-89623770D01*
X31662330Y-89712470D01*
X31739205Y-89826657D01*
X31807430Y-89927162D01*
X31868418Y-90017303D01*
X31918644Y-90091849D01*
X31954584Y-90145565D01*
X31972713Y-90173218D01*
X31973854Y-90175095D01*
X31971641Y-90201590D01*
X31954862Y-90253086D01*
X31926858Y-90319851D01*
X31916878Y-90341172D01*
X31873328Y-90436159D01*
X31826866Y-90543937D01*
X31789123Y-90637192D01*
X31761927Y-90706406D01*
X31740325Y-90759006D01*
X31727842Y-90786497D01*
X31726291Y-90788616D01*
X31703332Y-90792124D01*
X31649214Y-90801738D01*
X31571132Y-90816089D01*
X31476281Y-90833807D01*
X31371857Y-90853525D01*
X31265056Y-90873874D01*
X31163074Y-90893486D01*
X31073106Y-90910991D01*
X31002347Y-90925022D01*
X30957994Y-90934209D01*
X30947115Y-90936807D01*
X30935878Y-90943218D01*
X30927395Y-90957697D01*
X30921286Y-90985133D01*
X30917168Y-91030411D01*
X30914659Y-91098420D01*
X30913379Y-91194047D01*
X30912946Y-91322180D01*
X30912923Y-91374701D01*
X30912923Y-91801845D01*
X31015500Y-91822091D01*
X31072569Y-91833070D01*
X31157731Y-91849095D01*
X31260628Y-91868233D01*
X31370904Y-91888551D01*
X31401385Y-91894132D01*
X31503145Y-91913917D01*
X31591795Y-91933373D01*
X31659892Y-91950697D01*
X31699996Y-91964088D01*
X31706677Y-91968079D01*
X31723081Y-91996342D01*
X31746601Y-92051109D01*
X31772684Y-92121588D01*
X31777858Y-92136769D01*
X31812044Y-92230896D01*
X31854477Y-92337101D01*
X31896003Y-92432473D01*
X31896208Y-92432916D01*
X31965360Y-92582525D01*
X31510488Y-93251617D01*
X31802500Y-93544116D01*
X31890820Y-93631170D01*
X31971375Y-93707909D01*
X32039640Y-93770237D01*
X32091092Y-93814056D01*
X32121206Y-93835270D01*
X32125526Y-93836616D01*
X32150889Y-93826016D01*
X32202642Y-93796547D01*
X32275132Y-93751705D01*
X32362706Y-93694984D01*
X32457388Y-93631462D01*
X32553484Y-93566668D01*
X32639163Y-93510287D01*
X32708984Y-93465788D01*
X32757506Y-93436639D01*
X32779218Y-93426308D01*
X32805707Y-93435050D01*
X32855938Y-93458087D01*
X32919549Y-93490631D01*
X32926292Y-93494249D01*
X33011954Y-93537210D01*
X33070694Y-93558279D01*
X33107228Y-93558503D01*
X33126269Y-93538928D01*
X33126380Y-93538654D01*
X33135898Y-93515472D01*
X33158597Y-93460441D01*
X33192718Y-93377822D01*
X33236500Y-93271872D01*
X33288184Y-93146852D01*
X33346008Y-93007020D01*
X33402009Y-92871637D01*
X33463553Y-92722234D01*
X33520061Y-92583832D01*
X33569839Y-92460673D01*
X33611194Y-92357002D01*
X33642432Y-92277059D01*
X33661859Y-92225088D01*
X33667846Y-92205692D01*
X33652832Y-92183443D01*
X33613561Y-92147982D01*
X33561193Y-92108887D01*
X33412059Y-91985245D01*
X33295489Y-91843522D01*
X33212882Y-91686704D01*
X33165634Y-91517775D01*
X33155143Y-91339722D01*
X33162769Y-91257539D01*
X33204318Y-91087031D01*
X33275877Y-90936459D01*
X33373005Y-90807309D01*
X33491266Y-90701064D01*
X33626220Y-90619210D01*
X33773429Y-90563232D01*
X33928456Y-90534615D01*
X34086861Y-90534844D01*
X34244206Y-90565405D01*
X34396054Y-90627782D01*
X34537965Y-90723460D01*
X34597197Y-90777572D01*
X34710797Y-90916520D01*
X34789894Y-91068361D01*
X34835014Y-91228667D01*
X34846684Y-91393012D01*
X34825431Y-91556971D01*
X34771780Y-91716118D01*
X34686260Y-91866025D01*
X34569395Y-92002267D01*
X34438807Y-92108887D01*
X34384412Y-92149642D01*
X34345986Y-92184718D01*
X34332154Y-92205726D01*
X34339397Y-92228635D01*
X34359995Y-92283365D01*
X34392254Y-92365672D01*
X34434479Y-92471315D01*
X34484977Y-92596050D01*
X34542052Y-92735636D01*
X34598146Y-92871670D01*
X34660033Y-93021201D01*
X34717356Y-93159767D01*
X34768356Y-93283107D01*
X34811273Y-93386964D01*
X34844347Y-93467080D01*
X34865819Y-93519195D01*
X34873775Y-93538654D01*
X34892571Y-93558423D01*
X34928926Y-93558365D01*
X34987521Y-93537441D01*
X35073032Y-93494613D01*
X35073708Y-93494249D01*
X35138093Y-93461012D01*
X35190139Y-93436802D01*
X35219488Y-93426404D01*
X35220783Y-93426308D01*
X35242876Y-93436855D01*
X35291652Y-93466184D01*
X35361669Y-93510827D01*
X35447486Y-93567314D01*
X35542612Y-93631462D01*
X35639460Y-93696411D01*
X35726747Y-93752896D01*
X35798819Y-93797421D01*
X35850023Y-93826490D01*
X35874474Y-93836616D01*
X35896990Y-93823307D01*
X35942258Y-93786112D01*
X36005756Y-93729128D01*
X36082961Y-93656449D01*
X36169349Y-93572171D01*
X36197601Y-93544016D01*
X36489713Y-93251416D01*
X36267369Y-92925104D01*
X36199798Y-92824897D01*
X36140493Y-92734963D01*
X36092783Y-92660510D01*
X36059993Y-92606751D01*
X36045452Y-92578894D01*
X36045026Y-92576912D01*
X36052692Y-92550655D01*
X36073311Y-92497837D01*
X36103315Y-92427310D01*
X36124375Y-92380093D01*
X36163752Y-92289694D01*
X36200835Y-92198366D01*
X36229585Y-92121200D01*
X36237395Y-92097692D01*
X36259583Y-92034916D01*
X36281273Y-91986411D01*
X36293187Y-91968079D01*
X36319477Y-91956859D01*
X36376858Y-91940954D01*
X36457882Y-91922167D01*
X36555105Y-91902299D01*
X36598615Y-91894132D01*
X36709104Y-91873829D01*
X36815084Y-91854170D01*
X36906199Y-91837088D01*
X36972092Y-91824518D01*
X36984500Y-91822091D01*
X37087077Y-91801845D01*
X37087077Y-91374701D01*
X37086847Y-91234246D01*
X37085901Y-91127979D01*
X37083859Y-91051013D01*
X37080338Y-90998460D01*
X37074957Y-90965433D01*
X37067334Y-90947045D01*
X37057088Y-90938408D01*
X37052885Y-90936807D01*
X37027530Y-90931127D01*
X36971516Y-90919795D01*
X36892036Y-90904179D01*
X36796288Y-90885647D01*
X36691467Y-90865569D01*
X36584768Y-90845312D01*
X36483387Y-90826246D01*
X36394521Y-90809739D01*
X36325363Y-90797159D01*
X36283111Y-90789875D01*
X36273710Y-90788616D01*
X36265193Y-90771763D01*
X36246340Y-90726870D01*
X36220676Y-90662430D01*
X36210877Y-90637192D01*
X36171352Y-90539686D01*
X36124808Y-90431959D01*
X36083123Y-90341172D01*
X36052450Y-90271753D01*
X36032044Y-90214710D01*
X36025232Y-90179777D01*
X36026318Y-90175095D01*
X36040715Y-90152991D01*
X36073588Y-90103831D01*
X36121410Y-90032848D01*
X36180652Y-89945278D01*
X36247785Y-89846357D01*
X36261059Y-89826830D01*
X36338954Y-89711140D01*
X36396213Y-89623044D01*
X36435119Y-89558486D01*
X36457956Y-89513411D01*
X36467006Y-89483763D01*
X36464552Y-89465485D01*
X36464489Y-89465369D01*
X36445173Y-89441361D01*
X36402449Y-89394947D01*
X36340949Y-89330937D01*
X36265302Y-89254145D01*
X36180139Y-89169382D01*
X36170535Y-89159922D01*
X36063210Y-89055989D01*
X35980385Y-88979675D01*
X35920395Y-88929571D01*
X35881577Y-88904270D01*
X35864480Y-88901004D01*
X35839527Y-88915250D01*
X35787745Y-88948156D01*
X35714480Y-88996208D01*
X35625080Y-89055890D01*
X35524889Y-89123688D01*
X35501499Y-89139639D01*
X35169407Y-89366420D01*
X35019435Y-89298353D01*
X34928230Y-89258685D01*
X34830331Y-89218791D01*
X34746169Y-89186983D01*
X34742462Y-89185674D01*
X34676631Y-89161576D01*
X34625884Y-89141200D01*
X34601158Y-89128936D01*
X34601116Y-89128901D01*
X34593271Y-89106734D01*
X34579934Y-89052217D01*
X34562430Y-88971480D01*
X34542083Y-88870650D01*
X34520218Y-88755856D01*
X34518429Y-88746178D01*
X34496496Y-88627904D01*
X34476360Y-88520542D01*
X34459320Y-88430917D01*
X34446672Y-88365851D01*
X34439716Y-88332168D01*
X34439594Y-88331654D01*
X34435361Y-88317325D01*
X34427129Y-88306507D01*
X34409967Y-88298706D01*
X34378942Y-88293429D01*
X34329122Y-88290182D01*
X34255576Y-88288472D01*
X34153371Y-88287807D01*
X34017575Y-88287693D01*
X34000000Y-88287692D01*
X33860122Y-88287776D01*
D13*
X54767949Y-92839746D02*
X65613249Y-92839746D01*
X61107695Y-98500000D02*
G75*
G03X62839746Y-95500000I0J2000000D01*
G01*
X62839746Y-95500000D02*
X58035899Y-87179492D01*
D14*
X57169873Y-84679492D02*
X48901924Y-99000000D01*
X49767949Y-100500000D02*
X66303848Y-100500000D01*
X66303848Y-100500000D02*
G75*
G03X67169873Y-99000000I0J1000000D01*
G01*
X58901924Y-84679492D02*
G75*
G03X57169873Y-84679492I-866026J-500000D01*
G01*
X48901924Y-99000000D02*
G75*
G03X49767949Y-100500000I866025J-500000D01*
G01*
X67169873Y-99000000D02*
X64613249Y-94571797D01*
X62613249Y-91107696D02*
X58901924Y-84679492D01*
D13*
X54767949Y-92839746D02*
X58035898Y-98500000D01*
X60035898Y-98500000D02*
X61107695Y-98500000D01*
X51500000Y-98500000D02*
X58035898Y-98500000D01*
D15*
X66750000Y-101378571D02*
X65892857Y-101378571D01*
X66321428Y-102878571D02*
X66321428Y-101378571D01*
X65535714Y-101878571D02*
X65178571Y-102878571D01*
X64821428Y-101878571D02*
X65178571Y-102878571D01*
X65321428Y-103235714D01*
X65392857Y-103307142D01*
X65535714Y-103378571D01*
X64250000Y-102878571D02*
X64250000Y-101878571D01*
X64250000Y-102164285D02*
X64178571Y-102021428D01*
X64107142Y-101950000D01*
X63964285Y-101878571D01*
X63821428Y-101878571D01*
X63321428Y-102878571D02*
X63321428Y-101878571D01*
X63321428Y-102164285D02*
X63250000Y-102021428D01*
X63178571Y-101950000D01*
X63035714Y-101878571D01*
X62892857Y-101878571D01*
X61821428Y-102807142D02*
X61964285Y-102878571D01*
X62250000Y-102878571D01*
X62392857Y-102807142D01*
X62464285Y-102664285D01*
X62464285Y-102092857D01*
X62392857Y-101950000D01*
X62250000Y-101878571D01*
X61964285Y-101878571D01*
X61821428Y-101950000D01*
X61750000Y-102092857D01*
X61750000Y-102235714D01*
X62464285Y-102378571D01*
X60892857Y-102878571D02*
X61035714Y-102807142D01*
X61107142Y-102664285D01*
X61107142Y-101378571D01*
X60107142Y-102878571D02*
X60250000Y-102807142D01*
X60321428Y-102664285D01*
X60321428Y-101378571D01*
X58535714Y-101378571D02*
X57535714Y-101378571D01*
X58535714Y-102878571D01*
X57535714Y-102878571D01*
X56321428Y-102878571D02*
X56321428Y-102092857D01*
X56392857Y-101950000D01*
X56535714Y-101878571D01*
X56821428Y-101878571D01*
X56964285Y-101950000D01*
X56321428Y-102807142D02*
X56464285Y-102878571D01*
X56821428Y-102878571D01*
X56964285Y-102807142D01*
X57035714Y-102664285D01*
X57035714Y-102521428D01*
X56964285Y-102378571D01*
X56821428Y-102307142D01*
X56464285Y-102307142D01*
X56321428Y-102235714D01*
X55607142Y-102878571D02*
X55607142Y-101878571D01*
X55607142Y-101378571D02*
X55678571Y-101450000D01*
X55607142Y-101521428D01*
X55535714Y-101450000D01*
X55607142Y-101378571D01*
X55607142Y-101521428D01*
X54892857Y-102878571D02*
X54892857Y-101378571D01*
X54892857Y-101950000D02*
X54750000Y-101878571D01*
X54464285Y-101878571D01*
X54321428Y-101950000D01*
X54250000Y-102021428D01*
X54178571Y-102164285D01*
X54178571Y-102592857D01*
X54250000Y-102735714D01*
X54321428Y-102807142D01*
X54464285Y-102878571D01*
X54750000Y-102878571D01*
X54892857Y-102807142D01*
X52892857Y-102878571D02*
X52892857Y-102092857D01*
X52964285Y-101950000D01*
X53107142Y-101878571D01*
X53392857Y-101878571D01*
X53535714Y-101950000D01*
X52892857Y-102807142D02*
X53035714Y-102878571D01*
X53392857Y-102878571D01*
X53535714Y-102807142D01*
X53607142Y-102664285D01*
X53607142Y-102521428D01*
X53535714Y-102378571D01*
X53392857Y-102307142D01*
X53035714Y-102307142D01*
X52892857Y-102235714D01*
X52392857Y-101878571D02*
X51821428Y-101878571D01*
X52178571Y-101378571D02*
X52178571Y-102664285D01*
X52107142Y-102807142D01*
X51964285Y-102878571D01*
X51821428Y-102878571D01*
X51392857Y-102807142D02*
X51250000Y-102878571D01*
X50964285Y-102878571D01*
X50821428Y-102807142D01*
X50750000Y-102664285D01*
X50750000Y-102592857D01*
X50821428Y-102450000D01*
X50964285Y-102378571D01*
X51178571Y-102378571D01*
X51321428Y-102307142D01*
X51392857Y-102164285D01*
X51392857Y-102092857D01*
X51321428Y-101950000D01*
X51178571Y-101878571D01*
X50964285Y-101878571D01*
X50821428Y-101950000D01*
X49464285Y-101878571D02*
X49464285Y-102878571D01*
X50107142Y-101878571D02*
X50107142Y-102664285D01*
X50035714Y-102807142D01*
X49892857Y-102878571D01*
X49678571Y-102878571D01*
X49535714Y-102807142D01*
X49464285Y-102735714D01*
M02*
