M48
; DRILL file {KiCad 5.1.5+dfsg1-2build2} date Thu 21 Oct 2021 10:41:20 PM ACDT
; FORMAT={-:-/ absolute / metric / decimal}
; #@! TF.CreationDate,2021-10-21T22:41:20+10:30
; #@! TF.GenerationSoftware,Kicad,Pcbnew,5.1.5+dfsg1-2build2
FMAT,2
METRIC
T1C0.400
T2C0.800
T3C1.000
T4C1.097
T5C1.200
T6C1.300
T7C1.100
T8C3.200
%
G90
G05
T1
X29.0Y-77.8
X33.3Y-69.9
X33.3Y-102.6
X33.4Y-98.9
X33.6Y-122.7
X34.2Y-72.8
X34.5Y-60.5
X35.4Y-38.6
X35.4Y-44.6
X35.4Y-122.5
X37.1Y-67.5
X37.5Y-69.7
X40.75Y-42.85
X41.3Y-66.7
X43.3Y-85.7
X43.55Y-28.45
X43.55Y-34.45
X44.95Y-67.75
X45.8Y-72.7
X45.8Y-78.2
X46.4Y-116.8
X47.6Y-102.9
X47.8Y-98.9
X48.2Y-81.0
X48.2Y-112.7
X49.5Y-122.4
X51.55Y-41.25
X52.2Y-69.8
X53.2Y-60.7
X53.4Y-72.8
X53.55Y-39.25
X53.75Y-30.65
X56.4Y-67.6
X56.4Y-69.6
X57.525Y-49.2
X57.6Y-108.5
X58.15Y-39.25
X58.3Y-52.05
X58.35Y-30.65
X59.7Y-44.1
X59.95Y-28.45
X59.95Y-41.25
X60.4Y-66.6
X60.6Y-117.0
X61.4Y-46.8
X61.5Y-48.9
X62.0Y-44.1
X62.3Y-85.4
X63.6Y-67.8
X64.0Y-108.2
X64.0Y-112.6
X65.3Y-90.3
X65.4Y-45.9
X65.4Y-108.2
X65.4Y-112.6
X68.1Y-85.5
X68.2Y-104.4
X68.5Y-40.5
X68.55Y-29.45
X68.9Y-47.1
X68.9Y-63.6
X69.4Y-100.4
X70.1Y-70.6
X70.1Y-73.4
X70.95Y-28.45
X72.8Y-60.9
X74.1Y-108.2
X74.1Y-112.9
X74.55Y-42.65
X76.6Y-81.0
X77.1Y-49.2
X78.1Y-52.0
X78.8Y-108.2
X78.8Y-112.8
X79.0Y-91.15
X79.6Y-99.0
X79.9Y-85.4
X79.9Y-90.3
X80.0Y-108.2
X80.0Y-112.8
X80.8Y-46.8
X80.95Y-41.25
X81.1Y-68.7
X81.1Y-71.3
X81.1Y-48.7
X81.2Y-97.6
X82.525Y-83.6
X82.6Y-104.6
X83.9Y-100.3
X84.1Y-83.6
X85.0Y-46.0
X86.5Y-81.5
X86.937Y-42.463
X87.55Y-43.65
X88.5Y-47.0
X88.6Y-63.6
X90.6Y-43.0
X91.8Y-37.8
X92.0Y-70.5
X92.1Y-53.2
X92.8Y-38.8
X94.3Y-90.9
X94.3Y-99.0
X95.0Y-53.2
X95.0Y-70.425
X96.0Y-78.4
X96.1Y-92.3
X96.6Y-97.6
X96.6Y-106.4
X97.6Y-70.8
X98.8Y-78.4
X99.0Y-113.4
X99.6Y-106.4
X99.7Y-92.3
X100.4Y-85.2
X103.4Y-122.4
X105.4Y-104.0
X105.6Y-114.6
X111.4Y-88.325
X111.4Y-90.0
X113.0Y-120.8
X115.4Y-80.4
X116.4Y-81.8
X116.6Y-117.2
T2
X122.0Y-68.6
X122.0Y-73.6
X70.72Y-102.4
X73.26Y-102.4
X75.8Y-102.4
X85.12Y-85.7
X87.66Y-85.7
X90.2Y-85.7
X79.43Y-51.405
X79.43Y-59.025
X81.97Y-51.405
X81.97Y-59.025
X84.51Y-51.405
X84.51Y-59.025
X87.05Y-51.405
X87.05Y-59.025
X85.4Y-102.4
X87.94Y-102.4
X90.48Y-102.4
X102.8Y-40.4
X102.8Y-45.4
X41.33Y-31.05
X41.33Y-38.67
X43.87Y-31.05
X43.87Y-38.67
X46.41Y-31.05
X46.41Y-38.67
X48.95Y-31.05
X48.95Y-38.67
X69.48Y-90.3
X69.48Y-97.92
X72.02Y-90.3
X72.02Y-97.92
X74.56Y-90.3
X74.56Y-97.92
X77.1Y-90.3
X77.1Y-97.92
X35.7Y-72.025
X35.7Y-79.645
X38.24Y-72.025
X38.24Y-79.645
X40.78Y-72.025
X40.78Y-79.645
X43.32Y-72.025
X43.32Y-79.645
X114.2Y-68.6
X114.2Y-73.6
X95.5Y-108.9
X100.5Y-108.9
X101.78Y-72.8
X101.78Y-80.42
X104.32Y-72.8
X104.32Y-80.42
X106.86Y-72.8
X106.86Y-80.42
X109.4Y-72.8
X109.4Y-80.42
X64.73Y-31.05
X64.73Y-38.67
X67.27Y-31.05
X67.27Y-38.67
X69.81Y-31.05
X69.81Y-38.67
X72.35Y-31.05
X72.35Y-38.67
X36.18Y-105.875
X36.18Y-113.495
X38.72Y-105.875
X38.72Y-113.495
X41.26Y-105.875
X41.26Y-113.495
X43.8Y-105.875
X43.8Y-113.495
X50.325Y-105.945
X50.325Y-113.565
X52.865Y-105.945
X52.865Y-113.565
X55.405Y-105.945
X55.405Y-113.565
X57.945Y-105.945
X57.945Y-113.565
X112.8Y-40.4
X112.8Y-45.4
X54.68Y-72.0
X54.68Y-79.62
X57.22Y-72.0
X57.22Y-79.62
X59.76Y-72.0
X59.76Y-79.62
X62.3Y-72.0
X62.3Y-79.62
X59.78Y-51.4
X59.78Y-59.02
X62.32Y-51.4
X62.32Y-59.02
X64.86Y-51.4
X64.86Y-59.02
X67.4Y-51.4
X67.4Y-59.02
X75.73Y-31.05
X75.73Y-38.67
X78.27Y-31.05
X78.27Y-38.67
X80.81Y-31.05
X80.81Y-38.67
X83.35Y-31.05
X83.35Y-38.67
X83.98Y-90.3
X83.98Y-97.92
X86.52Y-90.3
X86.52Y-97.92
X89.06Y-90.3
X89.06Y-97.92
X91.6Y-90.3
X91.6Y-97.92
X106.78Y-108.6
X106.78Y-116.22
X109.32Y-108.6
X109.32Y-116.22
X111.86Y-108.6
X111.86Y-116.22
X114.4Y-108.6
X114.4Y-116.22
X70.62Y-85.7
X73.16Y-85.7
X75.7Y-85.7
X87.5Y-108.9
X92.5Y-108.9
T3
X84.0Y-72.0
X84.0Y-74.54
X84.0Y-77.08
X86.54Y-72.0
X86.54Y-74.54
X86.54Y-77.08
X74.0Y-72.0
X74.0Y-74.54
X74.0Y-77.08
X76.54Y-72.0
X76.54Y-74.54
X76.54Y-77.08
X42.0Y-52.8
X42.0Y-55.34
X42.0Y-57.88
X44.54Y-52.8
X44.54Y-55.34
X44.54Y-57.88
X88.72Y-32.4
X88.72Y-34.94
X91.26Y-32.4
X91.26Y-34.94
X93.8Y-32.4
X93.8Y-34.94
X43.3Y-90.2
X43.3Y-92.74
X45.84Y-90.2
X45.84Y-92.74
X48.38Y-90.2
X48.38Y-92.74
X54.35Y-33.51
X54.35Y-36.05
X56.89Y-33.51
X56.89Y-36.05
X59.43Y-33.51
X59.43Y-36.05
X99.57Y-32.5
X99.57Y-35.04
X102.11Y-32.5
X102.11Y-35.04
X104.65Y-32.5
X104.65Y-35.04
X32.0Y-52.8
X32.0Y-55.34
X32.0Y-57.88
X34.54Y-52.8
X34.54Y-55.34
X34.54Y-57.88
X101.8Y-69.2
X104.34Y-69.2
X106.88Y-69.2
X109.42Y-69.2
T4
X64.0Y-118.0
X66.54Y-118.0
X69.08Y-118.0
X71.62Y-118.0
X76.7Y-118.0
X79.24Y-118.0
X81.78Y-118.0
X84.32Y-118.0
X110.6Y-32.2
X113.14Y-32.2
X32.0Y-36.0
X32.0Y-38.54
X32.0Y-41.08
X32.0Y-43.62
T5
X106.0Y-49.6
X106.0Y-54.6
X106.0Y-57.1
X106.0Y-59.6
X106.0Y-64.6
X106.0Y-84.6
X106.0Y-89.6
X106.0Y-92.1
X106.0Y-94.6
X106.0Y-99.6
X118.0Y-49.6
X118.0Y-54.6
X118.0Y-57.1
X118.0Y-59.6
X118.0Y-64.6
X118.2Y-84.6
X118.2Y-89.6
X118.2Y-92.1
X118.2Y-94.6
X118.2Y-99.6
T6
X89.0Y-118.0
X94.0Y-118.0
X99.0Y-118.0
T7
X110.6Y-29.66
X113.14Y-29.66
T8
X120.0Y-120.0
X30.0Y-30.0
X120.0Y-30.0
X30.0Y-120.0
T0
M30
