G04 #@! TF.GenerationSoftware,KiCad,Pcbnew,5.1.5+dfsg1-2build2*
G04 #@! TF.CreationDate,2021-10-27T22:54:38+10:30*
G04 #@! TF.ProjectId,xover,786f7665-722e-46b6-9963-61645f706362,rev?*
G04 #@! TF.SameCoordinates,Original*
G04 #@! TF.FileFunction,Paste,Top*
G04 #@! TF.FilePolarity,Positive*
%FSLAX46Y46*%
G04 Gerber Fmt 4.6, Leading zero omitted, Abs format (unit mm)*
G04 Created by KiCad (PCBNEW 5.1.5+dfsg1-2build2) date 2021-10-27 22:54:38*
%MOMM*%
%LPD*%
G04 APERTURE LIST*
%ADD10R,1.300000X0.700000*%
%ADD11R,0.700000X1.300000*%
%ADD12R,1.250000X1.000000*%
%ADD13R,1.000000X1.250000*%
%ADD14R,2.500000X2.000000*%
%ADD15R,2.000000X2.500000*%
G04 APERTURE END LIST*
D10*
X81200000Y-102700000D03*
X81200000Y-104600000D03*
X81200000Y-101100000D03*
X81200000Y-99200000D03*
X81200000Y-83500000D03*
X81200000Y-85400000D03*
X81200000Y-88700000D03*
X81200000Y-86800000D03*
X99000000Y-83300000D03*
X99000000Y-85200000D03*
X99000000Y-59950000D03*
X99000000Y-58050000D03*
X99000000Y-49950000D03*
X99000000Y-48050000D03*
X99000000Y-61250000D03*
X99000000Y-63150000D03*
X99000000Y-51250000D03*
X99000000Y-53150000D03*
X99000000Y-66350000D03*
X99000000Y-64450000D03*
X99000000Y-56350000D03*
X99000000Y-54450000D03*
X99000000Y-80000000D03*
X99000000Y-81900000D03*
D11*
X109400000Y-45800000D03*
X107500000Y-45800000D03*
X99350000Y-45800000D03*
X97450000Y-45800000D03*
X109400000Y-43800000D03*
X107500000Y-43800000D03*
X99350000Y-43800000D03*
X97450000Y-43800000D03*
X109400000Y-41800000D03*
X107500000Y-41800000D03*
X99350000Y-41800000D03*
X97450000Y-41800000D03*
X118450000Y-80400000D03*
X120350000Y-80400000D03*
X122900000Y-45800000D03*
X121000000Y-45800000D03*
X119400000Y-41800000D03*
X117500000Y-41800000D03*
X122900000Y-43800000D03*
X121000000Y-43800000D03*
X119400000Y-43800000D03*
X117500000Y-43800000D03*
X122900000Y-41800000D03*
X121000000Y-41800000D03*
X119400000Y-45800000D03*
X117500000Y-45800000D03*
D10*
X66700000Y-102500000D03*
X66700000Y-104400000D03*
X66700000Y-101050000D03*
X66700000Y-99150000D03*
X66700000Y-83550000D03*
X66700000Y-85450000D03*
X66700000Y-88750000D03*
X66700000Y-86850000D03*
X61800000Y-63250000D03*
X61800000Y-61350000D03*
X67400000Y-47050000D03*
X67400000Y-48950000D03*
X65400000Y-48950000D03*
X65400000Y-47050000D03*
X59800000Y-61350000D03*
X59800000Y-63250000D03*
X63800000Y-61350000D03*
X63800000Y-63250000D03*
X63400000Y-48950000D03*
X63400000Y-47050000D03*
X56300000Y-83950000D03*
X56300000Y-82050000D03*
X62300000Y-67750000D03*
X62300000Y-69650000D03*
X60300000Y-69650000D03*
X60300000Y-67750000D03*
X54300000Y-82050000D03*
X54300000Y-83950000D03*
X58300000Y-82050000D03*
X58300000Y-83950000D03*
X58300000Y-69650000D03*
X58300000Y-67750000D03*
D11*
X116900000Y-113400000D03*
X118800000Y-113400000D03*
X118800000Y-111200000D03*
X116900000Y-111200000D03*
D10*
X110600000Y-104200000D03*
X110600000Y-106100000D03*
X113000000Y-106100000D03*
X113000000Y-104200000D03*
D11*
X40750000Y-41250000D03*
X42650000Y-41250000D03*
X38500000Y-42600000D03*
X36600000Y-42600000D03*
X46100000Y-41250000D03*
X44200000Y-41250000D03*
X38500000Y-40600000D03*
X36600000Y-40600000D03*
D10*
X52600000Y-30750000D03*
X52600000Y-28850000D03*
X52600000Y-32450000D03*
X52600000Y-34350000D03*
X60800000Y-32450000D03*
X60800000Y-34350000D03*
D11*
X44450000Y-28450000D03*
X46350000Y-28450000D03*
X38500000Y-36600000D03*
X36600000Y-36600000D03*
D10*
X60800000Y-30750000D03*
X60800000Y-28850000D03*
D11*
X49850000Y-28450000D03*
X47950000Y-28450000D03*
X38500000Y-34600000D03*
X36600000Y-34600000D03*
D10*
X81400000Y-63500000D03*
X81400000Y-61600000D03*
X87000000Y-47000000D03*
X87000000Y-48900000D03*
X85000000Y-48900000D03*
X85000000Y-47000000D03*
X79400000Y-61600000D03*
X79400000Y-63500000D03*
X83400000Y-61600000D03*
X83400000Y-63500000D03*
X83000000Y-48900000D03*
X83000000Y-47000000D03*
X38100000Y-115950000D03*
X38100000Y-117850000D03*
X38100000Y-119250000D03*
X38100000Y-121150000D03*
X38800000Y-103450000D03*
X38800000Y-101550000D03*
X38800000Y-100150000D03*
X38800000Y-98250000D03*
X37400000Y-84050000D03*
X37400000Y-82150000D03*
X43400000Y-67750000D03*
X43400000Y-69650000D03*
X41400000Y-69650000D03*
X41400000Y-67750000D03*
X35400000Y-82150000D03*
X35400000Y-84050000D03*
X39400000Y-82150000D03*
X39400000Y-84050000D03*
X39400000Y-69650000D03*
X39400000Y-67750000D03*
X52225000Y-115950000D03*
X52225000Y-117850000D03*
X52225000Y-119250000D03*
X52225000Y-121150000D03*
X52950000Y-103575000D03*
X52950000Y-101675000D03*
X52950000Y-100275000D03*
X52950000Y-98375000D03*
D11*
X81250000Y-28450000D03*
X79350000Y-28450000D03*
X79500000Y-41250000D03*
X77600000Y-41250000D03*
X77900000Y-28450000D03*
X76000000Y-28450000D03*
X84450000Y-28450000D03*
X82550000Y-28450000D03*
D12*
X81200000Y-90300000D03*
X81200000Y-92300000D03*
X94300000Y-95600000D03*
X94300000Y-97600000D03*
X99000000Y-70800000D03*
X99000000Y-72800000D03*
D13*
X112000000Y-80400000D03*
X114000000Y-80400000D03*
D14*
X108750000Y-54100000D03*
X108750000Y-50100000D03*
X103250000Y-54100000D03*
X103250000Y-50100000D03*
X108750000Y-89100000D03*
X108750000Y-85100000D03*
X103250000Y-89100000D03*
X103250000Y-85100000D03*
X120950000Y-89100000D03*
X120950000Y-85100000D03*
X115450000Y-89100000D03*
X115450000Y-85100000D03*
X114800000Y-44900000D03*
X114800000Y-40900000D03*
X104800000Y-44900000D03*
X104800000Y-40900000D03*
X116200000Y-73100000D03*
X116200000Y-69100000D03*
X120000000Y-69100000D03*
X120000000Y-73100000D03*
X120750000Y-54100000D03*
X120750000Y-50100000D03*
X115250000Y-54100000D03*
X115250000Y-50100000D03*
D12*
X66700000Y-90300000D03*
X66700000Y-92300000D03*
X79800000Y-95600000D03*
X79800000Y-97600000D03*
X59800000Y-46800000D03*
X59800000Y-48800000D03*
D13*
X69800000Y-61600000D03*
X67800000Y-61600000D03*
D14*
X56400000Y-51200000D03*
X56400000Y-47200000D03*
X53100000Y-47200000D03*
X53100000Y-51200000D03*
X56500000Y-59000000D03*
X56500000Y-63000000D03*
X53200000Y-63000000D03*
X53200000Y-59000000D03*
D12*
X54600000Y-67500000D03*
X54600000Y-69500000D03*
X62300000Y-82200000D03*
X62300000Y-84200000D03*
D14*
X51400000Y-71800000D03*
X51400000Y-67800000D03*
X48100000Y-67800000D03*
X48100000Y-71800000D03*
X51400000Y-79400000D03*
X51400000Y-83400000D03*
X48100000Y-83400000D03*
X48100000Y-79400000D03*
D12*
X106800000Y-104000000D03*
X106800000Y-106000000D03*
X114400000Y-118800000D03*
X114400000Y-120800000D03*
D14*
X103400000Y-120400000D03*
X103400000Y-116400000D03*
X103400000Y-104600000D03*
X103400000Y-108600000D03*
D15*
X110800000Y-122600000D03*
X106800000Y-122600000D03*
D14*
X121000000Y-108800000D03*
X121000000Y-104800000D03*
D15*
X110800000Y-119400000D03*
X106800000Y-119400000D03*
D14*
X117800000Y-108800000D03*
X117800000Y-104800000D03*
D13*
X63550000Y-28450000D03*
X65550000Y-28450000D03*
X42550000Y-28450000D03*
X40550000Y-28450000D03*
X73250000Y-41250000D03*
X71250000Y-41250000D03*
X50750000Y-41250000D03*
X48750000Y-41250000D03*
X38800000Y-44600000D03*
X36800000Y-44600000D03*
X38800000Y-38600000D03*
X36800000Y-38600000D03*
D12*
X79400000Y-46800000D03*
X79400000Y-48800000D03*
D13*
X89600000Y-61600000D03*
X87600000Y-61600000D03*
D14*
X76100000Y-51200000D03*
X76100000Y-47200000D03*
X72800000Y-47200000D03*
X72800000Y-51200000D03*
X76100000Y-59200000D03*
X76100000Y-63200000D03*
X72800000Y-63200000D03*
X72800000Y-59200000D03*
D12*
X33375000Y-103900000D03*
X33375000Y-105900000D03*
X46525000Y-113475000D03*
X46525000Y-115475000D03*
D14*
X35400000Y-120600000D03*
X35400000Y-116600000D03*
X36150000Y-98825000D03*
X36150000Y-102825000D03*
X43900000Y-116600000D03*
X43900000Y-120600000D03*
X41400000Y-102900000D03*
X41400000Y-98900000D03*
X40700000Y-116600000D03*
X40700000Y-120600000D03*
X44600000Y-102900000D03*
X44600000Y-98900000D03*
D12*
X35600000Y-67500000D03*
X35600000Y-69500000D03*
X43300000Y-82200000D03*
X43300000Y-84200000D03*
D14*
X32300000Y-71800000D03*
X32300000Y-67800000D03*
X29000000Y-67800000D03*
X29000000Y-71800000D03*
X32300000Y-79400000D03*
X32300000Y-83400000D03*
X29000000Y-83400000D03*
X29000000Y-79400000D03*
D12*
X47600000Y-104025000D03*
X47600000Y-106025000D03*
X60700000Y-113625000D03*
X60700000Y-115625000D03*
D14*
X49550000Y-120600000D03*
X49550000Y-116600000D03*
X50250000Y-98925000D03*
X50250000Y-102925000D03*
X58075000Y-116600000D03*
X58075000Y-120600000D03*
X58850000Y-102925000D03*
X58850000Y-98925000D03*
X54875000Y-116600000D03*
X54875000Y-120600000D03*
X55650000Y-102925000D03*
X55650000Y-98925000D03*
D13*
X72350000Y-28450000D03*
X74350000Y-28450000D03*
X84150000Y-41250000D03*
X82150000Y-41250000D03*
M02*
